<?xml version="1.0" encoding="UTF-8"?>
<svg id="Layer_2" data-name="Layer 2" xmlns="http://www.w3.org/2000/svg" viewBox="0 0 200.81 414.73">
  <defs>
    <style>
      .cls-1 {
        fill: none;
      }

      .cls-2 {
        fill: #d36d38;
      }

      .cls-3 {
        fill: #76e4e5;
      }

      .cls-4 {
        fill: #fff;
      }

      .cls-5 {
        fill: #fff45a;
      }

      .cls-6 {
        opacity: .3;
      }

      .cls-7 {
        opacity: .3;
      }

      .cls-8 {
        fill: #ff5fac;
      }
    </style>
  </defs>
  <g id="Layer_1-2" data-name="Layer 1">
    <g>
      <g>
        <polygon class="cls-8" points="200.81 177.1 6.27 414.29 200.81 414.29 200.81 177.1"/>
        <polygon class="cls-8" points="200.81 414.21 6.44 414.21 200.81 177.22 200.81 176.97 6.2 414.24 6.09 414.37 200.81 414.37 200.81 414.21"/>
      </g>
      <g class="cls-6">
        <polygon class="cls-4" points="136.58 371.48 131.4 376.7 108.27 353.38 113.45 348.16 136.58 371.48"/>
        <polygon class="cls-4" points="80.68 400.19 77.43 406.82 48.12 392.21 48.94 390.53 51.36 385.58 52.46 386.13 80.68 400.19"/>
        <rect class="cls-4" x="92.7" y="386.25" width="23.39" height="5.28"/>
        <polygon class="cls-4" points="150.74 408.26 145.55 413.48 122.43 390.16 127.61 384.94 150.74 408.26"/>
        <polygon class="cls-4" points="89.22 402.23 82.17 404.22 73.36 372.46 80.42 370.47 89.22 402.23"/>
        <rect class="cls-4" x="173.72" y="379.77" width="5.25" height="23.59"/>
        <polygon class="cls-4" points="200.49 388.19 200.49 396.43 200.39 396.38 192 392.21 195.25 385.58 200.37 388.13 200.49 388.19"/>
        <polygon class="cls-4" points="200.15 411.83 198.23 414.73 189.42 414.73 194.05 407.73 200.15 411.83"/>
        <polygon class="cls-4" points="176.04 387.02 172.33 390.76 155.79 374.09 159.5 370.35 173.72 384.69 176.04 387.02"/>
        <polygon class="cls-4" points="200.49 388.19 200.49 396.43 200.39 396.38 192 392.21 195.25 385.58 200.37 388.13 200.49 388.19"/>
        <polygon class="cls-4" points="56.26 411.83 54.34 414.73 45.54 414.73 50.16 407.73 56.26 411.83"/>
        <polygon class="cls-4" points="80.68 400.19 77.43 406.82 48.12 392.21 48.94 390.53 51.36 385.58 52.46 386.13 80.68 400.19"/>
        <polygon class="cls-4" points="200.49 270.7 200.49 281.16 199.99 280.66 194.37 275 199.56 269.77 200.49 270.7"/>
        <polygon class="cls-4" points="161.17 287.06 154.12 289.06 147.95 266.82 153.6 259.77 161.17 287.06"/>
        <polygon class="cls-4" points="182.9 325.36 142.76 335.52 140.5 326.44 180.64 316.29 182.9 325.36"/>
        <polygon class="cls-4" points="200.49 248.2 200.49 258.65 199.91 258.07 180.22 238.22 185.4 232.98 199.88 247.59 200.49 248.2"/>
        <polygon class="cls-4" points="152.63 285.02 149.38 291.65 134.15 284.07 138.88 278.17 152.63 285.02"/>
        <rect class="cls-4" x="164.65" y="271.08" width="23.39" height="5.28"/>
        <polygon class="cls-4" points="200.49 270.7 200.49 281.16 199.99 280.66 194.37 275 199.56 269.77 200.49 270.7"/>
        <polygon class="cls-4" points="128.21 296.66 110.09 324.11 104.89 320.63 125.52 294.86 128.21 296.66"/>
        <polygon class="cls-4" points="50.16 407.73 56.26 411.83 54.34 414.73 45.54 414.73 50.16 407.73"/>
        <polygon class="cls-4" points="52.46 386.13 80.68 400.19 77.43 406.82 48.12 392.21 48.94 390.53 52.46 386.13"/>
        <polygon class="cls-4" points="80.42 370.47 89.22 402.23 82.17 404.22 73.36 372.46 80.42 370.47"/>
        <rect class="cls-4" x="92.7" y="386.25" width="23.39" height="5.28"/>
        <polygon class="cls-4" points="128.21 296.66 110.09 324.11 104.89 320.63 125.52 294.86 128.21 296.66"/>
        <polygon class="cls-4" points="113.45 348.16 136.58 371.48 131.4 376.7 108.27 353.38 113.45 348.16"/>
        <polygon class="cls-4" points="127.61 384.94 150.74 408.26 145.55 413.48 122.43 390.16 127.61 384.94"/>
        <polygon class="cls-4" points="152.63 285.02 149.38 291.65 134.15 284.07 138.88 278.17 152.63 285.02"/>
        <polygon class="cls-4" points="161.17 287.06 154.12 289.06 147.95 266.82 153.6 259.77 161.17 287.06"/>
        <polygon class="cls-4" points="173.72 379.77 178.97 379.77 178.97 403.35 173.72 403.35 173.72 389.36 172.33 390.76 155.79 374.09 159.5 370.35 173.72 384.69 173.72 379.77"/>
        <polygon class="cls-4" points="180.64 316.29 182.9 325.36 142.76 335.52 140.5 326.44 180.64 316.29"/>
        <rect class="cls-4" x="164.65" y="271.08" width="23.39" height="5.28"/>
        <polygon class="cls-4" points="199.91 258.07 180.22 238.22 185.4 232.98 199.88 247.59 199.91 258.07"/>
        <polygon class="cls-4" points="199.56 269.77 199.95 270.17 199.99 280.66 194.37 275 199.56 269.77"/>
        <polygon class="cls-4" points="194.05 407.73 200.15 411.83 198.23 414.73 189.42 414.73 194.05 407.73"/>
        <polygon class="cls-4" points="195.25 385.58 200.37 388.13 200.39 396.38 192 392.21 195.25 385.58"/>
      </g>
      <g>
        <polygon class="cls-2" points="0 152.24 0 414.29 29.87 414.29 132.43 284.66 0 152.24"/>
        <polygon class="cls-2" points="0 152.12 0 152.35 132.32 284.67 29.83 414.21 0 414.21 0 414.37 29.91 414.37 132.49 284.71 132.53 284.66 0 152.12"/>
      </g>
      <g class="cls-7">
        <path class="cls-4" d="M54.57,372.33c0,2.05-1.65,3.7-3.7,3.7s-3.7-1.65-3.7-3.7,1.66-3.7,3.7-3.7,3.7,1.66,3.7,3.7Z"/>
        <path class="cls-4" d="M42.87,379.73c0,2.05-1.66,3.71-3.7,3.71s-3.7-1.66-3.7-3.71,1.65-3.7,3.7-3.7,3.7,1.66,3.7,3.7Z"/>
        <circle class="cls-4" cx="27.46" cy="368.63" r="3.7"/>
        <path class="cls-4" d="M19.46,379.73c0,2.05-1.66,3.71-3.7,3.71s-3.7-1.66-3.7-3.71,1.66-3.7,3.7-3.7,3.7,1.66,3.7,3.7Z"/>
        <path class="cls-4" d="M8.27,372.33c0,2.05-1.65,3.7-3.7,3.7s-3.7-1.65-3.7-3.7,1.66-3.7,3.7-3.7,3.7,1.66,3.7,3.7Z"/>
        <path class="cls-4" d="M41.65,399.63l-2.46,3.11c.15-1.45,1.13-2.65,2.46-3.11Z"/>
        <circle class="cls-4" cx="27.46" cy="403.12" r="3.7"/>
        <path class="cls-4" d="M72.14,361.06l-3.18,4.03c-.01-.12-.02-.25-.02-.37,0-1.88,1.39-3.42,3.2-3.66Z"/>
        <path class="cls-4" d="M7.76,403.12c0,2.04-1.66,3.7-3.7,3.7s-3.71-1.66-3.71-3.7,1.66-3.7,3.71-3.7,3.7,1.66,3.7,3.7Z"/>
        <path class="cls-4" d="M48.96,390.39l-4,5.06c-1.77-.27-3.12-1.8-3.12-3.65,0-2.04,1.65-3.7,3.7-3.7,1.54,0,2.87.95,3.42,2.29Z"/>
        <path class="cls-4" d="M37.53,391.8c0,2.05-1.65,3.7-3.7,3.7s-3.7-1.65-3.7-3.7,1.66-3.7,3.7-3.7,3.7,1.66,3.7,3.7Z"/>
        <path class="cls-4" d="M29.53,383.44c0,2.04-1.66,3.7-3.7,3.7s-3.7-1.66-3.7-3.7,1.66-3.71,3.7-3.71,3.7,1.66,3.7,3.71Z"/>
        <path class="cls-4" d="M14.13,391.8c0,2.05-1.66,3.7-3.71,3.7s-3.7-1.65-3.7-3.7,1.66-3.7,3.7-3.7,3.71,1.66,3.71,3.7Z"/>
        <path class="cls-4" d="M2.42,391.8c0,1.6-1.01,2.94-2.42,3.46v-6.92c1.41.53,2.42,1.87,2.42,3.46Z"/>
        <path class="cls-4" d="M25.75,414.42c-.36-1.68-1.84-2.93-3.62-2.93s-3.26,1.25-3.62,2.93h7.24Z"/>
        <path class="cls-4" d="M14.05,414.42c-.36-1.68-1.84-2.93-3.63-2.93s-3.26,1.25-3.62,2.93h7.24Z"/>
        <circle class="cls-4" cx="18.43" cy="403.12" r="3.7"/>
        <path class="cls-4" d="M72.14,361.06l-3.18,4.03c-.01-.12-.02-.25-.02-.37,0-1.88,1.39-3.42,3.2-3.66Z"/>
        <path class="cls-4" d="M76.35,263.77c0,2.05-1.66,3.71-3.7,3.71s-3.71-1.66-3.71-3.71,1.66-3.7,3.71-3.7,3.7,1.66,3.7,3.7Z"/>
        <path class="cls-4" d="M129.85,282.23c-.41.17-.87.26-1.35.26-2.05,0-3.71-1.65-3.71-3.7,0-.47.09-.92.26-1.34l4.8,4.78Z"/>
        <path class="cls-4" d="M120.49,278.79c0,2.05-1.65,3.7-3.7,3.7s-3.7-1.65-3.7-3.7,1.66-3.7,3.7-3.7,3.7,1.66,3.7,3.7Z"/>
        <path class="cls-4" d="M111.46,271.39c0,2.04-1.66,3.7-3.7,3.7s-3.7-1.66-3.7-3.7,1.65-3.7,3.7-3.7,3.7,1.66,3.7,3.7Z"/>
        <path class="cls-4" d="M97.09,278.79c0,2.05-1.66,3.7-3.71,3.7s-3.7-1.65-3.7-3.7,1.66-3.7,3.7-3.7,3.71,1.66,3.71,3.7Z"/>
        <path class="cls-4" d="M88.05,271.39c0,2.04-1.66,3.7-3.7,3.7s-3.7-1.66-3.7-3.7,1.65-3.7,3.7-3.7,3.7,1.66,3.7,3.7Z"/>
        <path class="cls-4" d="M108.79,302.18c0,2.04-1.66,3.7-3.7,3.7s-3.7-1.66-3.7-3.7,1.65-3.7,3.7-3.7,3.7,1.65,3.7,3.7Z"/>
        <path class="cls-4" d="M93.38,287.16c0,2.04-1.65,3.7-3.7,3.7s-3.7-1.66-3.7-3.7,1.66-3.7,3.7-3.7,3.7,1.66,3.7,3.7Z"/>
        <path class="cls-4" d="M91.75,298.48c0,2.04-1.66,3.7-3.7,3.7s-3.7-1.66-3.7-3.7,1.66-3.71,3.7-3.71,3.7,1.66,3.7,3.71Z"/>
        <circle class="cls-4" cx="99.75" cy="314.25" r="3.7"/>
        <path class="cls-4" d="M88.05,329.26c0,2.05-1.66,3.7-3.7,3.7s-3.7-1.65-3.7-3.7,1.65-3.7,3.7-3.7,3.7,1.66,3.7,3.7Z"/>
        <path class="cls-4" d="M84,346.06l-4.59,5.81c-.87-.68-1.43-1.74-1.43-2.92,0-2.05,1.66-3.7,3.7-3.7.88,0,1.68.3,2.32.81Z"/>
        <path class="cls-4" d="M126.86,290.86c0,.45-.08.88-.23,1.27-.27.76-.78,1.4-1.45,1.83-.58.38-1.28.6-2.02.6-2.04,0-3.7-1.66-3.7-3.7s1.66-3.7,3.7-3.7,3.7,1.66,3.7,3.7Z"/>
        <circle class="cls-4" cx="99.75" cy="290.86" r="3.7"/>
        <path class="cls-4" d="M80.05,290.86c0,2.04-1.66,3.7-3.7,3.7s-3.7-1.66-3.7-3.7,1.65-3.7,3.7-3.7,3.7,1.66,3.7,3.7Z"/>
        <path class="cls-4" d="M112.03,310.6l-3.99,5.05c-.18-.43-.28-.9-.28-1.4,0-2.05,1.65-3.7,3.7-3.7.19,0,.39.01.57.05Z"/>
        <circle class="cls-4" cx="88.05" cy="314.25" r="3.7"/>
        <path class="cls-4" d="M80.05,314.25c0,2.04-1.66,3.7-3.7,3.7s-3.7-1.66-3.7-3.7,1.65-3.7,3.7-3.7,3.7,1.65,3.7,3.7Z"/>
        <path class="cls-4" d="M80.05,337.63c0,2.05-1.66,3.7-3.7,3.7s-3.7-1.65-3.7-3.7,1.65-3.7,3.7-3.7,3.7,1.66,3.7,3.7Z"/>
        <path class="cls-4" d="M72.14,361.06l-3.18,4.03c-.01-.12-.02-.25-.02-.37,0-1.88,1.39-3.42,3.2-3.66Z"/>
        <path class="cls-4" d="M69.98,278.79c0,2.05-1.66,3.7-3.7,3.7s-3.71-1.65-3.71-3.7,1.66-3.7,3.71-3.7,3.7,1.66,3.7,3.7Z"/>
        <path class="cls-4" d="M54.57,271.39c0,2.04-1.65,3.7-3.7,3.7s-3.7-1.66-3.7-3.7,1.66-3.7,3.7-3.7,3.7,1.66,3.7,3.7Z"/>
        <path class="cls-4" d="M42.87,278.79c0,2.05-1.66,3.7-3.7,3.7s-3.7-1.65-3.7-3.7,1.65-3.7,3.7-3.7,3.7,1.66,3.7,3.7Z"/>
        <circle class="cls-4" cx="27.46" cy="267.69" r="3.7"/>
        <circle class="cls-4" cx="15.76" cy="278.79" r="3.7"/>
        <path class="cls-4" d="M8.27,271.39c0,2.04-1.65,3.7-3.7,3.7s-3.7-1.66-3.7-3.7,1.66-3.7,3.7-3.7,3.7,1.66,3.7,3.7Z"/>
        <path class="cls-4" d="M72.65,302.18c0,2.04-1.66,3.7-3.71,3.7s-3.7-1.66-3.7-3.7,1.66-3.7,3.7-3.7,3.71,1.65,3.71,3.7Z"/>
        <path class="cls-4" d="M46.57,302.18c0,2.04-1.66,3.7-3.7,3.7s-3.7-1.66-3.7-3.7,1.65-3.7,3.7-3.7,3.7,1.65,3.7,3.7Z"/>
        <circle class="cls-4" cx="27.46" cy="302.18" r="3.7"/>
        <path class="cls-4" d="M76.35,263.77c0,2.05-1.66,3.71-3.7,3.71s-3.71-1.66-3.71-3.71,1.66-3.7,3.71-3.7,3.7,1.66,3.7,3.7Z"/>
        <path class="cls-4" d="M7.76,302.18c0,2.04-1.66,3.7-3.7,3.7s-3.71-1.66-3.71-3.7,1.66-3.7,3.71-3.7,3.7,1.65,3.7,3.7Z"/>
        <path class="cls-4" d="M66.28,325.56c0,2.05-1.66,3.7-3.71,3.7s-3.7-1.65-3.7-3.7,1.66-3.7,3.7-3.7,3.71,1.66,3.71,3.7Z"/>
        <path class="cls-4" d="M54.57,325.56c0,2.05-1.65,3.7-3.7,3.7s-3.7-1.65-3.7-3.7,1.66-3.7,3.7-3.7,3.7,1.66,3.7,3.7Z"/>
        <path class="cls-4" d="M49.24,337.63c0,2.05-1.66,3.7-3.7,3.7s-3.7-1.65-3.7-3.7,1.65-3.7,3.7-3.7,3.7,1.66,3.7,3.7Z"/>
        <circle class="cls-4" cx="15.76" cy="325.56" r="3.7"/>
        <path class="cls-4" d="M7.76,325.56c0,2.05-1.66,3.7-3.7,3.7s-3.71-1.65-3.71-3.7,1.66-3.7,3.71-3.7,3.7,1.66,3.7,3.7Z"/>
        <path class="cls-4" d="M66.28,348.95c0,2.04-1.66,3.7-3.71,3.7s-3.7-1.66-3.7-3.7,1.66-3.7,3.7-3.7,3.71,1.65,3.71,3.7Z"/>
        <path class="cls-4" d="M54.57,348.95c0,2.04-1.65,3.7-3.7,3.7s-3.7-1.66-3.7-3.7,1.66-3.7,3.7-3.7,3.7,1.65,3.7,3.7Z"/>
        <path class="cls-4" d="M42.87,348.95c0,2.04-1.66,3.7-3.7,3.7s-3.7-1.66-3.7-3.7,1.65-3.7,3.7-3.7,3.7,1.65,3.7,3.7Z"/>
        <path class="cls-4" d="M25.83,352.65c0,2.04-1.66,3.7-3.7,3.7s-3.7-1.66-3.7-3.7,1.65-3.7,3.7-3.7,3.7,1.65,3.7,3.7Z"/>
        <path class="cls-4" d="M11.98,357.32c0,2.04-1.66,3.7-3.71,3.7s-3.7-1.66-3.7-3.7,1.66-3.71,3.7-3.71,3.71,1.66,3.71,3.71Z"/>
        <circle class="cls-4" cx="57.24" cy="290.86" r="3.7"/>
        <path class="cls-4" d="M49.24,290.86c0,2.04-1.66,3.7-3.7,3.7s-3.7-1.66-3.7-3.7,1.65-3.7,3.7-3.7,3.7,1.66,3.7,3.7Z"/>
        <path class="cls-4" d="M37.53,290.86c0,2.04-1.65,3.7-3.7,3.7s-3.7-1.66-3.7-3.7,1.66-3.7,3.7-3.7,3.7,1.66,3.7,3.7Z"/>
        <path class="cls-4" d="M29.53,282.49c0,2.05-1.66,3.7-3.7,3.7s-3.7-1.65-3.7-3.7,1.66-3.7,3.7-3.7,3.7,1.66,3.7,3.7Z"/>
        <path class="cls-4" d="M14.13,290.86c0,2.04-1.66,3.7-3.71,3.7s-3.7-1.66-3.7-3.7,1.66-3.7,3.7-3.7,3.71,1.66,3.71,3.7Z"/>
        <path class="cls-4" d="M2.42,290.86c0,1.59-1.01,2.94-2.42,3.46v-6.92c1.41.52,2.42,1.87,2.42,3.46Z"/>
        <circle class="cls-4" cx="60.94" cy="314.25" r="3.7"/>
        <path class="cls-4" d="M49.24,314.25c0,2.04-1.66,3.7-3.7,3.7s-3.7-1.66-3.7-3.7,1.65-3.7,3.7-3.7,3.7,1.65,3.7,3.7Z"/>
        <path class="cls-4" d="M34.87,321.86c0,2.04-1.66,3.7-3.71,3.7s-3.7-1.66-3.7-3.7,1.66-3.7,3.7-3.7,3.71,1.66,3.71,3.7Z"/>
        <path class="cls-4" d="M25.83,314.25c0,2.04-1.66,3.7-3.7,3.7s-3.7-1.66-3.7-3.7,1.65-3.7,3.7-3.7,3.7,1.65,3.7,3.7Z"/>
        <path class="cls-4" d="M14.13,314.25c0,2.04-1.66,3.7-3.71,3.7s-3.7-1.66-3.7-3.7,1.66-3.7,3.7-3.7,3.71,1.65,3.71,3.7Z"/>
        <circle class="cls-4" cx="57.24" cy="337.63" r="3.7"/>
        <circle class="cls-4" cx="18.43" cy="302.18" r="3.7"/>
        <path class="cls-4" d="M37.53,337.63c0,2.05-1.65,3.7-3.7,3.7s-3.7-1.65-3.7-3.7,1.66-3.7,3.7-3.7,3.7,1.66,3.7,3.7Z"/>
        <path class="cls-4" d="M25.83,337.63c0,2.05-1.66,3.7-3.7,3.7s-3.7-1.65-3.7-3.7,1.65-3.7,3.7-3.7,3.7,1.66,3.7,3.7Z"/>
        <path class="cls-4" d="M60.94,361.02c0,2.04-1.66,3.7-3.7,3.7s-3.7-1.66-3.7-3.7,1.66-3.7,3.7-3.7,3.7,1.65,3.7,3.7Z"/>
        <path class="cls-4" d="M37.53,361.02c0,2.04-1.65,3.7-3.7,3.7s-3.7-1.66-3.7-3.7,1.66-3.7,3.7-3.7,3.7,1.65,3.7,3.7Z"/>
        <path class="cls-4" d="M14.13,337.63c0,2.05-1.66,3.7-3.71,3.7s-3.7-1.65-3.7-3.7,1.66-3.7,3.7-3.7,3.71,1.66,3.71,3.7Z"/>
        <path class="cls-4" d="M76.35,263.77c0,2.05-1.66,3.71-3.7,3.71s-3.71-1.66-3.71-3.71,1.66-3.7,3.71-3.7,3.7,1.66,3.7,3.7Z"/>
        <path class="cls-4" d="M106.29,258.81c-.86-.37-1.54-1.06-1.92-1.91l1.92,1.91Z"/>
        <path class="cls-4" d="M96.82,249.39c-.55,1.36-1.88,2.32-3.44,2.32-2.04,0-3.7-1.66-3.7-3.71,0-1.55.95-2.87,2.3-3.42l4.84,4.81Z"/>
        <path class="cls-4" d="M85.38,248c0,2.05-1.66,3.71-3.7,3.71s-3.7-1.66-3.7-3.71,1.66-3.7,3.7-3.7,3.7,1.66,3.7,3.7Z"/>
        <path class="cls-4" d="M80.05,236.69c0,2.04-1.66,3.7-3.7,3.7s-3.7-1.66-3.7-3.7,1.65-3.7,3.7-3.7,3.7,1.65,3.7,3.7Z"/>
        <circle class="cls-4" cx="88.05" cy="260.07" r="3.7"/>
        <path class="cls-4" d="M76.35,263.77c0,2.05-1.66,3.71-3.7,3.71s-3.71-1.66-3.71-3.71,1.66-3.7,3.71-3.7,3.7,1.66,3.7,3.7Z"/>
        <path class="cls-4" d="M19.46,177.85c0,2.04-1.66,3.7-3.7,3.7s-3.7-1.66-3.7-3.7,1.66-3.7,3.7-3.7,3.7,1.66,3.7,3.7Z"/>
        <circle class="cls-4" cx="4.57" cy="170.45" r="3.7"/>
        <path class="cls-4" d="M46.57,201.23c0,2.05-1.66,3.71-3.7,3.71s-3.7-1.66-3.7-3.71,1.65-3.7,3.7-3.7,3.7,1.66,3.7,3.7Z"/>
        <path class="cls-4" d="M31.16,201.23c0,2.05-1.65,3.71-3.7,3.71s-3.7-1.66-3.7-3.71,1.66-3.7,3.7-3.7,3.7,1.66,3.7,3.7Z"/>
        <path class="cls-4" d="M7.76,201.23c0,2.05-1.66,3.71-3.7,3.71s-3.71-1.66-3.71-3.71,1.66-3.7,3.71-3.7,3.7,1.66,3.7,3.7Z"/>
        <path class="cls-4" d="M66.28,224.62c0,2.04-1.66,3.7-3.71,3.7s-3.7-1.66-3.7-3.7,1.66-3.7,3.7-3.7,3.71,1.66,3.71,3.7Z"/>
        <path class="cls-4" d="M54.57,224.62c0,2.04-1.65,3.7-3.7,3.7s-3.7-1.66-3.7-3.7,1.66-3.7,3.7-3.7,3.7,1.66,3.7,3.7Z"/>
        <path class="cls-4" d="M49.24,236.69c0,2.04-1.66,3.7-3.7,3.7s-3.7-1.66-3.7-3.7,1.65-3.7,3.7-3.7,3.7,1.65,3.7,3.7Z"/>
        <circle class="cls-4" cx="15.76" cy="224.62" r="3.7"/>
        <path class="cls-4" d="M7.76,224.62c0,2.04-1.66,3.7-3.7,3.7s-3.71-1.66-3.71-3.7,1.66-3.7,3.71-3.7,3.7,1.66,3.7,3.7Z"/>
        <path class="cls-4" d="M66.28,248c0,2.05-1.66,3.71-3.71,3.71s-3.7-1.66-3.7-3.71,1.66-3.7,3.7-3.7,3.71,1.66,3.71,3.7Z"/>
        <path class="cls-4" d="M54.57,248c0,2.05-1.65,3.71-3.7,3.71s-3.7-1.66-3.7-3.71,1.66-3.7,3.7-3.7,3.7,1.66,3.7,3.7Z"/>
        <path class="cls-4" d="M42.87,248c0,2.05-1.66,3.71-3.7,3.71s-3.7-1.66-3.7-3.71,1.65-3.7,3.7-3.7,3.7,1.66,3.7,3.7Z"/>
        <path class="cls-4" d="M25.83,251.71c0,2.04-1.66,3.7-3.7,3.7s-3.7-1.66-3.7-3.7,1.65-3.71,3.7-3.71,3.7,1.66,3.7,3.71Z"/>
        <path class="cls-4" d="M11.98,256.37c0,2.05-1.66,3.7-3.71,3.7s-3.7-1.65-3.7-3.7,1.66-3.7,3.7-3.7,3.71,1.66,3.71,3.7Z"/>
        <path class="cls-4" d="M37.49,190.42c-.24,1.8-1.78,3.2-3.66,3.2-2.04,0-3.7-1.66-3.7-3.7,0-1.87,1.39-3.41,3.18-3.66l4.18,4.16Z"/>
        <path class="cls-4" d="M29.43,182.4c-.39,1.63-1.85,2.85-3.6,2.85-2.04,0-3.7-1.66-3.7-3.7,0-1.74,1.21-3.21,2.83-3.59l4.47,4.44Z"/>
        <path class="cls-4" d="M14.13,189.92c0,2.04-1.66,3.7-3.71,3.7s-3.7-1.66-3.7-3.7,1.66-3.7,3.7-3.7,3.71,1.65,3.71,3.7Z"/>
        <path class="cls-4" d="M2.42,189.92c0,1.59-1.01,2.94-2.42,3.46v-6.92c1.41.52,2.42,1.87,2.42,3.46Z"/>
        <path class="cls-4" d="M63.35,216.12c-.65.55-1.49.88-2.41.88-2.04,0-3.7-1.65-3.7-3.7,0-.91.34-1.75.87-2.39l5.24,5.21Z"/>
        <path class="cls-4" d="M49.24,213.3c0,2.05-1.66,3.7-3.7,3.7s-3.7-1.65-3.7-3.7,1.65-3.7,3.7-3.7,3.7,1.66,3.7,3.7Z"/>
        <path class="cls-4" d="M34.87,220.92c0,2.04-1.66,3.7-3.71,3.7s-3.7-1.66-3.7-3.7,1.66-3.7,3.7-3.7,3.71,1.65,3.71,3.7Z"/>
        <path class="cls-4" d="M25.83,213.3c0,2.05-1.66,3.7-3.7,3.7s-3.7-1.65-3.7-3.7,1.65-3.7,3.7-3.7,3.7,1.66,3.7,3.7Z"/>
        <path class="cls-4" d="M14.13,213.3c0,2.05-1.66,3.7-3.71,3.7s-3.7-1.65-3.7-3.7,1.66-3.7,3.7-3.7,3.71,1.66,3.71,3.7Z"/>
        <circle class="cls-4" cx="57.24" cy="236.69" r="3.7"/>
        <path class="cls-4" d="M22.13,201.23c0,2.05-1.66,3.71-3.7,3.71s-3.7-1.66-3.7-3.71,1.65-3.7,3.7-3.7,3.7,1.66,3.7,3.7Z"/>
        <path class="cls-4" d="M37.53,236.69c0,2.04-1.65,3.7-3.7,3.7s-3.7-1.66-3.7-3.7,1.66-3.7,3.7-3.7,3.7,1.65,3.7,3.7Z"/>
        <path class="cls-4" d="M25.83,236.69c0,2.04-1.66,3.7-3.7,3.7s-3.7-1.66-3.7-3.7,1.65-3.7,3.7-3.7,3.7,1.65,3.7,3.7Z"/>
        <circle class="cls-4" cx="57.24" cy="260.07" r="3.7"/>
        <path class="cls-4" d="M37.53,260.07c0,2.05-1.65,3.7-3.7,3.7s-3.7-1.65-3.7-3.7,1.66-3.7,3.7-3.7,3.7,1.66,3.7,3.7Z"/>
        <path class="cls-4" d="M14.13,236.69c0,2.04-1.66,3.7-3.71,3.7s-3.7-1.66-3.7-3.7,1.66-3.7,3.7-3.7,3.71,1.65,3.71,3.7Z"/>
        <path class="cls-4" d="M72.14,361.06l-3.18,4.03c-.01-.12-.02-.25-.02-.37,0-1.88,1.39-3.42,3.2-3.66Z"/>
        <path class="cls-4" d="M0,395.26v-6.92c1.41.53,2.42,1.87,2.42,3.46s-1.01,2.94-2.42,3.46Z"/>
        <path class="cls-4" d="M0,294.32v-6.92c1.41.52,2.42,1.87,2.42,3.46s-1.01,2.94-2.42,3.46Z"/>
        <path class="cls-4" d="M0,193.38v-6.92c1.41.52,2.42,1.87,2.42,3.46s-1.01,2.94-2.42,3.46Z"/>
        <path class="cls-4" d="M7.76,403.12c0,2.04-1.66,3.7-3.7,3.7s-3.71-1.66-3.71-3.7,1.66-3.7,3.71-3.7,3.7,1.66,3.7,3.7Z"/>
        <path class="cls-4" d="M.35,325.56c0-2.04,1.66-3.7,3.71-3.7s3.7,1.66,3.7,3.7-1.66,3.7-3.7,3.7-3.71-1.65-3.71-3.7Z"/>
        <path class="cls-4" d="M4.06,298.48c2.04,0,3.7,1.65,3.7,3.7s-1.66,3.7-3.7,3.7-3.71-1.66-3.71-3.7,1.66-3.7,3.71-3.7Z"/>
        <path class="cls-4" d="M.35,224.62c0-2.04,1.66-3.7,3.71-3.7s3.7,1.66,3.7,3.7-1.66,3.7-3.7,3.7-3.71-1.66-3.71-3.7Z"/>
        <path class="cls-4" d="M7.76,201.23c0,2.05-1.66,3.71-3.7,3.71s-3.71-1.66-3.71-3.71,1.66-3.7,3.71-3.7,3.7,1.66,3.7,3.7Z"/>
        <path class="cls-4" d="M.87,372.33c0-2.04,1.66-3.7,3.7-3.7s3.7,1.66,3.7,3.7-1.65,3.7-3.7,3.7-3.7-1.65-3.7-3.7Z"/>
        <path class="cls-4" d="M.87,271.39c0-2.04,1.66-3.7,3.7-3.7s3.7,1.66,3.7,3.7-1.65,3.7-3.7,3.7-3.7-1.66-3.7-3.7Z"/>
        <circle class="cls-4" cx="4.57" cy="170.45" r="3.7"/>
        <path class="cls-4" d="M8.27,361.02c-2.04,0-3.7-1.66-3.7-3.7s1.66-3.71,3.7-3.71,3.71,1.66,3.71,3.71-1.66,3.7-3.71,3.7Z"/>
        <path class="cls-4" d="M8.27,252.67c2.05,0,3.71,1.66,3.71,3.7s-1.66,3.7-3.71,3.7-3.7-1.65-3.7-3.7,1.66-3.7,3.7-3.7Z"/>
        <path class="cls-4" d="M14.05,414.42c-.36-1.68-1.84-2.93-3.63-2.93s-3.26,1.25-3.62,2.93h7.24Z"/>
        <path class="cls-4" d="M14.13,391.8c0,2.05-1.66,3.7-3.71,3.7s-3.7-1.65-3.7-3.7,1.66-3.7,3.7-3.7,3.71,1.66,3.71,3.7Z"/>
        <path class="cls-4" d="M10.42,341.33c-2.04,0-3.7-1.65-3.7-3.7s1.66-3.7,3.7-3.7,3.71,1.66,3.71,3.7-1.66,3.7-3.71,3.7Z"/>
        <path class="cls-4" d="M6.72,314.25c0-2.05,1.66-3.7,3.7-3.7s3.71,1.65,3.71,3.7-1.66,3.7-3.71,3.7-3.7-1.66-3.7-3.7Z"/>
        <path class="cls-4" d="M10.42,287.16c2.05,0,3.71,1.66,3.71,3.7s-1.66,3.7-3.71,3.7-3.7-1.66-3.7-3.7,1.66-3.7,3.7-3.7Z"/>
        <path class="cls-4" d="M14.13,236.69c0,2.04-1.66,3.7-3.71,3.7s-3.7-1.66-3.7-3.7,1.66-3.7,3.7-3.7,3.71,1.65,3.71,3.7Z"/>
        <path class="cls-4" d="M14.13,213.3c0,2.05-1.66,3.7-3.71,3.7s-3.7-1.65-3.7-3.7,1.66-3.7,3.7-3.7,3.71,1.66,3.71,3.7Z"/>
        <path class="cls-4" d="M10.42,186.22c2.05,0,3.71,1.65,3.71,3.7s-1.66,3.7-3.71,3.7-3.7-1.66-3.7-3.7,1.66-3.7,3.7-3.7Z"/>
        <path class="cls-4" d="M12.06,379.73c0-2.04,1.66-3.7,3.7-3.7s3.7,1.66,3.7,3.7-1.66,3.71-3.7,3.71-3.7-1.66-3.7-3.71Z"/>
        <circle class="cls-4" cx="15.76" cy="325.56" r="3.7"/>
        <circle class="cls-4" cx="15.76" cy="278.79" r="3.7"/>
        <circle class="cls-4" cx="15.76" cy="224.62" r="3.7"/>
        <path class="cls-4" d="M12.06,177.85c0-2.04,1.66-3.7,3.7-3.7s3.7,1.66,3.7,3.7-1.66,3.7-3.7,3.7-3.7-1.66-3.7-3.7Z"/>
        <circle class="cls-4" cx="18.43" cy="403.12" r="3.7"/>
        <circle class="cls-4" cx="18.43" cy="302.18" r="3.7"/>
        <path class="cls-4" d="M18.43,197.53c2.04,0,3.7,1.66,3.7,3.7s-1.66,3.71-3.7,3.71-3.7-1.66-3.7-3.71,1.65-3.7,3.7-3.7Z"/>
        <path class="cls-4" d="M25.75,414.42c-.36-1.68-1.84-2.93-3.62-2.93s-3.26,1.25-3.62,2.93h7.24Z"/>
        <path class="cls-4" d="M18.43,352.65c0-2.05,1.65-3.7,3.7-3.7s3.7,1.65,3.7,3.7-1.66,3.7-3.7,3.7-3.7-1.66-3.7-3.7Z"/>
        <path class="cls-4" d="M18.43,337.63c0-2.04,1.65-3.7,3.7-3.7s3.7,1.66,3.7,3.7-1.66,3.7-3.7,3.7-3.7-1.65-3.7-3.7Z"/>
        <path class="cls-4" d="M25.83,314.25c0,2.04-1.66,3.7-3.7,3.7s-3.7-1.66-3.7-3.7,1.65-3.7,3.7-3.7,3.7,1.65,3.7,3.7Z"/>
        <path class="cls-4" d="M18.43,251.71c0-2.05,1.65-3.71,3.7-3.71s3.7,1.66,3.7,3.71-1.66,3.7-3.7,3.7-3.7-1.66-3.7-3.7Z"/>
        <path class="cls-4" d="M18.43,236.69c0-2.05,1.65-3.7,3.7-3.7s3.7,1.65,3.7,3.7-1.66,3.7-3.7,3.7-3.7-1.66-3.7-3.7Z"/>
        <path class="cls-4" d="M25.83,213.3c0,2.05-1.66,3.7-3.7,3.7s-3.7-1.65-3.7-3.7,1.65-3.7,3.7-3.7,3.7,1.66,3.7,3.7Z"/>
        <path class="cls-4" d="M22.13,383.44c0-2.05,1.66-3.71,3.7-3.71s3.7,1.66,3.7,3.71-1.66,3.7-3.7,3.7-3.7-1.66-3.7-3.7Z"/>
        <path class="cls-4" d="M22.13,282.49c0-2.04,1.66-3.7,3.7-3.7s3.7,1.66,3.7,3.7-1.66,3.7-3.7,3.7-3.7-1.65-3.7-3.7Z"/>
        <path class="cls-4" d="M29.43,182.4c-.39,1.63-1.85,2.85-3.6,2.85-2.04,0-3.7-1.66-3.7-3.7,0-1.74,1.21-3.21,2.83-3.59l4.47,4.44Z"/>
        <circle class="cls-4" cx="27.46" cy="403.12" r="3.7"/>
        <circle class="cls-4" cx="27.46" cy="368.63" r="3.7"/>
        <circle class="cls-4" cx="27.46" cy="302.18" r="3.7"/>
        <circle class="cls-4" cx="27.46" cy="267.69" r="3.7"/>
        <path class="cls-4" d="M27.46,197.53c2.05,0,3.7,1.66,3.7,3.7s-1.65,3.71-3.7,3.71-3.7-1.66-3.7-3.71,1.66-3.7,3.7-3.7Z"/>
        <path class="cls-4" d="M27.46,321.86c0-2.04,1.66-3.7,3.7-3.7s3.71,1.66,3.71,3.7-1.66,3.7-3.71,3.7-3.7-1.66-3.7-3.7Z"/>
        <path class="cls-4" d="M31.16,224.62c-2.04,0-3.7-1.66-3.7-3.7s1.66-3.7,3.7-3.7,3.71,1.65,3.71,3.7-1.66,3.7-3.71,3.7Z"/>
        <path class="cls-4" d="M37.53,391.8c0,2.05-1.65,3.7-3.7,3.7s-3.7-1.65-3.7-3.7,1.66-3.7,3.7-3.7,3.7,1.66,3.7,3.7Z"/>
        <path class="cls-4" d="M30.13,361.02c0-2.05,1.66-3.7,3.7-3.7s3.7,1.65,3.7,3.7-1.65,3.7-3.7,3.7-3.7-1.66-3.7-3.7Z"/>
        <path class="cls-4" d="M30.13,337.63c0-2.04,1.66-3.7,3.7-3.7s3.7,1.66,3.7,3.7-1.65,3.7-3.7,3.7-3.7-1.65-3.7-3.7Z"/>
        <path class="cls-4" d="M37.53,290.86c0,2.04-1.65,3.7-3.7,3.7s-3.7-1.66-3.7-3.7,1.66-3.7,3.7-3.7,3.7,1.66,3.7,3.7Z"/>
        <path class="cls-4" d="M37.53,260.07c0,2.05-1.65,3.7-3.7,3.7s-3.7-1.65-3.7-3.7,1.66-3.7,3.7-3.7,3.7,1.66,3.7,3.7Z"/>
        <path class="cls-4" d="M37.53,236.69c0,2.04-1.65,3.7-3.7,3.7s-3.7-1.66-3.7-3.7,1.66-3.7,3.7-3.7,3.7,1.65,3.7,3.7Z"/>
        <path class="cls-4" d="M37.49,190.42c-.24,1.8-1.78,3.2-3.66,3.2-2.04,0-3.7-1.66-3.7-3.7,0-1.87,1.39-3.41,3.18-3.66l4.18,4.16Z"/>
        <path class="cls-4" d="M41.65,399.63l-2.46,3.11c.15-1.45,1.13-2.65,2.46-3.11Z"/>
        <path class="cls-4" d="M42.87,379.73c0,2.05-1.66,3.71-3.7,3.71s-3.7-1.66-3.7-3.71,1.65-3.7,3.7-3.7,3.7,1.66,3.7,3.7Z"/>
        <path class="cls-4" d="M39.17,352.65c-2.05,0-3.7-1.66-3.7-3.7s1.65-3.7,3.7-3.7,3.7,1.65,3.7,3.7-1.66,3.7-3.7,3.7Z"/>
        <path class="cls-4" d="M42.87,278.79c0,2.05-1.66,3.7-3.7,3.7s-3.7-1.65-3.7-3.7,1.65-3.7,3.7-3.7,3.7,1.66,3.7,3.7Z"/>
        <path class="cls-4" d="M39.17,244.3c2.04,0,3.7,1.66,3.7,3.7s-1.66,3.71-3.7,3.71-3.7-1.66-3.7-3.71,1.65-3.7,3.7-3.7Z"/>
        <path class="cls-4" d="M42.87,305.88c-2.05,0-3.7-1.66-3.7-3.7s1.65-3.7,3.7-3.7,3.7,1.65,3.7,3.7-1.66,3.7-3.7,3.7Z"/>
        <path class="cls-4" d="M39.17,201.23c0-2.04,1.65-3.7,3.7-3.7s3.7,1.66,3.7,3.7-1.66,3.71-3.7,3.71-3.7-1.66-3.7-3.71Z"/>
        <path class="cls-4" d="M41.84,337.63c0-2.04,1.65-3.7,3.7-3.7s3.7,1.66,3.7,3.7-1.66,3.7-3.7,3.7-3.7-1.65-3.7-3.7Z"/>
        <path class="cls-4" d="M41.84,314.25c0-2.05,1.65-3.7,3.7-3.7s3.7,1.65,3.7,3.7-1.66,3.7-3.7,3.7-3.7-1.66-3.7-3.7Z"/>
        <path class="cls-4" d="M41.84,290.86c0-2.04,1.65-3.7,3.7-3.7s3.7,1.66,3.7,3.7-1.66,3.7-3.7,3.7-3.7-1.66-3.7-3.7Z"/>
        <path class="cls-4" d="M49.24,236.69c0,2.04-1.66,3.7-3.7,3.7s-3.7-1.66-3.7-3.7,1.65-3.7,3.7-3.7,3.7,1.65,3.7,3.7Z"/>
        <path class="cls-4" d="M45.54,209.6c2.04,0,3.7,1.66,3.7,3.7s-1.66,3.7-3.7,3.7-3.7-1.65-3.7-3.7,1.65-3.7,3.7-3.7Z"/>
        <path class="cls-4" d="M48.96,390.39l-4,5.06c-1.77-.27-3.12-1.8-3.12-3.65,0-2.04,1.65-3.7,3.7-3.7,1.54,0,2.87.95,3.42,2.29Z"/>
        <path class="cls-4" d="M54.57,372.33c0,2.05-1.65,3.7-3.7,3.7s-3.7-1.65-3.7-3.7,1.66-3.7,3.7-3.7,3.7,1.66,3.7,3.7Z"/>
        <path class="cls-4" d="M47.17,348.95c0-2.05,1.66-3.7,3.7-3.7s3.7,1.65,3.7,3.7-1.65,3.7-3.7,3.7-3.7-1.66-3.7-3.7Z"/>
        <path class="cls-4" d="M47.17,325.56c0-2.04,1.66-3.7,3.7-3.7s3.7,1.66,3.7,3.7-1.65,3.7-3.7,3.7-3.7-1.65-3.7-3.7Z"/>
        <path class="cls-4" d="M50.87,275.09c-2.04,0-3.7-1.66-3.7-3.7s1.66-3.7,3.7-3.7,3.7,1.66,3.7,3.7-1.65,3.7-3.7,3.7Z"/>
        <path class="cls-4" d="M54.57,248c0,2.05-1.65,3.71-3.7,3.71s-3.7-1.66-3.7-3.71,1.66-3.7,3.7-3.7,3.7,1.66,3.7,3.7Z"/>
        <path class="cls-4" d="M50.87,220.92c2.05,0,3.7,1.66,3.7,3.7s-1.65,3.7-3.7,3.7-3.7-1.66-3.7-3.7,1.66-3.7,3.7-3.7Z"/>
        <path class="cls-4" d="M60.94,361.02c0,2.04-1.66,3.7-3.7,3.7s-3.7-1.66-3.7-3.7,1.66-3.7,3.7-3.7,3.7,1.65,3.7,3.7Z"/>
        <circle class="cls-4" cx="57.24" cy="337.63" r="3.7"/>
        <circle class="cls-4" cx="57.24" cy="290.86" r="3.7"/>
        <circle class="cls-4" cx="57.24" cy="260.07" r="3.7"/>
        <circle class="cls-4" cx="57.24" cy="236.69" r="3.7"/>
        <path class="cls-4" d="M63.35,216.12c-.65.55-1.49.88-2.41.88-2.04,0-3.7-1.65-3.7-3.7,0-.91.34-1.75.87-2.39l5.24,5.21Z"/>
        <circle class="cls-4" cx="60.94" cy="314.25" r="3.7"/>
        <path class="cls-4" d="M66.28,348.95c0,2.04-1.66,3.7-3.71,3.7s-3.7-1.66-3.7-3.7,1.66-3.7,3.7-3.7,3.71,1.65,3.71,3.7Z"/>
        <path class="cls-4" d="M66.28,325.56c0,2.05-1.66,3.7-3.71,3.7s-3.7-1.65-3.7-3.7,1.66-3.7,3.7-3.7,3.71,1.66,3.71,3.7Z"/>
        <path class="cls-4" d="M58.87,248c0-2.04,1.66-3.7,3.7-3.7s3.71,1.66,3.71,3.7-1.66,3.71-3.71,3.71-3.7-1.66-3.7-3.71Z"/>
        <path class="cls-4" d="M62.57,220.92c2.05,0,3.71,1.66,3.71,3.7s-1.66,3.7-3.71,3.7-3.7-1.66-3.7-3.7,1.66-3.7,3.7-3.7Z"/>
        <path class="cls-4" d="M66.28,275.09c2.04,0,3.7,1.66,3.7,3.7s-1.66,3.7-3.7,3.7-3.71-1.65-3.71-3.7,1.66-3.7,3.71-3.7Z"/>
        <path class="cls-4" d="M68.94,305.88c-2.04,0-3.7-1.66-3.7-3.7s1.66-3.7,3.7-3.7,3.71,1.65,3.71,3.7-1.66,3.7-3.71,3.7Z"/>
        <path class="cls-4" d="M72.14,361.06l-3.18,4.03c-.01-.12-.02-.25-.02-.37,0-1.88,1.39-3.42,3.2-3.66Z"/>
        <path class="cls-4" d="M68.94,263.77c0-2.04,1.66-3.7,3.71-3.7s3.7,1.66,3.7,3.7-1.66,3.71-3.7,3.71-3.71-1.66-3.71-3.71Z"/>
        <path class="cls-4" d="M76.35,341.33c-2.05,0-3.7-1.65-3.7-3.7s1.65-3.7,3.7-3.7,3.7,1.66,3.7,3.7-1.66,3.7-3.7,3.7Z"/>
        <path class="cls-4" d="M80.05,314.25c0,2.04-1.66,3.7-3.7,3.7s-3.7-1.66-3.7-3.7,1.65-3.7,3.7-3.7,3.7,1.65,3.7,3.7Z"/>
        <path class="cls-4" d="M80.05,290.86c0,2.04-1.66,3.7-3.7,3.7s-3.7-1.66-3.7-3.7,1.65-3.7,3.7-3.7,3.7,1.66,3.7,3.7Z"/>
        <path class="cls-4" d="M72.65,236.69c0-2.05,1.65-3.7,3.7-3.7s3.7,1.65,3.7,3.7-1.66,3.7-3.7,3.7-3.7-1.66-3.7-3.7Z"/>
        <path class="cls-4" d="M84,346.06l-4.59,5.81c-.87-.68-1.43-1.74-1.43-2.92,0-2.05,1.66-3.7,3.7-3.7.88,0,1.68.3,2.32.81Z"/>
        <path class="cls-4" d="M81.68,244.3c2.04,0,3.7,1.66,3.7,3.7s-1.66,3.71-3.7,3.71-3.7-1.66-3.7-3.71,1.66-3.7,3.7-3.7Z"/>
        <path class="cls-4" d="M88.05,329.26c0,2.05-1.66,3.7-3.7,3.7s-3.7-1.65-3.7-3.7,1.65-3.7,3.7-3.7,3.7,1.66,3.7,3.7Z"/>
        <path class="cls-4" d="M84.35,267.69c2.04,0,3.7,1.66,3.7,3.7s-1.66,3.7-3.7,3.7-3.7-1.66-3.7-3.7,1.65-3.7,3.7-3.7Z"/>
        <circle class="cls-4" cx="88.05" cy="314.25" r="3.7"/>
        <path class="cls-4" d="M91.75,298.48c0,2.04-1.66,3.7-3.7,3.7s-3.7-1.66-3.7-3.7,1.66-3.71,3.7-3.71,3.7,1.66,3.7,3.71Z"/>
        <circle class="cls-4" cx="88.05" cy="260.07" r="3.7"/>
        <path class="cls-4" d="M93.38,287.16c0,2.04-1.65,3.7-3.7,3.7s-3.7-1.66-3.7-3.7,1.66-3.7,3.7-3.7,3.7,1.66,3.7,3.7Z"/>
        <path class="cls-4" d="M97.09,278.79c0,2.05-1.66,3.7-3.71,3.7s-3.7-1.65-3.7-3.7,1.66-3.7,3.7-3.7,3.71,1.66,3.71,3.7Z"/>
        <path class="cls-4" d="M96.82,249.39c-.55,1.36-1.88,2.32-3.44,2.32-2.04,0-3.7-1.66-3.7-3.71,0-1.55.95-2.87,2.3-3.42l4.84,4.81Z"/>
        <circle class="cls-4" cx="99.75" cy="314.25" r="3.7"/>
        <circle class="cls-4" cx="99.75" cy="290.86" r="3.7"/>
        <path class="cls-4" d="M106.29,258.81c-.86-.37-1.54-1.06-1.92-1.91l1.92,1.91Z"/>
        <path class="cls-4" d="M108.79,302.18c0,2.04-1.66,3.7-3.7,3.7s-3.7-1.66-3.7-3.7,1.65-3.7,3.7-3.7,3.7,1.65,3.7,3.7Z"/>
        <path class="cls-4" d="M104.06,271.39c0-2.04,1.65-3.7,3.7-3.7s3.7,1.66,3.7,3.7-1.66,3.7-3.7,3.7-3.7-1.66-3.7-3.7Z"/>
        <path class="cls-4" d="M112.03,310.6l-3.99,5.05c-.18-.43-.28-.9-.28-1.4,0-2.05,1.65-3.7,3.7-3.7.19,0,.39.01.57.05Z"/>
        <path class="cls-4" d="M120.49,278.79c0,2.05-1.65,3.7-3.7,3.7s-3.7-1.65-3.7-3.7,1.66-3.7,3.7-3.7,3.7,1.66,3.7,3.7Z"/>
        <path class="cls-4" d="M126.86,290.86c0,.45-.08.88-.23,1.27l-1.45,1.83c-.58.38-1.28.6-2.02.6-2.04,0-3.7-1.66-3.7-3.7s1.66-3.7,3.7-3.7,3.7,1.66,3.7,3.7Z"/>
        <path class="cls-4" d="M129.85,282.23c-.41.17-.87.26-1.35.26-2.05,0-3.71-1.65-3.71-3.7,0-.47.09-.92.26-1.34l4.8,4.78Z"/>
      </g>
      <g>
        <polygon class="cls-5" points="0 .45 0 117.02 200.81 70.86 200.81 .45 0 .45"/>
        <g>
          <polygon class="cls-5" points="0 117.11 200.81 70.94 200.81 70.78 0 116.94 0 117.11"/>
          <rect class="cls-5" x="0" y=".37" width="200.81" height=".16"/>
        </g>
      </g>
      <g class="cls-7">
        <circle class="cls-4" cx="66.28" cy="76.9" r="3.7"/>
        <circle class="cls-4" cx="50.87" cy="69.5" r="3.7"/>
        <circle class="cls-4" cx="39.17" cy="76.9" r="3.7"/>
        <circle class="cls-4" cx="27.46" cy="65.8" r="3.7"/>
        <circle class="cls-4" cx="15.76" cy="76.9" r="3.7"/>
        <circle class="cls-4" cx="4.57" cy="69.5" r="3.7"/>
        <path class="cls-4" d="M72.64,100.09l-7.1,1.65c-.19-.45-.3-.94-.3-1.45,0-2.04,1.66-3.7,3.7-3.7s3.6,1.55,3.7,3.5Z"/>
        <circle class="cls-4" cx="42.87" cy="100.29" r="3.7"/>
        <circle class="cls-4" cx="27.46" cy="100.29" r="3.7"/>
        <circle class="cls-4" cx="72.65" cy="61.89" r="3.7"/>
        <circle class="cls-4" cx="4.06" cy="100.29" r="3.7"/>
        <circle class="cls-4" cx="57.24" cy="88.97" r="3.7"/>
        <circle class="cls-4" cx="45.54" cy="88.97" r="3.7"/>
        <circle class="cls-4" cx="33.83" cy="88.97" r="3.7"/>
        <circle class="cls-4" cx="25.83" cy="80.6" r="3.7"/>
        <circle class="cls-4" cx="10.42" cy="88.97" r="3.7"/>
        <path class="cls-4" d="M.04,85.53v6.89c1.39-.53,2.38-1.87,2.38-3.44s-.99-2.91-2.38-3.44Z"/>
        <path class="cls-4" d="M25.58,111.04l-7.13,1.65c-.02-.11-.02-.22-.02-.33,0-2.04,1.65-3.7,3.7-3.7,1.57,0,2.92.99,3.45,2.38Z"/>
        <path class="cls-4" d="M13.85,113.76c.18-.43.28-.91.28-1.4,0-2.04-1.66-3.7-3.71-3.7s-3.7,1.66-3.7,3.7c0,1.11.49,2.1,1.26,2.77l5.87-1.37Z"/>
        <circle class="cls-4" cx="18.43" cy="100.29" r="3.7"/>
        <circle class="cls-4" cx="72.65" cy="61.89" r="3.7"/>
        <path class="cls-4" d="M175.38,0c.31,1.73,1.81,3.05,3.64,3.05s3.33-1.32,3.64-3.05h-7.27Z"/>
        <path class="cls-4" d="M159.97,0c.31,1.73,1.81,3.05,3.64,3.05s3.33-1.32,3.64-3.05h-7.27Z"/>
        <path class="cls-4" d="M136.56,0c.31,1.73,1.81,3.05,3.64,3.05s3.33-1.32,3.64-3.05h-7.27Z"/>
        <path class="cls-4" d="M122.59,0h-4.19c-.97.67-1.61,1.78-1.61,3.05,0,2.04,1.66,3.7,3.7,3.7s3.7-1.66,3.7-3.7c0-1.27-.64-2.38-1.61-3.05Z"/>
        <path class="cls-4" d="M101.45,0c.31,1.73,1.81,3.05,3.64,3.05s3.33-1.32,3.64-3.05h-7.27Z"/>
        <path class="cls-4" d="M200.81,19.68c-.59-.41-1.31-.65-2.09-.65-2.04,0-3.7,1.66-3.7,3.7s1.66,3.7,3.7,3.7c.78,0,1.49-.24,2.09-.65v-6.1Z"/>
        <circle class="cls-4" cx="187.02" cy="22.73" r="3.7"/>
        <circle class="cls-4" cx="181.68" cy="34.8" r="3.7"/>
        <circle class="cls-4" cx="151.9" cy="22.73" r="3.7"/>
        <circle class="cls-4" cx="140.2" cy="22.73" r="3.7"/>
        <circle class="cls-4" cx="128.5" cy="22.73" r="3.7"/>
        <circle class="cls-4" cx="116.79" cy="22.73" r="3.7"/>
        <circle class="cls-4" cx="99.75" cy="11.42" r="3.7"/>
        <circle class="cls-4" cx="105.09" cy="22.73" r="3.7"/>
        <circle class="cls-4" cx="84.35" cy="26.43" r="3.7"/>
        <path class="cls-4" d="M200.81,43.06c-.59-.41-1.31-.65-2.09-.65-2.04,0-3.7,1.66-3.7,3.7s1.66,3.7,3.7,3.7c.78,0,1.49-.24,2.09-.65v-6.1Z"/>
        <circle class="cls-4" cx="187.02" cy="46.12" r="3.7"/>
        <circle class="cls-4" cx="175.31" cy="46.12" r="3.7"/>
        <circle class="cls-4" cx="158.27" cy="49.82" r="3.7"/>
        <circle class="cls-4" cx="144.42" cy="54.48" r="3.7"/>
        <circle class="cls-4" cx="116.79" cy="46.12" r="3.7"/>
        <circle class="cls-4" cx="107.76" cy="53.52" r="3.7"/>
        <circle class="cls-4" cx="93.38" cy="46.12" r="3.7"/>
        <circle class="cls-4" cx="81.68" cy="46.12" r="3.7"/>
        <circle class="cls-4" cx="197.09" cy="11.42" r="3.7"/>
        <circle class="cls-4" cx="181.68" cy="11.42" r="3.7"/>
        <circle class="cls-4" cx="167.31" cy="19.03" r="3.7"/>
        <circle class="cls-4" cx="158.27" cy="11.42" r="3.7"/>
        <circle class="cls-4" cx="146.57" cy="11.42" r="3.7"/>
        <circle class="cls-4" cx="123.16" cy="11.42" r="3.7"/>
        <circle class="cls-4" cx="111.46" cy="11.42" r="3.7"/>
        <circle class="cls-4" cx="88.05" cy="11.42" r="3.7"/>
        <circle class="cls-4" cx="76.35" cy="11.42" r="3.7"/>
        <circle class="cls-4" cx="193.38" cy="34.8" r="3.7"/>
        <path class="cls-4" d="M150.94,0c.31,1.73,1.81,3.05,3.64,3.05s3.33-1.32,3.64-3.05h-7.27Z"/>
        <circle class="cls-4" cx="169.98" cy="34.8" r="3.7"/>
        <circle class="cls-4" cx="158.27" cy="34.8" r="3.7"/>
        <circle class="cls-4" cx="132.2" cy="42.42" r="3.7"/>
        <circle class="cls-4" cx="120.49" cy="34.8" r="3.7"/>
        <circle class="cls-4" cx="99.75" cy="34.8" r="3.7"/>
        <circle class="cls-4" cx="76.35" cy="34.8" r="3.7"/>
        <circle class="cls-4" cx="193.38" cy="58.19" r="3.7"/>
        <circle class="cls-4" cx="169.98" cy="58.19" r="3.7"/>
        <circle class="cls-4" cx="146.57" cy="34.8" r="3.7"/>
        <circle class="cls-4" cx="124.8" cy="61.89" r="3.7"/>
        <circle class="cls-4" cx="88.05" cy="58.19" r="3.7"/>
        <circle class="cls-4" cx="72.65" cy="61.89" r="3.7"/>
        <path class="cls-4" d="M65.31,0c.31,1.73,1.81,3.05,3.64,3.05s3.33-1.32,3.64-3.05h-7.27Z"/>
        <path class="cls-4" d="M39.23,0c.31,1.73,1.81,3.05,3.64,3.05s3.33-1.32,3.64-3.05h-7.27Z"/>
        <path class="cls-4" d="M23.83,0c.31,1.73,1.82,3.05,3.64,3.05s3.33-1.32,3.64-3.05h-7.27Z"/>
        <path class="cls-4" d="M.42,0c.31,1.73,1.81,3.05,3.64,3.05s3.33-1.32,3.64-3.05H.42Z"/>
        <circle class="cls-4" cx="62.57" cy="22.73" r="3.7"/>
        <circle class="cls-4" cx="50.87" cy="22.73" r="3.7"/>
        <circle class="cls-4" cx="45.54" cy="34.8" r="3.7"/>
        <circle class="cls-4" cx="15.76" cy="22.73" r="3.7"/>
        <circle class="cls-4" cx="4.06" cy="22.73" r="3.7"/>
        <circle class="cls-4" cx="62.57" cy="46.12" r="3.7"/>
        <circle class="cls-4" cx="50.87" cy="46.12" r="3.7"/>
        <circle class="cls-4" cx="39.17" cy="46.12" r="3.7"/>
        <circle class="cls-4" cx="22.13" cy="49.82" r="3.7"/>
        <circle class="cls-4" cx="8.27" cy="54.48" r="3.7"/>
        <circle class="cls-4" cx="60.94" cy="11.42" r="3.7"/>
        <circle class="cls-4" cx="45.54" cy="11.42" r="3.7"/>
        <circle class="cls-4" cx="31.16" cy="19.03" r="3.7"/>
        <circle class="cls-4" cx="22.13" cy="11.42" r="3.7"/>
        <circle class="cls-4" cx="10.42" cy="11.42" r="3.7"/>
        <circle class="cls-4" cx="57.24" cy="34.8" r="3.7"/>
        <path class="cls-4" d="M14.79,0c.31,1.73,1.81,3.05,3.64,3.05s3.33-1.32,3.64-3.05h-7.27Z"/>
        <circle class="cls-4" cx="33.83" cy="34.8" r="3.7"/>
        <circle class="cls-4" cx="22.13" cy="34.8" r="3.7"/>
        <circle class="cls-4" cx="57.24" cy="58.19" r="3.7"/>
        <circle class="cls-4" cx="33.83" cy="58.19" r="3.7"/>
        <circle class="cls-4" cx="10.42" cy="34.8" r="3.7"/>
        <circle class="cls-4" cx="72.65" cy="61.89" r="3.7"/>
        <circle class="cls-4" cx="187.02" cy="69.5" r="3.7"/>
        <path class="cls-4" d="M178.7,75.43l-7.08,1.64s-.01-.11-.01-.16c0-2.05,1.66-3.7,3.7-3.7,1.52,0,2.82.91,3.39,2.22Z"/>
        <circle class="cls-4" cx="163.61" cy="65.8" r="3.7"/>
        <circle class="cls-4" cx="151.9" cy="76.9" r="3.7"/>
        <circle class="cls-4" cx="140.72" cy="69.5" r="3.7"/>
        <circle class="cls-4" cx="128.5" cy="76.9" r="3.7"/>
        <circle class="cls-4" cx="116.79" cy="76.9" r="3.7"/>
        <circle class="cls-4" cx="107.76" cy="69.5" r="3.7"/>
        <circle class="cls-4" cx="93.38" cy="76.9" r="3.7"/>
        <circle class="cls-4" cx="84.35" cy="69.5" r="3.7"/>
        <circle class="cls-4" cx="89.68" cy="85.27" r="3.7"/>
        <path class="cls-4" d="M84.43,97.35c-.05-.24-.08-.5-.08-.76,0-2.04,1.66-3.7,3.7-3.7,1.72,0,3.18,1.19,3.58,2.79l-7.2,1.67Z"/>
        <path class="cls-4" d="M165.08,78.6l-6.78,1.57c.21-1.84,1.78-3.26,3.67-3.26,1.31,0,2.46.67,3.11,1.69Z"/>
        <path class="cls-4" d="M135.82,85.4l-3.38.79c.65-.57,1.49-.92,2.43-.92.33,0,.65.04.95.13Z"/>
        <path class="cls-4" d="M126.58,87.55l-7.11,1.65c-.01-.07-.01-.15-.01-.22,0-2.05,1.66-3.71,3.7-3.71,1.54,0,2.86.94,3.42,2.28Z"/>
        <circle class="cls-4" cx="99.75" cy="88.97" r="3.7"/>
        <circle class="cls-4" cx="76.35" cy="88.97" r="3.7"/>
        <circle class="cls-4" cx="124.8" cy="61.89" r="3.7"/>
      </g>
      <g>
        <polygon class="cls-3" points="0 117.02 0 152.24 132.43 284.66 200.81 201.59 200.81 70.86 0 117.02"/>
        <g>
          <polygon class="cls-3" points="0 152.12 0 152.35 132.43 284.78 200.81 201.72 200.81 201.46 132.42 284.54 0 152.12"/>
          <polygon class="cls-3" points="0 116.94 0 117.11 200.81 70.94 200.81 70.78 0 116.94"/>
        </g>
      </g>
      <g class="cls-7">
        <rect class="cls-4" x="49.79" y="117.42" width="32.45" height="7.28" transform="translate(-70.21 142.4) rotate(-70.3)"/>
        <rect class="cls-4" x="49.79" y="117.42" width="32.45" height="7.28" transform="translate(-70.21 142.4) rotate(-70.3)"/>
        <polygon class="cls-4" points="115.37 90.5 111.11 96.9 105.06 92.88 115.37 90.5"/>
        <rect class="cls-4" x="141.8" y="94.06" width="41.06" height="9.2" transform="translate(-19.12 42.43) rotate(-14.07)"/>
        <polygon class="cls-4" points="57.7 183.22 47.02 199.26 41.78 194.02 51.65 179.19 57.7 183.22"/>
        <rect class="cls-4" x="31.48" y="151.68" width="5.2" height="23.21"/>
        <rect class="cls-4" x="62.14" y="151.62" width="7.27" height="32.45" transform="translate(-113.84 152.43) rotate(-63.7)"/>
        <rect class="cls-4" x="49.79" y="117.42" width="32.45" height="7.28" transform="translate(-70.21 142.4) rotate(-70.3)"/>
        <rect class="cls-4" x="21.13" y="140.84" width="5.2" height="23.21" transform="translate(-100.85 61.43) rotate(-45)"/>
        <rect class="cls-4" x="119.72" y="118.38" width="7.27" height="32.45" transform="translate(-59.05 126.65) rotate(-45)"/>
        <rect class="cls-4" x="62.14" y="151.62" width="7.27" height="32.45" transform="translate(-113.84 152.43) rotate(-63.7)"/>
        <rect class="cls-4" x="49.79" y="117.42" width="32.45" height="7.28" transform="translate(-70.21 142.4) rotate(-70.3)"/>
        <rect class="cls-4" x="93.86" y="158.05" width="23.21" height="5.2"/>
        <polygon class="cls-4" points="153.84 258.66 148.21 265.5 146.06 257.82 153.06 255.86 153.84 258.66"/>
        <polygon class="cls-4" points="138.21 277.64 133.47 283.41 128.93 281.17 122.33 274.57 124.23 270.73 138.21 277.64"/>
        <rect class="cls-4" x="121.18" y="230.75" width="32.45" height="7.28" transform="translate(-129.58 284.75) rotate(-70.3)"/>
        <rect class="cls-4" x="133.76" y="154.59" width="7.27" height="32.45" transform="translate(-80.54 147.18) rotate(-45)"/>
        <rect class="cls-4" x="78.9" y="142.9" width="7.27" height="32.45" transform="translate(-39.81 28.11) rotate(-15.62)"/>
        <rect class="cls-4" x="70.41" y="207.4" width="41.06" height="9.2" transform="translate(-48.82 28.48) rotate(-14.07)"/>
        <rect class="cls-4" x="172.23" y="191.08" width="32.45" height="7.28" transform="translate(-78.05 243.74) rotate(-56.36)"/>
        <rect class="cls-4" x="174.25" y="151.68" width="5.2" height="23.21"/>
        <polygon class="cls-4" points="200.81 159.96 195.61 157.39 192.39 163.92 200.81 168.08 200.81 159.96"/>
        <rect class="cls-4" x="163.9" y="140.84" width="5.2" height="23.21" transform="translate(-59.03 162.39) rotate(-45)"/>
        <polygon class="cls-4" points="200.81 159.96 195.61 157.39 192.39 163.92 200.81 168.08 200.81 159.96"/>
      </g>
      <line class="cls-1" x1="13.85" y1="113.76" x2="7.98" y2="115.13"/>
      <line class="cls-1" x1="91.63" y1="95.68" x2="84.43" y2="97.35"/>
    </g>
  </g>
</svg>