<?xml version="1.0" encoding="UTF-8"?>
<svg id="Layer_2" data-name="Layer 2" xmlns="http://www.w3.org/2000/svg" xmlns:xlink="http://www.w3.org/1999/xlink" viewBox="0 0 2561 1599.36">
  <defs>
    <style>
      .cls-1, .cls-2, .cls-3, .cls-4 {
        fill: none;
      }

      .cls-2 {
        stroke-width: 56.94px;
      }

      .cls-2, .cls-3, .cls-4 {
        stroke: #fff;
      }

      .cls-2, .cls-3, .cls-4, .cls-5, .cls-6, .cls-7, .cls-8 {
        stroke-miterlimit: 10;
      }

      .cls-3 {
        stroke-width: 32.18px;
      }

      .cls-4 {
        stroke-width: 45px;
      }

      .cls-9 {
        fill: url(#New_Pattern);
      }

      .cls-9, .cls-10 {
        opacity: .3;
      }

      .cls-5 {
        fill: #fff45a;
        stroke: #fff45a;
      }

      .cls-11 {
        fill: #fff;
      }

      .cls-6 {
        fill: #ff5fac;
        stroke: #ff5fac;
      }

      .cls-7 {
        fill: #76e4e5;
        stroke: #76e4e5;
      }

      .cls-10 {
        fill: url(#New_Pattern_2);
      }

      .cls-8 {
        fill: #d36d38;
        stroke: #d36d38;
      }
    </style>
    <pattern id="New_Pattern" data-name="New Pattern" x="0" y="0" width="1402.19" height="883.2" patternTransform="translate(597.5 416.5)" patternUnits="userSpaceOnUse" viewBox="0 0 1402.19 883.2">
      <g>
        <rect class="cls-1" y="0" width="1402.19" height="883.2"/>
        <g>
          <line class="cls-4" x1="1367.04" y1="849.37" x2="1556.04" y2="917.04"/>
          <line class="cls-4" x1="997.27" y1="954.18" x2="1139.22" y2="812.23"/>
          <line class="cls-4" x1="1132.55" y1="511.75" x2="1299.67" y2="622.98"/>
          <line class="cls-3" x1="949.89" y1="639.16" x2="1093.47" y2="639.16"/>
        </g>
        <g>
          <line class="cls-4" x1="72.23" y1="599.47" x2="214.18" y2="457.51"/>
          <line class="cls-4" x1="304.32" y1="974.68" x2="393.28" y2="794.71"/>
          <line class="cls-4" x1="-35.15" y1="849.37" x2="153.85" y2="917.04"/>
          <line class="cls-3" x1="304.32" y1="710.94" x2="304.32" y2="567.37"/>
        </g>
        <g>
          <line class="cls-4" x1="1367.04" y1="-33.83" x2="1556.04" y2="33.83"/>
          <line class="cls-4" x1="997.27" y1="70.98" x2="1139.22" y2="-70.98"/>
          <line class="cls-4" x1="1092.66" y1="312.33" x2="899.32" y2="366.4"/>
          <line class="cls-2" x1="1353.94" y1="410.61" x2="1292.17" y2="164.21"/>
        </g>
        <g>
          <line class="cls-4" x1="773.32" y1="157.86" x2="915.28" y2="15.91"/>
          <line class="cls-4" x1="1005.42" y1="533.07" x2="1094.38" y2="353.11"/>
          <line class="cls-4" x1="665.94" y1="407.77" x2="854.95" y2="475.43"/>
          <line class="cls-4" x1="296.17" y1="512.58" x2="438.13" y2="370.62"/>
          <line class="cls-4" x1="391.56" y1="753.94" x2="198.23" y2="808"/>
          <line class="cls-2" x1="652.85" y1="852.21" x2="591.08" y2="605.81"/>
          <line class="cls-4" x1="431.46" y1="70.15" x2="598.58" y2="181.38"/>
          <line class="cls-3" x1="903.89" y1="753.94" x2="1005.42" y2="652.41"/>
          <line class="cls-3" x1="1005.42" y1="269.34" x2="1005.42" y2="125.77"/>
          <line class="cls-3" x1="248.8" y1="197.55" x2="392.37" y2="197.55"/>
        </g>
        <g>
          <line class="cls-4" x1="304.32" y1="91.47" x2="393.28" y2="-88.49"/>
          <line class="cls-4" x1="-35.15" y1="-33.83" x2="153.85" y2="33.83"/>
          <line class="cls-3" x1="202.8" y1="312.33" x2="304.32" y2="210.81"/>
        </g>
      </g>
    </pattern>
    <pattern id="New_Pattern_2" data-name="New Pattern 2" x="0" y="0" width="624.43" height="842.19" patternTransform="translate(597.5 416.5)" patternUnits="userSpaceOnUse" viewBox="0 0 624.43 842.19">
      <g>
        <rect class="cls-1" width="624.43" height="842.19"/>
        <circle class="cls-11" cx="624.43" cy="842.19" r="22.89"/>
        <circle class="cls-11" cy="842.19" r="22.89"/>
        <circle class="cls-11" cx="624.43" cy="0" r="22.89"/>
        <g>
          <circle class="cls-11" cx="92.89" cy="39.4" r="22.89"/>
          <circle class="cls-11" cx="47.11" cy="134.69" r="22.89"/>
          <circle class="cls-11" cx="92.89" cy="207.09" r="22.89"/>
          <circle class="cls-11" cx="24.21" cy="279.49" r="22.89"/>
          <circle class="cls-11" cx="92.89" cy="351.89" r="22.89"/>
          <circle class="cls-11" cx="47.11" cy="421.09" r="22.89"/>
          <circle class="cls-11" cx="92.89" cy="496.69" r="22.89"/>
          <circle class="cls-11" cx="92.89" cy="569.09" r="22.89"/>
          <circle class="cls-11" cx="47.11" cy="624.99" r="22.89"/>
          <circle class="cls-11" cx="92.89" cy="713.89" r="22.89"/>
          <circle class="cls-11" cx="47.11" cy="769.79" r="22.89"/>
          <circle class="cls-11" cx="237.55" cy="22.89" r="22.89"/>
          <circle class="cls-11" cx="237.55" cy="184.2" r="22.89"/>
          <circle class="cls-11" cx="237.55" cy="279.49" r="22.89"/>
          <circle class="cls-11" cy="0" r="22.89"/>
          <circle class="cls-11" cx="237.55" cy="424.29" r="22.89"/>
          <circle class="cls-11" cx="260.45" cy="546.2" r="22.89"/>
          <circle class="cls-11" cx="237.55" cy="641.49" r="22.89"/>
          <circle class="cls-11" cx="144.66" cy="736.79" r="22.89"/>
          <circle class="cls-11" cx="214.66" cy="746.89" r="22.89"/>
          <circle class="cls-11" cx="382.22" cy="62.29" r="22.89"/>
          <circle class="cls-11" cx="382.22" cy="134.69" r="22.89"/>
          <circle class="cls-11" cx="456.88" cy="167.69" r="22.89"/>
          <circle class="cls-11" cx="382.22" cy="351.89" r="22.89"/>
          <circle class="cls-11" cx="382.22" cy="424.29" r="22.89"/>
          <circle class="cls-11" cx="382.22" cy="496.69" r="22.89"/>
          <circle class="cls-11" cx="382.22" cy="569.09" r="22.89"/>
          <circle class="cls-11" cx="312.22" cy="674.49" r="22.89"/>
          <circle class="cls-11" cx="382.22" cy="641.49" r="22.89"/>
          <circle class="cls-11" cx="405.11" cy="769.79" r="22.89"/>
          <circle class="cls-11" cx="526.88" cy="62.29" r="22.89"/>
          <circle class="cls-11" cx="526.88" cy="134.69" r="22.89"/>
          <circle class="cls-11" cx="526.88" cy="207.09" r="22.89"/>
          <circle class="cls-11" cx="549.77" cy="312.49" r="22.89"/>
          <circle class="cls-11" cx="578.64" cy="398.2" r="22.89"/>
          <circle class="cls-11" cx="526.88" cy="569.09" r="22.89"/>
          <circle class="cls-11" cx="572.66" cy="624.99" r="22.89"/>
          <circle class="cls-11" cx="526.88" cy="713.89" r="22.89"/>
          <circle class="cls-11" cx="526.88" cy="786.29" r="22.89"/>
          <circle class="cls-11" cx="167.55" cy="95.29" r="22.89"/>
          <circle class="cls-11" cx="167.55" cy="167.69" r="22.89"/>
          <circle class="cls-11" cx="167.55" cy="240.09" r="22.89"/>
          <circle class="cls-11" cx="115.79" cy="289.6" r="22.89"/>
          <circle class="cls-11" cx="167.55" cy="384.89" r="22.89"/>
          <circle class="cls-11" cx="167.55" cy="457.29" r="22.89"/>
          <circle class="cls-11" cx="167.55" cy="529.69" r="22.89"/>
          <circle class="cls-11" cx="167.55" cy="674.49" r="22.89"/>
          <circle class="cls-11" cx="167.55" cy="819.29" r="22.89"/>
          <circle class="cls-11" cx="312.22" cy="72.4" r="22.89"/>
          <circle class="cls-11" cx="312.22" cy="167.69" r="22.89"/>
          <circle class="cls-11" cx="359.32" cy="256.6" r="22.89"/>
          <circle class="cls-11" cx="312.22" cy="312.49" r="22.89"/>
          <circle class="cls-11" cx="312.22" cy="384.89" r="22.89"/>
          <circle class="cls-11" cx="312.22" cy="529.69" r="22.89"/>
          <circle class="cls-11" cx="312.22" cy="602.09" r="22.89"/>
          <circle class="cls-11" cx="312.22" cy="746.89" r="22.89"/>
          <circle class="cls-11" cx="312.22" cy="819.29" r="22.89"/>
          <circle class="cls-11" cx="456.88" cy="95.29" r="22.89"/>
          <circle class="cls-11" cx="237.55" cy="335.39" r="22.89"/>
          <circle class="cls-11" cx="456.88" cy="240.09" r="22.89"/>
          <circle class="cls-11" cx="456.88" cy="312.49" r="22.89"/>
          <circle class="cls-11" cx="503.98" cy="473.8" r="22.89"/>
          <circle class="cls-11" cx="456.88" cy="546.2" r="22.89"/>
          <circle class="cls-11" cx="456.88" cy="674.49" r="22.89"/>
          <circle class="cls-11" cx="456.88" cy="819.29" r="22.89"/>
          <circle class="cls-11" cx="601.54" cy="95.29" r="22.89"/>
          <circle class="cls-11" cx="601.54" cy="240.09" r="22.89"/>
          <circle class="cls-11" cx="456.88" cy="384.89" r="22.89"/>
          <circle class="cls-11" cx="624.43" cy="519.59" r="22.89"/>
          <circle class="cls-11" cx="601.54" cy="746.89" r="22.89"/>
        </g>
        <circle class="cls-11" cy="519.59" r="22.89"/>
      </g>
    </pattern>
  </defs>
  <g id="Layer_1-2" data-name="Layer 1">
    <g>
      <polygon class="cls-6" points="875.55 .5 2560.5 1382.49 2560.5 .5 875.55 .5"/>
      <polygon class="cls-9" points="875.55 .5 2560.5 1382.49 2560.5 .5 875.55 .5"/>
      <polygon class="cls-8" points="1758.65 602.07 762.35 1598.37 2560.5 1598.37 2560.5 1236.45 1758.65 602.07"/>
      <polygon class="cls-10" points="1758.65 602.07 762.35 1598.37 2560.5 1598.37 2560.5 1236.45 1758.65 602.07"/>
      <polygon class="cls-5" points="395.03 .5 762.35 1598.37 .5 1598.37 .5 .5 395.03 .5"/>
      <polygon class="cls-10" points="395.03 .5 762.35 1598.37 .5 1598.37 .5 .5 395.03 .5"/>
      <polygon class="cls-7" points="395.03 .5 1027.86 .5 1758.65 602.07 762.35 1598.37 395.03 .5"/>
      <polygon class="cls-9" points="395.03 .5 1027.86 .5 1758.65 602.07 762.35 1598.37 395.03 .5"/>
    </g>
  </g>
</svg>