<?xml version="1.0" encoding="UTF-8"?>
<svg id="Layer_2" data-name="Layer 2" xmlns="http://www.w3.org/2000/svg" viewBox="0 0 200.81 379.33">
  <defs>
    <style>
      .cls-1 {
        fill: #fbd0a0;
      }

      .cls-2 {
        fill: #6acf6b;
      }

      .cls-3 {
        fill: #d36d38;
      }

      .cls-4 {
        fill: #319eff;
      }

      .cls-5 {
        fill: #76e4e5;
      }

      .cls-6 {
        fill: #fff;
      }

      .cls-7 {
        fill: #fff45a;
      }

      .cls-8 {
        fill: #ff5fac;
      }

      .cls-9 {
        fill: #161616;
      }
    </style>
  </defs>
  <g id="Layer_1-2" data-name="Layer 1">
    <g>
      <g>
        <path class="cls-6" d="M27.18,233.18c-.34,0-.63-.28-.63-.62s.27-.62.61-.62h.02c.81,0,1.62-.06,2.41-.16.34-.05.66.19.7.53.05.34-.19.66-.53.7-.85.12-1.72.18-2.58.18ZM22.59,232.6c-.05,0-.1,0-.16-.02-.84-.22-1.67-.5-2.47-.83-.32-.13-.47-.5-.34-.81s.5-.47.82-.34c.75.31,1.53.57,2.31.77.33.09.53.43.45.76-.07.28-.33.47-.6.47ZM34.13,231.81c-.25,0-.48-.15-.58-.39-.13-.32.02-.68.34-.81.75-.31,1.48-.67,2.18-1.08.3-.18.68-.08.85.22.17.3.07.68-.22.85-.75.44-1.54.83-2.33,1.16-.08.03-.16.05-.24.05ZM16.2,229.5c-.13,0-.26-.04-.38-.13-.69-.52-1.35-1.1-1.97-1.71-.24-.24-.24-.64,0-.88.24-.24.64-.24.88,0,.57.57,1.19,1.11,1.83,1.6.27.21.33.6.12.87-.12.16-.31.25-.5.25ZM40.04,227.87c-.16,0-.32-.06-.44-.18-.24-.24-.24-.64,0-.88.57-.57,1.11-1.19,1.6-1.83.21-.27.6-.33.87-.12.27.21.33.6.12.87-.53.69-1.1,1.35-1.71,1.96-.12.12-.28.18-.44.18ZM11.48,224.2c-.21,0-.42-.11-.54-.31-.44-.75-.83-1.54-1.16-2.33-.13-.32.02-.68.34-.81.32-.13.68.02.81.34.31.74.67,1.48,1.09,2.18.17.3.07.68-.22.85-.1.06-.21.09-.31.09ZM44,221.97c-.08,0-.16-.02-.24-.05-.32-.13-.47-.5-.33-.82.31-.74.57-1.52.78-2.31.09-.33.42-.54.76-.44.33.09.53.43.45.76-.22.84-.5,1.67-.83,2.47-.1.24-.33.38-.58.38ZM9.14,217.49c-.31,0-.57-.23-.62-.54-.12-.86-.18-1.73-.18-2.6,0-.34.28-.66.62-.66s.62.24.62.59v.07c0,.81.06,1.63.17,2.43.05.34-.19.66-.53.7-.03,0-.06,0-.09,0ZM45.39,214.99c-.34,0-.62-.26-.62-.61v-.04c0-.8-.05-1.61-.16-2.4-.05-.34.19-.66.53-.7.33-.04.66.19.7.53.11.84.17,1.7.17,2.56,0,.34-.28.64-.62.64ZM9.57,210.33c-.05,0-.11,0-.16-.02-.33-.09-.53-.43-.44-.76.22-.84.5-1.67.84-2.47.13-.32.5-.47.82-.33.32.13.47.5.33.82-.31.75-.58,1.52-.78,2.3-.07.28-.33.46-.6.46ZM44.02,208.04c-.25,0-.48-.15-.58-.39-.31-.75-.67-1.48-1.08-2.18-.17-.3-.07-.68.22-.85.3-.18.68-.07.85.22.44.75.83,1.54,1.16,2.34.13.32-.02.68-.34.81-.08.03-.16.05-.24.05ZM12.69,203.95c-.13,0-.26-.04-.38-.13-.27-.21-.33-.6-.12-.87.52-.69,1.1-1.35,1.72-1.96.24-.24.64-.24.88,0,.24.24.24.64,0,.88-.58.57-1.12,1.19-1.6,1.83-.12.16-.31.25-.5.25ZM40.09,202.13c-.16,0-.32-.06-.44-.18-.57-.57-1.19-1.11-1.83-1.6-.27-.21-.33-.6-.12-.87.21-.27.6-.33.87-.12.69.52,1.35,1.1,1.96,1.72.24.24.24.64,0,.88-.12.12-.28.18-.44.18ZM18.01,199.25c-.21,0-.42-.11-.54-.31-.17-.3-.07-.68.22-.85.75-.44,1.54-.83,2.34-1.16.32-.13.68.02.81.34.13.32-.02.68-.34.81-.75.31-1.48.67-2.18,1.08-.1.06-.21.09-.31.09ZM34.2,198.17c-.08,0-.16-.02-.24-.05-.75-.31-1.52-.57-2.31-.78-.33-.09-.53-.43-.45-.76.09-.33.42-.54.76-.44.84.22,1.67.5,2.47.83.32.13.47.5.33.82-.1.24-.33.38-.58.38ZM24.72,196.93c-.31,0-.57-.23-.62-.54-.05-.34.19-.66.53-.7.84-.11,1.69-.17,2.54-.17.34,0,.65.28.65.62s-.25.62-.6.62h-.05c-.8,0-1.6.05-2.38.16-.03,0-.06,0-.08,0Z"/>
        <g>
          <path class="cls-6" d="M13.92,190.57c-.17-.3-.56-.4-.85-.22-.74.43-1.46.91-2.16,1.41-.28.2-.34.59-.14.87.12.17.31.26.51.26.13,0,.25-.04.36-.12.66-.48,1.36-.93,2.06-1.35.3-.17.4-.56.22-.85Z"/>
          <path class="cls-6" d="M22.75,240.58c-.8-.13-1.61-.31-2.4-.52-.34-.09-.67.11-.76.44-.09.33.11.67.44.76.83.22,1.68.4,2.52.54.03,0,.07,0,.1,0,.3,0,.56-.22.61-.52.06-.34-.17-.66-.51-.72Z"/>
          <path class="cls-6" d="M8.4,233.18c-.24-.24-.64-.24-.88,0-.24.24-.24.64,0,.88.6.6,1.24,1.18,1.91,1.73.12.1.26.14.4.14.18,0,.36-.08.48-.23.22-.27.18-.66-.08-.88-.63-.52-1.25-1.08-1.82-1.66Z"/>
          <path class="cls-6" d="M16.11,238.54c-.74-.34-1.47-.72-2.19-1.13-.3-.17-.68-.07-.85.23-.17.3-.07.68.23.85.75.43,1.52.83,2.29,1.18.08.04.17.06.26.06.24,0,.46-.13.57-.36.14-.31,0-.68-.31-.83Z"/>
          <path class="cls-6" d="M8.21,194.83c-.25-.24-.64-.24-.88,0-.6.61-1.17,1.25-1.72,1.92-.22.27-.18.66.09.88.12.09.26.14.39.14.18,0,.36-.08.48-.23.52-.64,1.07-1.25,1.64-1.83.24-.25.24-.64,0-.88Z"/>
          <path class="cls-6" d="M1.49,221.25c-.09-.33-.43-.53-.76-.44-.33.09-.53.43-.44.76.22.83.49,1.65.78,2.45.09.25.33.41.58.41.07,0,.15-.01.22-.04.32-.12.49-.48.37-.8-.28-.76-.53-1.55-.75-2.34Z"/>
          <path class="cls-6" d="M0,210.56c.06.04.13.07.21.08.03,0,.07,0,.1,0,.3,0,.57-.22.62-.53.13-.8.3-1.61.5-2.41.09-.33-.11-.67-.45-.76-.34-.09-.67.12-.76.45-.08.31-.15.62-.22.93v2.23Z"/>
          <path class="cls-6" d="M4.16,227.67c-.17-.3-.55-.4-.85-.23-.3.17-.4.55-.23.85.43.74.9,1.47,1.39,2.17.12.17.31.26.51.26.12,0,.25-.04.36-.12.28-.2.35-.59.15-.87-.47-.67-.92-1.37-1.33-2.07Z"/>
          <path class="cls-6" d="M.7,216.81c-.07-.82-.11-1.64-.11-2.46,0-.33-.26-.6-.59-.62v3.74s.05.01.08.01c.02,0,.04,0,.06,0,.34-.03.6-.33.56-.68Z"/>
          <path class="cls-6" d="M27.6,187.13c0-.34-.28-.62-.62-.62h0c-.86,0-1.72.05-2.57.14-.34.03-.59.34-.56.68.03.32.3.56.62.56.02,0,.04,0,.06,0,.81-.08,1.64-.12,2.46-.13.34,0,.62-.28.62-.63Z"/>
          <path class="cls-6" d="M3.79,200.41c-.3-.17-.68-.06-.85.23-.42.74-.81,1.51-1.17,2.3-.14.31,0,.68.31.82.08.04.17.06.26.06.24,0,.46-.14.57-.37.34-.75.71-1.49,1.11-2.19.17-.3.07-.68-.23-.85Z"/>
          <path class="cls-6" d="M20.53,187.95c-.09-.33-.43-.52-.77-.44-.83.23-1.65.5-2.45.8-.32.12-.48.48-.36.8.09.25.33.4.58.4.07,0,.15-.01.22-.04.76-.29,1.55-.55,2.34-.76.33-.09.53-.44.43-.77Z"/>
          <path class="cls-6" d="M52.22,225.06c-.31-.14-.68,0-.83.31-.34.74-.72,1.48-1.12,2.19-.17.3-.07.68.23.85.1.06.2.08.31.08.22,0,.43-.11.54-.31.42-.74.82-1.51,1.18-2.29.14-.31,0-.68-.31-.83Z"/>
          <path class="cls-6" d="M50.99,201.14c.3-.17.4-.56.22-.85-.43-.74-.91-1.47-1.4-2.16-.2-.28-.59-.34-.87-.14-.28.2-.34.59-.14.87.48.66.93,1.36,1.34,2.06.12.2.32.31.54.31.11,0,.22-.03.31-.09Z"/>
          <path class="cls-6" d="M53.44,207.79c.05,0,.11,0,.16-.02.33-.09.53-.43.44-.77-.23-.83-.49-1.65-.79-2.45-.12-.32-.48-.49-.8-.36-.32.12-.49.48-.36.8.29.76.54,1.55.76,2.34.08.28.33.46.6.46Z"/>
          <path class="cls-6" d="M54.89,211.64c-.03-.34-.36-.59-.68-.56-.34.03-.59.34-.56.68.08.81.12,1.64.12,2.46,0,.34.28.62.62.62h0c.34,0,.62-.28.62-.63,0-.86-.05-1.72-.13-2.57Z"/>
          <path class="cls-6" d="M54.14,218.2c-.33-.06-.66.17-.72.51-.13.8-.3,1.61-.51,2.41-.09.33.11.67.45.76.05.01.11.02.16.02.28,0,.53-.19.6-.47.22-.83.4-1.68.54-2.52.06-.34-.17-.66-.51-.72Z"/>
          <path class="cls-6" d="M47.71,231.26c-.52.63-1.07,1.24-1.65,1.82-.24.24-.24.64,0,.88.12.12.28.18.44.18s.32-.06.44-.18c.61-.61,1.19-1.25,1.73-1.91.22-.27.18-.66-.08-.88-.27-.22-.66-.18-.88.08Z"/>
          <path class="cls-6" d="M34.04,188.63c.28,0,.53-.19.6-.47.09-.33-.11-.67-.45-.76-.83-.21-1.67-.39-2.52-.53-.34-.06-.66.18-.72.52s.17.66.51.72c.81.13,1.62.3,2.41.51.05.01.1.02.16.02Z"/>
          <path class="cls-6" d="M46.75,195.42c.24-.25.24-.64,0-.88-.61-.6-1.25-1.18-1.91-1.72-.27-.22-.66-.18-.88.09-.22.27-.18.66.09.88.63.52,1.25,1.07,1.83,1.65.12.12.28.18.44.18s.32-.06.44-.19Z"/>
          <path class="cls-6" d="M36.48,239.27c-.76.29-1.55.54-2.34.75-.33.09-.53.43-.44.76.07.28.33.46.6.46.05,0,.11,0,.16-.02.83-.22,1.65-.49,2.45-.79.32-.12.49-.48.37-.8-.12-.32-.48-.49-.8-.37Z"/>
          <path class="cls-6" d="M29.71,240.83c-.81.08-1.64.12-2.46.12-.34,0-.62.28-.62.62,0,.34.28.62.62.62h0c.86,0,1.72-.04,2.57-.12.34-.03.59-.34.56-.68-.03-.34-.34-.6-.68-.56Z"/>
          <path class="cls-6" d="M40.63,191.31c.22,0,.43-.11.54-.31.17-.3.07-.68-.23-.85-.74-.42-1.52-.82-2.29-1.17-.31-.14-.68,0-.83.31-.14.31,0,.68.31.83.74.34,1.48.71,2.19,1.12.1.06.2.08.31.08Z"/>
          <path class="cls-6" d="M42.62,236.01c-.66.47-1.36.92-2.07,1.34-.3.17-.4.55-.23.85.12.2.33.31.54.31.11,0,.21-.03.31-.08.74-.43,1.47-.9,2.16-1.4.28-.2.34-.59.14-.87-.2-.28-.59-.35-.87-.14Z"/>
        </g>
        <g>
          <path class="cls-6" d="M20.36,178.76c-.07-.34-.4-.55-.74-.48-.83.17-1.66.38-2.48.61-.33.09-.52.44-.43.77.08.27.33.45.6.45.06,0,.11,0,.17-.02.79-.22,1.6-.42,2.4-.59.34-.07.55-.4.48-.74Z"/>
          <path class="cls-6" d="M22.77,249.69c-.82-.1-1.64-.23-2.44-.39-.33-.06-.67.15-.73.49-.07.34.16.67.49.73.83.16,1.68.3,2.53.4.03,0,.05,0,.08,0,.31,0,.58-.23.62-.55.04-.34-.2-.65-.54-.7Z"/>
          <path class="cls-6" d="M15.95,248.15c-.78-.26-1.55-.55-2.32-.86-.32-.13-.68.02-.81.34-.13.32.02.68.34.81.79.33,1.6.62,2.4.89.07.02.13.03.2.03.26,0,.5-.17.59-.43.11-.33-.07-.68-.4-.79Z"/>
          <path class="cls-6" d="M33.92,179.37c.29,0,.56-.21.61-.51.06-.34-.16-.66-.5-.73-.83-.16-1.68-.29-2.53-.38-.33-.04-.65.2-.69.55-.04.34.21.65.55.69.82.1,1.64.22,2.44.37.04,0,.08.01.12.01Z"/>
          <path class="cls-6" d="M29.77,249.86c-.82.06-1.65.09-2.47.09-.34,0-.62.28-.62.63,0,.34.28.62.62.62h0c.85,0,1.71-.03,2.56-.1.34-.02.6-.32.58-.67-.03-.34-.33-.6-.67-.58Z"/>
          <path class="cls-6" d="M27.45,178.12c0-.34-.28-.62-.62-.62h0c-.85,0-1.71.05-2.56.11-.34.03-.6.33-.57.67.03.33.3.57.62.57.02,0,.03,0,.05,0,.82-.06,1.65-.1,2.47-.11.34,0,.62-.29.62-.63Z"/>
          <path class="cls-6" d="M36.66,248.68c-.79.22-1.6.41-2.4.57-.34.07-.56.4-.49.73.06.3.32.5.61.5.04,0,.08,0,.12-.01.83-.17,1.67-.37,2.49-.59.33-.09.53-.43.44-.77-.09-.33-.43-.53-.77-.44Z"/>
          <path class="cls-6" d="M62.06,207.16c.06.3.32.5.61.5.04,0,.08,0,.13-.01.34-.07.55-.4.49-.74-.17-.83-.37-1.67-.6-2.49-.09-.33-.43-.53-.77-.43-.33.09-.53.44-.43.77.22.79.42,1.6.58,2.4Z"/>
          <path class="cls-6" d="M13.54,180.78c-.13-.32-.5-.46-.82-.33-.78.33-1.56.7-2.32,1.09-.31.16-.43.53-.27.84.11.22.33.34.56.34.1,0,.19-.02.28-.07.73-.38,1.49-.73,2.24-1.05.32-.13.46-.5.33-.82Z"/>
          <path class="cls-6" d="M2.05,239.57c-.24-.24-.64-.24-.88,0-.24.24-.24.64,0,.88.6.6,1.23,1.19,1.88,1.74.12.1.26.15.41.15.17,0,.35-.07.47-.22.22-.26.2-.65-.06-.88-.62-.54-1.23-1.1-1.81-1.68Z"/>
          <path class="cls-6" d="M7.24,184.1c-.19-.28-.58-.36-.87-.16-.7.48-1.39.99-2.06,1.52-.27.21-.32.61-.1.88.12.16.31.24.49.24.14,0,.27-.04.39-.13.64-.51,1.31-1,1.99-1.47.28-.19.36-.58.16-.87Z"/>
          <path class="cls-6" d="M9.57,245.3c-.72-.41-1.42-.85-2.1-1.3-.29-.19-.67-.11-.86.17-.19.29-.11.67.17.86.7.47,1.43.92,2.18,1.34.1.06.2.08.31.08.22,0,.43-.11.54-.31.17-.3.07-.68-.23-.85Z"/>
          <path class="cls-6" d="M60.56,200.86c.08,0,.16-.02.24-.05.32-.13.46-.5.33-.82-.33-.78-.69-1.56-1.08-2.32-.16-.31-.53-.43-.84-.27-.31.16-.43.53-.27.84.37.73.72,1.49,1.04,2.24.1.24.33.38.57.38Z"/>
          <path class="cls-6" d="M57.5,194.5c.29-.19.36-.58.17-.87-.48-.7-.99-1.4-1.51-2.06-.21-.27-.61-.32-.88-.1-.27.21-.32.6-.1.88.51.64,1,1.32,1.46,2,.12.18.32.27.52.27.12,0,.24-.04.35-.11Z"/>
          <path class="cls-6" d="M59.04,231.63c-.3-.17-.68-.06-.85.24-.4.71-.84,1.42-1.29,2.11-.19.29-.11.67.18.86.11.07.22.1.34.1.2,0,.4-.1.52-.28.47-.71.92-1.44,1.34-2.18.17-.3.06-.68-.24-.85Z"/>
          <path class="cls-6" d="M61.8,225.07c-.32-.11-.68.07-.79.4-.25.77-.54,1.56-.85,2.32-.13.32.02.68.34.81.08.03.16.05.24.05.25,0,.48-.15.58-.39.32-.79.62-1.6.88-2.4.11-.33-.07-.68-.4-.79Z"/>
          <path class="cls-6" d="M63.22,218.1c-.33-.04-.65.2-.69.54-.1.82-.23,1.64-.38,2.44-.07.34.16.67.5.73.04,0,.08.01.12.01.29,0,.55-.21.61-.51.16-.83.29-1.68.39-2.53.04-.34-.2-.65-.54-.69Z"/>
          <path class="cls-6" d="M41.33,180.98c.13-.32-.03-.68-.34-.81-.79-.32-1.6-.61-2.41-.88-.33-.11-.68.07-.79.4-.11.33.07.68.4.79.78.25,1.56.54,2.32.85.08.03.16.05.23.05.25,0,.48-.15.58-.39Z"/>
          <path class="cls-6" d="M63.93,211.56c-.03-.34-.34-.61-.67-.57-.34.03-.6.33-.58.67.06.81.1,1.64.1,2.47,0,.34.28.62.62.62h0c.34,0,.62-.28.62-.63,0-.85-.04-1.71-.1-2.56Z"/>
          <path class="cls-6" d="M47.57,184.4c.19-.29.11-.67-.18-.86-.72-.47-1.45-.92-2.19-1.33-.3-.17-.68-.06-.85.24-.17.3-.06.68.24.85.71.4,1.42.83,2.11,1.28.11.07.22.1.34.1.2,0,.4-.1.52-.28Z"/>
          <path class="cls-6" d="M43.19,246.16c-.74.37-1.49.72-2.25,1.04-.32.13-.47.5-.33.82.1.24.33.38.58.38.08,0,.16-.02.24-.05.78-.33,1.56-.69,2.33-1.07.31-.15.43-.53.28-.84-.15-.31-.53-.43-.84-.28Z"/>
          <path class="cls-6" d="M53.03,188.96c.24-.25.24-.64,0-.88-.6-.59-1.24-1.18-1.88-1.73-.26-.22-.65-.19-.88.07-.22.26-.19.65.07.88.63.54,1.24,1.1,1.82,1.67.12.12.28.18.44.18s.32-.06.44-.19Z"/>
          <path class="cls-6" d="M54.16,237.58c-.54.62-1.1,1.23-1.68,1.82-.24.25-.24.64,0,.88.12.12.28.18.44.18s.32-.06.44-.19c.6-.6,1.18-1.24,1.74-1.88.22-.26.2-.65-.07-.88s-.65-.2-.88.06Z"/>
          <path class="cls-6" d="M49.1,242.41c-.65.51-1.32,1-2,1.46-.29.19-.36.58-.17.87.12.18.32.27.52.27.12,0,.24-.03.35-.11.7-.48,1.4-.98,2.07-1.51.27-.21.32-.6.11-.88-.21-.27-.61-.32-.88-.11Z"/>
        </g>
        <g>
          <path class="cls-6" d="M27.4,169.11c0-.34-.32-.59-.63-.62-.85,0-1.71.04-2.54.09-.34.02-.6.32-.58.66.02.33.29.58.62.58.01,0,.03,0,.04,0,.81-.05,1.65-.08,2.48-.09.34,0,.62-.28.62-.63Z"/>
          <path class="cls-6" d="M70.74,204.66c.18.8.33,1.62.47,2.43.05.31.31.52.61.52.03,0,.07,0,.1,0,.34-.06.57-.38.51-.72-.14-.83-.3-1.67-.48-2.5-.07-.34-.41-.55-.74-.47-.34.07-.55.41-.47.74Z"/>
          <path class="cls-6" d="M22.78,258.75c-.82-.08-1.64-.18-2.46-.31-.33-.05-.66.18-.71.52-.05.34.18.66.52.71.84.13,1.69.24,2.53.32.02,0,.04,0,.06,0,.32,0,.59-.24.62-.56.03-.34-.22-.65-.56-.68Z"/>
          <path class="cls-6" d="M41.4,171.39c.1-.33-.08-.68-.41-.78-.8-.25-1.63-.49-2.45-.7-.34-.08-.67.12-.76.45-.08.33.12.67.45.76.8.2,1.6.43,2.38.68.06.02.13.03.19.03.26,0,.51-.17.59-.44Z"/>
          <path class="cls-6" d="M20.31,169.63c-.06-.34-.38-.56-.72-.51-.84.14-1.68.3-2.5.49-.34.08-.55.41-.47.75.07.29.32.49.61.49.05,0,.09,0,.14-.02.8-.18,1.62-.34,2.43-.48.34-.06.57-.38.51-.72Z"/>
          <path class="cls-6" d="M36.74,257.94c-.8.17-1.62.33-2.43.46-.34.05-.57.37-.52.71.05.31.31.52.61.52.03,0,.07,0,.1,0,.84-.13,1.68-.29,2.5-.47.34-.07.55-.41.48-.74-.07-.34-.42-.55-.74-.48Z"/>
          <path class="cls-6" d="M34.49,169.7c.05-.34-.19-.66-.53-.71-.84-.12-1.69-.23-2.53-.3-.33-.03-.65.22-.68.56-.03.34.22.65.56.68.82.08,1.65.17,2.46.29.03,0,.06,0,.09,0,.3,0,.57-.22.62-.53Z"/>
          <path class="cls-6" d="M29.79,258.89c-.81.05-1.65.07-2.48.08-.34,0-.62.28-.62.63,0,.34.28.62.62.62h0c.85,0,1.71-.03,2.54-.08.34-.02.61-.31.59-.66-.02-.34-.32-.6-.66-.59Z"/>
          <path class="cls-6" d="M43.46,255.9c-.77.3-1.55.58-2.33.84-.33.11-.51.46-.4.79.09.26.33.43.59.43.06,0,.13,0,.19-.03.81-.26,1.61-.56,2.4-.86.32-.13.48-.49.35-.81s-.49-.48-.81-.35Z"/>
          <path class="cls-6" d="M6.8,173.95c-.16-.3-.53-.42-.84-.26-.76.4-1.51.82-2.23,1.25-.29.18-.39.56-.21.85.12.2.32.3.54.3.11,0,.22-.03.32-.09.7-.42,1.43-.82,2.16-1.21.3-.16.42-.54.26-.84Z"/>
          <path class="cls-6" d="M15.87,257.52c-.8-.21-1.6-.44-2.38-.69-.33-.1-.68.07-.79.4-.11.33.08.68.4.78.8.26,1.62.5,2.44.71.05.01.11.02.16.02.28,0,.53-.19.6-.47.09-.33-.11-.67-.45-.76Z"/>
          <path class="cls-6" d="M13.39,171.25c-.11-.33-.46-.5-.79-.39-.81.27-1.61.57-2.4.88-.32.13-.48.49-.35.81.1.24.33.39.58.39.08,0,.16-.01.23-.04.76-.3,1.54-.59,2.33-.85.33-.11.5-.46.39-.79Z"/>
          <path class="cls-6" d="M9.25,255.21c-.75-.33-1.5-.69-2.24-1.06-.31-.16-.68-.03-.84.27-.16.31-.03.68.27.84.75.38,1.53.75,2.3,1.09.08.04.17.05.25.05.24,0,.47-.14.57-.37.14-.32,0-.68-.32-.82Z"/>
          <path class="cls-6" d="M3.07,251.9c-.69-.45-1.38-.92-2.04-1.4-.28-.2-.67-.14-.87.14-.2.28-.14.67.14.87.68.49,1.39.98,2.1,1.44.1.07.22.1.34.1.21,0,.41-.1.53-.29.19-.29.1-.68-.19-.86Z"/>
          <path class="cls-6" d="M70.32,200.68c.33-.11.5-.46.4-.79-.27-.8-.56-1.61-.87-2.4-.13-.32-.49-.48-.81-.35-.32.13-.48.49-.35.81.3.77.59,1.55.85,2.33.09.26.33.43.59.43.07,0,.13-.01.2-.03Z"/>
          <path class="cls-6" d="M68.92,231.84c-.31-.14-.68,0-.82.32-.33.76-.68,1.51-1.05,2.24-.16.31-.03.68.28.84.09.05.19.07.28.07.23,0,.45-.13.56-.34.38-.75.74-1.52,1.08-2.3.14-.32,0-.68-.32-.82Z"/>
          <path class="cls-6" d="M67.35,194.16c.1,0,.19-.02.29-.07.31-.16.42-.54.27-.84-.39-.75-.81-1.5-1.24-2.23-.17-.3-.55-.39-.85-.22-.3.18-.39.56-.22.85.42.71.83,1.44,1.2,2.17.11.21.33.34.55.34Z"/>
          <path class="cls-6" d="M71.14,225.09c-.34-.09-.67.12-.76.45-.2.79-.43,1.59-.69,2.38-.1.33.08.68.4.78.06.02.13.03.19.03.26,0,.51-.17.59-.43.26-.81.5-1.64.71-2.45.09-.33-.12-.67-.45-.76Z"/>
          <path class="cls-6" d="M47.95,174.15c.15-.31.03-.68-.28-.84-.76-.38-1.53-.74-2.31-1.07-.31-.14-.68,0-.82.32-.14.32,0,.68.33.82.75.32,1.5.68,2.24,1.04.09.04.18.07.28.07.23,0,.45-.13.56-.34Z"/>
          <path class="cls-6" d="M65.66,238.16c-.29-.19-.68-.1-.86.19-.44.68-.91,1.37-1.39,2.05-.2.28-.14.67.14.87.11.08.24.12.36.12.19,0,.39-.09.51-.26.5-.69.98-1.4,1.43-2.11.19-.29.1-.68-.19-.86Z"/>
          <path class="cls-6" d="M72.27,218.06c-.33-.03-.65.22-.68.56-.08.82-.18,1.65-.3,2.46-.05.34.18.66.52.71.03,0,.06,0,.09,0,.3,0,.57-.22.62-.53.13-.84.23-1.69.31-2.53.03-.34-.22-.65-.56-.68Z"/>
          <path class="cls-6" d="M72.96,211.54c-.02-.34-.32-.6-.66-.59-.34.02-.61.32-.58.66.05.83.08,1.66.08,2.48,0,.34.28.62.62.62h0c.34,0,.62-.28.62-.63,0-.84-.03-1.69-.08-2.54Z"/>
          <path class="cls-6" d="M55.52,248.81c-.63.52-1.29,1.03-1.96,1.52-.28.2-.34.59-.13.87.12.17.31.25.5.25.13,0,.26-.04.37-.12.69-.51,1.37-1.03,2.01-1.56.27-.22.3-.61.08-.88-.22-.27-.61-.3-.88-.08Z"/>
          <path class="cls-6" d="M53.99,177.91c.2-.28.14-.67-.14-.87-.68-.49-1.39-.97-2.11-1.42-.29-.19-.68-.1-.86.19s-.1.68.19.86c.7.44,1.39.91,2.05,1.38.11.08.24.12.36.12.19,0,.39-.09.51-.26Z"/>
          <path class="cls-6" d="M49.77,252.83c-.71.42-1.44.82-2.17,1.2-.31.16-.43.53-.27.84.11.21.33.34.56.34.1,0,.19-.02.28-.07.75-.39,1.5-.8,2.23-1.23.3-.17.4-.56.22-.85-.17-.3-.56-.4-.85-.22Z"/>
          <path class="cls-6" d="M63.96,188c.28-.2.34-.59.13-.87-.5-.68-1.03-1.35-1.57-2.01-.22-.27-.61-.3-.88-.08-.27.22-.3.61-.08.88.53.63,1.04,1.29,1.53,1.95.12.17.31.25.5.25.13,0,.26-.04.37-.12Z"/>
          <path class="cls-6" d="M60.57,243.94c-.55.62-1.12,1.22-1.69,1.81-.24.24-.24.64,0,.88.12.12.28.18.44.18s.32-.06.44-.18c.59-.6,1.18-1.22,1.74-1.86.23-.26.2-.65-.05-.88-.26-.23-.65-.21-.88.05Z"/>
          <path class="cls-6" d="M59.37,182.56c.24-.25.24-.64,0-.88-.6-.59-1.23-1.17-1.86-1.74-.26-.23-.65-.2-.88.06-.23.26-.2.65.06.88.62.55,1.23,1.11,1.81,1.69.12.12.28.18.44.18s.32-.06.44-.19Z"/>
        </g>
        <g>
          <path class="cls-6" d="M27.47,160.1c0-.34-.28-.62-.62-.62h0c-.85,0-1.7.03-2.54.07-.34.02-.61.31-.59.65.02.33.29.59.62.59.01,0,.02,0,.03,0,.82-.04,1.65-.07,2.48-.07.34,0,.62-.28.62-.63Z"/>
          <path class="cls-6" d="M29.77,267.91c-.82.04-1.65.06-2.48.06-.34,0-.62.28-.62.62,0,.34.28.62.62.62h0c.85,0,1.7-.02,2.54-.06.34-.02.61-.31.59-.65-.02-.34-.29-.6-.65-.59Z"/>
          <path class="cls-6" d="M22.75,267.79c-.83-.07-1.65-.15-2.47-.26-.33-.04-.65.2-.7.54-.04.34.2.65.54.7.83.11,1.68.2,2.52.27.02,0,.03,0,.05,0,.32,0,.59-.25.62-.57.03-.34-.23-.64-.57-.67Z"/>
          <path class="cls-6" d="M33.94,161.15c.31,0,.58-.23.62-.55.04-.34-.2-.65-.54-.7-.84-.1-1.68-.19-2.53-.25-.35-.03-.64.23-.67.57-.03.34.23.64.57.67.83.06,1.65.15,2.47.25.03,0,.05,0,.08,0Z"/>
          <path class="cls-6" d="M40.92,162.48c.28,0,.53-.19.6-.47.09-.33-.11-.67-.45-.76-.82-.21-1.64-.41-2.47-.58-.34-.07-.67.14-.74.48-.07.34.14.67.48.74.81.17,1.62.36,2.42.57.05.01.11.02.16.02Z"/>
          <path class="cls-6" d="M43.57,265.43c-.79.25-1.58.49-2.38.7-.33.09-.53.43-.44.76.08.28.33.46.6.46.05,0,.11,0,.16-.02.82-.22,1.63-.46,2.43-.72.33-.1.51-.46.4-.78s-.45-.51-.78-.4Z"/>
          <path class="cls-6" d="M48.24,164.34c.13-.32-.02-.68-.34-.81-.78-.32-1.57-.62-2.37-.9-.32-.12-.68.06-.8.38-.12.32.05.68.38.8.78.28,1.55.57,2.32.88.08.03.16.05.24.05.25,0,.48-.15.58-.39Z"/>
          <path class="cls-6" d="M20.38,160.53c-.05-.34-.37-.58-.7-.53-.84.11-1.68.25-2.51.4-.34.06-.56.39-.5.73.06.3.32.51.61.51.04,0,.08,0,.11-.01.81-.15,1.63-.28,2.45-.39.34-.05.58-.36.53-.7Z"/>
          <path class="cls-6" d="M36.75,267.12c-.81.15-1.63.27-2.45.38-.34.05-.58.36-.54.7.04.31.31.54.62.54.03,0,.05,0,.08,0,.84-.11,1.68-.24,2.51-.39.34-.06.56-.39.5-.72-.06-.34-.39-.56-.72-.5Z"/>
          <path class="cls-6" d="M15.8,266.76c-.81-.18-1.62-.37-2.41-.58-.34-.09-.67.11-.76.44-.09.33.11.67.44.76.82.22,1.64.41,2.47.59.04,0,.09.01.13.01.29,0,.55-.2.61-.49.07-.34-.14-.67-.48-.74Z"/>
          <path class="cls-6" d="M80.74,211.65c.04.82.06,1.65.07,2.48,0,.34.28.62.62.62h0c.34,0,.62-.28.62-.63,0-.85-.03-1.7-.07-2.54-.02-.34-.33-.62-.65-.59-.34.02-.61.31-.59.65Z"/>
          <path class="cls-6" d="M79.93,204.67c.15.81.28,1.63.39,2.45.04.31.31.54.62.54.03,0,.06,0,.08,0,.34-.05.58-.36.54-.7-.11-.84-.25-1.68-.4-2.51-.06-.34-.38-.56-.73-.5-.34.06-.56.39-.5.73Z"/>
          <path class="cls-6" d="M13.4,161.87c-.09-.33-.44-.53-.77-.44-.82.22-1.63.47-2.43.73-.33.11-.51.46-.4.79.08.26.33.43.59.43.06,0,.13,0,.19-.03.79-.25,1.58-.49,2.38-.71.33-.09.53-.43.44-.77Z"/>
          <path class="cls-6" d="M6.66,164.12c-.13-.32-.5-.47-.82-.33-.78.33-1.56.68-2.32,1.04-.31.15-.44.52-.29.83.11.22.33.35.56.35.09,0,.18-.02.27-.06.75-.36,1.5-.7,2.26-1.02.32-.13.47-.5.33-.82Z"/>
          <path class="cls-6" d="M9.05,264.83c-.78-.28-1.55-.58-2.31-.89-.32-.13-.68.02-.81.34-.13.32.02.68.34.81.78.32,1.57.63,2.37.91.07.02.14.04.21.04.26,0,.5-.16.59-.41.12-.32-.05-.68-.38-.8Z"/>
          <path class="cls-6" d="M50.11,262.84c-.75.35-1.5.69-2.27,1.01-.32.13-.47.5-.33.82.1.24.33.38.58.38.08,0,.16-.02.24-.05.78-.33,1.56-.67,2.32-1.03.31-.15.44-.52.3-.83-.15-.31-.52-.44-.83-.3Z"/>
          <path class="cls-6" d="M71.3,244.84c-.47.68-.96,1.35-1.46,2-.21.27-.16.67.12.87.11.09.25.13.38.13.19,0,.37-.08.5-.25.51-.67,1.01-1.36,1.49-2.05.2-.28.12-.67-.16-.87-.28-.2-.67-.12-.87.16Z"/>
          <path class="cls-6" d="M77.21,193.98c.08,0,.16-.02.24-.05.32-.13.47-.5.33-.82-.33-.78-.68-1.56-1.04-2.32-.15-.31-.52-.44-.83-.29-.31.15-.44.52-.3.83.36.75.69,1.5,1.02,2.27.1.24.33.38.58.38Z"/>
          <path class="cls-6" d="M74.35,187.53c.3-.17.4-.56.22-.85-.43-.73-.87-1.45-1.33-2.16-.19-.29-.57-.37-.86-.18-.29.19-.37.57-.18.86.45.69.88,1.4,1.3,2.11.12.2.32.31.54.31.11,0,.21-.03.31-.09Z"/>
          <path class="cls-6" d="M78.5,232c-.33-.12-.68.05-.8.38-.28.78-.58,1.55-.89,2.32-.13.32.02.68.34.81.08.03.16.05.24.05.25,0,.48-.15.58-.39.32-.78.62-1.57.91-2.37.12-.32-.05-.68-.38-.8Z"/>
          <path class="cls-6" d="M81.3,218.1c-.33-.03-.64.23-.67.57-.07.83-.15,1.65-.25,2.47-.04.34.2.65.54.7.03,0,.05,0,.08,0,.31,0,.58-.23.62-.55.11-.84.19-1.68.26-2.52.03-.34-.23-.64-.57-.67Z"/>
          <path class="cls-6" d="M79.53,200.7c.05,0,.11,0,.16-.02.33-.09.53-.43.44-.77-.22-.82-.46-1.63-.72-2.43-.11-.33-.46-.51-.79-.4-.33.11-.51.46-.4.79.25.79.49,1.58.71,2.38.08.28.33.46.6.46Z"/>
          <path class="cls-6" d="M80.36,225.14c-.33-.07-.67.14-.74.48-.17.81-.37,1.62-.58,2.41-.09.33.11.67.45.76.05.01.11.02.16.02.28,0,.53-.19.6-.47.21-.82.41-1.64.59-2.47.07-.34-.14-.67-.48-.74Z"/>
          <path class="cls-6" d="M75.75,238.55c-.31-.16-.68-.04-.84.27-.38.73-.77,1.46-1.18,2.18-.17.3-.07.68.23.85.1.06.21.08.31.08.22,0,.43-.11.54-.31.42-.73.82-1.47,1.21-2.23.16-.31.04-.68-.27-.84Z"/>
          <path class="cls-6" d="M56.25,259.42c-.69.45-1.4.88-2.12,1.3-.3.17-.4.56-.23.85.12.2.33.31.54.31.11,0,.21-.03.31-.08.73-.43,1.46-.87,2.17-1.33.29-.19.37-.57.18-.86-.19-.29-.57-.37-.86-.19Z"/>
          <path class="cls-6" d="M54.58,167.52c.17-.3.07-.68-.23-.85-.73-.42-1.48-.82-2.23-1.21-.31-.16-.68-.03-.84.27-.16.31-.04.68.27.84.74.38,1.46.77,2.18,1.18.1.06.2.08.31.08.22,0,.43-.11.54-.31Z"/>
          <path class="cls-6" d="M70.43,181.6c.27-.21.32-.6.11-.87-.52-.67-1.05-1.33-1.6-1.97-.22-.26-.62-.29-.88-.07-.26.22-.29.62-.07.88.54.63,1.06,1.27,1.57,1.92.12.16.31.24.49.24.13,0,.27-.04.38-.13Z"/>
          <path class="cls-6" d="M60.46,171.51c.21-.27.16-.67-.12-.87-.67-.51-1.36-1.01-2.05-1.49-.29-.2-.67-.12-.87.16s-.12.67.16.87c.68.47,1.35.95,2.01,1.45.11.09.25.13.38.13.19,0,.37-.08.5-.25Z"/>
          <path class="cls-6" d="M66.93,250.34c-.55.61-1.12,1.21-1.71,1.8-.24.24-.24.64,0,.88.12.12.28.18.44.18s.32-.06.44-.18c.6-.6,1.18-1.21,1.75-1.84.23-.26.21-.65-.04-.88-.25-.23-.65-.21-.88.04Z"/>
          <path class="cls-6" d="M65.78,176.23c.24-.24.24-.64,0-.88-.6-.6-1.22-1.18-1.84-1.74-.26-.23-.65-.21-.88.05-.23.26-.21.65.04.88.61.55,1.22,1.12,1.8,1.7.12.12.28.18.44.18s.32-.06.44-.19Z"/>
          <path class="cls-6" d="M61.89,255.23c-.63.54-1.27,1.06-1.93,1.56-.27.21-.32.6-.11.87.12.16.31.24.49.24.13,0,.27-.04.38-.13.67-.52,1.33-1.05,1.97-1.6.26-.22.29-.62.07-.88-.22-.26-.62-.29-.88-.07Z"/>
        </g>
        <g>
          <path class="cls-6" d="M27.66,151.1c0-.34-.28-.62-.62-.62h0c-.85,0-1.69.02-2.53.05-.34.01-.61.3-.6.65.01.34.29.6.62.6,0,0,.02,0,.03,0,.82-.03,1.65-.05,2.48-.05.34,0,.62-.28.62-.62Z"/>
          <path class="cls-6" d="M22.68,276.82c-.83-.06-1.65-.13-2.47-.22-.34-.04-.65.21-.69.55-.04.34.21.65.55.69.83.09,1.67.17,2.52.23.01,0,.03,0,.04,0,.32,0,.6-.25.62-.58.02-.34-.23-.64-.58-.67Z"/>
          <path class="cls-6" d="M20.57,151.44c-.04-.34-.35-.59-.69-.55-.84.1-1.68.21-2.51.34-.34.05-.57.37-.52.71.05.31.31.53.62.53.03,0,.06,0,.1,0,.82-.13,1.64-.24,2.46-.33.34-.04.59-.35.55-.69Z"/>
          <path class="cls-6" d="M29.71,276.93c-.82.03-1.65.05-2.48.05-.34,0-.62.28-.62.62,0,.34.28.62.62.62.85,0,1.69-.02,2.53-.05.34-.01.61-.3.6-.65-.01-.34-.3-.62-.65-.6Z"/>
          <path class="cls-6" d="M15.71,275.94c-.82-.15-1.63-.32-2.43-.5-.33-.08-.67.13-.75.47-.08.34.13.67.47.75.82.19,1.65.36,2.48.51.04,0,.08.01.11.01.29,0,.56-.21.61-.51.06-.34-.16-.66-.5-.73Z"/>
          <path class="cls-6" d="M41.12,153.26c.29,0,.54-.2.61-.49.08-.34-.14-.67-.47-.75-.82-.18-1.65-.35-2.48-.51-.33-.06-.66.16-.73.5-.06.34.16.66.5.73.82.15,1.63.32,2.43.5.05.01.09.02.14.02Z"/>
          <path class="cls-6" d="M47.95,155.21c.26,0,.5-.16.59-.42.11-.33-.06-.68-.38-.79-.79-.28-1.6-.54-2.41-.78-.33-.1-.68.09-.78.42-.1.33.09.68.42.78.79.24,1.58.5,2.36.77.07.02.14.03.21.03Z"/>
          <path class="cls-6" d="M43.59,274.81c-.8.22-1.6.42-2.41.6-.34.08-.55.41-.47.75.07.29.32.48.61.48.05,0,.09,0,.14-.02.82-.19,1.64-.39,2.46-.61.33-.09.53-.43.44-.76-.09-.33-.44-.53-.76-.44Z"/>
          <path class="cls-6" d="M36.71,276.26c-.82.12-1.64.23-2.46.33-.34.04-.59.35-.55.69.04.32.31.55.62.55.02,0,.05,0,.07,0,.84-.09,1.68-.21,2.51-.33.34-.05.57-.37.52-.71-.05-.34-.37-.57-.71-.52Z"/>
          <path class="cls-6" d="M34.12,152.1c.31,0,.58-.24.62-.56.04-.34-.21-.65-.55-.69-.83-.09-1.67-.17-2.52-.23-.33-.02-.64.24-.67.58-.02.34.24.64.58.67.83.06,1.65.13,2.47.22.02,0,.05,0,.07,0Z"/>
          <path class="cls-6" d="M13.56,152.57c-.08-.34-.42-.54-.75-.47-.82.19-1.64.4-2.46.62-.33.09-.53.43-.44.77.08.28.33.46.6.46.05,0,.11,0,.16-.02.79-.22,1.6-.42,2.41-.6.34-.08.54-.41.47-.75Z"/>
          <path class="cls-6" d="M90.32,218.22c-.37-.02-.64.24-.67.58-.06.83-.13,1.65-.22,2.47-.04.34.21.65.55.69.02,0,.05,0,.07,0,.31,0,.58-.24.62-.56.09-.83.17-1.68.23-2.52.02-.34-.24-.64-.58-.67Z"/>
          <path class="cls-6" d="M88.23,200.31c.07.29.32.48.61.48.05,0,.09,0,.14-.02.34-.08.54-.41.47-.75-.19-.82-.39-1.64-.62-2.46-.09-.33-.43-.53-.77-.44-.33.09-.53.43-.44.77.22.8.42,1.6.6,2.41Z"/>
          <path class="cls-6" d="M89.76,211.77c.03.82.05,1.65.05,2.48,0,.34.28.62.62.62h0c.34,0,.62-.28.62-.62,0-.85-.02-1.69-.05-2.53-.01-.34-.26-.61-.65-.6-.34.01-.61.3-.6.65Z"/>
          <path class="cls-6" d="M89.08,204.78c.13.81.23,1.63.33,2.46.04.32.31.55.62.55.02,0,.05,0,.07,0,.34-.04.59-.35.55-.69-.09-.84-.21-1.68-.33-2.51-.05-.34-.38-.57-.71-.52-.34.05-.57.37-.52.71Z"/>
          <path class="cls-6" d="M8.89,274.27c-.79-.24-1.58-.5-2.36-.77-.33-.11-.68.06-.79.38s.06.68.38.79c.8.28,1.6.54,2.41.79.06.02.12.03.18.03.27,0,.51-.17.6-.44.1-.33-.09-.68-.42-.78Z"/>
          <path class="cls-6" d="M6.72,154.48c-.11-.32-.47-.5-.79-.38-.8.28-1.59.58-2.38.89-.32.13-.48.49-.35.81.1.24.33.39.58.39.08,0,.16-.01.23-.04.77-.31,1.55-.6,2.33-.87.33-.11.5-.47.38-.8Z"/>
          <path class="cls-6" d="M84.13,187.41c.09,0,.18-.02.27-.06.31-.15.44-.52.29-.83-.37-.76-.75-1.51-1.15-2.26-.16-.3-.54-.42-.84-.25-.3.16-.42.54-.25.84.39.73.77,1.47,1.13,2.21.11.22.33.35.56.35Z"/>
          <path class="cls-6" d="M81.01,181.11c.29-.18.38-.57.19-.86-.45-.71-.92-1.42-1.4-2.11-.2-.28-.58-.35-.87-.16-.28.2-.35.58-.16.87.47.68.93,1.37,1.37,2.07.12.19.32.29.53.29.11,0,.23-.03.33-.1Z"/>
          <path class="cls-6" d="M50.26,272.6c-.77.31-1.55.6-2.33.87-.33.11-.5.47-.38.79.09.26.33.42.59.42.07,0,.14-.01.21-.04.8-.28,1.59-.58,2.38-.89.32-.13.48-.49.35-.81-.13-.32-.49-.48-.81-.35Z"/>
          <path class="cls-6" d="M77.72,251.35c-.49.67-.99,1.32-1.51,1.97-.21.27-.17.66.1.88.12.09.25.14.39.14.18,0,.37-.08.49-.24.52-.66,1.04-1.33,1.54-2.01.2-.28.14-.67-.13-.87-.28-.21-.67-.14-.87.13Z"/>
          <path class="cls-6" d="M86.87,193.98c.07,0,.14-.01.21-.04.32-.11.5-.47.38-.79-.28-.8-.58-1.59-.89-2.38-.13-.32-.49-.48-.81-.35-.32.13-.48.49-.35.81.31.77.6,1.55.87,2.33.09.26.33.42.59.42Z"/>
          <path class="cls-6" d="M87.89,232.18c-.33-.1-.68.09-.78.42-.24.79-.5,1.58-.77,2.36-.11.33.06.68.38.79.07.02.14.03.21.03.26,0,.5-.16.59-.42.28-.79.54-1.6.79-2.41.1-.33-.09-.68-.42-.78Z"/>
          <path class="cls-6" d="M89.5,225.27c-.33-.06-.66.16-.73.5-.15.82-.32,1.63-.5,2.43-.08.34.13.67.47.75.05.01.09.02.14.02.28,0,.54-.2.61-.49.19-.82.35-1.65.51-2.48.06-.34-.16-.66-.5-.73Z"/>
          <path class="cls-6" d="M85.51,238.87c-.32-.14-.68,0-.82.32-.33.76-.67,1.51-1.03,2.25-.15.31-.02.68.29.83.09.04.18.06.27.06.23,0,.46-.13.56-.35.36-.76.71-1.52,1.05-2.3.14-.32,0-.68-.32-.82Z"/>
          <path class="cls-6" d="M76.94,175.29c.27-.22.31-.61.1-.88-.53-.66-1.07-1.31-1.62-1.94-.23-.26-.62-.29-.88-.06-.26.23-.29.62-.06.88.54.62,1.07,1.26,1.59,1.91.12.15.3.23.49.23.14,0,.28-.04.39-.14Z"/>
          <path class="cls-6" d="M82.4,245.24c-.3-.17-.68-.07-.85.23-.41.72-.84,1.43-1.28,2.12-.18.29-.09.68.2.86.1.06.22.1.33.1.21,0,.41-.1.53-.29.45-.71.88-1.44,1.3-2.17.17-.3.07-.68-.23-.85Z"/>
          <path class="cls-6" d="M62.65,265.98c-.68.47-1.37.93-2.07,1.37-.29.18-.38.57-.19.86.12.19.32.29.53.29.11,0,.23-.03.33-.1.71-.45,1.42-.92,2.12-1.4.28-.2.36-.58.16-.87-.2-.28-.58-.36-.87-.16Z"/>
          <path class="cls-6" d="M56.64,269.64c-.73.39-1.47.77-2.22,1.13-.31.15-.44.52-.29.83.11.22.33.35.56.35.09,0,.18-.02.27-.06.76-.37,1.52-.75,2.26-1.15.3-.16.42-.54.26-.84-.16-.3-.54-.42-.84-.26Z"/>
          <path class="cls-6" d="M73.26,256.78c-.56.61-1.13,1.21-1.72,1.79-.24.24-.24.64,0,.88.12.12.28.18.44.18s.32-.06.44-.18c.6-.6,1.18-1.21,1.75-1.83.23-.25.22-.65-.04-.88-.25-.23-.65-.22-.88.04Z"/>
          <path class="cls-6" d="M54.5,157.91c.23,0,.46-.13.56-.35.15-.31.02-.68-.29-.83-.76-.36-1.52-.71-2.3-1.05-.32-.14-.68,0-.82.33s0,.68.33.82c.76.33,1.51.67,2.25,1.03.09.04.18.06.27.06Z"/>
          <path class="cls-6" d="M60.71,161.33c.21,0,.41-.1.53-.29.18-.29.09-.68-.2-.86-.71-.45-1.44-.88-2.17-1.3-.3-.17-.68-.07-.85.23-.17.3-.07.68.23.85.72.41,1.43.84,2.13,1.27.1.06.22.1.33.1Z"/>
          <path class="cls-6" d="M71.8,170.14c.16,0,.32-.06.44-.18.24-.24.24-.64,0-.88-.6-.6-1.21-1.18-1.83-1.75-.25-.23-.65-.22-.88.04-.23.25-.22.65.04.88.61.56,1.21,1.13,1.79,1.71.12.12.28.18.44.18Z"/>
          <path class="cls-6" d="M68.21,261.67c-.63.54-1.26,1.07-1.91,1.59-.27.22-.31.61-.1.88.12.15.3.23.49.23.14,0,.28-.04.39-.14.66-.53,1.31-1.07,1.94-1.62.26-.23.29-.62.06-.88-.23-.26-.62-.29-.88-.06Z"/>
          <path class="cls-6" d="M66.5,165.42c.18,0,.37-.08.49-.24.21-.27.17-.66-.1-.88-.66-.52-1.33-1.04-2.01-1.53-.28-.21-.67-.14-.87.13-.2.28-.14.67.13.87.67.49,1.32.99,1.97,1.5.11.09.25.14.39.14Z"/>
        </g>
        <g>
          <path class="cls-6" d="M20.83,142.36c-.03-.34-.34-.59-.68-.56-.84.08-1.68.17-2.51.28-.34.04-.58.36-.54.7.04.31.31.54.62.54.03,0,.05,0,.08,0,.82-.11,1.64-.2,2.47-.28.34-.03.59-.34.56-.68Z"/>
          <path class="cls-6" d="M22.6,285.85c-.83-.05-1.65-.12-2.47-.2-.33-.03-.65.22-.68.56s.22.65.56.68c.83.08,1.67.15,2.52.2.01,0,.03,0,.04,0,.33,0,.6-.25.62-.58.02-.34-.24-.64-.58-.66Z"/>
          <path class="cls-6" d="M15.61,285.06c-.82-.13-1.63-.28-2.44-.44-.34-.06-.67.15-.73.49-.07.34.15.67.49.73.82.16,1.65.31,2.49.45.03,0,.07,0,.1,0,.3,0,.56-.22.61-.52.06-.34-.18-.66-.52-.72Z"/>
          <path class="cls-6" d="M13.81,143.32c-.07-.34-.39-.56-.73-.49-.83.16-1.65.34-2.47.53-.34.08-.54.41-.47.75.07.29.32.48.61.48.05,0,.09,0,.14-.02.8-.19,1.61-.36,2.43-.52.34-.07.56-.39.49-.73Z"/>
          <path class="cls-6" d="M36.63,285.37c-.82.11-1.64.2-2.46.28-.34.03-.59.34-.56.68.03.32.3.56.62.56.02,0,.04,0,.06,0,.84-.08,1.68-.18,2.51-.29.34-.04.58-.36.54-.7-.04-.34-.35-.58-.7-.54Z"/>
          <path class="cls-6" d="M41.39,144.11c.29,0,.55-.21.61-.5.07-.34-.15-.67-.49-.73-.82-.16-1.65-.31-2.48-.45-.34-.06-.66.18-.72.51-.06.34.17.66.51.72.82.13,1.63.28,2.44.44.04,0,.08.01.12.01Z"/>
          <path class="cls-6" d="M27.29,142.71c.34,0,.62-.28.62-.62s-.28-.62-.62-.62h-.11c-.81,0-1.61.01-2.41.04-.34.01-.61.3-.6.64.01.34.29.6.62.6,0,0,.01,0,.02,0,.79-.03,1.58-.04,2.37-.04h.11Z"/>
          <path class="cls-6" d="M8.74,283.6c-.8-.21-1.6-.44-2.39-.68-.33-.1-.68.09-.78.42-.1.33.09.68.42.78.8.24,1.61.47,2.43.69.05.01.11.02.16.02.28,0,.53-.18.6-.46.09-.33-.11-.67-.44-.76Z"/>
          <path class="cls-6" d="M29.63,285.95c-.81.03-1.63.04-2.47.04v.62s-.01-.62-.01-.62c-.34,0-.61.28-.61.62s.3.62.64.62c.83,0,1.66-.01,2.49-.04.34-.01.61-.3.6-.64-.01-.34-.26-.65-.64-.6Z"/>
          <path class="cls-6" d="M34.38,143.06c.32,0,.59-.24.62-.56.03-.34-.22-.65-.56-.68-.83-.08-1.67-.15-2.52-.2-.35-.03-.64.24-.66.58s.24.64.58.66c.83.05,1.65.12,2.47.2.02,0,.04,0,.06,0Z"/>
          <path class="cls-6" d="M95.78,193.63c.08.27.33.44.6.44.06,0,.12,0,.18-.03.33-.1.52-.45.42-.78-.24-.81-.5-1.61-.77-2.41-.11-.33-.46-.5-.79-.39-.33.11-.5.47-.39.79.27.78.52,1.57.76,2.37Z"/>
          <path class="cls-6" d="M98.21,204.94c.11.82.2,1.64.28,2.47.03.32.3.56.62.56.02,0,.04,0,.06,0,.34-.03.59-.34.56-.68-.08-.84-.18-1.68-.29-2.51-.04-.34-.36-.59-.7-.54-.34.04-.58.36-.54.7Z"/>
          <path class="cls-6" d="M96.95,198.02c.19.8.36,1.61.52,2.43.06.3.32.5.61.5.04,0,.08,0,.12-.01.34-.07.56-.39.49-.73-.16-.83-.34-1.65-.53-2.47-.08-.34-.42-.54-.75-.46-.34.08-.54.41-.47.75Z"/>
          <path class="cls-6" d="M98.78,211.94c.03.8.04,1.6.04,2.43l.62.05h-.62c0,.34.28.59.62.59s.62-.32.62-.66c0-.82-.01-1.64-.04-2.45-.01-.34-.29-.63-.64-.6-.34.01-.61.3-.6.64Z"/>
          <path class="cls-6" d="M90.41,180.63c.11.21.33.33.55.33.1,0,.2-.02.29-.07.3-.16.42-.54.26-.84-.4-.74-.81-1.48-1.23-2.21-.17-.3-.55-.4-.85-.23-.3.17-.4.55-.23.85.42.72.82,1.44,1.21,2.17Z"/>
          <path class="cls-6" d="M93.41,187c.1.24.33.39.58.39.08,0,.16-.02.24-.05.32-.13.47-.5.34-.81-.32-.78-.66-1.55-1.01-2.32-.14-.31-.52-.45-.83-.31-.31.14-.45.51-.31.83.34.75.67,1.51.99,2.28Z"/>
          <path class="cls-6" d="M43.55,284.12c-.8.19-1.61.36-2.43.52-.34.07-.56.39-.49.73.06.3.32.5.61.5.04,0,.08,0,.12-.01.83-.16,1.65-.34,2.47-.53.33-.08.54-.41.47-.75-.08-.34-.41-.54-.75-.47Z"/>
          <path class="cls-6" d="M6.91,144.97c-.1-.33-.45-.52-.78-.42-.81.24-1.61.5-2.41.77-.33.11-.5.46-.39.79.09.26.33.42.59.42.07,0,.13-.01.2-.03.79-.27,1.58-.52,2.37-.76.33-.1.52-.45.42-.78Z"/>
          <path class="cls-6" d="M83.08,169.17c.14,0,.28-.05.4-.14.27-.22.3-.61.09-.88-.53-.65-1.08-1.29-1.64-1.93-.23-.26-.62-.28-.88-.06-.26.23-.28.62-.06.88.55.62,1.08,1.25,1.61,1.89.12.15.3.23.48.23Z"/>
          <path class="cls-6" d="M88.94,251.9c-.29-.18-.68-.09-.86.2-.44.7-.88,1.4-1.34,2.08-.19.29-.12.67.17.87.11.07.23.11.35.11.2,0,.4-.1.52-.28.47-.7.92-1.4,1.37-2.12.18-.29.09-.68-.2-.86Z"/>
          <path class="cls-6" d="M92.33,245.68c-.31-.15-.68-.03-.83.28-.36.74-.74,1.48-1.13,2.2-.16.3-.05.68.25.84.09.05.19.07.29.07.22,0,.44-.12.55-.33.4-.74.78-1.49,1.15-2.24.15-.31.03-.68-.28-.83Z"/>
          <path class="cls-6" d="M87.31,174.87c.12,0,.24-.03.35-.11.29-.19.36-.58.17-.86-.47-.7-.95-1.39-1.44-2.08-.2-.28-.59-.34-.87-.14-.28.2-.34.59-.14.87.48.67.96,1.35,1.42,2.04.12.18.32.28.52.28Z"/>
          <path class="cls-6" d="M79.55,263.24c-.57.6-1.14,1.2-1.73,1.78-.24.24-.24.64,0,.88.12.12.28.18.44.18s.32-.06.44-.18c.59-.59,1.18-1.2,1.75-1.81.24-.25.22-.65-.03-.88-.25-.24-.64-.22-.88.03Z"/>
          <path class="cls-6" d="M78.32,163.92c.16,0,.32-.06.44-.18.24-.24.24-.64,0-.88-.59-.6-1.2-1.18-1.81-1.75-.25-.24-.65-.22-.88.03-.24.25-.22.65.03.88.6.57,1.2,1.14,1.78,1.73.12.12.28.18.44.18Z"/>
          <path class="cls-6" d="M84.09,257.88c-.5.66-1.02,1.3-1.54,1.94-.22.27-.18.66.09.88.12.1.26.14.4.14.18,0,.36-.08.48-.23.53-.65,1.06-1.31,1.57-1.98.21-.27.16-.67-.12-.87-.27-.21-.66-.16-.87.12Z"/>
          <path class="cls-6" d="M99.34,218.39c-.34-.04-.64.24-.66.58-.05.83-.12,1.65-.2,2.47-.03.34.22.65.56.68.02,0,.04,0,.06,0,.32,0,.59-.24.62-.56.08-.83.15-1.67.2-2.52.02-.34-.24-.64-.58-.66Z"/>
          <path class="cls-6" d="M98.6,225.44c-.34-.06-.66.18-.72.51-.13.82-.28,1.63-.44,2.44-.07.34.15.67.49.73.04,0,.08.01.12.01.29,0,.55-.21.61-.5.16-.82.31-1.65.45-2.48.06-.34-.17-.66-.51-.72Z"/>
          <path class="cls-6" d="M97.18,232.39c-.33-.09-.68.11-.76.44-.21.8-.44,1.6-.68,2.39-.1.33.09.68.42.78.06.02.12.03.18.03.27,0,.51-.17.6-.44.24-.8.47-1.61.69-2.43.09-.33-.11-.67-.44-.76Z"/>
          <path class="cls-6" d="M95.08,239.16c-.32-.12-.68.04-.8.36-.29.77-.59,1.54-.91,2.3-.13.32.02.68.34.81.08.03.16.05.24.05.24,0,.48-.14.58-.38.32-.77.63-1.55.92-2.34.12-.32-.04-.68-.36-.8Z"/>
          <path class="cls-6" d="M48.26,145.83c.27,0,.51-.17.6-.44.1-.33-.09-.68-.42-.78-.8-.24-1.61-.48-2.43-.69-.33-.09-.67.11-.76.44-.09.33.11.67.44.76.8.21,1.6.44,2.39.68.06.02.12.03.18.03Z"/>
          <path class="cls-6" d="M54.93,148.23c.24,0,.48-.14.58-.38.13-.32-.02-.68-.33-.82-.77-.32-1.55-.63-2.34-.93-.32-.12-.68.04-.8.37-.12.32.04.68.37.8.77.29,1.54.59,2.3.91.08.03.16.05.24.05Z"/>
          <path class="cls-6" d="M56.85,279.58c-.75.34-1.51.67-2.28.99-.32.13-.47.5-.34.81.1.24.33.39.58.39.08,0,.16-.02.24-.05.78-.32,1.56-.66,2.32-1.01.31-.14.45-.51.31-.83-.14-.31-.51-.45-.83-.31Z"/>
          <path class="cls-6" d="M74.51,268.14c-.62.55-1.25,1.08-1.89,1.61-.27.22-.3.61-.09.88.12.15.3.23.48.23.14,0,.28-.05.4-.14.65-.53,1.29-1.08,1.92-1.64.26-.23.28-.62.06-.88-.23-.26-.62-.28-.88-.06Z"/>
          <path class="cls-6" d="M61.32,151.27c.22,0,.44-.12.55-.33.16-.3.05-.68-.25-.84-.74-.4-1.49-.78-2.24-1.15-.31-.15-.68-.03-.83.28-.15.31-.03.68.28.83.74.37,1.47.74,2.2,1.13.09.05.19.07.29.07Z"/>
          <path class="cls-6" d="M50.31,282.18c-.79.27-1.58.52-2.37.76-.33.1-.52.45-.42.78.08.27.33.44.6.44.06,0,.12,0,.18-.03.81-.24,1.61-.5,2.41-.77.33-.11.5-.47.39-.79-.11-.33-.46-.5-.79-.39Z"/>
          <path class="cls-6" d="M69.01,272.52c-.67.48-1.35.96-2.04,1.42-.29.19-.36.58-.17.86.12.18.32.28.52.28.12,0,.24-.03.35-.11.7-.47,1.39-.95,2.08-1.44.28-.2.34-.59.14-.87-.2-.28-.59-.34-.87-.14Z"/>
          <path class="cls-6" d="M73.07,159.15c.18,0,.36-.08.48-.23.22-.27.18-.66-.08-.88-.65-.53-1.31-1.06-1.98-1.57-.27-.21-.66-.16-.88.12-.21.27-.16.66.12.87.66.5,1.3,1.02,1.94,1.54.12.1.26.14.4.14Z"/>
          <path class="cls-6" d="M63.11,276.35c-.72.42-1.44.82-2.17,1.21-.3.16-.42.54-.26.84.11.21.33.33.55.33.1,0,.2-.02.29-.07.74-.4,1.48-.81,2.21-1.23.3-.17.4-.55.23-.85-.17-.3-.55-.4-.85-.23Z"/>
          <path class="cls-6" d="M67.39,154.92c.2,0,.4-.1.52-.28.19-.29.12-.67-.17-.86-.7-.47-1.4-.92-2.12-1.37-.29-.18-.68-.09-.86.2-.18.29-.09.68.2.86.7.44,1.4.89,2.08,1.34.11.07.23.11.35.11Z"/>
        </g>
      </g>
      <g>
        <path class="cls-9" d="M136.09,57.04h-.01c-.57,0-1.15-.04-1.71-.12-.23-.03-.38-.24-.35-.47.03-.23.25-.38.47-.35.52.07,1.06.11,1.6.11.23,0,.42.19.42.41s-.18.41-.41.41ZM139.12,56.65c-.18,0-.35-.12-.4-.31-.06-.22.08-.45.3-.5.52-.13,1.03-.31,1.53-.51.21-.09.45.01.54.22.09.21-.01.45-.22.54-.53.22-1.08.41-1.64.55-.04,0-.07.01-.1.01ZM131.47,56.13c-.05,0-.11,0-.16-.03-.53-.22-1.05-.48-1.55-.77-.2-.12-.26-.37-.15-.57.12-.2.37-.26.57-.15.46.27.95.51,1.45.72.21.09.31.33.22.54-.07.16-.22.26-.38.26ZM143.35,54.6c-.12,0-.25-.06-.33-.16-.14-.18-.1-.44.08-.58.43-.33.84-.68,1.22-1.06.16-.16.42-.16.58,0,.16.16.16.42,0,.58-.4.4-.84.79-1.3,1.13-.08.06-.16.08-.25.08ZM127.56,53.52c-.11,0-.21-.04-.29-.12-.41-.41-.79-.84-1.14-1.3-.14-.18-.1-.44.08-.58.18-.14.44-.1.58.08.32.43.68.84,1.06,1.22.16.16.16.42,0,.58-.08.08-.19.12-.29.12ZM146.49,51.08c-.07,0-.14-.02-.21-.06-.2-.12-.26-.37-.15-.57.27-.47.52-.95.72-1.44.09-.21.33-.31.54-.22.21.09.31.33.22.54-.22.53-.48,1.05-.77,1.55-.08.13-.21.2-.36.2ZM124.94,49.61c-.16,0-.32-.1-.38-.25-.22-.53-.41-1.08-.55-1.64-.06-.22.07-.45.29-.5.22-.06.45.08.5.3.14.52.31,1.03.52,1.53.09.21-.01.45-.22.54-.05.02-.11.03-.16.03ZM148.03,46.64s-.04,0-.06,0c-.23-.03-.38-.24-.35-.46.07-.53.11-1.07.11-1.61,0-.23.18-.44.41-.44s.41.16.41.39v.05c0,.57-.04,1.15-.12,1.72-.03.21-.21.36-.41.36ZM124.01,44.98c-.23,0-.41-.17-.41-.4v-.02c0-.57.04-1.14.12-1.7.03-.23.25-.39.46-.35.23.03.38.24.35.46-.07.52-.11,1.06-.11,1.59,0,.23-.18.42-.41.42ZM147.75,41.9c-.18,0-.35-.12-.4-.31-.14-.52-.31-1.03-.52-1.53-.09-.21.01-.45.22-.54.21-.09.45.01.54.22.22.53.41,1.08.55,1.64.06.22-.07.45-.29.5-.04,0-.07.01-.1.01ZM124.92,40.38c-.05,0-.11,0-.16-.03-.21-.09-.31-.33-.22-.54.22-.53.48-1.06.77-1.55.12-.2.37-.26.57-.15.2.12.26.37.15.57-.27.46-.51.95-.72,1.45-.07.16-.22.26-.38.26ZM145.68,37.67c-.12,0-.25-.06-.33-.16-.32-.42-.68-.83-1.06-1.21-.16-.16-.16-.42,0-.58.16-.16.42-.16.58,0,.41.41.79.84,1.14,1.3.14.18.1.44-.08.58-.07.06-.16.08-.25.08ZM127.53,36.46c-.11,0-.21-.04-.29-.12-.16-.16-.16-.42,0-.58.41-.41.84-.79,1.3-1.14.18-.14.44-.1.58.08.14.18.1.44-.08.58-.43.32-.83.68-1.21,1.06-.08.08-.19.12-.29.12ZM142.16,34.55c-.07,0-.14-.02-.21-.06-.46-.27-.95-.51-1.45-.72-.21-.09-.31-.33-.22-.54.09-.21.33-.31.54-.23.53.22,1.05.48,1.55.77.2.12.26.37.15.57-.08.13-.21.2-.36.2ZM131.43,33.83c-.16,0-.32-.1-.38-.25-.09-.21.01-.45.22-.54.53-.22,1.08-.41,1.64-.55.22-.06.45.07.5.3.06.22-.07.45-.29.5-.52.14-1.03.31-1.53.52-.05.02-.11.03-.16.03ZM137.71,33.02s-.04,0-.06,0c-.52-.07-1.05-.11-1.58-.11-.23,0-.43-.19-.43-.41s.17-.41.4-.41h.04c.57,0,1.13.04,1.69.11.23.03.38.24.35.47-.03.21-.21.36-.41.36Z"/>
        <path class="cls-9" d="M136.1,63.01h-.02c-.56,0-1.13-.03-1.68-.08-.23-.02-.4-.22-.37-.45.02-.23.21-.39.45-.37.53.05,1.07.07,1.61.07.23,0,.42.19.42.41s-.18.41-.4.41ZM139.13,62.75c-.2,0-.37-.14-.41-.34-.04-.23.11-.44.34-.48.53-.09,1.07-.21,1.59-.35.22-.06.45.07.51.29.06.22-.07.45-.29.51-.55.15-1.11.27-1.67.36-.02,0-.05,0-.07,0ZM131.43,62.4s-.07,0-.11-.01c-.54-.15-1.09-.32-1.62-.51-.21-.08-.32-.32-.25-.53.08-.21.32-.33.53-.25.51.19,1.03.35,1.55.49.22.06.35.29.29.51-.05.18-.22.31-.4.31ZM143.63,61.36c-.16,0-.31-.09-.38-.24-.1-.21,0-.45.2-.55.49-.22.97-.48,1.44-.75.2-.11.45-.05.56.15.11.2.05.45-.15.56-.49.29-1,.55-1.51.78-.06.03-.12.04-.17.04ZM127.08,60.61c-.07,0-.14-.02-.21-.06-.49-.28-.97-.59-1.44-.92-.19-.13-.23-.39-.1-.58.13-.19.39-.23.58-.1.45.31.91.61,1.37.88.2.11.27.37.15.56-.08.13-.22.21-.36.21ZM147.61,58.84c-.12,0-.24-.05-.32-.15-.15-.18-.12-.44.05-.58.42-.35.82-.72,1.2-1.1.16-.16.42-.16.58,0,.16.16.16.42,0,.58-.4.4-.82.79-1.26,1.15-.08.06-.17.1-.26.1ZM123.34,57.74c-.11,0-.21-.04-.29-.12-.4-.4-.78-.82-1.15-1.26-.15-.18-.12-.44.05-.58.17-.15.43-.12.58.05.35.42.72.82,1.1,1.2.16.16.16.42,0,.58-.08.08-.19.12-.29.12ZM150.8,55.39c-.08,0-.17-.02-.24-.08-.19-.13-.23-.39-.1-.58.31-.44.61-.9.88-1.37.11-.2.37-.27.56-.15.2.11.26.37.15.56-.29.49-.59.98-.92,1.43-.08.11-.21.17-.34.17ZM120.47,54.02c-.14,0-.28-.07-.36-.21-.29-.49-.55-1-.79-1.51-.1-.21,0-.45.2-.55.2-.1.45,0,.55.2.23.49.48.97.75,1.44.11.2.05.45-.15.56-.07.04-.14.06-.21.06ZM153,51.23s-.1,0-.14-.03c-.21-.08-.32-.32-.24-.53.19-.5.35-1.02.49-1.55.06-.22.28-.35.51-.29.22.06.35.29.29.51-.15.55-.32,1.1-.52,1.62-.06.17-.22.27-.39.27ZM118.66,49.67c-.18,0-.35-.12-.4-.31-.15-.55-.27-1.11-.37-1.66-.04-.22.11-.44.34-.48.23-.04.44.11.48.34.09.53.21,1.06.35,1.59.06.22-.07.45-.29.51-.04,0-.07.01-.11.01ZM154.04,46.64s-.03,0-.04,0c-.23-.02-.39-.22-.37-.45.05-.53.07-1.08.07-1.62,0-.23.18-.45.41-.45s.41.15.41.38v.07c0,.57-.03,1.14-.08,1.7-.02.21-.2.38-.41.38ZM118.04,44.99c-.23,0-.41-.17-.41-.39v-.04c0-.55.02-1.11.07-1.66.02-.23.21-.39.45-.37.23.02.39.22.37.45-.05.52-.07,1.06-.07,1.59,0,.23-.18.43-.41.43ZM153.85,41.86c-.2,0-.37-.14-.41-.34-.09-.53-.21-1.06-.35-1.59-.06-.22.07-.45.29-.51.22-.06.45.07.51.29.15.55.27,1.11.37,1.66.04.23-.11.44-.34.48-.02,0-.05,0-.07,0ZM118.64,40.34s-.07,0-.11-.01c-.22-.06-.35-.28-.29-.5.15-.55.32-1.1.51-1.63.08-.21.31-.33.53-.24.21.08.32.32.24.53-.19.5-.35,1.02-.49,1.55-.05.19-.22.31-.4.31ZM152.44,37.37c-.16,0-.3-.09-.38-.24-.23-.49-.48-.97-.75-1.44-.12-.2-.05-.45.15-.57.2-.11.45-.05.56.15.29.49.55,1,.79,1.51.1.21,0,.45-.2.55-.06.03-.12.04-.17.04ZM120.43,35.99c-.07,0-.14-.02-.21-.05-.2-.11-.27-.37-.15-.56.29-.5.59-.98.92-1.44.13-.19.39-.23.58-.1.19.13.23.39.1.58-.31.44-.6.9-.88,1.37-.08.13-.22.21-.36.21ZM149.91,33.4c-.12,0-.23-.05-.32-.15-.35-.42-.72-.82-1.1-1.2-.16-.16-.16-.42,0-.58.16-.16.42-.16.58,0,.4.4.79.82,1.15,1.25.15.17.12.44-.05.58-.08.06-.17.1-.27.1ZM123.29,32.25c-.11,0-.21-.04-.29-.12-.16-.16-.16-.42,0-.58.4-.4.82-.79,1.26-1.15.17-.15.44-.12.58.05.15.17.12.44-.05.58-.41.35-.82.72-1.2,1.1-.08.08-.19.12-.29.12ZM146.45,30.21c-.08,0-.17-.02-.24-.07-.45-.31-.91-.61-1.37-.87-.2-.11-.27-.37-.15-.56.11-.2.37-.27.56-.15.49.28.97.59,1.44.91.19.13.23.39.1.58-.08.11-.21.18-.34.18ZM127.02,29.38c-.14,0-.28-.07-.36-.21-.11-.2-.05-.45.15-.56.49-.29,1-.55,1.51-.79.21-.09.45,0,.55.2.1.21,0,.45-.2.55-.49.23-.97.48-1.44.75-.07.04-.14.06-.21.06ZM142.28,28.03s-.09,0-.14-.02c-.5-.19-1.03-.35-1.55-.49-.22-.06-.35-.28-.29-.5.06-.22.28-.35.5-.29.55.15,1.1.32,1.63.51.21.08.32.32.25.53-.06.17-.22.27-.39.27ZM131.36,27.56c-.18,0-.35-.12-.4-.31-.06-.22.07-.45.29-.51.54-.15,1.1-.27,1.66-.37.22-.04.44.11.48.34.04.23-.11.44-.34.48-.54.09-1.07.21-1.59.35-.04,0-.07.01-.11.01ZM137.69,27.01s-.03,0-.04,0c-.52-.05-1.05-.07-1.57-.07-.23,0-.44-.18-.44-.41s.16-.41.39-.41v.41l.04-.41h0c.56,0,1.11.02,1.65.07.23.02.4.22.38.45-.02.21-.2.38-.41.38Z"/>
        <path class="cls-9" d="M136.1,68.98h-.03c-.56,0-1.11-.02-1.66-.06-.23-.02-.4-.21-.38-.44s.22-.4.44-.38c.53.04,1.07.05,1.61.05.23,0,.43.19.43.41s-.17.41-.4.41ZM139.14,68.79c-.2,0-.38-.15-.41-.36-.03-.23.13-.43.36-.46.54-.07,1.08-.16,1.61-.26.23-.05.44.1.49.32s-.1.44-.32.49c-.55.11-1.11.2-1.67.27-.02,0-.04,0-.05,0ZM131.42,68.53s-.05,0-.08,0c-.56-.11-1.11-.24-1.65-.38-.22-.06-.35-.29-.29-.51.06-.22.28-.35.51-.29.52.14,1.05.27,1.59.37.22.04.37.26.33.48-.04.2-.21.33-.41.33ZM143.73,67.73c-.17,0-.33-.11-.39-.28-.07-.22.04-.45.26-.52.52-.17,1.03-.37,1.53-.57.21-.09.45.01.54.22.09.21-.01.45-.22.54-.52.21-1.05.41-1.58.59-.04.01-.09.02-.13.02ZM126.92,67.17c-.05,0-.11,0-.16-.03-.52-.22-1.04-.45-1.54-.7-.2-.1-.29-.35-.19-.55.1-.21.35-.29.55-.19.49.24.98.47,1.49.68.21.09.31.33.22.54-.07.16-.22.26-.38.26ZM148.02,65.81c-.14,0-.28-.07-.36-.21-.11-.2-.04-.45.15-.56.47-.27.93-.56,1.39-.86.19-.13.45-.08.57.11.13.19.08.45-.11.57-.47.31-.95.61-1.43.89-.07.04-.14.05-.21.05ZM122.77,64.95c-.08,0-.16-.02-.23-.07-.47-.31-.93-.64-1.37-.99-.18-.14-.21-.4-.07-.58.14-.18.4-.21.58-.07.43.33.87.65,1.33.95.19.13.24.38.11.57-.08.12-.21.18-.34.18ZM151.84,63.08c-.12,0-.23-.05-.31-.14-.15-.17-.13-.43.04-.58.41-.36.81-.73,1.19-1.11.16-.16.42-.16.58,0,.16.16.16.42,0,.58-.4.4-.81.78-1.23,1.15-.08.07-.17.1-.27.1ZM119.13,61.97c-.11,0-.21-.04-.29-.12-.4-.4-.78-.81-1.16-1.23-.15-.17-.13-.43.04-.58.17-.15.43-.13.58.04.36.41.73.81,1.12,1.19.16.16.16.42,0,.58-.08.08-.19.12-.29.12ZM155.07,59.66c-.09,0-.18-.03-.25-.09-.18-.14-.21-.4-.07-.58.33-.43.65-.87.96-1.33.13-.19.38-.24.57-.11.19.13.24.38.11.57-.31.47-.64.93-.99,1.37-.08.1-.2.16-.33.16ZM116.14,58.34c-.13,0-.26-.06-.34-.18-.31-.47-.61-.95-.89-1.43-.11-.2-.04-.45.15-.56.2-.11.45-.05.56.15.27.47.56.93.86,1.39.13.19.08.45-.11.57-.07.05-.15.07-.23.07ZM157.58,55.67c-.06,0-.12-.01-.18-.04-.2-.1-.29-.35-.19-.55.24-.49.47-.98.68-1.49.09-.21.33-.31.54-.22.21.09.31.33.22.54-.22.52-.45,1.04-.7,1.54-.07.15-.22.23-.37.23ZM113.91,54.2c-.16,0-.32-.1-.38-.25-.21-.52-.41-1.04-.59-1.58-.07-.22.04-.45.26-.52.22-.07.45.04.52.26.17.52.37,1.03.58,1.53.09.21-.01.45-.22.54-.05.02-.11.03-.16.03ZM159.25,51.27s-.07,0-.11-.01c-.22-.06-.35-.29-.29-.51.14-.52.27-1.05.37-1.59.04-.22.27-.37.49-.32.22.04.37.26.33.49-.11.56-.24,1.1-.38,1.65-.05.18-.22.31-.4.31ZM112.54,49.71c-.19,0-.37-.14-.41-.33-.11-.55-.2-1.11-.27-1.67-.03-.23.13-.43.36-.46.23-.03.43.13.46.36.07.54.16,1.08.26,1.61.04.22-.1.44-.32.49-.03,0-.05,0-.08,0ZM160.03,46.63s-.02,0-.03,0c-.23-.02-.4-.21-.38-.44.04-.54.06-1.08.06-1.63v-.11c0-.23.18-.41.41-.41s.41.19.41.41v.1c0,.58-.02,1.14-.06,1.7-.01.22-.2.39-.41.39ZM112.07,45c-.23,0-.41-.16-.41-.39,0,0,0-.07,0-.08,0-.53.02-1.07.05-1.61.02-.23.21-.41.44-.38.23.01.4.21.38.44-.03.52-.05,1.05-.05,1.58,0,.23-.19.44-.41.44ZM159.88,41.83c-.2,0-.38-.15-.41-.36-.07-.54-.16-1.08-.27-1.61-.04-.22.1-.44.32-.49.23-.05.44.1.49.32.11.55.2,1.11.28,1.67.03.23-.13.43-.36.46-.02,0-.04,0-.05,0ZM112.52,40.34s-.05,0-.08,0c-.22-.04-.37-.26-.33-.48.11-.56.24-1.11.38-1.65.06-.22.29-.35.51-.29.22.06.35.29.29.51-.14.52-.26,1.05-.37,1.59-.04.2-.21.33-.41.33ZM158.81,37.25c-.17,0-.33-.11-.39-.28-.17-.52-.37-1.03-.58-1.53-.09-.21.01-.45.22-.54.21-.09.45.01.54.22.22.52.42,1.04.6,1.58.07.22-.04.45-.26.52-.04.02-.09.02-.13.02ZM113.87,35.84c-.05,0-.11,0-.16-.03-.21-.09-.31-.33-.22-.54.21-.52.45-1.04.7-1.54.1-.2.35-.29.55-.19.21.1.29.35.19.55-.24.49-.47.98-.67,1.49-.07.16-.22.26-.38.26ZM156.87,32.97c-.14,0-.28-.07-.36-.21-.27-.47-.56-.93-.87-1.38-.13-.19-.08-.45.11-.57s.45-.08.57.11c.31.47.61.94.9,1.43.11.2.05.45-.15.56-.07.04-.14.06-.21.06ZM116.08,31.68c-.08,0-.16-.02-.23-.07-.19-.13-.24-.38-.11-.57.31-.47.64-.93.99-1.37.14-.18.4-.21.58-.08.18.14.21.4.08.58-.33.43-.65.87-.95,1.33-.08.12-.21.18-.34.18ZM154.13,29.15c-.11,0-.23-.05-.31-.14-.36-.41-.73-.81-1.12-1.19-.16-.16-.16-.42,0-.58.16-.16.42-.16.58,0,.4.4.79.81,1.16,1.23.15.17.13.43-.04.58-.08.07-.18.1-.27.1ZM119.06,28.04c-.11,0-.21-.04-.29-.12-.16-.16-.16-.42,0-.58.4-.4.81-.79,1.23-1.16.17-.15.43-.13.58.04.15.17.13.43-.04.58-.41.36-.81.73-1.19,1.12-.08.08-.19.12-.29.12ZM150.7,25.93c-.09,0-.18-.03-.25-.09-.43-.33-.87-.65-1.33-.95-.19-.13-.24-.38-.12-.57.13-.19.38-.24.57-.12.47.31.93.64,1.38.98.18.14.21.4.08.58-.08.11-.2.16-.33.16ZM122.69,25.05c-.13,0-.26-.06-.34-.18-.13-.19-.08-.45.11-.57.47-.31.94-.61,1.43-.89.2-.11.45-.05.56.15.11.2.05.45-.15.56-.47.27-.93.56-1.38.86-.07.05-.15.07-.23.07ZM146.71,23.44c-.06,0-.12-.01-.18-.04-.49-.24-.98-.47-1.49-.67-.21-.09-.31-.33-.22-.54.09-.21.33-.31.54-.23.52.22,1.04.45,1.54.7.2.1.29.35.19.55-.07.15-.22.23-.37.23ZM126.82,22.82c-.16,0-.31-.1-.38-.25-.09-.21.01-.45.22-.54.52-.22,1.04-.42,1.58-.6.21-.07.45.04.52.26.07.22-.04.45-.26.52-.52.17-1.03.37-1.53.58-.05.02-.11.03-.16.03ZM142.3,21.78s-.07,0-.11-.01c-.52-.14-1.05-.26-1.59-.37-.22-.04-.37-.26-.33-.48.04-.22.25-.37.48-.33.56.11,1.11.23,1.65.38.22.06.35.29.29.51-.05.18-.22.31-.4.31ZM131.32,21.44c-.19,0-.37-.14-.41-.33-.04-.22.1-.44.32-.49.55-.11,1.11-.2,1.67-.28.22-.03.43.13.46.36.03.23-.13.43-.36.46-.54.07-1.08.16-1.61.27-.03,0-.06,0-.08,0ZM137.66,21.02s-.02,0-.03,0c-.51-.03-1.03-.05-1.55-.05-.23,0-.45-.19-.45-.41s.14-.41.37-.41h.08c.54,0,1.08.02,1.61.05.23.01.4.21.38.44-.01.22-.2.39-.41.39Z"/>
        <path class="cls-9" d="M136.11,74.95h-.03c-.55,0-1.1-.01-1.65-.04-.23-.01-.4-.21-.39-.43.01-.23.19-.41.43-.39.53.03,1.07.04,1.61.04.23,0,.43.19.43.41s-.17.41-.4.41ZM139.15,74.79c-.21,0-.39-.16-.41-.37-.02-.23.14-.43.37-.45.55-.06,1.09-.13,1.62-.21.22-.03.44.12.47.34.04.23-.12.44-.34.47-.55.09-1.11.16-1.67.22-.01,0-.03,0-.04,0ZM131.42,74.59s-.04,0-.06,0c-.56-.09-1.11-.19-1.66-.31-.22-.05-.37-.27-.32-.49.05-.22.27-.36.49-.32.53.11,1.07.21,1.61.3.23.04.38.25.34.47-.03.2-.21.35-.41.35ZM143.77,73.95c-.18,0-.35-.12-.4-.31-.06-.22.07-.45.29-.5.53-.14,1.05-.29,1.57-.46.21-.07.45.05.52.27.07.22-.05.45-.26.52-.53.17-1.07.33-1.62.48-.04,0-.07.01-.11.01ZM126.85,73.5s-.08,0-.13-.02c-.54-.17-1.07-.36-1.59-.56-.21-.08-.32-.32-.24-.53.08-.21.32-.32.53-.24.51.2,1.03.38,1.55.55.22.07.34.3.27.52-.06.17-.22.29-.39.29ZM148.21,72.39c-.16,0-.31-.09-.38-.25-.09-.21,0-.45.21-.55.5-.22.99-.46,1.48-.7.2-.1.45-.02.56.18.1.2.02.45-.18.56-.5.25-1,.5-1.52.72-.05.02-.11.04-.17.04ZM122.5,71.7c-.06,0-.13-.01-.19-.04-.5-.26-1-.52-1.48-.81-.2-.11-.26-.37-.15-.56.12-.2.37-.26.57-.15.47.27.95.54,1.44.78.2.1.28.35.18.56-.07.14-.22.23-.37.23ZM152.34,70.16c-.13,0-.27-.07-.35-.19-.12-.19-.07-.45.12-.57.46-.3.91-.61,1.35-.93.18-.13.44-.09.58.09.13.18.09.44-.09.58-.45.33-.92.65-1.39.95-.07.04-.15.07-.22.07ZM118.49,69.25c-.08,0-.17-.03-.24-.08-.45-.33-.9-.67-1.33-1.03-.18-.14-.2-.4-.06-.58.14-.18.41-.2.58-.06.42.34.86.68,1.3,1,.18.13.23.39.09.58-.08.11-.21.17-.33.17ZM156.08,67.3c-.11,0-.23-.05-.31-.14-.15-.17-.14-.43.03-.58.41-.36.8-.74,1.19-1.13.16-.16.42-.16.58,0,.16.16.16.42,0,.58-.4.4-.8.78-1.22,1.16-.08.07-.18.11-.28.11ZM114.91,66.2c-.11,0-.21-.04-.29-.12-.4-.4-.78-.8-1.16-1.22-.15-.17-.14-.43.03-.58.17-.15.43-.14.58.03.37.41.74.8,1.13,1.19.16.16.16.42,0,.58-.08.08-.19.12-.29.12ZM159.32,63.9c-.09,0-.18-.03-.26-.09-.18-.14-.2-.4-.06-.58.35-.42.68-.86,1-1.3.13-.19.39-.23.58-.09.18.13.23.39.09.58-.33.45-.67.9-1.03,1.33-.08.1-.2.15-.32.15ZM111.85,62.63c-.13,0-.25-.06-.33-.17-.33-.45-.65-.91-.95-1.39-.12-.19-.07-.45.12-.57.19-.12.45-.07.57.12.3.46.61.91.93,1.35.13.18.09.44-.09.58-.07.05-.16.08-.24.08ZM162,60.04c-.07,0-.14-.02-.21-.06-.2-.12-.26-.37-.15-.57.28-.47.54-.95.79-1.44.1-.2.36-.28.56-.18.2.1.28.35.18.56-.26.5-.53,1-.81,1.48-.08.13-.21.2-.36.2ZM109.39,58.63c-.15,0-.29-.08-.37-.22-.26-.5-.5-1-.73-1.52-.09-.21,0-.45.21-.55.21-.09.45,0,.54.21.22.5.46.99.71,1.48.1.2.02.45-.18.56-.06.03-.12.05-.19.05ZM164.04,55.8s-.1,0-.15-.03c-.21-.08-.32-.32-.24-.53.2-.51.38-1.02.55-1.55.07-.22.3-.33.52-.27.22.07.34.3.26.52-.17.54-.36,1.07-.56,1.59-.06.16-.22.26-.39.26ZM107.58,54.29c-.17,0-.34-.11-.39-.29-.17-.53-.33-1.07-.48-1.61-.06-.22.07-.45.29-.51.22-.06.45.07.51.29.14.53.3,1.05.46,1.57.07.22-.05.45-.26.52-.04.01-.09.02-.13.02ZM165.39,51.29s-.06,0-.09,0c-.22-.05-.37-.27-.32-.49.12-.53.21-1.07.3-1.61.04-.23.25-.38.47-.34.23.04.38.25.34.47-.09.56-.19,1.11-.31,1.66-.04.19-.21.33-.4.33ZM106.48,49.72c-.2,0-.38-.14-.41-.35-.09-.55-.16-1.11-.22-1.67-.02-.23.14-.43.37-.45.22-.02.43.14.45.37.06.55.13,1.09.21,1.62.04.23-.12.44-.34.47-.02,0-.04,0-.07,0ZM166.01,46.63s-.01,0-.02,0c-.23-.01-.4-.21-.39-.44.03-.54.04-1.09.04-1.64v-.12c0-.23.18-.41.41-.41s.41.19.41.41v.12c0,.56-.02,1.13-.05,1.68-.01.22-.19.39-.41.39ZM106.1,45c-.23,0-.41-.16-.41-.38v-.06c0-.54.01-1.09.04-1.62.01-.23.17-.41.43-.39.23.01.4.21.39.43-.03.52-.04,1.05-.04,1.58,0,.23-.18.44-.41.44ZM165.89,41.82c-.21,0-.39-.16-.41-.37-.06-.55-.13-1.09-.22-1.62-.04-.23.12-.44.34-.47.21-.04.44.12.47.34.09.55.16,1.11.22,1.67.02.23-.14.43-.37.45-.01,0-.03,0-.04,0ZM106.46,40.34s-.04,0-.06,0c-.23-.03-.38-.25-.34-.47.09-.56.19-1.11.3-1.66.05-.22.26-.37.49-.32.22.05.37.27.32.49-.12.53-.21,1.07-.3,1.61-.03.2-.21.35-.41.35ZM165.04,37.19c-.18,0-.35-.12-.4-.31-.14-.53-.3-1.05-.47-1.57-.07-.22.05-.45.26-.52.22-.07.45.05.52.26.17.53.33,1.07.48,1.61.06.22-.07.45-.29.51-.04,0-.07.01-.11.01ZM107.54,35.77s-.08,0-.13-.02c-.22-.07-.34-.3-.27-.52.17-.54.36-1.07.56-1.59.08-.21.32-.32.53-.24.21.08.32.32.24.53-.2.51-.38,1.02-.55,1.55-.06.17-.22.29-.39.29ZM163.46,32.76c-.16,0-.31-.09-.38-.24-.22-.5-.46-.99-.71-1.47-.1-.2-.03-.45.18-.56.2-.1.45-.03.56.18.26.5.5,1,.73,1.52.09.21,0,.45-.21.55-.05.02-.11.04-.17.04ZM109.33,31.42c-.06,0-.13-.01-.19-.04-.2-.1-.29-.35-.18-.56.25-.5.52-1,.8-1.48.12-.2.37-.26.57-.15.2.11.26.37.15.56-.27.47-.54.95-.78,1.44-.07.14-.22.23-.37.23ZM161.22,28.64c-.13,0-.27-.07-.35-.19-.3-.46-.61-.91-.93-1.35-.13-.18-.1-.44.09-.58.18-.14.44-.1.58.09.33.45.65.91.96,1.38.12.19.07.45-.12.57-.07.05-.15.07-.23.07ZM111.79,27.41c-.08,0-.17-.03-.24-.08-.18-.13-.23-.39-.09-.58.33-.45.67-.9,1.03-1.34.14-.18.41-.2.58-.06.18.14.2.4.06.58-.34.42-.68.86-1,1.3-.08.11-.21.17-.33.17ZM158.35,24.91c-.11,0-.23-.05-.31-.14-.37-.41-.74-.8-1.13-1.19-.16-.16-.16-.42,0-.58.16-.16.42-.16.58,0,.4.4.79.8,1.16,1.22.15.17.14.43-.03.58-.08.07-.18.11-.28.11ZM114.83,23.82c-.11,0-.21-.04-.29-.12-.16-.16-.16-.42,0-.58.4-.4.8-.78,1.22-1.16.17-.15.43-.14.58.03.15.17.14.43-.03.58-.41.37-.8.74-1.19,1.13-.08.08-.19.12-.29.12ZM154.94,21.67c-.09,0-.18-.03-.26-.09-.42-.34-.86-.68-1.3-1-.18-.13-.23-.39-.09-.58s.39-.23.58-.09c.46.33.9.67,1.34,1.02.18.14.21.4.06.58-.08.1-.2.15-.32.15ZM118.4,20.76c-.13,0-.25-.06-.33-.17-.13-.18-.09-.44.09-.58.45-.33.91-.65,1.39-.96.19-.12.45-.07.57.12.12.19.07.45-.12.57-.46.3-.91.61-1.35.93-.07.05-.16.08-.24.08ZM151.07,19.01c-.07,0-.14-.02-.21-.06-.47-.27-.95-.53-1.44-.78-.2-.1-.29-.35-.18-.56.1-.2.35-.28.55-.18.5.25,1,.52,1.48.8.2.11.26.37.15.56-.08.13-.21.21-.36.21ZM122.4,18.29c-.15,0-.29-.08-.37-.22-.1-.2-.02-.45.18-.56.5-.26,1-.5,1.52-.73.21-.09.45,0,.54.21.09.21,0,.45-.21.55-.5.22-.99.46-1.48.71-.06.03-.12.05-.19.05ZM146.82,16.98s-.1,0-.15-.03c-.51-.2-1.03-.38-1.55-.54-.22-.07-.34-.3-.27-.52.07-.22.3-.34.52-.27.54.17,1.07.36,1.59.56.21.08.32.32.24.53-.06.16-.22.27-.39.27ZM126.74,16.48c-.17,0-.34-.11-.39-.28-.07-.22.05-.45.26-.52.53-.17,1.07-.33,1.62-.48.22-.06.45.07.51.29.06.22-.07.45-.29.51-.53.14-1.05.3-1.57.47-.04.01-.09.02-.13.02ZM142.31,15.65s-.06,0-.09,0c-.53-.11-1.07-.21-1.61-.29-.23-.03-.38-.25-.35-.47.04-.23.25-.38.47-.35.56.09,1.11.19,1.66.3.22.05.37.27.32.49-.04.19-.21.33-.4.33ZM131.3,15.37c-.2,0-.38-.14-.41-.35-.04-.23.12-.44.34-.47.55-.09,1.11-.16,1.67-.22.23-.03.43.14.45.37.02.23-.14.43-.37.45-.55.06-1.09.13-1.62.21-.02,0-.04,0-.07,0ZM137.65,15.04s-.01,0-.02,0c-.51-.03-1.03-.04-1.55-.04-.23,0-.46-.18-.46-.41s.14-.41.37-.41v.41l.08-.41h0c.54,0,1.07.01,1.6.04.23.01.4.21.39.43-.01.22-.19.39-.41.39Z"/>
        <path class="cls-9" d="M136.12,80.92h-.04c-.55,0-1.09-.01-1.64-.04-.23,0-.41-.2-.4-.43,0-.23.21-.4.43-.39.53.02,1.06.04,1.6.04.23,0,.43.19.43.41s-.17.41-.39.41ZM139.16,80.79c-.21,0-.39-.16-.41-.38-.02-.23.15-.43.38-.45.55-.05,1.09-.11,1.63-.18.22-.03.43.13.46.36.03.23-.13.43-.36.46-.55.07-1.11.13-1.67.18-.01,0-.02,0-.04,0ZM131.43,80.62s-.04,0-.05,0c-.56-.07-1.11-.16-1.66-.25-.23-.04-.38-.25-.34-.48.04-.22.27-.37.48-.33.54.09,1.08.18,1.62.25.23.03.39.24.36.46-.03.21-.21.36-.41.36ZM143.8,80.09c-.19,0-.36-.13-.4-.32-.05-.22.09-.44.32-.49.54-.12,1.07-.25,1.59-.39.22-.06.45.07.51.29.06.22-.07.45-.29.51-.54.15-1.08.28-1.63.4-.03,0-.06,0-.09,0ZM126.82,79.71s-.07,0-.11-.01c-.54-.14-1.08-.3-1.61-.47-.22-.07-.34-.3-.27-.52.07-.22.3-.34.52-.27.52.16,1.05.32,1.58.46.22.06.35.29.29.51-.05.19-.22.31-.4.31ZM148.32,78.78c-.17,0-.33-.1-.39-.27-.08-.21.03-.45.25-.53.51-.19,1.02-.38,1.53-.59.21-.09.45.01.54.22.09.21-.01.45-.22.54-.51.21-1.04.42-1.56.61-.05.02-.09.02-.14.02ZM122.36,78.21c-.05,0-.11,0-.16-.03-.52-.21-1.03-.44-1.54-.68-.21-.1-.29-.34-.2-.55.1-.21.34-.3.55-.2.5.23,1,.45,1.5.66.21.09.31.33.22.54-.07.16-.22.26-.38.26ZM152.62,76.9c-.15,0-.29-.08-.37-.22-.1-.2-.03-.45.18-.56.49-.25.96-.51,1.44-.79.2-.12.45-.05.56.15.11.2.05.45-.15.56-.48.28-.97.55-1.47.81-.06.03-.13.05-.19.05ZM118.14,76.13c-.07,0-.14-.02-.21-.06-.49-.28-.96-.57-1.44-.87-.19-.12-.25-.38-.12-.57.12-.19.38-.25.57-.13.46.29.93.58,1.4.85.2.11.27.37.15.56-.08.13-.22.21-.36.21ZM156.63,74.46c-.13,0-.26-.06-.34-.18-.13-.19-.08-.44.1-.58.45-.31.89-.64,1.32-.97.18-.14.44-.11.58.08.14.18.11.44-.08.58-.44.34-.89.67-1.35.99-.07.05-.15.07-.24.07ZM114.23,73.52c-.09,0-.18-.03-.25-.08-.45-.34-.88-.69-1.31-1.05-.17-.15-.2-.41-.05-.58.15-.18.41-.2.58-.05.42.35.84.69,1.28,1.03.18.14.22.4.08.58-.08.11-.2.16-.33.16ZM160.3,71.53c-.11,0-.22-.05-.31-.13-.15-.17-.14-.43.03-.58.4-.37.8-.75,1.19-1.13.16-.16.42-.16.58,0,.16.16.16.42,0,.58-.39.4-.8.78-1.21,1.16-.08.07-.18.11-.28.11ZM110.69,70.43c-.11,0-.21-.04-.29-.12-.4-.4-.78-.8-1.16-1.21-.15-.17-.14-.43.03-.58.17-.15.43-.14.58.03.37.4.75.8,1.13,1.18.16.16.16.42,0,.58-.08.08-.19.12-.29.12ZM163.56,68.14c-.09,0-.19-.03-.27-.1-.17-.15-.2-.41-.05-.58.35-.42.7-.84,1.03-1.28.14-.18.4-.21.58-.08.18.14.22.4.08.58-.34.44-.69.88-1.05,1.31-.08.1-.2.15-.32.15ZM107.59,66.9c-.12,0-.25-.06-.33-.16-.34-.44-.67-.89-.99-1.35-.13-.19-.09-.44.1-.58.19-.13.44-.09.58.1.32.45.64.89.97,1.32.14.18.11.44-.08.58-.08.06-.16.09-.25.09ZM166.35,64.36c-.08,0-.15-.02-.22-.07-.19-.12-.25-.38-.12-.57.3-.46.58-.93.86-1.4.11-.2.37-.27.56-.15.2.11.26.37.15.56-.28.49-.57.96-.88,1.44-.08.12-.21.19-.35.19ZM104.97,63c-.14,0-.28-.07-.36-.21-.28-.48-.55-.97-.81-1.47-.11-.2-.03-.45.18-.56.2-.11.45-.03.56.18.25.48.52.96.79,1.43.11.2.05.45-.15.56-.07.04-.14.06-.21.06ZM168.63,60.24c-.06,0-.12-.01-.18-.04-.21-.1-.29-.34-.2-.55.23-.49.45-1,.66-1.5.09-.21.33-.31.54-.22.21.09.31.33.22.54-.22.52-.44,1.03-.68,1.54-.07.15-.22.24-.37.24ZM102.88,58.79c-.16,0-.32-.1-.38-.25-.21-.51-.42-1.03-.61-1.56-.08-.21.03-.45.25-.53.21-.08.45.03.53.25.19.51.38,1.02.59,1.52.09.21-.01.45-.22.54-.05.02-.11.03-.16.03ZM170.34,55.87s-.08,0-.12-.02c-.22-.07-.34-.3-.27-.52.17-.52.32-1.04.46-1.58.06-.22.29-.35.51-.29.22.06.35.29.29.51-.15.54-.3,1.08-.47,1.61-.06.18-.22.29-.39.29ZM101.37,54.35c-.18,0-.35-.12-.4-.31-.14-.54-.28-1.08-.4-1.63-.05-.22.09-.44.31-.49.23-.05.44.09.49.31.12.54.25,1.07.39,1.59.06.22-.07.45-.29.51-.04,0-.07.01-.11.01ZM171.47,51.3s-.05,0-.07,0c-.22-.04-.38-.25-.33-.48.1-.54.18-1.08.25-1.62.03-.23.25-.39.46-.36.23.03.39.24.36.46-.07.56-.16,1.11-.25,1.66-.04.2-.21.34-.41.34ZM100.44,49.74c-.2,0-.38-.15-.41-.36-.07-.55-.13-1.11-.18-1.67-.02-.23.15-.43.38-.45.24-.03.43.15.45.38.05.55.11,1.09.18,1.63.03.23-.13.43-.35.46-.02,0-.04,0-.06,0ZM171.99,46.63s-.01,0-.02,0c-.23-.01-.4-.2-.39-.43.03-.54.04-1.09.04-1.64v-.16c0-.23.18-.41.41-.41s.41.19.41.41v.16c0,.56-.01,1.12-.04,1.68-.01.22-.19.39-.41.39ZM100.13,45.01c-.23,0-.41-.15-.41-.37v-.08c0-.54.01-1.07.03-1.6,0-.23.2-.4.43-.4.23,0,.41.2.4.43-.02.52-.03,1.04-.03,1.56,0,.23-.18.45-.41.45ZM171.88,41.78c-.21,0-.39-.16-.41-.38-.05-.55-.11-1.09-.18-1.63-.03-.23.13-.43.35-.46.22-.03.43.13.46.35.07.55.14,1.11.19,1.67.02.23-.15.43-.38.45-.01,0-.02,0-.04,0ZM100.43,40.36s-.04,0-.05,0c-.23-.03-.39-.24-.36-.46.07-.56.16-1.11.25-1.66.04-.22.25-.38.48-.33.23.04.38.25.34.48-.09.54-.18,1.08-.25,1.62-.03.21-.21.36-.41.36ZM171.17,37.13c-.19,0-.36-.13-.4-.32-.12-.54-.25-1.07-.39-1.59-.06-.22.07-.45.29-.51.22-.06.45.07.51.29.15.54.28,1.08.4,1.63.05.22-.09.44-.31.49-.03,0-.06,0-.09,0ZM101.33,35.75s-.07,0-.11-.01c-.22-.06-.35-.28-.29-.5.14-.54.3-1.08.47-1.61.07-.22.3-.34.52-.27.22.07.34.3.27.52-.16.52-.32,1.04-.46,1.58-.05.19-.22.31-.4.31ZM169.85,32.62c-.17,0-.33-.1-.39-.27-.19-.51-.39-1.02-.6-1.52-.09-.21.01-.45.22-.54s.45.01.54.22c.22.51.42,1.03.61,1.56.08.21-.03.45-.25.53-.05.02-.09.02-.14.02ZM102.83,31.29c-.05,0-.11,0-.16-.03-.21-.09-.31-.33-.22-.54.21-.52.44-1.03.68-1.54.1-.21.34-.3.55-.2.21.1.3.34.2.55-.23.49-.45,1-.66,1.5-.07.16-.22.26-.38.26ZM167.95,28.33c-.15,0-.29-.08-.37-.22-.25-.48-.52-.96-.79-1.43-.12-.2-.05-.45.15-.57.2-.11.45-.05.56.15.28.48.55.97.81,1.47.11.2.03.45-.17.56-.06.03-.13.05-.19.05ZM104.9,27.07c-.07,0-.14-.02-.21-.05-.2-.11-.27-.37-.15-.56.28-.49.57-.97.87-1.44.12-.19.38-.25.57-.12.19.12.25.38.12.57-.29.46-.58.93-.85,1.4-.08.13-.22.21-.36.21ZM165.5,24.32c-.13,0-.26-.06-.34-.17-.32-.45-.64-.89-.97-1.32-.14-.18-.11-.44.07-.58.18-.14.44-.11.58.07.34.44.67.89,1,1.35.13.19.09.44-.1.58-.07.05-.16.08-.24.08ZM107.51,23.16c-.09,0-.18-.03-.25-.08-.18-.14-.22-.4-.08-.58.34-.44.69-.88,1.05-1.31.15-.17.41-.2.58-.05.17.15.2.41.05.58-.35.42-.7.85-1.03,1.28-.08.11-.2.16-.33.16ZM162.56,20.66c-.11,0-.22-.04-.3-.13-.37-.4-.75-.8-1.14-1.18-.16-.16-.16-.42,0-.58.16-.16.42-.16.58,0,.4.39.79.8,1.16,1.21.16.17.14.43-.02.58-.08.07-.18.11-.28.11ZM110.6,19.62c-.11,0-.21-.04-.29-.12-.16-.16-.16-.42,0-.58.4-.4.8-.78,1.21-1.16.17-.15.43-.14.58.03.15.17.14.43-.03.58-.4.37-.8.75-1.18,1.14-.08.08-.19.12-.29.12ZM159.16,17.41c-.09,0-.19-.03-.27-.1-.42-.35-.85-.69-1.28-1.02-.18-.14-.22-.4-.08-.58.14-.18.4-.22.58-.08.45.34.88.69,1.31,1.05.17.15.2.41.05.58-.08.1-.2.15-.32.15ZM114.12,16.51c-.12,0-.25-.06-.33-.16-.14-.18-.11-.44.07-.58.44-.34.89-.67,1.35-.99.18-.13.44-.09.58.1.13.19.08.44-.1.58-.45.31-.89.64-1.32.97-.08.06-.16.09-.25.09ZM155.37,14.63c-.08,0-.15-.02-.22-.06-.46-.29-.93-.58-1.41-.85-.2-.11-.27-.37-.15-.56.11-.2.37-.27.56-.15.49.28.97.57,1.44.87.19.12.25.38.13.57-.08.12-.21.19-.35.19ZM118.02,13.89c-.14,0-.28-.07-.36-.21-.11-.2-.05-.45.15-.56.48-.28.97-.55,1.47-.81.2-.11.45-.03.56.18.11.2.03.45-.18.56-.49.25-.96.52-1.43.79-.07.04-.14.06-.21.06ZM151.24,12.37c-.06,0-.12-.01-.17-.04-.5-.23-1-.45-1.51-.66-.21-.09-.31-.33-.22-.54.09-.21.33-.31.54-.23.52.21,1.03.44,1.54.67.21.1.3.34.2.55-.07.15-.22.24-.38.24ZM122.22,11.79c-.16,0-.31-.1-.38-.25-.09-.21.01-.45.22-.54.51-.21,1.03-.42,1.56-.61.21-.08.45.03.53.25.08.21-.03.45-.25.53-.51.19-1.02.39-1.52.6-.05.02-.11.03-.16.03ZM146.86,10.67s-.08,0-.12-.02c-.52-.16-1.05-.31-1.58-.46-.22-.06-.35-.28-.29-.5.06-.22.28-.36.5-.29.54.14,1.08.3,1.61.46.22.07.34.3.27.52-.06.18-.22.29-.39.29ZM126.66,10.27c-.18,0-.35-.12-.4-.31-.06-.22.07-.45.29-.51.54-.15,1.08-.28,1.63-.4.23-.05.44.09.49.31s-.09.44-.31.49c-.54.12-1.07.25-1.59.39-.04,0-.07.01-.11.01ZM142.29,9.56s-.05,0-.07,0c-.54-.09-1.08-.18-1.62-.24-.23-.03-.39-.24-.36-.46.03-.23.24-.39.46-.36.56.07,1.11.15,1.66.25.22.04.38.25.34.48-.04.2-.21.34-.41.34ZM131.27,9.35c-.2,0-.38-.15-.41-.36-.03-.23.13-.43.35-.46.55-.07,1.11-.13,1.67-.18.24-.01.43.15.45.38.02.23-.15.43-.38.45-.55.05-1.09.11-1.63.18-.02,0-.04,0-.06,0ZM137.62,9.06s-.01,0-.02,0c-.5-.02-1.01-.03-1.52-.03h-.12c-.23,0-.41-.19-.41-.41s.18-.41.41-.41h.12c.52,0,1.04.01,1.56.03.23,0,.41.2.4.43,0,.22-.19.4-.41.4Z"/>
        <path class="cls-9" d="M136.12,86.89h-.04c-.54,0-1.09-.01-1.63-.03-.23,0-.41-.2-.4-.43,0-.23.19-.39.43-.4.53.02,1.06.03,1.6.03.23,0,.44.19.44.41s-.16.41-.39.41ZM139.16,86.78c-.21,0-.4-.17-.41-.38-.02-.23.15-.43.38-.44.55-.04,1.09-.09,1.64-.15.22-.03.43.14.46.36.03.23-.14.43-.36.46-.55.06-1.11.11-1.67.15-.01,0-.02,0-.03,0ZM131.43,86.63s-.03,0-.05,0c-.56-.06-1.11-.13-1.66-.22-.23-.03-.38-.25-.35-.47.03-.23.26-.37.47-.35.54.08,1.08.15,1.63.21.23.02.39.23.37.46-.02.21-.2.37-.41.37ZM143.82,86.18c-.2,0-.37-.14-.41-.34-.04-.22.11-.44.33-.48.54-.1,1.08-.21,1.61-.33.23-.05.44.09.5.31.05.22-.09.44-.31.49-.54.12-1.09.24-1.64.34-.03,0-.05,0-.08,0ZM126.8,85.86s-.06,0-.09-.01c-.55-.12-1.09-.26-1.63-.4-.22-.06-.35-.29-.29-.51.06-.22.28-.35.51-.29.53.14,1.06.27,1.59.39.22.05.36.27.31.49-.04.19-.21.32-.4.32ZM148.38,85.05c-.18,0-.34-.11-.4-.29-.07-.22.06-.45.27-.52.53-.16,1.04-.33,1.56-.51.21-.08.45.04.53.25.08.22-.04.45-.25.53-.53.18-1.06.36-1.59.52-.04.01-.08.02-.12.02ZM122.28,84.57s-.09,0-.14-.02c-.53-.18-1.05-.38-1.58-.58-.21-.08-.32-.32-.23-.54.08-.21.32-.32.54-.23.51.2,1.03.39,1.54.57.22.08.33.31.25.53-.06.17-.22.28-.39.28ZM152.79,83.43c-.16,0-.31-.09-.38-.25-.09-.21,0-.45.21-.54.5-.22,1-.45,1.49-.68.2-.1.45-.01.55.19s.01.45-.19.55c-.5.24-1.01.47-1.52.7-.05.02-.11.03-.17.03ZM117.93,82.77c-.06,0-.12-.01-.18-.04-.5-.24-1-.5-1.5-.76-.2-.11-.28-.36-.17-.56.11-.2.36-.28.56-.17.48.26.97.5,1.47.74.21.1.29.35.19.55-.07.15-.22.23-.37.23ZM156.98,81.32c-.14,0-.28-.07-.36-.21-.11-.2-.05-.45.15-.56.47-.27.94-.56,1.41-.85.19-.12.45-.06.57.13.12.19.06.45-.13.57-.47.3-.95.58-1.43.86-.06.04-.14.06-.21.06ZM113.82,80.5c-.08,0-.15-.02-.22-.06-.47-.3-.94-.6-1.4-.92-.19-.13-.24-.39-.11-.57.13-.19.39-.23.57-.11.45.31.91.61,1.38.9.19.12.25.38.13.57-.08.12-.21.19-.35.19ZM160.91,78.75c-.13,0-.25-.06-.33-.17-.13-.18-.1-.44.09-.58.44-.32.88-.66,1.3-1,.18-.14.44-.11.58.06.14.18.11.44-.07.58-.44.35-.88.69-1.33,1.02-.07.05-.16.08-.25.08ZM109.98,77.78c-.09,0-.18-.03-.26-.09-.44-.35-.87-.7-1.29-1.07-.17-.15-.19-.41-.04-.58.15-.17.41-.19.58-.04.42.36.84.71,1.27,1.05.18.14.21.4.07.58-.08.1-.2.16-.32.16ZM164.53,75.76c-.11,0-.22-.04-.3-.13-.15-.17-.14-.43.02-.58.4-.37.8-.75,1.18-1.14.16-.16.42-.16.58,0,.16.16.16.42,0,.58-.39.4-.8.78-1.21,1.16-.08.07-.18.11-.28.11ZM106.47,74.65c-.11,0-.21-.04-.29-.12-.4-.39-.78-.8-1.16-1.21-.16-.17-.15-.43.02-.58.17-.16.43-.14.58.02.37.4.75.8,1.14,1.18.16.16.16.42,0,.58-.08.08-.19.12-.29.12ZM167.79,72.38c-.1,0-.19-.03-.27-.1-.17-.15-.19-.41-.04-.58.36-.41.71-.84,1.05-1.26.14-.18.4-.21.58-.06.18.14.21.4.07.58-.35.44-.71.87-1.07,1.29-.08.09-.2.14-.31.14ZM103.34,71.15c-.12,0-.24-.05-.32-.16-.35-.44-.69-.88-1.02-1.33-.14-.18-.1-.44.09-.58.18-.13.44-.1.58.09.33.44.66.87,1,1.3.14.18.11.44-.06.58-.08.06-.17.09-.26.09ZM170.66,68.66c-.08,0-.16-.02-.23-.07-.19-.13-.24-.39-.11-.57.31-.45.61-.91.9-1.37.12-.19.38-.25.57-.13.19.12.25.38.13.57-.3.47-.6.94-.92,1.4-.08.12-.21.18-.34.18ZM100.61,67.33c-.14,0-.27-.07-.35-.19-.3-.47-.59-.95-.87-1.43-.11-.2-.05-.45.15-.56.2-.11.45-.05.56.15.27.47.56.94.85,1.4.12.19.06.45-.13.57-.07.04-.14.06-.22.06ZM173.1,64.64c-.07,0-.13-.02-.19-.05-.2-.11-.28-.36-.17-.56.26-.48.51-.97.75-1.47.1-.21.35-.29.55-.19.21.1.29.35.19.55-.24.5-.5,1-.76,1.5-.07.14-.22.22-.37.22ZM98.33,63.22c-.15,0-.3-.09-.37-.23-.24-.5-.47-1.01-.7-1.52-.09-.21,0-.45.21-.54.21-.09.45,0,.54.21.22.5.45,1,.69,1.49.1.21.01.45-.19.55-.06.03-.12.04-.18.04ZM175.08,60.37c-.05,0-.1,0-.15-.03-.21-.08-.32-.32-.23-.54.2-.51.39-1.02.58-1.54.08-.21.31-.33.53-.25.21.08.33.31.25.53-.18.53-.38,1.05-.58,1.57-.06.16-.22.26-.38.26ZM96.53,58.9c-.17,0-.33-.11-.39-.28-.19-.53-.36-1.06-.52-1.59-.07-.22.05-.45.27-.52.22-.07.45.06.52.27.16.52.33,1.04.51,1.56.08.21-.04.45-.25.53-.05.02-.09.02-.14.02ZM176.55,55.91s-.07,0-.11-.01c-.22-.06-.35-.29-.29-.51.14-.53.27-1.06.4-1.59.05-.22.27-.36.5-.31.22.05.36.27.31.49-.12.55-.26,1.09-.4,1.63-.05.18-.22.31-.4.31ZM95.22,54.38c-.19,0-.36-.13-.4-.32-.12-.54-.24-1.09-.34-1.64-.04-.22.11-.44.33-.48.23-.04.44.11.48.33.1.54.21,1.08.33,1.61.05.22-.09.44-.31.5-.03,0-.06.01-.09.01ZM177.52,51.31s-.04,0-.06,0c-.23-.03-.38-.25-.35-.47.08-.54.15-1.08.21-1.63.02-.23.22-.39.46-.36.23.03.39.23.36.46-.06.56-.13,1.11-.22,1.66-.03.2-.21.35-.41.35ZM94.43,49.75c-.21,0-.39-.16-.41-.37-.06-.55-.12-1.11-.16-1.67-.02-.23.15-.43.38-.44.23-.02.42.15.44.38.04.55.09,1.09.15,1.64.03.23-.14.43-.36.46-.02,0-.03,0-.05,0ZM177.96,46.63h-.02c-.23,0-.41-.2-.4-.43.02-.55.03-1.09.03-1.64v-.18c0-.23.18-.41.41-.41s.41.19.41.41v.17c0,.57,0,1.13-.03,1.68,0,.22-.19.4-.41.4ZM94.16,45.02c-.23,0-.41-.14-.41-.37,0,0,0-.1,0-.1,0-.52,0-1.05.03-1.57,0-.23.17-.4.43-.4.23,0,.41.2.4.43-.02.52-.03,1.03-.03,1.55,0,.23-.19.46-.41.46ZM177.87,41.76c-.21,0-.4-.17-.41-.38-.04-.55-.09-1.09-.16-1.64-.03-.23.14-.43.36-.46.22-.02.43.14.46.36.06.55.12,1.11.16,1.67.02.23-.15.43-.38.44-.01,0-.02,0-.03,0ZM94.41,40.37s-.03,0-.05,0c-.23-.02-.39-.23-.37-.46.06-.56.13-1.11.22-1.66.03-.23.25-.38.47-.35.23.03.38.24.35.47-.08.54-.15,1.08-.21,1.63-.02.21-.2.37-.41.37ZM177.26,37.1c-.2,0-.37-.14-.41-.34-.1-.54-.21-1.08-.34-1.61-.05-.22.09-.44.31-.5.23-.05.44.09.5.31.12.54.24,1.09.35,1.64.04.22-.1.44-.33.48-.03,0-.05,0-.08,0ZM95.18,35.74s-.06,0-.09-.01c-.22-.05-.36-.27-.31-.49.12-.55.26-1.09.4-1.63.06-.22.29-.35.51-.29.22.06.35.29.29.51-.14.53-.27,1.06-.39,1.6-.04.19-.21.32-.4.32ZM176.12,32.54c-.18,0-.34-.11-.39-.29-.16-.52-.33-1.04-.52-1.56-.08-.21.04-.45.25-.53.21-.08.45.04.53.25.19.53.36,1.06.53,1.59.07.22-.05.45-.27.52-.04.01-.08.02-.12.02ZM96.47,31.22s-.09,0-.14-.02c-.22-.07-.33-.31-.25-.53.18-.53.38-1.06.58-1.58.08-.21.32-.32.54-.23.21.08.32.32.23.54-.2.51-.39,1.03-.57,1.55-.06.17-.22.28-.39.28ZM174.48,28.14c-.16,0-.31-.09-.38-.25-.22-.5-.45-1-.69-1.49-.1-.21-.01-.45.19-.55.2-.1.45-.01.55.19.24.5.48,1.01.7,1.52.09.21,0,.45-.21.54-.05.02-.11.03-.17.03ZM98.26,26.87c-.06,0-.12-.01-.18-.04-.21-.1-.29-.35-.19-.55.24-.5.49-1,.76-1.5.11-.2.36-.28.56-.17.2.11.28.36.17.56-.26.48-.5.97-.74,1.47-.07.15-.22.23-.37.23ZM172.36,23.96c-.14,0-.28-.07-.36-.21-.27-.47-.56-.94-.85-1.4-.12-.19-.07-.45.13-.57.19-.12.45-.07.57.13.3.47.59.95.87,1.43.11.2.05.45-.15.56-.06.04-.14.06-.21.06ZM100.53,22.75c-.08,0-.15-.02-.22-.06-.19-.12-.25-.38-.13-.57.3-.47.6-.94.92-1.4.13-.19.39-.23.57-.11.19.13.24.39.11.57-.31.45-.61.91-.9,1.38-.08.13-.21.19-.35.19ZM169.77,20.04c-.13,0-.25-.06-.33-.17-.33-.44-.66-.87-1-1.3-.14-.18-.11-.44.06-.58.18-.14.44-.11.58.06.35.44.69.88,1.02,1.32.14.18.1.44-.09.58-.07.05-.16.08-.25.08ZM103.25,18.91c-.09,0-.18-.03-.26-.09-.18-.14-.21-.4-.07-.58.35-.44.7-.87,1.07-1.29.15-.17.41-.19.58-.04s.19.41.04.58c-.36.41-.71.84-1.05,1.27-.08.1-.2.16-.32.16ZM166.77,16.43c-.11,0-.22-.04-.3-.13-.37-.4-.75-.79-1.14-1.18-.16-.16-.16-.42,0-.58.16-.16.42-.16.58,0,.4.39.79.79,1.17,1.2.16.17.15.43-.02.58-.08.07-.18.11-.28.11ZM106.37,15.4c-.11,0-.21-.04-.29-.12-.16-.16-.16-.42,0-.58.39-.4.79-.78,1.21-1.16.17-.16.43-.15.58.02.15.17.14.43-.02.58-.4.37-.79.75-1.18,1.14-.08.08-.19.12-.29.12ZM163.38,13.17c-.1,0-.19-.03-.27-.1-.42-.36-.84-.71-1.27-1.05-.18-.14-.21-.4-.07-.58.14-.18.4-.21.58-.07.44.35.87.7,1.29,1.07.17.15.19.41.04.58-.08.1-.2.14-.31.14ZM109.87,12.26c-.12,0-.24-.05-.32-.15-.14-.18-.11-.44.06-.58.44-.35.88-.69,1.33-1.02.18-.13.44-.1.58.09.14.18.1.44-.09.58-.44.33-.87.66-1.3,1-.08.06-.17.09-.26.09ZM159.66,10.31c-.08,0-.16-.02-.23-.07-.45-.31-.91-.61-1.38-.9-.19-.12-.25-.38-.13-.57.12-.19.38-.25.57-.13.47.3.94.6,1.41.92.19.13.24.39.11.57-.08.12-.21.18-.34.18ZM113.69,9.53c-.14,0-.27-.07-.35-.19-.12-.19-.07-.45.13-.57.47-.3.95-.59,1.43-.87.2-.12.45-.05.56.15.11.2.05.45-.15.56-.47.27-.94.56-1.4.85-.07.04-.14.06-.22.06ZM155.63,7.89c-.07,0-.13-.02-.19-.05-.48-.26-.97-.5-1.47-.74-.21-.1-.29-.35-.19-.55.1-.21.35-.29.55-.19.5.24,1,.49,1.5.75.2.11.28.36.17.56-.07.14-.22.22-.37.22ZM117.79,7.25c-.15,0-.3-.09-.37-.23-.1-.21-.01-.45.19-.55.5-.24,1.01-.48,1.52-.7.21-.09.45,0,.54.21.09.21,0,.45-.21.54-.5.22-1,.45-1.49.69-.06.03-.12.04-.18.04ZM151.35,5.93s-.1,0-.15-.03c-.51-.2-1.03-.39-1.54-.57-.22-.07-.33-.31-.26-.53.08-.22.31-.33.53-.26.53.18,1.06.38,1.58.58.21.08.32.32.23.54-.06.16-.22.26-.38.26ZM122.11,5.44c-.17,0-.33-.11-.39-.28-.08-.21.04-.45.25-.53.53-.19,1.06-.36,1.59-.53.22-.07.45.05.52.27s-.05.45-.27.52c-.52.16-1.04.33-1.56.52-.05.02-.09.02-.14.02ZM146.88,4.46s-.07,0-.11-.01c-.53-.14-1.06-.27-1.59-.39-.22-.05-.36-.27-.31-.49.05-.22.27-.36.49-.31.55.12,1.09.25,1.63.4.22.06.35.29.29.51-.05.18-.22.31-.4.31ZM126.62,4.13c-.19,0-.36-.13-.4-.32-.05-.22.09-.44.31-.5.54-.12,1.09-.24,1.64-.34.23-.04.44.1.48.33.04.22-.11.44-.33.48-.54.1-1.08.21-1.61.34-.03,0-.06.01-.09.01ZM142.28,3.51s-.04,0-.06,0c-.54-.08-1.08-.15-1.63-.21-.23-.02-.39-.23-.37-.46.03-.23.25-.4.46-.37.56.06,1.11.13,1.66.21.23.03.38.24.35.47-.03.21-.21.35-.41.35ZM131.25,3.33c-.21,0-.39-.16-.41-.37-.03-.23.14-.43.36-.46.55-.06,1.11-.12,1.67-.16.25-.01.43.15.44.38.02.23-.15.43-.38.44-.55.04-1.09.09-1.64.15-.02,0-.03,0-.05,0ZM137.6,3.08h-.01c-.5-.02-1-.03-1.51-.03h-.13c-.23,0-.41-.19-.41-.41s.18-.41.41-.41h.13c.52,0,1.03,0,1.54.03.23,0,.41.2.4.43,0,.22-.19.4-.41.4Z"/>
      </g>
      <g>
        <ellipse class="cls-4" cx="108.6" cy="308.9" rx="30.89" ry="31.2"/>
        <g>
          <path class="cls-5" d="M130.66,286.15l-13.31-5.94c2.36.44,4.72,1.16,7.01,2.18,2.29,1.02,4.4,2.29,6.3,3.76Z"/>
          <path class="cls-5" d="M136.77,292.47l-28.22-12.59c1.62-.17,3.27-.21,4.92-.12l20.11,8.97c1.17,1.17,2.23,2.42,3.19,3.74Z"/>
          <path class="cls-5" d="M139.66,297.34l-36.65-16.36c1.12-.33,2.25-.6,3.4-.8l31.58,14.09c.62.99,1.17,2.01,1.67,3.06Z"/>
          <path class="cls-5" d="M141.33,301.66l-42.66-19.04c.88-.41,1.78-.78,2.7-1.11l38.98,17.4c.37.9.69,1.82.98,2.75Z"/>
          <path class="cls-5" d="M142.26,305.66l-47.18-21.06c.73-.47,1.48-.91,2.25-1.31l44.4,19.82c.21.84.39,1.69.53,2.55Z"/>
          <path class="cls-5" d="M142.63,309.41l-50.6-22.58c.62-.51,1.26-1,1.91-1.46l48.5,21.64c.09.8.16,1.6.19,2.4Z"/>
          <path class="cls-5" d="M142.57,312.96l-53.13-23.71c.53-.55,1.07-1.08,1.64-1.59l51.59,23.02c0,.76-.03,1.52-.09,2.28Z"/>
          <path class="cls-5" d="M142.12,316.34l-54.9-24.5c.45-.59.91-1.15,1.39-1.7l53.84,24.03c-.08.72-.19,1.45-.33,2.17Z"/>
          <path class="cls-5" d="M141.32,319.57l-55.97-24.98c.37-.62.76-1.21,1.17-1.79l55.36,24.7c-.16.69-.34,1.38-.55,2.07Z"/>
          <path class="cls-5" d="M140.2,322.65l-56.4-25.17c.3-.65.62-1.27.96-1.89l56.2,25.08c-.23.66-.48,1.32-.76,1.98Z"/>
          <path class="cls-5" d="M139.73,323.71c-.3.65-.62,1.27-.96,1.89l-56.2-25.08c.23-.66.48-1.32.76-1.98l56.4,25.17Z"/>
          <path class="cls-5" d="M138.18,326.6c-.37.62-.76,1.21-1.17,1.79l-55.36-24.7c.16-.69.34-1.38.55-2.07l55.97,24.98Z"/>
          <path class="cls-5" d="M136.31,329.35c-.45.58-.91,1.15-1.39,1.7l-53.84-24.03c.08-.72.19-1.45.33-2.17l54.9,24.5Z"/>
          <path class="cls-5" d="M134.1,331.94c-.53.55-1.07,1.08-1.63,1.59l-51.59-23.02c0-.76.03-1.52.09-2.28l53.13,23.71Z"/>
          <path class="cls-5" d="M131.5,334.36c-.62.51-1.26,1-1.91,1.46l-48.5-21.64c-.09-.8-.16-1.6-.19-2.4l50.6,22.58Z"/>
          <path class="cls-5" d="M128.45,336.59c-.73.47-1.48.91-2.25,1.31l-44.4-19.82c-.21-.84-.39-1.69-.53-2.55l47.18,21.06Z"/>
          <path class="cls-5" d="M124.86,338.57c-.88.41-1.78.78-2.7,1.11l-38.98-17.4c-.37-.9-.69-1.82-.98-2.75l42.66,19.04Z"/>
          <path class="cls-5" d="M120.52,340.21c-1.12.33-2.25.6-3.4.8l-31.58-14.09c-.62-.99-1.17-2.01-1.67-3.06l36.65,16.36Z"/>
          <path class="cls-5" d="M114.97,341.32c-1.62.17-3.27.21-4.92.12l-20.11-8.97c-1.17-1.17-2.24-2.42-3.19-3.74l28.22,12.59Z"/>
          <path class="cls-5" d="M106.19,340.98c-2.36-.44-4.72-1.16-7.01-2.18-2.29-1.02-4.4-2.29-6.3-3.76l13.31,5.94Z"/>
        </g>
      </g>
      <polygon class="cls-5" points="200.81 307.54 198.41 310.07 194.95 306.73 191.71 310.07 188.31 306.73 185.02 310.07 181.68 306.73 178.33 310.07 175.04 306.73 171.64 310.07 168.41 306.73 164.08 310.91 165.75 312.63 168.35 310.12 171.6 313.47 175.02 310.12 178.32 313.47 181.68 310.12 185.04 313.47 188.34 310.12 191.76 313.47 195.01 310.12 198.48 313.47 200.81 311.02 200.81 307.54"/>
      <g>
        <g>
          <rect class="cls-7" x="196.92" y="358.29" width="1.54" height="8.61"/>
          <rect class="cls-7" x="193.38" y="361.83" width="7.42" height="1.54"/>
        </g>
        <g>
          <rect class="cls-7" x="184.79" y="358.29" width="1.54" height="8.61"/>
          <rect class="cls-7" x="181.25" y="361.83" width="8.61" height="1.54"/>
        </g>
        <g>
          <rect class="cls-7" x="172.66" y="358.29" width="1.54" height="8.61"/>
          <rect class="cls-7" x="169.12" y="361.83" width="8.61" height="1.54"/>
        </g>
        <g>
          <rect class="cls-7" x="160.53" y="358.29" width="1.54" height="8.61"/>
          <rect class="cls-7" x="156.99" y="361.83" width="8.61" height="1.54"/>
        </g>
        <g>
          <rect class="cls-7" x="148.4" y="358.29" width="1.54" height="8.61"/>
          <rect class="cls-7" x="144.86" y="361.83" width="8.61" height="1.54"/>
        </g>
      </g>
      <polygon class="cls-9" points="40.63 370.13 37.16 366.77 33.91 370.12 30.49 366.77 27.19 370.13 23.83 366.77 20.47 370.12 17.17 366.77 13.75 370.13 10.5 366.77 7.9 369.28 6.23 367.56 10.56 363.38 13.79 366.72 17.2 363.38 20.49 366.72 23.83 363.38 27.17 366.72 30.47 363.38 33.87 366.72 37.1 363.38 40.56 366.72 43.74 363.38 48.12 367.55 46.47 369.29 43.82 366.77 40.63 370.13"/>
      <polygon class="cls-9" points="8.94 118.2 5.76 121.55 2.31 118.21 0 120.59 0 124.04 2.36 121.6 5.83 124.95 9.03 121.6 11.68 124.12 13.33 122.38 8.94 118.2"/>
      <polygon class="cls-9" points="76.6 205.48 73.41 202.13 70.76 204.65 69.1 202.91 73.49 198.73 76.67 202.08 80.12 198.73 83.36 202.08 86.76 198.73 90.05 202.08 93.39 198.73 96.74 202.08 100.03 198.73 103.43 202.08 106.66 198.73 110.99 202.92 109.32 204.64 106.72 202.13 103.47 205.48 100.06 202.13 96.76 205.48 93.39 202.13 90.04 205.48 86.73 202.13 83.32 205.48 80.07 202.13 76.6 205.48"/>
      <polygon class="cls-9" points="200.81 156.93 196.8 163.87 140.14 131.16 172.85 74.49 200.81 90.64 200.81 88.61 172.21 72.1 137.75 131.8 197.44 166.26 200.81 160.43 200.81 156.93"/>
      <path class="cls-9" d="M63.3,95.52l-9.07-15.71,15.71-9.07,9.07,15.71-15.71,9.07ZM56.62,80.45l7.32,12.68,12.68-7.32-7.32-12.68-12.68,7.32Z"/>
      <polygon class="cls-9" points="200.81 196.79 196.95 194.56 200.81 187.87 200.81 184.37 194.56 195.2 200.81 198.81 200.81 196.79"/>
      <polygon class="cls-9" points="52.56 0 56.49 6.82 24.28 25.41 9.61 0 7.59 0 23.64 27.8 58.88 7.46 54.58 0 52.56 0"/>
      <g>
        <path class="cls-8" d="M14.05,341.43l4.53-47.82,39.14,27.83-43.68,19.98ZM20.03,296.79l-3.96,41.78,38.17-17.46-34.21-24.32Z"/>
        <polygon class="cls-8" points="25.08 307.83 20.84 352.63 61.76 333.9 25.08 307.83"/>
      </g>
      <path class="cls-4" d="M17.41,72.51l3.67-38.74,31.72,22.55-35.39,16.19ZM22.54,36.95l-3.1,32.71,29.88-13.67-26.78-19.04Z"/>
      <g>
        <g>
          <rect class="cls-3" x="183.61" y="7.95" width="8.61" height="1.54"/>
          <rect class="cls-3" x="187.15" y="4.42" width="1.54" height="8.61"/>
        </g>
        <g>
          <rect class="cls-3" x="183.61" y="20.08" width="8.61" height="1.54"/>
          <rect class="cls-3" x="187.15" y="16.55" width="1.54" height="8.61"/>
        </g>
        <g>
          <rect class="cls-3" x="183.61" y="32.21" width="8.61" height="1.54"/>
          <rect class="cls-3" x="187.15" y="28.68" width="1.54" height="8.61"/>
        </g>
        <g>
          <rect class="cls-3" x="196.07" y="7.95" width="4.74" height="1.54"/>
          <rect class="cls-3" x="199.6" y="4.42" width="1.2" height="8.61"/>
        </g>
        <g>
          <rect class="cls-3" x="196.07" y="20.08" width="4.74" height="1.54"/>
          <rect class="cls-3" x="199.6" y="16.55" width="1.2" height="8.61"/>
        </g>
        <g>
          <rect class="cls-3" x="196.07" y="32.21" width="4.74" height="1.54"/>
          <rect class="cls-3" x="199.6" y="28.68" width="1.2" height="8.61"/>
        </g>
      </g>
      <g>
        <rect class="cls-7" x="142.12" y="274.44" width="13.84" height="2.47" transform="translate(-162.76 307.15) rotate(-67.37)"/>
        <rect class="cls-7" x="147.81" y="268.76" width="2.47" height="13.84" transform="translate(-137.86 149.6) rotate(-37.88)"/>
        <rect class="cls-7" x="142.12" y="274.44" width="13.84" height="2.47"/>
      </g>
      <g>
        <polygon class="cls-8" points="0 236.68 0 247.82 5.26 260.44 9.22 258.79 0 236.68"/>
        <polygon class="cls-8" points="0 255.39 11.68 240.37 8.3 237.74 0 248.41 0 255.39"/>
        <rect class="cls-8" y="246.39" width="14.62" height="4.29"/>
      </g>
      <g>
        <rect class="cls-7" x="111.26" y="126.01" width="24.01" height="4.29" transform="translate(-42.45 192.62) rotate(-67.37)"/>
        <rect class="cls-7" x="121.12" y="116.15" width="4.29" height="24.01" transform="translate(-52.71 102.67) rotate(-37.88)"/>
        <rect class="cls-7" x="111.26" y="126.01" width="24.01" height="4.29"/>
      </g>
      <g>
        <rect class="cls-8" x="67.72" y="11.01" width="4.29" height="24.01" transform="translate(-3.48 28.65) rotate(-22.62)"/>
        <rect class="cls-8" x="57.86" y="20.88" width="24.01" height="4.29" transform="translate(8.8 64.03) rotate(-52.12)"/>
        <rect class="cls-8" x="57.86" y="20.88" width="24.01" height="4.29"/>
      </g>
      <g>
        <polygon class="cls-4" points="116.37 0 114.1 13.84 97.2 0 95.46 0 114.87 15.9 117.49 0 116.37 0"/>
        <polygon class="cls-4" points="103.23 0 123.11 16.29 125.79 0 103.23 0"/>
      </g>
      <g>
        <path class="cls-3" d="M9.29,41.07c-3.32,0-6.46.74-9.29,2.05v41.03c2.83,1.31,5.98,2.05,9.29,2.05,12.34,0,22.34-10.1,22.34-22.56s-10-22.56-22.34-22.56Z"/>
        <g>
          <path class="cls-1" d="M25.24,47.18l-9.63-4.3c1.71.32,3.41.84,5.07,1.58s3.18,1.66,4.56,2.72Z"/>
          <path class="cls-1" d="M29.67,51.75l-20.4-9.11c1.17-.12,2.36-.16,3.56-.09l14.54,6.49c.85.84,1.62,1.75,2.31,2.71Z"/>
          <path class="cls-1" d="M31.75,55.27l-26.5-11.83c.81-.24,1.63-.43,2.46-.58l22.84,10.19c.44.72.85,1.46,1.21,2.22Z"/>
          <path class="cls-1" d="M32.96,58.4L2.11,44.63c.64-.3,1.29-.57,1.95-.8l28.19,12.58c.27.65.5,1.32.71,1.99Z"/>
          <path class="cls-1" d="M0,46.28l33.63,15.01c-.1-.62-.23-1.24-.38-1.85L1.14,45.11c-.39.21-.77.44-1.14.67v.5Z"/>
          <path class="cls-1" d="M0,48.87l33.9,15.13c-.02-.58-.07-1.16-.14-1.74L0,47.19v1.68Z"/>
          <path class="cls-1" d="M0,49.79v1.68l33.85,15.11c.04-.55.06-1.1.07-1.65L0,49.79Z"/>
          <path class="cls-1" d="M0,52.38v1.68l33.53,14.96c.1-.52.18-1.05.24-1.57L0,52.38Z"/>
          <path class="cls-1" d="M0,54.97v1.68l32.95,14.71c.15-.5.29-1,.4-1.5L0,54.97Z"/>
          <path class="cls-1" d="M0,57.56v1.68l32.14,14.34c.2-.47.39-.95.55-1.43L0,57.56Z"/>
          <path class="cls-1" d="M0,60.15v1.68l31.11,13.88c.25-.44.48-.9.7-1.37L0,60.15Z"/>
          <path class="cls-1" d="M0,62.74v1.68l29.84,13.32c.3-.42.58-.85.85-1.3L0,62.74Z"/>
          <path class="cls-1" d="M0,65.33v1.68l28.33,12.64c.35-.39.68-.8,1.01-1.23L0,65.33Z"/>
          <path class="cls-1" d="M0,67.92v1.68l26.55,11.85c.41-.37.8-.75,1.18-1.15L0,67.92Z"/>
          <path class="cls-1" d="M0,70.51v1.68l24.47,10.92c.47-.33.94-.69,1.38-1.06L0,70.51Z"/>
          <path class="cls-1" d="M0,73.1v1.68l22.02,9.83c.56-.29,1.1-.61,1.63-.95L0,73.1Z"/>
          <path class="cls-1" d="M0,75.69v1.68l19.1,8.52c.66-.24,1.32-.51,1.95-.8L0,75.69Z"/>
          <path class="cls-1" d="M0,78.28v1.68l15.46,6.9c.83-.15,1.65-.34,2.46-.58L0,78.28Z"/>
          <path class="cls-1" d="M0,80.87v1.68l10.35,4.62c1.19.07,2.38.03,3.55-.09l-13.9-6.2Z"/>
          <path class="cls-1" d="M0,83.46v.49c.79.48,1.62.91,2.48,1.3,1.66.74,3.36,1.26,5.07,1.58l-7.55-3.37Z"/>
        </g>
      </g>
      <g>
        <path class="cls-3" d="M40.55,15.39h-11.1c-.85,0-1.54-.69-1.54-1.54s.69-1.54,1.54-1.54h3.92c.85,0,1.54-.69,1.54-1.54v-.07c0-.85-.69-1.54-1.54-1.54H0v3.16h8.69c.85,0,1.54.69,1.54,1.54s-.69,1.54-1.54,1.54h-3.47c-.85,0-1.54.69-1.54,1.54v.07c0,.85.69,1.54,1.54,1.54h35.34c.85,0,1.54-.69,1.54-1.54v-.07c0-.85-.69-1.54-1.54-1.54Z"/>
        <path class="cls-3" d="M40.55,15.3h-11.1c-.8,0-1.46-.65-1.46-1.46s.65-1.46,1.46-1.46h3.92c.9,0,1.63-.73,1.63-1.63v-.07c0-.9-.73-1.63-1.63-1.63H0v.17h33.37c.8,0,1.46.65,1.46,1.46v.07c0,.8-.65,1.46-1.46,1.46h-3.92c-.9,0-1.63.73-1.63,1.63s.73,1.63,1.63,1.63h11.1c.8,0,1.46.65,1.46,1.46v.07c0,.8-.65,1.46-1.46,1.46H5.21c-.8,0-1.46-.65-1.46-1.46v-.07c0-.8.65-1.46,1.46-1.46h3.47c.9,0,1.63-.73,1.63-1.63s-.73-1.63-1.63-1.63H0v.17h8.69c.8,0,1.46.65,1.46,1.46s-.65,1.46-1.46,1.46h-3.47c-.9,0-1.63.73-1.63,1.63v.07c0,.9.73,1.63,1.63,1.63h35.34c.9,0,1.63-.73,1.63-1.63v-.07c0-.9-.73-1.63-1.63-1.63Z"/>
      </g>
      <g>
        <path class="cls-5" d="M150.64,178.58h0c0,.85.69,1.54,1.54,1.54h3.47c.85,0,1.54.69,1.54,1.54v.07c0,.85-.69,1.54-1.54,1.54h-35.34c-.85,0-1.54-.69-1.54-1.54v-.07c0-.85.69-1.54,1.54-1.54h11.1c.85,0,1.54-.69,1.54-1.54h0c0-.85-.69-1.54-1.54-1.54h-3.92c-.85,0-1.54-.69-1.54-1.54v-.07c0-.85.69-1.54,1.54-1.54h35.34c.85,0,1.54.69,1.54,1.54v.07c0,.85-.69,1.54-1.54,1.54h-10.66c-.85,0-1.54.69-1.54,1.54Z"/>
        <path class="cls-5" d="M155.65,183.37h-35.34c-.9,0-1.63-.73-1.63-1.63v-.07c0-.9.73-1.63,1.63-1.63h11.1c.8,0,1.46-.65,1.46-1.46s-.65-1.46-1.46-1.46h-3.92c-.9,0-1.63-.73-1.63-1.63v-.07c0-.9.73-1.63,1.63-1.63h35.34c.9,0,1.63.73,1.63,1.63v.07c0,.9-.73,1.63-1.63,1.63h-10.66c-.8,0-1.46.65-1.46,1.46s.65,1.46,1.46,1.46h3.47c.9,0,1.63.73,1.63,1.63v.07c0,.9-.73,1.63-1.63,1.63ZM120.32,180.21c-.8,0-1.46.65-1.46,1.46v.07c0,.8.65,1.46,1.46,1.46h35.34c.8,0,1.46-.65,1.46-1.46v-.07c0-.8-.65-1.46-1.46-1.46h-3.47c-.9,0-1.63-.73-1.63-1.63s.73-1.63,1.63-1.63h10.66c.8,0,1.46-.65,1.46-1.46v-.07c0-.8-.65-1.46-1.46-1.46h-35.34c-.8,0-1.46.65-1.46,1.46v.07c0,.8.65,1.46,1.46,1.46h3.92c.9,0,1.63.73,1.63,1.63s-.73,1.63-1.63,1.63h-11.1Z"/>
      </g>
      <path class="cls-4" d="M187.99,256.11c-3.94,0-7.14-3.2-7.14-7.14s3.2-7.14,7.14-7.14,7.14,3.2,7.14,7.14-3.2,7.14-7.14,7.14ZM187.99,243.58c-2.97,0-5.39,2.42-5.39,5.39s2.42,5.39,5.39,5.39,5.39-2.42,5.39-5.39-2.42-5.39-5.39-5.39Z"/>
      <path class="cls-4" d="M172.87,270.28c-2.21,0-4.01-1.8-4.01-4.01s1.8-4.01,4.01-4.01,4.01,1.8,4.01,4.01-1.8,4.01-4.01,4.01ZM172.87,264.02c-1.25,0-2.26,1.01-2.26,2.26s1.01,2.26,2.26,2.26,2.26-1.01,2.26-2.26-1.01-2.26-2.26-2.26Z"/>
      <path class="cls-2" d="M72.89,133.01c-3.94,0-7.14-3.2-7.14-7.14s3.2-7.14,7.14-7.14,7.14,3.2,7.14,7.14-3.2,7.14-7.14,7.14ZM72.89,120.48c-2.97,0-5.39,2.42-5.39,5.39s2.42,5.39,5.39,5.39,5.39-2.42,5.39-5.39-2.42-5.39-5.39-5.39Z"/>
      <path class="cls-2" d="M177.93,203.28c-2.21,0-4.01-1.8-4.01-4.01s1.8-4.01,4.01-4.01,4.01,1.8,4.01,4.01-1.8,4.01-4.01,4.01ZM177.93,197.02c-1.25,0-2.26,1.01-2.26,2.26s1.01,2.26,2.26,2.26,2.26-1.01,2.26-2.26-1.01-2.26-2.26-2.26Z"/>
      <path class="cls-3" d="M173.89,117.66c-1.43,0-2.88-.43-4.13-1.32-3.21-2.28-3.96-6.75-1.68-9.96,2.28-3.21,6.75-3.96,9.96-1.68,3.21,2.28,3.96,6.75,1.68,9.96h0c-1.39,1.96-3.59,3-5.83,3ZM173.91,105.13c-1.69,0-3.35.79-4.4,2.27-1.72,2.42-1.15,5.8,1.27,7.52,2.43,1.72,5.8,1.15,7.52-1.27h0c.83-1.17,1.16-2.6.92-4.02-.24-1.42-1.02-2.66-2.19-3.5-.95-.67-2.04-1-3.12-1Z"/>
      <path class="cls-3" d="M186.91,128.43c-.83,0-1.63-.25-2.31-.74-.87-.62-1.45-1.54-1.63-2.6-.18-1.06.07-2.12.69-2.99.62-.87,1.54-1.45,2.6-1.63,1.05-.18,2.12.07,2.99.69.87.62,1.45,1.54,1.63,2.6.18,1.06-.07,2.12-.69,2.99-.62.87-1.54,1.45-2.6,1.63-.23.04-.45.06-.68.06ZM186.92,122.17c-.13,0-.25.01-.38.03-.59.1-1.12.43-1.46.92s-.49,1.09-.39,1.69c.1.59.43,1.11.92,1.46,1.01.72,2.43.48,3.15-.53.35-.49.49-1.09.39-1.69-.1-.59-.43-1.11-.92-1.46-.39-.27-.84-.42-1.3-.42Z"/>
      <path class="cls-2" d="M137.57,362.49c-3.94,0-7.14-3.2-7.14-7.14s3.2-7.14,7.14-7.14,7.14,3.2,7.14,7.14-3.2,7.14-7.14,7.14ZM137.57,349.95c-2.97,0-5.39,2.42-5.39,5.39s2.42,5.39,5.39,5.39,5.39-2.42,5.39-5.39-2.42-5.39-5.39-5.39Z"/>
      <path class="cls-2" d="M173.43,379.33c-2.21,0-4.01-1.8-4.01-4.01s1.8-4.01,4.01-4.01,4.01,1.8,4.01,4.01-1.8,4.01-4.01,4.01ZM173.43,373.07c-1.25,0-2.26,1.01-2.26,2.26s1.01,2.26,2.26,2.26,2.26-1.01,2.26-2.26-1.01-2.26-2.26-2.26Z"/>
    </g>
  </g>
</svg>