<?xml version="1.0" encoding="UTF-8"?>
<svg id="Layer_2" data-name="Layer 2" xmlns="http://www.w3.org/2000/svg" viewBox="0 0 295.85 407.12">
  <defs>
    <style>
      .cls-1, .cls-2, .cls-3, .cls-4, .cls-5, .cls-6, .cls-7, .cls-8, .cls-9, .cls-10, .cls-11, .cls-12, .cls-13, .cls-14, .cls-15, .cls-16, .cls-17, .cls-18, .cls-19, .cls-20, .cls-21, .cls-22, .cls-23, .cls-24, .cls-25, .cls-26 {
        fill: none;
      }

      .cls-1, .cls-4 {
        stroke-width: 2.4px;
      }

      .cls-1, .cls-4, .cls-5, .cls-7, .cls-9, .cls-27, .cls-11, .cls-12, .cls-28, .cls-16, .cls-19, .cls-20, .cls-21, .cls-26 {
        stroke-miterlimit: 10;
      }

      .cls-1, .cls-28 {
        stroke: #76e4e5;
      }

      .cls-29 {
        fill: #fbd0a0;
      }

      .cls-2 {
        stroke-dasharray: 1.67 3.05;
      }

      .cls-2, .cls-3, .cls-6, .cls-8, .cls-10, .cls-13, .cls-14, .cls-15, .cls-17, .cls-18, .cls-22, .cls-23, .cls-24, .cls-25 {
        stroke-linecap: round;
        stroke-linejoin: round;
      }

      .cls-2, .cls-4, .cls-8, .cls-10, .cls-13, .cls-17, .cls-18, .cls-19, .cls-23 {
        stroke: #161616;
      }

      .cls-2, .cls-8, .cls-10, .cls-13, .cls-17, .cls-18, .cls-23 {
        stroke-width: .83px;
      }

      .cls-3 {
        stroke-dasharray: 2.51 4.59;
      }

      .cls-3, .cls-6, .cls-14, .cls-15, .cls-22, .cls-24, .cls-25 {
        stroke: #fff;
        stroke-width: 1.25px;
      }

      .cls-5, .cls-7, .cls-16 {
        stroke: #fff45a;
      }

      .cls-5, .cls-9 {
        stroke-width: 4.29px;
      }

      .cls-6 {
        stroke-dasharray: 2.5 4.59;
      }

      .cls-7 {
        stroke-width: 2.47px;
      }

      .cls-8 {
        stroke-dasharray: 1.66 3.04;
      }

      .cls-9, .cls-21 {
        stroke: #ff5fac;
      }

      .cls-10 {
        stroke-dasharray: 1.67 3.07;
      }

      .cls-27, .cls-11, .cls-12 {
        stroke: #d36d38;
      }

      .cls-27, .cls-28 {
        stroke-width: .17px;
      }

      .cls-27, .cls-30 {
        fill: #d36d38;
      }

      .cls-11, .cls-19, .cls-20, .cls-21, .cls-26 {
        stroke-width: 1.75px;
      }

      .cls-12, .cls-16 {
        stroke-width: 1.54px;
      }

      .cls-28, .cls-31 {
        fill: #76e4e5;
      }

      .cls-13 {
        stroke-dasharray: 1.66 3.04;
      }

      .cls-32 {
        fill: #319eff;
      }

      .cls-14 {
        stroke-dasharray: 2.5 4.59;
      }

      .cls-15 {
        stroke-dasharray: 2.51 4.6;
      }

      .cls-17 {
        stroke-dasharray: 1.66 3.05;
      }

      .cls-18 {
        stroke-dasharray: 1.66 3.04;
      }

      .cls-33 {
        fill: #ff5fac;
      }

      .cls-20 {
        stroke: #6acf6b;
      }

      .cls-22 {
        stroke-dasharray: 2.52 4.63;
      }

      .cls-23 {
        stroke-dasharray: 1.66 3.05;
      }

      .cls-24 {
        stroke-dasharray: 2.51 4.61;
      }

      .cls-25 {
        stroke-dasharray: 2.51 4.6;
      }

      .cls-26 {
        stroke: #319eff;
      }
    </style>
  </defs>
  <g id="Layer_1-2" data-name="Layer 1">
    <g>
      <g>
        <circle class="cls-22" cx="72.89" cy="242.14" r="18.21" transform="translate(-37.85 14.8) rotate(-9.22)"/>
        <circle class="cls-24" cx="72.89" cy="242.14" r="27.22" transform="translate(-37.85 14.8) rotate(-9.22)"/>
        <circle class="cls-15" cx="72.89" cy="242.14" r="36.23"/>
        <circle class="cls-25" cx="72.89" cy="242.14" r="45.24"/>
        <circle class="cls-3" cx="72.89" cy="242.14" r="54.25"/>
        <circle class="cls-14" cx="72.89" cy="242.14" r="63.25"/>
        <circle class="cls-6" cx="72.89" cy="242.14" r="72.26" transform="translate(-149.87 122.46) rotate(-45)"/>
      </g>
      <g>
        <path class="cls-10" d="M193.85,72.35c0,6.66-5.4,12.07-12.07,12.07s-12.07-5.4-12.07-12.07,5.4-12.07,12.07-12.07,12.07,5.4,12.07,12.07Z"/>
        <circle class="cls-2" cx="181.78" cy="72.35" r="18.04"/>
        <circle class="cls-23" cx="181.78" cy="72.35" r="24.01"/>
        <circle class="cls-17" cx="181.78" cy="72.35" r="29.98" transform="translate(-1.22 3.14) rotate(-.99)"/>
        <circle class="cls-8" cx="181.78" cy="72.35" r="35.95" transform="translate(108.34 253.69) rotate(-89.65)"/>
        <circle class="cls-13" cx="181.78" cy="72.35" r="41.92"/>
        <circle class="cls-18" cx="181.78" cy="72.35" r="47.89" transform="translate(105.51 252.52) rotate(-88.76)"/>
      </g>
      <g>
        <ellipse class="cls-32" cx="154.3" cy="336.69" rx="30.89" ry="31.2"/>
        <g>
          <path class="cls-31" d="M176.36,313.94l-13.31-5.94c2.36.44,4.72,1.16,7.01,2.18s4.4,2.29,6.3,3.76Z"/>
          <path class="cls-31" d="M182.48,320.25l-28.22-12.59c1.62-.17,3.27-.21,4.92-.12l20.11,8.97c1.17,1.17,2.23,2.42,3.19,3.74Z"/>
          <path class="cls-31" d="M185.36,325.12l-36.65-16.36c1.12-.33,2.25-.6,3.4-.8l31.58,14.09c.62.99,1.17,2.01,1.67,3.06Z"/>
          <path class="cls-31" d="M187.04,329.45l-42.66-19.04c.88-.41,1.78-.78,2.7-1.11l38.98,17.4c.37.9.69,1.82.98,2.75Z"/>
          <path class="cls-31" d="M187.96,333.45l-47.18-21.06c.73-.47,1.48-.91,2.25-1.31l44.4,19.82c.21.84.39,1.69.53,2.55Z"/>
          <path class="cls-31" d="M188.34,337.2l-50.6-22.58c.62-.51,1.26-1,1.91-1.46l48.5,21.64c.09.8.16,1.6.19,2.4Z"/>
          <path class="cls-31" d="M188.27,340.75l-53.13-23.71c.53-.55,1.07-1.08,1.64-1.59l51.59,23.02c0,.76-.03,1.52-.09,2.28Z"/>
          <path class="cls-31" d="M187.82,344.13l-54.9-24.5c.45-.59.91-1.15,1.39-1.7l53.84,24.03c-.08.72-.19,1.45-.33,2.17Z"/>
          <path class="cls-31" d="M187.03,347.36l-55.97-24.98c.37-.62.76-1.21,1.17-1.79l55.36,24.7c-.16.69-.34,1.38-.55,2.07Z"/>
          <path class="cls-31" d="M185.9,350.44l-56.4-25.17c.3-.65.62-1.27.96-1.89l56.2,25.08c-.23.66-.48,1.32-.76,1.98Z"/>
          <path class="cls-31" d="M185.43,351.49c-.3.65-.62,1.27-.96,1.89l-56.2-25.08c.23-.66.48-1.32.76-1.98l56.4,25.17Z"/>
          <path class="cls-31" d="M183.89,354.39c-.37.62-.76,1.21-1.17,1.79l-55.36-24.7c.16-.69.34-1.38.55-2.07l55.97,24.98Z"/>
          <path class="cls-31" d="M182.02,357.13c-.45.58-.91,1.15-1.39,1.7l-53.84-24.03c.08-.72.19-1.45.33-2.17l54.9,24.5Z"/>
          <path class="cls-31" d="M179.8,359.73c-.53.55-1.07,1.08-1.63,1.59l-51.59-23.02c0-.76.03-1.52.09-2.28l53.13,23.71Z"/>
          <path class="cls-31" d="M177.2,362.15c-.62.51-1.26,1-1.91,1.46l-48.5-21.64c-.09-.8-.16-1.6-.19-2.4l50.6,22.58Z"/>
          <path class="cls-31" d="M174.16,364.37c-.73.47-1.48.91-2.25,1.31l-44.4-19.82c-.21-.84-.39-1.69-.53-2.55l47.18,21.06Z"/>
          <path class="cls-31" d="M170.57,366.35c-.88.41-1.78.78-2.7,1.11l-38.98-17.4c-.37-.9-.69-1.82-.98-2.75l42.66,19.04Z"/>
          <path class="cls-31" d="M166.23,368c-1.12.33-2.25.6-3.4.8l-31.58-14.09c-.62-.99-1.17-2.01-1.67-3.06l36.65,16.36Z"/>
          <path class="cls-31" d="M160.68,369.1c-1.62.17-3.27.21-4.92.12l-20.11-8.97c-1.17-1.17-2.24-2.42-3.19-3.74l28.22,12.59Z"/>
          <path class="cls-31" d="M151.89,368.77c-2.36-.44-4.72-1.16-7.01-2.18s-4.4-2.29-6.3-3.76l13.31,5.94Z"/>
        </g>
      </g>
      <polyline class="cls-1" points="210.62 339.56 214.09 336.21 217.33 339.56 220.74 336.21 224.03 339.56 227.38 336.21 230.74 339.56 234.03 336.21 237.44 339.56 240.68 336.21 244.15 339.56 247.33 336.21 250.85 339.56"/>
      <g>
        <g>
          <line class="cls-16" x1="243.39" y1="394.68" x2="243.39" y2="386.08"/>
          <line class="cls-16" x1="239.09" y1="390.38" x2="247.7" y2="390.38"/>
        </g>
        <g>
          <line class="cls-16" x1="231.26" y1="394.68" x2="231.26" y2="386.08"/>
          <line class="cls-16" x1="226.96" y1="390.38" x2="235.57" y2="390.38"/>
        </g>
        <g>
          <line class="cls-16" x1="219.13" y1="394.68" x2="219.13" y2="386.08"/>
          <line class="cls-16" x1="214.83" y1="390.38" x2="223.44" y2="390.38"/>
        </g>
        <g>
          <line class="cls-16" x1="207" y1="394.68" x2="207" y2="386.08"/>
          <line class="cls-16" x1="202.7" y1="390.38" x2="211.31" y2="390.38"/>
        </g>
        <g>
          <line class="cls-16" x1="194.87" y1="394.68" x2="194.87" y2="386.08"/>
          <line class="cls-16" x1="190.57" y1="390.38" x2="199.18" y2="390.38"/>
        </g>
      </g>
      <polyline class="cls-4" points="52.77 396.21 56.24 392.86 59.48 396.21 62.89 392.86 66.18 396.21 69.54 392.86 72.89 396.21 76.19 392.86 79.59 396.21 82.83 392.86 86.3 396.21 89.48 392.86 93 396.21"/>
      <polyline class="cls-4" points="17.98 151.04 21.44 147.69 24.68 151.04 28.09 147.69 31.39 151.04 34.74 147.69 38.09 151.04 41.39 147.69 44.8 151.04 48.04 147.69 51.5 151.04 54.69 147.69 58.21 151.04"/>
      <polyline class="cls-4" points="155.86 231.56 152.4 228.22 149.16 231.56 145.75 228.22 142.45 231.56 139.1 228.22 135.75 231.56 132.45 228.22 129.04 231.56 125.8 228.22 122.34 231.56 119.15 228.22 115.63 231.56"/>
      <rect class="cls-19" x="196.94" y="113.38" width="67.18" height="67.18" transform="translate(104.37 -95.57) rotate(30)"/>
      <rect class="cls-19" x="104.13" y="102.72" width="16.4" height="16.4" transform="translate(265.07 150.81) rotate(150)"/>
      <rect class="cls-19" x="248.58" y="196.07" width="38.94" height="38.94" transform="translate(143.68 -105.15) rotate(30)"/>
      <rect class="cls-19" x="57.32" y="8.32" width="38.94" height="38.94" transform="translate(157.19 13.47) rotate(150)"/>
      <g>
        <polygon class="cls-21" points="65.01 322.99 60.76 367.79 101.69 349.06 65.01 322.99"/>
        <polygon class="cls-33" points="70.79 335.61 66.54 380.41 107.46 361.69 70.79 335.61"/>
      </g>
      <polygon class="cls-26" points="67.52 63.14 64.13 98.87 96.77 83.94 67.52 63.14"/>
      <g>
        <g>
          <line class="cls-12" x1="229.32" y1="12.25" x2="237.93" y2="12.25"/>
          <line class="cls-12" x1="233.62" y1="16.55" x2="233.62" y2="7.94"/>
        </g>
        <g>
          <line class="cls-12" x1="229.32" y1="24.38" x2="237.93" y2="24.38"/>
          <line class="cls-12" x1="233.62" y1="28.68" x2="233.62" y2="20.07"/>
        </g>
        <g>
          <line class="cls-12" x1="229.32" y1="36.51" x2="237.93" y2="36.51"/>
          <line class="cls-12" x1="233.62" y1="40.81" x2="233.62" y2="32.2"/>
        </g>
        <g>
          <line class="cls-12" x1="229.32" y1="48.64" x2="237.93" y2="48.64"/>
          <line class="cls-12" x1="233.62" y1="52.94" x2="233.62" y2="44.33"/>
        </g>
        <g>
          <line class="cls-12" x1="229.32" y1="60.77" x2="237.93" y2="60.77"/>
          <line class="cls-12" x1="233.62" y1="65.07" x2="233.62" y2="56.46"/>
        </g>
        <g>
          <line class="cls-12" x1="241.77" y1="12.25" x2="250.38" y2="12.25"/>
          <line class="cls-12" x1="246.08" y1="16.55" x2="246.08" y2="7.94"/>
        </g>
        <g>
          <line class="cls-12" x1="241.77" y1="24.38" x2="250.38" y2="24.38"/>
          <line class="cls-12" x1="246.08" y1="28.68" x2="246.08" y2="20.07"/>
        </g>
        <g>
          <line class="cls-12" x1="241.77" y1="36.51" x2="250.38" y2="36.51"/>
          <line class="cls-12" x1="246.08" y1="40.81" x2="246.08" y2="32.2"/>
        </g>
        <g>
          <line class="cls-12" x1="241.77" y1="48.64" x2="250.38" y2="48.64"/>
          <line class="cls-12" x1="246.08" y1="52.94" x2="246.08" y2="44.33"/>
        </g>
        <g>
          <line class="cls-12" x1="241.77" y1="60.77" x2="250.38" y2="60.77"/>
          <line class="cls-12" x1="246.08" y1="65.07" x2="246.08" y2="56.46"/>
        </g>
      </g>
      <g>
        <line class="cls-7" x1="197.41" y1="297.08" x2="192.09" y2="309.85"/>
        <line class="cls-7" x1="199" y1="308.93" x2="190.5" y2="298"/>
        <line class="cls-7" x1="201.67" y1="303.46" x2="187.83" y2="303.46"/>
      </g>
      <g>
        <line class="cls-9" x1="43.7" y1="265.24" x2="52.94" y2="287.4"/>
        <line class="cls-9" x1="40.95" y1="285.8" x2="55.69" y2="266.84"/>
        <line class="cls-9" x1="36.32" y1="276.32" x2="60.33" y2="276.32"/>
      </g>
      <g>
        <line class="cls-5" x1="173.59" y1="144.86" x2="164.35" y2="167.02"/>
        <line class="cls-5" x1="176.34" y1="165.42" x2="161.6" y2="146.46"/>
        <line class="cls-5" x1="180.97" y1="155.94" x2="156.96" y2="155.94"/>
      </g>
      <g>
        <line class="cls-9" x1="110.95" y1="39.72" x2="120.19" y2="61.89"/>
        <line class="cls-9" x1="108.2" y1="60.28" x2="122.94" y2="41.33"/>
        <line class="cls-9" x1="103.56" y1="50.81" x2="127.57" y2="50.81"/>
      </g>
      <g>
        <path class="cls-32" d="M165.48,13.85l-28.29,10.67,23.39,19.17,4.9-29.84ZM139.36,24.88l24.72-9.33-4.28,26.07-20.44-16.75Z"/>
        <polygon class="cls-32" points="146.9 26.12 173.41 16.12 168.82 44.08 146.9 26.12"/>
      </g>
      <g>
        <ellipse class="cls-30" cx="55" cy="91.42" rx="22.34" ry="22.56"/>
        <g>
          <path class="cls-29" d="M70.95,74.97l-9.63-4.3c1.71.32,3.41.84,5.07,1.58s3.18,1.66,4.56,2.72Z"/>
          <path class="cls-29" d="M75.37,79.54l-20.4-9.11c1.17-.12,2.36-.16,3.56-.09l14.54,6.49c.85.84,1.62,1.75,2.31,2.71Z"/>
          <path class="cls-29" d="M77.46,83.06l-26.5-11.83c.81-.24,1.63-.43,2.46-.58l22.84,10.19c.44.72.85,1.46,1.21,2.22Z"/>
          <path class="cls-29" d="M78.67,86.19l-30.85-13.77c.64-.3,1.29-.57,1.95-.8l28.19,12.58c.27.65.5,1.32.71,1.99Z"/>
          <path class="cls-29" d="M79.34,89.08l-34.12-15.22c.53-.34,1.07-.66,1.63-.95l32.11,14.33c.15.61.28,1.22.38,1.85Z"/>
          <path class="cls-29" d="M79.61,91.79l-36.59-16.33c.45-.37.91-.72,1.38-1.06l35.07,15.65c.07.58.11,1.16.14,1.74Z"/>
          <path class="cls-29" d="M79.56,94.36l-38.42-17.15c.38-.4.78-.78,1.18-1.15l37.3,16.65c0,.55-.02,1.1-.07,1.65Z"/>
          <path class="cls-29" d="M79.23,96.8l-39.7-17.72c.32-.42.66-.83,1.01-1.23l38.93,17.37c-.06.52-.14,1.05-.24,1.57Z"/>
          <path class="cls-29" d="M78.66,99.13l-40.47-18.06c.27-.45.55-.88.85-1.3l40.03,17.86c-.11.5-.25,1-.4,1.5Z"/>
          <path class="cls-29" d="M77.85,101.36l-40.78-18.2c.22-.47.45-.92.7-1.37l40.63,18.13c-.17.48-.35.96-.55,1.43Z"/>
          <path class="cls-29" d="M77.51,102.13c-.22.47-.45.92-.7,1.37l-40.63-18.13c.17-.48.35-.96.55-1.43l40.78,18.2Z"/>
          <path class="cls-29" d="M76.39,104.22c-.27.45-.55.88-.85,1.3l-40.03-17.86c.11-.5.25-1,.4-1.5l40.47,18.06Z"/>
          <path class="cls-29" d="M75.04,106.2c-.32.42-.66.83-1.01,1.23l-38.93-17.37c.06-.52.14-1.05.24-1.57l39.7,17.72Z"/>
          <path class="cls-29" d="M73.44,108.08c-.38.4-.78.78-1.18,1.15l-37.3-16.65c0-.55.02-1.1.07-1.65l38.42,17.15Z"/>
          <path class="cls-29" d="M71.56,109.83c-.45.37-.91.72-1.38,1.06l-35.07-15.65c-.07-.58-.11-1.16-.14-1.74l36.59,16.33Z"/>
          <path class="cls-29" d="M69.36,111.44c-.53.34-1.07.66-1.63.95l-32.11-14.33c-.15-.61-.28-1.22-.38-1.85l34.12,15.22Z"/>
          <path class="cls-29" d="M66.76,112.87c-.64.3-1.29.57-1.95.8l-28.19-12.58c-.27-.65-.5-1.32-.71-1.99l30.85,13.77Z"/>
          <path class="cls-29" d="M63.62,114.06c-.81.24-1.63.43-2.46.58l-22.84-10.19c-.44-.72-.85-1.46-1.21-2.22l26.5,11.83Z"/>
          <path class="cls-29" d="M59.61,114.86c-1.17.12-2.36.16-3.55.09l-14.54-6.49c-.85-.84-1.62-1.75-2.31-2.71l20.4,9.11Z"/>
          <path class="cls-29" d="M53.26,114.61c-1.71-.32-3.41-.84-5.07-1.58s-3.18-1.66-4.56-2.72l9.63,4.3Z"/>
        </g>
      </g>
      <path class="cls-27" d="M55.94,41.63h0c0,.85-.69,1.54-1.54,1.54h-3.47c-.85,0-1.54.69-1.54,1.54v.07c0,.85.69,1.54,1.54,1.54h35.34c.85,0,1.54-.69,1.54-1.54v-.07c0-.85-.69-1.54-1.54-1.54h-11.1c-.85,0-1.54-.69-1.54-1.54h0c0-.85.69-1.54,1.54-1.54h3.92c.85,0,1.54-.69,1.54-1.54v-.07c0-.85-.69-1.54-1.54-1.54h-35.34c-.85,0-1.54.69-1.54,1.54v.07c0,.85.69,1.54,1.54,1.54h10.66c.85,0,1.54.69,1.54,1.54Z"/>
      <path class="cls-28" d="M196.34,206.37h0c0,.85.69,1.54,1.54,1.54h3.47c.85,0,1.54.69,1.54,1.54v.07c0,.85-.69,1.54-1.54,1.54h-35.34c-.85,0-1.54-.69-1.54-1.54v-.07c0-.85.69-1.54,1.54-1.54h11.1c.85,0,1.54-.69,1.54-1.54h0c0-.85-.69-1.54-1.54-1.54h-3.92c-.85,0-1.54-.69-1.54-1.54v-.07c0-.85.69-1.54,1.54-1.54h35.34c.85,0,1.54.69,1.54,1.54v.07c0,.85-.69,1.54-1.54,1.54h-10.66c-.85,0-1.54.69-1.54,1.54Z"/>
      <circle class="cls-26" cx="233.69" cy="276.76" r="6.27"/>
      <circle class="cls-26" cx="218.58" cy="294.06" r="3.13"/>
      <circle class="cls-20" cx="118.6" cy="153.66" r="6.27"/>
      <circle class="cls-20" cx="223.64" cy="227.06" r="3.13"/>
      <circle class="cls-11" cx="219.61" cy="138.31" r="6.27"/>
      <circle class="cls-11" cx="232.62" cy="152.21" r="3.13"/>
      <circle class="cls-20" cx="183.27" cy="383.13" r="6.27"/>
      <circle class="cls-20" cx="219.13" cy="403.11" r="3.13"/>
    </g>
  </g>
</svg>