<?xml version="1.0" encoding="UTF-8"?>
<svg id="Layer_2" data-name="Layer 2" xmlns="http://www.w3.org/2000/svg" viewBox="0 0 2562 1605">
  <defs>
    <style>
      .cls-1 {
        fill: #fbd0a0;
      }

      .cls-2 {
        fill: #6acf6b;
      }

      .cls-3 {
        fill: #d36d38;
      }

      .cls-4 {
        fill: #319eff;
      }

      .cls-5 {
        fill: #76e4e5;
      }

      .cls-6 {
        fill: #fff;
      }

      .cls-7 {
        fill: #fff45a;
      }

      .cls-8 {
        fill: #ff5fac;
      }

      .cls-9 {
        fill: #161616;
      }
    </style>
  </defs>
  <g id="Layer_1-2" data-name="Layer 1">
    <g>
      <g>
        <path class="cls-6" d="M1385.1,756.04c-1.97,0-3.59-1.6-3.59-3.56s1.57-3.56,3.54-3.56h.05c4.63,0,9.29-.32,13.84-.94,1.95-.27,3.75,1.09,4.02,3.04.27,1.95-1.09,3.75-3.04,4.02-4.87.67-9.85,1.01-14.81,1.01ZM1358.89,752.71c-.3,0-.6-.04-.9-.11-4.8-1.25-9.56-2.84-14.13-4.74-1.82-.75-2.68-2.84-1.93-4.66.75-1.82,2.84-2.68,4.66-1.93,4.27,1.77,8.71,3.26,13.19,4.42,1.91.49,3.05,2.44,2.56,4.35-.42,1.61-1.86,2.67-3.45,2.67ZM1424.88,748.17c-1.4,0-2.73-.83-3.29-2.2-.75-1.82.11-3.9,1.93-4.66,4.27-1.77,8.47-3.86,12.46-6.21,1.7-1,3.88-.43,4.88,1.27,1,1.7.43,3.88-1.27,4.88-4.28,2.52-8.77,4.75-13.35,6.65-.45.18-.91.27-1.36.27ZM1322.35,735.01c-.75,0-1.5-.24-2.15-.72-3.95-2.99-7.73-6.28-11.23-9.79-1.39-1.39-1.39-3.65,0-5.04,1.39-1.39,3.65-1.39,5.04,0,3.27,3.27,6.8,6.35,10.49,9.14,1.57,1.19,1.88,3.42.69,4.99-.7.93-1.77,1.41-2.85,1.41ZM1458.65,725.6c-.91,0-1.83-.35-2.52-1.05-1.39-1.39-1.39-3.65,0-5.04,3.28-3.27,6.35-6.8,9.15-10.49,1.19-1.57,3.42-1.88,4.99-.69,1.57,1.19,1.88,3.42.69,4.99-2.99,3.95-6.29,7.73-9.79,11.23-.7.69-1.61,1.04-2.52,1.04ZM1295.35,704.69c-1.22,0-2.41-.63-3.07-1.76-2.52-4.28-4.76-8.77-6.66-13.35-.75-1.82.11-3.9,1.93-4.66,1.82-.76,3.9.11,4.66,1.93,1.77,4.27,3.86,8.47,6.21,12.46,1,1.7.43,3.88-1.26,4.88-.57.33-1.19.49-1.81.49ZM1481.25,691.88c-.46,0-.92-.09-1.37-.27-1.82-.76-2.68-2.84-1.92-4.66,1.78-4.27,3.27-8.71,4.43-13.19.5-1.91,2.44-3.05,4.35-2.55,1.91.5,3.05,2.44,2.55,4.35-1.25,4.8-2.84,9.55-4.75,14.13-.57,1.37-1.9,2.2-3.29,2.2ZM1281.99,666.33c-1.75,0-3.28-1.29-3.53-3.08-.68-4.89-1.02-9.89-1.02-14.86v-.21c0-1.97,1.6-3.56,3.56-3.56s3.56,1.6,3.56,3.56v.21c0,4.65.32,9.32.95,13.89.27,1.95-1.09,3.75-3.04,4.02-.17.02-.33.03-.49.03ZM1489.18,652.01c-1.97,0-3.56-1.54-3.56-3.51v-.15c0-4.56-.31-9.2-.94-13.74-.27-1.95,1.1-3.75,3.05-4.02,1.95-.27,3.75,1.1,4.02,3.05.67,4.86,1,9.82,1,14.75,0,1.97-1.6,3.62-3.56,3.62ZM1284.38,625.59c-.3,0-.6-.04-.9-.12-1.9-.5-3.05-2.44-2.55-4.35,1.25-4.8,2.85-9.55,4.76-14.13.76-1.82,2.85-2.67,4.66-1.92,1.82.76,2.68,2.84,1.92,4.66-1.78,4.27-3.28,8.71-4.45,13.18-.42,1.6-1.86,2.66-3.45,2.66ZM1481.33,612.22c-1.4,0-2.73-.83-3.3-2.2-1.77-4.28-3.85-8.47-6.2-12.47-1-1.7-.43-3.88,1.27-4.88s3.88-.43,4.88,1.27c2.51,4.28,4.75,8.77,6.64,13.35.75,1.82-.11,3.9-1.93,4.66-.45.18-.91.27-1.36.27ZM1302.14,589.09c-.75,0-1.51-.24-2.15-.73-1.57-1.19-1.87-3.43-.68-4.99,2.99-3.94,6.29-7.72,9.8-11.22,1.39-1.39,3.65-1.39,5.04,0,1.39,1.39,1.39,3.65,0,5.04-3.28,3.27-6.36,6.8-9.16,10.48-.7.92-1.77,1.41-2.84,1.41ZM1458.78,578.44c-.91,0-1.83-.35-2.52-1.05-3.27-3.28-6.8-6.36-10.49-9.15-1.57-1.19-1.88-3.43-.69-4.99,1.19-1.57,3.43-1.88,4.99-.69,3.95,2.99,7.72,6.29,11.23,9.8,1.39,1.39,1.39,3.65,0,5.04-.7.69-1.61,1.04-2.52,1.04ZM1332.5,562.13c-1.22,0-2.41-.63-3.08-1.76-1-1.7-.43-3.88,1.27-4.88,4.28-2.51,8.77-4.75,13.36-6.64,1.82-.75,3.9.11,4.65,1.93.75,1.82-.11,3.9-1.93,4.65-4.28,1.77-8.47,3.85-12.47,6.2-.57.33-1.19.49-1.8.49ZM1425.07,555.83c-.46,0-.92-.09-1.37-.27-4.27-1.78-8.71-3.27-13.19-4.44-1.9-.5-3.05-2.44-2.55-4.35s2.44-3.05,4.35-2.55c4.8,1.25,9.55,2.85,14.13,4.76,1.82.76,2.68,2.84,1.92,4.66-.57,1.37-1.9,2.2-3.29,2.2ZM1370.87,548.84c-1.75,0-3.28-1.3-3.53-3.08-.27-1.95,1.1-3.75,3.05-4.01,4.84-.66,9.78-1,14.7-1h.16c1.97,0,3.56,1.6,3.56,3.56s-1.6,3.56-3.56,3.56h-.16c-4.6,0-9.22.31-13.74.93-.16.02-.33.03-.49.03Z"/>
        <path class="cls-6" d="M1385.54,807.54c-1.96,0-3.56-1.59-3.56-3.55,0-1.97,1.59-3.57,3.55-3.57,4.69-.01,9.42-.24,14.05-.68,1.96-.19,3.7,1.25,3.88,3.21.19,1.96-1.25,3.7-3.21,3.88-4.85.46-9.8.7-14.7.71h-.01ZM1359.26,805.4c-.2,0-.39-.02-.59-.05-4.83-.81-9.67-1.85-14.4-3.1-1.9-.5-3.04-2.45-2.53-4.36.5-1.9,2.46-3.04,4.36-2.53,4.51,1.19,9.14,2.19,13.75,2.96,1.94.32,3.25,2.16,2.93,4.1-.29,1.74-1.8,2.98-3.51,2.98ZM1425.87,802.14c-1.57,0-3.01-1.04-3.44-2.63-.51-1.9.61-3.86,2.51-4.37,4.51-1.22,9.02-2.67,13.39-4.31,1.84-.69,3.9.25,4.59,2.09.69,1.84-.25,3.9-2.09,4.59-4.58,1.71-9.3,3.23-14.02,4.51-.31.08-.63.12-.93.12ZM1320.35,793.47c-.5,0-1-.1-1.48-.32-4.44-2.04-8.85-4.31-13.09-6.75-1.71-.98-2.29-3.16-1.31-4.87.98-1.71,3.16-2.29,4.87-1.31,4.05,2.33,8.26,4.5,12.5,6.45,1.79.82,2.58,2.94,1.76,4.73-.6,1.31-1.89,2.08-3.24,2.08ZM1463.42,786.42c-1.23,0-2.42-.63-3.08-1.77-.99-1.7-.42-3.88,1.28-4.88,4.03-2.35,8.01-4.93,11.81-7.65,1.6-1.15,3.83-.78,4.97.83,1.15,1.6.78,3.83-.83,4.97-3.98,2.85-8.14,5.54-12.36,8.01-.56.33-1.18.49-1.79.49ZM1285.9,771.82c-.8,0-1.61-.27-2.27-.82-3.77-3.12-7.43-6.45-10.9-9.91-1.39-1.39-1.4-3.65,0-5.04,1.39-1.39,3.65-1.4,5.04,0,3.31,3.3,6.81,6.49,10.41,9.47,1.52,1.26,1.73,3.5.47,5.02-.71.85-1.72,1.29-2.75,1.29ZM1495.59,761.49c-.91,0-1.81-.34-2.51-1.03-1.4-1.39-1.41-3.64-.02-5.04,3.29-3.32,6.47-6.83,9.44-10.44,1.25-1.52,3.5-1.74,5.02-.49,1.52,1.25,1.74,3.5.49,5.02-3.11,3.77-6.43,7.45-9.88,10.93-.7.7-1.61,1.06-2.53,1.06ZM1258.21,742c-1.11,0-2.21-.52-2.91-1.5-2.84-3.99-5.52-8.16-7.97-12.39-.99-1.7-.41-3.88,1.3-4.87,1.7-.99,3.88-.41,4.87,1.3,2.34,4.04,4.9,8.02,7.61,11.83,1.14,1.6.76,3.83-.84,4.97-.63.45-1.35.66-2.06.66ZM1520.23,729.11c-.6,0-1.21-.15-1.77-.47-1.71-.98-2.3-3.16-1.32-4.86,2.32-4.06,4.48-8.27,6.41-12.52.81-1.79,2.93-2.58,4.72-1.77,1.79.81,2.58,2.93,1.77,4.72-2.02,4.45-4.28,8.86-6.71,13.11-.66,1.15-1.86,1.79-3.1,1.79ZM1239.17,706.02c-1.45,0-2.81-.89-3.34-2.33-1.7-4.59-3.2-9.31-4.47-14.04-.51-1.9.62-3.86,2.52-4.36,1.9-.51,3.86.62,4.36,2.52,1.21,4.51,2.64,9.02,4.27,13.4.68,1.85-.26,3.9-2.1,4.58-.41.15-.83.22-1.24.22ZM1535.63,691.44c-.3,0-.6-.04-.9-.12-1.9-.5-3.04-2.45-2.55-4.35,1.18-4.52,2.16-9.14,2.92-13.76.32-1.94,2.16-3.26,4.09-2.94,1.94.32,3.26,2.15,2.94,4.09-.79,4.83-1.82,9.68-3.06,14.41-.42,1.6-1.86,2.66-3.45,2.66ZM1230.17,666.34c-1.82,0-3.38-1.39-3.54-3.24-.44-4.85-.67-9.8-.67-14.71,0-1.97,1.6-3.56,3.56-3.56s3.56,1.6,3.56,3.56c0,4.69.22,9.42.64,14.06.18,1.96-1.26,3.69-3.22,3.87-.11.01-.22.02-.33.02ZM1540.67,651.07c-1.96,0-3.55-1.58-3.56-3.54-.03-4.68-.27-9.41-.72-14.05-.19-1.96,1.24-3.7,3.2-3.89,1.96-.2,3.7,1.24,3.89,3.2.47,4.86.73,9.8.75,14.7.01,1.97-1.58,3.57-3.54,3.58,0,0-.01,0-.02,0ZM1231.44,627.44c-.19,0-.37-.01-.56-.04-1.94-.31-3.27-2.13-2.96-4.08.77-4.83,1.77-9.69,2.98-14.42.49-1.91,2.43-3.06,4.34-2.57,1.91.49,3.06,2.43,2.57,4.33-1.16,4.52-2.11,9.16-2.84,13.78-.28,1.76-1.79,3.01-3.52,3.01ZM1535.16,610.75c-1.57,0-3-1.04-3.44-2.62-1.23-4.5-2.7-9.01-4.35-13.38-.69-1.84.24-3.9,2.08-4.59,1.84-.69,3.9.23,4.59,2.08,1.73,4.58,3.26,9.29,4.55,14.01.52,1.9-.6,3.86-2.5,4.38-.32.09-.63.13-.94.13ZM1243.03,588.43c-.49,0-.98-.1-1.46-.31-1.8-.8-2.6-2.91-1.8-4.71,2-4.46,4.23-8.89,6.64-13.15.97-1.71,3.14-2.32,4.86-1.35,1.71.97,2.32,3.14,1.35,4.86-2.3,4.07-4.43,8.29-6.34,12.56-.59,1.32-1.89,2.11-3.25,2.11ZM1519.34,573.26c-1.22,0-2.41-.63-3.08-1.76-2.37-4.03-4.95-7.99-7.68-11.79-1.15-1.6-.79-3.83.81-4.98,1.6-1.15,3.82-.79,4.98.81,2.86,3.97,5.56,8.13,8.04,12.34,1,1.7.43,3.88-1.27,4.88-.57.33-1.19.49-1.8.49ZM1264.38,553.8c-.79,0-1.59-.26-2.25-.8-1.53-1.24-1.76-3.49-.51-5.01,3.09-3.79,6.39-7.49,9.81-10.98,1.38-1.41,3.63-1.43,5.04-.05,1.41,1.38,1.43,3.63.05,5.04-3.27,3.34-6.43,6.87-9.38,10.49-.7.87-1.73,1.31-2.77,1.31ZM1494.31,541.15c-.9,0-1.81-.34-2.5-1.03-3.33-3.28-6.85-6.45-10.47-9.41-1.52-1.25-1.75-3.49-.5-5.02,1.25-1.52,3.49-1.75,5.02-.5,3.78,3.1,7.47,6.41,10.95,9.85,1.4,1.38,1.42,3.64.04,5.04-.7.71-1.62,1.06-2.54,1.06ZM1293.97,525.84c-1.1,0-2.19-.51-2.89-1.47-1.15-1.59-.8-3.82.8-4.98,3.97-2.87,8.11-5.59,12.32-8.08,1.7-1,3.88-.44,4.88,1.25,1,1.69.44,3.88-1.25,4.88-4.02,2.38-7.98,4.97-11.77,7.72-.63.46-1.36.68-2.09.68ZM1461.86,516.6c-.6,0-1.2-.15-1.76-.47-4.06-2.31-8.28-4.46-12.54-6.38-1.79-.81-2.59-2.92-1.78-4.71.81-1.79,2.92-2.59,4.71-1.78,4.46,2.01,8.87,4.26,13.13,6.68,1.71.97,2.31,3.15,1.34,4.86-.66,1.16-1.86,1.8-3.1,1.8ZM1329.78,506.5c-1.44,0-2.79-.88-3.33-2.3-.7-1.84.22-3.9,2.06-4.6,4.57-1.74,9.28-3.29,14-4.59,1.9-.52,3.86.59,4.39,2.48.53,1.9-.59,3.86-2.48,4.39-4.5,1.25-9,2.72-13.37,4.38-.42.16-.85.23-1.27.23ZM1424.15,501.32c-.3,0-.6-.04-.89-.11-4.52-1.17-9.15-2.14-13.77-2.88-1.94-.31-3.26-2.14-2.95-4.09.31-1.94,2.14-3.26,4.09-2.95,4.84.78,9.69,1.8,14.42,3.02,1.91.49,3.05,2.44,2.56,4.34-.42,1.61-1.86,2.67-3.45,2.67ZM1369.38,497.16c-1.81,0-3.36-1.37-3.54-3.21-.2-1.96,1.23-3.71,3.19-3.9,4.85-.49,9.8-.75,14.7-.8.01,0,.02,0,.03,0,1.95,0,3.55,1.58,3.56,3.53.02,1.97-1.57,3.58-3.53,3.59-4.68.04-9.41.3-14.05.76-.12.01-.24.02-.36.02Z"/>
        <path class="cls-6" d="M1385.83,859.04c-1.96,0-3.56-1.59-3.56-3.55,0-1.97,1.58-3.57,3.55-3.58,4.7-.02,9.45-.2,14.12-.53,1.96-.16,3.67,1.33,3.81,3.3.14,1.96-1.33,3.67-3.3,3.81-4.83.35-9.75.54-14.61.55h-.01ZM1359.53,857.48c-.15,0-.29,0-.44-.03-4.82-.59-9.68-1.37-14.45-2.29-1.93-.38-3.19-2.25-2.82-4.18.38-1.93,2.24-3.19,4.18-2.82,4.6.9,9.3,1.64,13.96,2.21,1.95.24,3.34,2.02,3.1,3.97-.22,1.81-1.76,3.13-3.53,3.13ZM1426.31,854.94c-1.66,0-3.15-1.17-3.49-2.86-.39-1.93.86-3.81,2.79-4.2,4.6-.93,9.23-2.03,13.75-3.28,1.9-.52,3.86.59,4.38,2.49.52,1.9-.59,3.86-2.49,4.38-4.68,1.29-9.46,2.43-14.23,3.4-.24.05-.48.07-.71.07ZM1319.83,848.55c-.37,0-.75-.06-1.12-.18-4.61-1.53-9.23-3.25-13.72-5.09-1.82-.75-2.69-2.83-1.94-4.65.75-1.82,2.83-2.69,4.65-1.94,4.33,1.78,8.79,3.44,13.25,4.92,1.87.62,2.88,2.64,2.26,4.51-.5,1.5-1.89,2.44-3.38,2.44ZM1465.22,842.97c-1.39,0-2.71-.82-3.29-2.19-.76-1.82.09-3.9,1.91-4.67,4.33-1.82,8.65-3.81,12.84-5.93,1.76-.89,3.9-.18,4.79,1.58.89,1.76.18,3.9-1.58,4.79-4.35,2.19-8.82,4.26-13.3,6.14-.45.19-.92.28-1.38.28ZM1282.68,831.98c-.6,0-1.2-.15-1.76-.47-4.21-2.4-8.4-4.98-12.44-7.68-1.64-1.09-2.08-3.3-.99-4.94s3.3-2.08,4.94-.99c3.91,2.6,7.95,5.1,12.02,7.42,1.71.97,2.31,3.15,1.33,4.86-.66,1.15-1.86,1.8-3.1,1.8ZM1501.02,823.58c-1.14,0-2.27-.55-2.96-1.57-1.1-1.63-.68-3.85.95-4.95,3.89-2.63,7.73-5.43,11.43-8.33,1.55-1.21,3.79-.94,5,.61,1.21,1.55.94,3.79-.61,5-3.83,3-7.81,5.9-11.83,8.62-.61.41-1.31.61-1.99.61ZM1249.49,808.47c-.83,0-1.66-.29-2.33-.87-3.67-3.18-7.27-6.53-10.71-9.96-1.39-1.39-1.4-3.65,0-5.04,1.39-1.39,3.65-1.4,5.04,0,3.32,3.31,6.81,6.55,10.35,9.62,1.49,1.29,1.65,3.54.36,5.03-.71.81-1.7,1.23-2.69,1.23ZM1532.33,797.57c-.91,0-1.81-.34-2.51-1.03-1.4-1.38-1.41-3.64-.03-5.04,3.3-3.34,6.52-6.83,9.59-10.39,1.28-1.49,3.54-1.66,5.03-.38,1.49,1.28,1.66,3.53.38,5.03-3.17,3.68-6.51,7.3-9.92,10.75-.7.7-1.62,1.06-2.53,1.06ZM1221.5,778.93c-1.06,0-2.11-.47-2.82-1.38-2.98-3.84-5.87-7.83-8.58-11.86-1.1-1.63-.66-3.85.97-4.95s3.85-.66,4.95.97c2.62,3.9,5.4,7.75,8.29,11.46,1.21,1.55.93,3.79-.63,5-.65.5-1.42.75-2.18.75ZM1557.98,765.99c-.67,0-1.36-.19-1.96-.59-1.64-1.09-2.09-3.3-1.01-4.94,2.59-3.91,5.07-7.97,7.38-12.05.97-1.71,3.14-2.32,4.86-1.35,1.71.97,2.32,3.14,1.35,4.86-2.39,4.22-4.96,8.42-7.63,12.47-.69,1.04-1.82,1.6-2.98,1.6ZM1199.79,744.5c-1.31,0-2.57-.72-3.19-1.97-2.18-4.35-4.23-8.83-6.09-13.32-.76-1.82.1-3.9,1.92-4.66,1.82-.76,3.9.1,4.66,1.92,1.8,4.34,3.78,8.67,5.88,12.87.88,1.76.17,3.9-1.59,4.78-.51.26-1.06.38-1.59.38ZM1576.96,730.02c-.45,0-.9-.08-1.34-.26-1.82-.74-2.7-2.82-1.96-4.65,1.77-4.35,3.41-8.81,4.87-13.27.61-1.87,2.63-2.89,4.5-2.28,1.87.61,2.89,2.63,2.28,4.5-1.51,4.62-3.21,9.24-5.04,13.74-.56,1.38-1.9,2.22-3.3,2.22ZM1185.26,706.45c-1.57,0-3.01-1.04-3.44-2.63-1.27-4.68-2.4-9.47-3.34-14.24-.38-1.93.87-3.81,2.8-4.19,1.93-.38,3.81.87,4.19,2.8.91,4.61,2,9.23,3.23,13.76.52,1.9-.6,3.86-2.5,4.37-.31.09-.63.13-.94.13ZM1588.5,691c-.22,0-.45-.02-.67-.06-1.93-.37-3.2-2.24-2.83-4.17.88-4.6,1.61-9.3,2.16-13.97.23-1.95,2-3.35,3.96-3.12,1.95.23,3.35,2.01,3.12,3.96-.58,4.83-1.33,9.69-2.24,14.46-.33,1.71-1.82,2.9-3.5,2.9ZM1178.5,666.33c-1.86,0-3.42-1.44-3.55-3.32-.33-4.84-.5-9.75-.5-14.61,0-1.97,1.6-3.56,3.56-3.56s3.56,1.6,3.56,3.56c0,4.7.16,9.45.48,14.13.13,1.96-1.35,3.67-3.31,3.8-.08,0-.17,0-.25,0ZM1592.17,650.48c-1.96,0-3.55-1.58-3.56-3.54-.03-4.7-.23-9.45-.58-14.12-.15-1.96,1.32-3.67,3.29-3.82,1.95-.15,3.67,1.32,3.82,3.29.37,4.83.57,9.75.6,14.61.01,1.97-1.57,3.58-3.54,3.59,0,0-.02,0-.03,0ZM1179.33,628.58c-.13,0-.27,0-.4-.02-1.96-.22-3.36-1.98-3.14-3.94.54-4.83,1.26-9.7,2.14-14.47.36-1.94,2.21-3.21,4.15-2.86,1.94.35,3.22,2.21,2.86,4.15-.85,4.61-1.54,9.31-2.06,13.98-.2,1.82-1.75,3.17-3.54,3.17ZM1587.92,610.02c-1.66,0-3.14-1.16-3.49-2.85-.95-4.6-2.06-9.22-3.33-13.73-.53-1.9.58-3.86,2.47-4.39,1.89-.53,3.86.58,4.39,2.47,1.31,4.68,2.47,9.46,3.45,14.22.4,1.93-.85,3.81-2.77,4.21-.24.05-.48.07-.72.07ZM1187.83,588.79c-.36,0-.73-.05-1.09-.17-1.88-.6-2.91-2.61-2.31-4.48,1.48-4.63,3.14-9.26,4.94-13.77.73-1.83,2.8-2.72,4.63-1.99,1.83.73,2.72,2.8,1.99,4.63-1.74,4.36-3.34,8.83-4.77,13.3-.48,1.51-1.89,2.48-3.39,2.48ZM1575.82,571.15c-1.39,0-2.71-.81-3.28-2.17-1.83-4.32-3.84-8.64-5.98-12.82-.89-1.75-.2-3.9,1.56-4.79,1.75-.89,3.9-.2,4.79,1.56,2.21,4.33,4.29,8.8,6.19,13.27.77,1.81-.08,3.9-1.89,4.67-.45.19-.93.28-1.39.28ZM1203.98,551.47c-.59,0-1.18-.15-1.73-.45-1.72-.96-2.34-3.13-1.38-4.85,2.36-4.24,4.9-8.45,7.54-12.52,1.07-1.65,3.28-2.12,4.93-1.04,1.65,1.07,2.12,3.28,1.04,4.93-2.56,3.93-5.01,8-7.29,12.1-.65,1.17-1.87,1.83-3.12,1.83ZM1556.3,535.42c-1.14,0-2.26-.54-2.95-1.56-2.64-3.88-5.46-7.71-8.37-11.4-1.22-1.55-.95-3.79.59-5.01,1.55-1.22,3.79-.95,5.01.59,3.01,3.82,5.92,7.79,8.66,11.8,1.11,1.63.69,3.84-.94,4.95-.61.42-1.31.62-2,.62ZM1227.15,518.03c-.81,0-1.63-.28-2.3-.85-1.5-1.27-1.68-3.52-.41-5.02,3.14-3.7,6.46-7.34,9.84-10.82,1.37-1.41,3.63-1.44,5.04-.06,1.41,1.37,1.44,3.63.06,5.04-3.28,3.36-6.48,6.88-9.51,10.46-.71.83-1.71,1.26-2.72,1.26ZM1530.18,504.2c-.9,0-1.8-.34-2.5-1.02-3.35-3.29-6.85-6.5-10.42-9.55-1.5-1.28-1.67-3.53-.39-5.02,1.28-1.5,3.53-1.67,5.02-.39,3.69,3.16,7.32,6.48,10.78,9.88,1.4,1.38,1.43,3.64.05,5.04-.7.71-1.62,1.07-2.54,1.07ZM1256.39,489.73c-1.05,0-2.09-.46-2.79-1.35-1.22-1.54-.97-3.78.57-5.01,3.81-3.02,7.77-5.95,11.77-8.7,1.62-1.11,3.84-.7,4.96.92,1.11,1.62.7,3.84-.92,4.96-3.86,2.66-7.69,5.48-11.37,8.41-.66.52-1.44.77-2.21.77ZM1498.51,478.67c-.67,0-1.35-.19-1.95-.58-3.92-2.57-7.98-5.04-12.07-7.33-1.72-.96-2.33-3.14-1.37-4.85.96-1.72,3.14-2.33,4.85-1.37,4.23,2.37,8.44,4.93,12.5,7.59,1.65,1.08,2.11,3.29,1.03,4.94-.68,1.04-1.82,1.61-2.98,1.61ZM1290.59,467.65c-1.29,0-2.54-.71-3.17-1.94-.9-1.75-.21-3.9,1.54-4.8,4.33-2.22,8.79-4.32,13.25-6.23,1.81-.77,3.9.06,4.68,1.87.77,1.81-.06,3.9-1.87,4.68-4.31,1.85-8.62,3.87-12.8,6.02-.52.27-1.08.39-1.63.39ZM1462.48,459.82c-.44,0-.89-.08-1.33-.26-4.35-1.75-8.82-3.38-13.28-4.82-1.87-.61-2.9-2.62-2.29-4.49.61-1.87,2.62-2.9,4.49-2.29,4.62,1.5,9.25,3.18,13.75,4.99,1.83.74,2.71,2.81,1.97,4.64-.56,1.39-1.9,2.23-3.31,2.23ZM1328.47,452.72c-1.55,0-2.98-1.02-3.43-2.59-.54-1.89.56-3.86,2.46-4.4,4.67-1.32,9.45-2.5,14.21-3.5,1.93-.4,3.82.83,4.22,2.76.4,1.93-.83,3.82-2.76,4.22-4.6.96-9.21,2.1-13.72,3.38-.33.09-.65.14-.97.14ZM1423.42,448.42c-.22,0-.44-.02-.66-.06-4.6-.86-9.31-1.57-13.97-2.11-1.96-.23-3.36-2-3.13-3.95s1.99-3.36,3.95-3.13c4.83.56,9.7,1.3,14.46,2.19,1.94.36,3.21,2.22,2.85,4.16-.32,1.71-1.82,2.91-3.5,2.91ZM1368.52,445.53c-1.84,0-3.4-1.42-3.55-3.28-.16-1.96,1.31-3.68,3.27-3.83,4.83-.38,9.74-.6,14.61-.65,1.93,0,3.58,1.56,3.6,3.53.02,1.97-1.56,3.58-3.53,3.6-4.7.05-9.46.26-14.12.63-.1,0-.19.01-.29.01Z"/>
        <path class="cls-6" d="M1385.92,910.54c-1.96,0-3.56-1.59-3.56-3.55,0-1.97,1.58-3.57,3.55-3.58,4.72-.01,9.48-.16,14.16-.43,1.95-.11,3.65,1.39,3.77,3.35.11,1.96-1.39,3.65-3.35,3.77-4.81.28-9.7.43-14.55.44h-.01ZM1359.63,909.3c-.12,0-.23,0-.35-.02-4.82-.47-9.68-1.08-14.45-1.82-1.95-.3-3.28-2.12-2.98-4.07.3-1.95,2.12-3.28,4.07-2.98,4.64.71,9.37,1.31,14.05,1.77,1.96.19,3.39,1.93,3.2,3.89-.18,1.84-1.73,3.22-3.54,3.22ZM1426.44,907.25c-1.72,0-3.23-1.25-3.51-3-.31-1.94,1.01-3.77,2.95-4.08,4.64-.74,9.32-1.63,13.92-2.64,1.92-.42,3.82.8,4.24,2.72.42,1.92-.8,3.82-2.72,4.24-4.73,1.03-9.54,1.94-14.31,2.71-.19.03-.38.04-.57.04ZM1319.6,902.17c-.3,0-.6-.04-.9-.12-4.67-1.22-9.38-2.59-13.98-4.07-1.87-.6-2.9-2.61-2.3-4.48s2.61-2.91,4.48-2.3c4.48,1.44,9.06,2.77,13.6,3.96,1.9.5,3.05,2.44,2.55,4.35-.42,1.6-1.86,2.67-3.45,2.67ZM1465.96,897.64c-1.5,0-2.89-.95-3.39-2.45-.62-1.87.4-3.88,2.27-4.5,4.47-1.47,8.96-3.09,13.35-4.81,1.83-.72,3.9.18,4.62,2.02.72,1.83-.18,3.9-2.02,4.62-4.51,1.77-9.13,3.43-13.73,4.95-.37.12-.75.18-1.11.18ZM1281.19,888.82c-.48,0-.97-.1-1.43-.3-4.42-1.94-8.84-4.04-13.14-6.22-1.76-.89-2.46-3.04-1.57-4.79.89-1.75,3.04-2.45,4.79-1.57,4.18,2.12,8.48,4.16,12.79,6.05,1.8.79,2.62,2.89,1.83,4.7-.59,1.33-1.89,2.13-3.27,2.13ZM1503.49,881.91c-1.29,0-2.54-.7-3.17-1.93-.9-1.75-.22-3.9,1.53-4.8,4.18-2.16,8.36-4.46,12.42-6.85,1.7-1,3.88-.43,4.88,1.26,1,1.7.43,3.88-1.26,4.88-4.17,2.46-8.47,4.83-12.77,7.04-.52.27-1.08.4-1.63.4ZM1245.39,869.59c-.66,0-1.33-.18-1.93-.57-4.06-2.61-8.1-5.38-12.01-8.21-1.59-1.16-1.95-3.38-.79-4.98,1.16-1.6,3.38-1.95,4.98-.8,3.8,2.76,7.74,5.44,11.69,7.99,1.66,1.06,2.13,3.27,1.07,4.93-.68,1.06-1.83,1.64-3,1.64ZM1538.06,860.46c-1.1,0-2.18-.5-2.88-1.45-1.17-1.59-.82-3.82.76-4.98,3.79-2.78,7.55-5.71,11.18-8.71,1.52-1.25,3.77-1.04,5.02.48,1.25,1.52,1.03,3.77-.48,5.02-3.73,3.08-7.6,6.09-11.5,8.95-.64.47-1.38.69-2.11.69ZM1213.03,844.98c-.84,0-1.69-.3-2.37-.91-3.61-3.22-7.17-6.58-10.59-9.99-1.39-1.39-1.4-3.65,0-5.04,1.39-1.39,3.65-1.4,5.04,0,3.33,3.32,6.8,6.59,10.31,9.72,1.47,1.31,1.6,3.56.29,5.03-.7.79-1.68,1.19-2.66,1.19ZM1568.85,833.89c-.91,0-1.81-.34-2.51-1.03-1.4-1.39-1.41-3.64-.02-5.04,3.31-3.34,6.57-6.82,9.69-10.34,1.31-1.47,3.56-1.61,5.03-.3,1.47,1.31,1.61,3.56.3,5.03-3.2,3.61-6.55,7.19-9.96,10.62-.7.7-1.61,1.06-2.53,1.06ZM1184.9,815.62c-1.03,0-2.06-.45-2.76-1.31-3.07-3.75-6.07-7.63-8.91-11.52-1.16-1.59-.81-3.82.78-4.98,1.59-1.16,3.82-.81,4.98.78,2.77,3.79,5.69,7.56,8.67,11.21,1.25,1.52,1.02,3.77-.5,5.02-.66.54-1.46.81-2.25.81ZM1595.11,802.85c-.72,0-1.45-.22-2.08-.67-1.6-1.15-1.96-3.38-.81-4.98,2.74-3.81,5.42-7.75,7.95-11.71,1.06-1.66,3.26-2.15,4.92-1.08,1.66,1.06,2.14,3.26,1.08,4.92-2.6,4.07-5.35,8.12-8.17,12.04-.7.97-1.79,1.48-2.9,1.48ZM1161.68,782.23c-1.23,0-2.42-.63-3.08-1.77-2.44-4.18-4.8-8.48-7-12.79-.9-1.75-.2-3.9,1.55-4.8s3.9-.2,4.8,1.55c2.14,4.19,4.44,8.37,6.81,12.44.99,1.7.42,3.88-1.28,4.88-.57.33-1.18.49-1.79.49ZM1616.19,768.09c-.54,0-1.09-.12-1.6-.38-1.76-.89-2.47-3.03-1.58-4.79,2.11-4.19,4.13-8.5,6.01-12.8.79-1.8,2.89-2.63,4.69-1.84,1.8.79,2.63,2.89,1.84,4.69-1.93,4.43-4,8.85-6.17,13.16-.63,1.24-1.88,1.96-3.19,1.96ZM1143.99,745.59c-1.43,0-2.77-.86-3.32-2.27-1.76-4.52-3.41-9.14-4.9-13.75-.61-1.87.41-3.88,2.29-4.49,1.87-.61,3.88.41,4.49,2.29,1.46,4.48,3.06,8.97,4.77,13.37.71,1.83-.2,3.9-2.03,4.61-.42.16-.86.24-1.29.24ZM1631.54,730.46c-.36,0-.72-.05-1.08-.17-1.88-.6-2.91-2.6-2.32-4.48,1.43-4.48,2.74-9.06,3.92-13.61.49-1.91,2.43-3.05,4.34-2.56,1.91.49,3.05,2.43,2.56,4.34-1.21,4.68-2.56,9.39-4.03,14-.48,1.52-1.88,2.48-3.4,2.48ZM1132.3,706.61c-1.64,0-3.12-1.14-3.48-2.82-1.02-4.72-1.91-9.54-2.67-14.32-.31-1.94,1.02-3.77,2.97-4.08,1.95-.3,3.77,1.02,4.08,2.97.73,4.65,1.6,9.33,2.59,13.93.41,1.92-.81,3.82-2.73,4.23-.25.05-.5.08-.75.08ZM1640.77,690.86c-.18,0-.36-.01-.54-.04-1.95-.29-3.29-2.11-2.99-4.06.7-4.65,1.28-9.38,1.72-14.06.19-1.96,1.93-3.4,3.88-3.21,1.96.19,3.4,1.92,3.21,3.88-.46,4.81-1.05,9.68-1.77,14.45-.27,1.77-1.79,3.03-3.52,3.03ZM1126.91,666.31c-1.88,0-3.45-1.47-3.56-3.37-.26-4.82-.4-9.71-.4-14.55,0-1.97,1.6-3.56,3.56-3.56s3.56,1.6,3.56,3.56c0,4.71.13,9.47.39,14.16.11,1.97-1.4,3.65-3.36,3.75-.07,0-.13,0-.2,0ZM1643.67,650.31c-1.96,0-3.55-1.58-3.56-3.54-.03-4.71-.19-9.48-.48-14.16-.12-1.96,1.38-3.65,3.34-3.77,1.97-.12,3.66,1.38,3.77,3.34.29,4.81.46,9.71.49,14.55.01,1.97-1.57,3.57-3.54,3.59,0,0-.02,0-.02,0ZM1127.53,628.95c-.1,0-.21,0-.32-.01-1.96-.17-3.41-1.9-3.24-3.86.42-4.82.99-9.68,1.68-14.46.28-1.95,2.09-3.3,4.04-3.02,1.95.28,3.3,2.09,3.02,4.04-.67,4.65-1.22,9.38-1.63,14.07-.16,1.85-1.72,3.25-3.55,3.25ZM1640.25,609.8c-1.71,0-3.23-1.24-3.51-2.99-.76-4.64-1.66-9.32-2.68-13.91-.43-1.92.79-3.83,2.71-4.25,1.92-.42,3.83.79,4.25,2.71,1.05,4.72,1.97,9.53,2.76,14.3.32,1.94-1,3.78-2.94,4.09-.2.03-.39.05-.58.05ZM1134.28,588.85c-.29,0-.58-.03-.87-.11-1.91-.48-3.07-2.41-2.59-4.32,1.18-4.69,2.5-9.41,3.94-14.02.58-1.88,2.58-2.93,4.46-2.34,1.88.58,2.93,2.58,2.34,4.46-1.4,4.49-2.68,9.08-3.83,13.64-.41,1.62-1.86,2.7-3.45,2.7ZM1630.52,570.31c-1.49,0-2.88-.95-3.38-2.44-1.49-4.47-3.12-8.96-4.85-13.34-.72-1.83.17-3.9,2-4.63,1.83-.72,3.9.17,4.63,2,1.78,4.5,3.46,9.12,4.99,13.71.62,1.87-.39,3.89-2.26,4.51-.37.12-.75.18-1.12.18ZM1147.26,550.32c-.47,0-.94-.09-1.4-.29-1.81-.77-2.65-2.87-1.87-4.68,1.9-4.44,3.95-8.88,6.09-13.2.87-1.76,3.01-2.48,4.78-1.61,1.76.87,2.49,3.01,1.61,4.78-2.08,4.2-4.08,8.52-5.92,12.84-.58,1.35-1.9,2.16-3.28,2.16ZM1614.67,532.84c-1.29,0-2.53-.7-3.17-1.92-2.17-4.17-4.49-8.34-6.89-12.4-1-1.69-.44-3.88,1.25-4.88,1.69-1,3.88-.45,4.88,1.25,2.47,4.17,4.85,8.45,7.08,12.74.91,1.75.23,3.9-1.52,4.81-.53.27-1.09.4-1.64.4ZM1166.14,514.34c-.65,0-1.31-.18-1.9-.55-1.67-1.05-2.17-3.25-1.12-4.92,2.57-4.08,5.29-8.15,8.09-12.09,1.14-1.6,3.37-1.98,4.97-.84,1.6,1.14,1.98,3.36.84,4.97-2.72,3.83-5.37,7.79-7.87,11.76-.68,1.08-1.84,1.67-3.02,1.67ZM1593.12,498.33c-1.09,0-2.17-.5-2.87-1.44-2.79-3.78-5.74-7.53-8.74-11.16-1.26-1.52-1.05-3.76.47-5.02,1.52-1.26,3.76-1.05,5.02.47,3.09,3.73,6.11,7.58,8.98,11.47,1.17,1.58.84,3.81-.75,4.99-.64.47-1.38.7-2.12.7ZM1190.43,481.75c-.83,0-1.67-.29-2.35-.88-1.48-1.3-1.63-3.55-.33-5.03,3.18-3.64,6.51-7.23,9.89-10.69,1.38-1.41,3.63-1.43,5.04-.06,1.41,1.38,1.43,3.63.06,5.04-3.29,3.36-6.52,6.86-9.62,10.4-.7.81-1.69,1.22-2.68,1.22ZM1566.44,467.63c-.9,0-1.81-.34-2.5-1.02-3.35-3.3-6.84-6.55-10.37-9.65-1.48-1.3-1.62-3.55-.32-5.03,1.3-1.48,3.55-1.62,5.03-.32,3.62,3.19,7.21,6.53,10.66,9.92,1.4,1.38,1.42,3.64.04,5.04-.7.71-1.62,1.06-2.54,1.06ZM1219.53,453.33c-1.02,0-2.03-.44-2.74-1.28-1.26-1.51-1.06-3.76.45-5.02,3.71-3.1,7.56-6.14,11.44-9.02,1.58-1.18,3.81-.85,4.99.73,1.18,1.58.85,3.81-.73,4.99-3.77,2.81-7.52,5.76-11.13,8.78-.67.56-1.48.83-2.28.83ZM1535.31,441.46c-.72,0-1.44-.22-2.07-.67-3.83-2.74-7.78-5.4-11.74-7.91-1.66-1.05-2.16-3.26-1.1-4.92,1.05-1.66,3.26-2.16,4.92-1.1,4.08,2.58,8.14,5.32,12.07,8.13,1.6,1.15,1.97,3.37.83,4.97-.7.97-1.79,1.49-2.9,1.49ZM1252.7,429.8c-1.21,0-2.4-.62-3.06-1.74-1.01-1.69-.46-3.88,1.23-4.89,4.16-2.48,8.44-4.88,12.72-7.12,1.74-.91,3.9-.24,4.81,1.5.91,1.74.24,3.9-1.5,4.81-4.17,2.18-8.33,4.52-12.37,6.93-.57.34-1.2.5-1.82.5ZM1500.49,420.49c-.54,0-1.08-.12-1.59-.38-4.2-2.1-8.52-4.11-12.82-5.96-1.81-.78-2.64-2.88-1.86-4.69.78-1.81,2.88-2.64,4.69-1.86,4.43,1.91,8.86,3.97,13.18,6.13,1.76.88,2.48,3.02,1.6,4.78-.62,1.25-1.88,1.97-3.19,1.97ZM1289.16,411.76c-1.41,0-2.75-.85-3.31-2.24-.73-1.83.16-3.9,1.99-4.63,4.5-1.8,9.11-3.49,13.7-5.03,1.87-.63,3.89.38,4.51,2.24.63,1.87-.38,3.89-2.24,4.51-4.46,1.5-8.94,3.15-13.32,4.9-.43.17-.88.26-1.32.26ZM1462.82,405.26c-.35,0-.71-.05-1.07-.17-4.48-1.41-9.07-2.71-13.62-3.87-1.91-.48-3.06-2.42-2.58-4.33.48-1.91,2.42-3.06,4.33-2.58,4.69,1.19,9.4,2.53,14.01,3.98,1.88.59,2.92,2.59,2.33,4.47-.48,1.52-1.88,2.5-3.4,2.5ZM1328.02,399.7c-1.63,0-3.1-1.12-3.47-2.78-.43-1.92.77-3.83,2.69-4.26,4.71-1.06,9.52-2,14.29-2.8,1.94-.33,3.78.99,4.1,2.93.32,1.94-.99,3.78-2.93,4.1-4.64.78-9.32,1.69-13.9,2.73-.26.06-.53.09-.79.09ZM1423.19,396.17c-.17,0-.35-.01-.52-.04-4.64-.69-9.38-1.25-14.06-1.68-1.96-.18-3.4-1.91-3.22-3.87.18-1.96,1.91-3.41,3.87-3.22,4.82.44,9.68,1.02,14.46,1.73,1.95.29,3.29,2.1,3.01,4.05-.26,1.77-1.78,3.04-3.52,3.04ZM1368.27,393.92c-1.86,0-3.43-1.45-3.55-3.34-.13-1.96,1.36-3.66,3.33-3.79,4.81-.31,9.71-.49,14.55-.53h.03c1.95,0,3.54,1.57,3.56,3.53.02,1.97-1.56,3.58-3.53,3.6-4.71.04-9.47.22-14.16.52-.08,0-.16,0-.23,0Z"/>
        <path class="cls-6" d="M1385.79,962.04c-1.96,0-3.56-1.59-3.56-3.56,0-1.97,1.59-3.57,3.56-3.57,4.71-.01,9.48-.13,14.18-.35,1.98-.07,3.64,1.42,3.73,3.39.09,1.97-1.42,3.64-3.39,3.73-4.81.23-9.68.35-14.5.36h0ZM1359.52,961c-.1,0-.2,0-.29-.01-4.79-.39-9.65-.9-14.43-1.51-1.95-.25-3.33-2.04-3.08-3.99.25-1.95,2.03-3.33,3.99-3.08,4.67.6,9.42,1.1,14.1,1.48,1.96.16,3.42,1.88,3.26,3.84-.15,1.86-1.71,3.27-3.55,3.27ZM1426.31,959.32c-1.76,0-3.29-1.3-3.53-3.1-.26-1.95,1.11-3.74,3.06-4,4.67-.62,9.38-1.36,14.01-2.19,1.94-.34,3.79.94,4.14,2.88.35,1.94-.94,3.79-2.88,4.14-4.74.85-9.56,1.61-14.34,2.24-.16.02-.32.03-.47.03ZM1319.34,955.05c-.25,0-.5-.03-.75-.08-4.7-1.01-9.45-2.16-14.11-3.39-1.9-.5-3.04-2.46-2.53-4.36.5-1.9,2.46-3.04,4.36-2.53,4.56,1.21,9.19,2.32,13.79,3.31,1.92.42,3.15,2.31,2.73,4.24-.36,1.67-1.84,2.81-3.48,2.81ZM1466.14,951.34c-1.57,0-3.01-1.05-3.44-2.64-.51-1.9.61-3.86,2.51-4.37,4.55-1.23,9.12-2.58,13.6-4.01,1.88-.6,3.88.43,4.48,2.3.6,1.87-.43,3.88-2.3,4.48-4.58,1.47-9.26,2.85-13.92,4.11-.31.08-.62.12-.93.12ZM1280.28,943.87c-.4,0-.81-.07-1.2-.21-4.53-1.62-9.08-3.38-13.54-5.22-1.82-.75-2.69-2.83-1.94-4.65.75-1.82,2.84-2.69,4.65-1.94,4.36,1.8,8.81,3.51,13.23,5.1,1.85.67,2.82,2.71,2.15,4.56-.52,1.46-1.89,2.36-3.35,2.36ZM1504.59,938.18c-1.39,0-2.72-.82-3.29-2.19-.76-1.82.1-3.9,1.91-4.66,4.35-1.82,8.71-3.76,12.98-5.78,1.78-.84,3.9-.08,4.75,1.69.84,1.78.08,3.9-1.7,4.75-4.36,2.07-8.83,4.06-13.28,5.92-.45.19-.91.28-1.37.28ZM1243.05,927.66c-.55,0-1.11-.13-1.63-.4-4.26-2.2-8.54-4.54-12.72-6.94-1.71-.98-2.29-3.16-1.31-4.87.98-1.71,3.16-2.29,4.87-1.31,4.08,2.35,8.26,4.63,12.43,6.78,1.75.9,2.44,3.05,1.53,4.8-.63,1.23-1.88,1.93-3.17,1.93ZM1540.99,920.06c-1.23,0-2.42-.63-3.08-1.77-.99-1.7-.42-3.88,1.29-4.87,4.07-2.37,8.14-4.87,12.1-7.43,1.65-1.07,3.86-.59,4.93,1.06,1.07,1.65.6,3.86-1.06,4.93-4.05,2.62-8.22,5.18-12.38,7.6-.56.33-1.18.48-1.79.48ZM1208.27,906.71c-.7,0-1.41-.21-2.03-.64-3.96-2.75-7.9-5.63-11.71-8.55-1.56-1.2-1.86-3.43-.66-5,1.2-1.56,3.43-1.86,5-.66,3.73,2.86,7.58,5.67,11.45,8.36,1.62,1.12,2.02,3.34.89,4.96-.69,1-1.8,1.53-2.93,1.53ZM1574.69,897.34c-1.07,0-2.12-.48-2.82-1.38-1.2-1.56-.92-3.8.64-5,3.72-2.88,7.42-5.88,11.02-8.94,1.5-1.27,3.75-1.09,5.02.41,1.27,1.5,1.09,3.75-.41,5.02-3.68,3.13-7.47,6.2-11.27,9.15-.65.5-1.42.75-2.18.75ZM1176.52,881.4c-.86,0-1.71-.31-2.4-.93-3.56-3.24-7.1-6.61-10.51-10.01-1.39-1.39-1.4-3.65,0-5.04,1.39-1.39,3.65-1.4,5.04,0,3.33,3.32,6.79,6.61,10.27,9.78,1.46,1.32,1.56,3.58.24,5.04-.7.77-1.67,1.17-2.64,1.17ZM1605.14,870.43c-.91,0-1.82-.34-2.51-1.04-1.4-1.39-1.4-3.64-.02-5.04,3.31-3.34,6.6-6.8,9.76-10.29,1.32-1.46,3.58-1.57,5.03-.25,1.46,1.32,1.57,3.58.25,5.03-3.23,3.57-6.59,7.11-9.98,10.53-.7.7-1.61,1.05-2.53,1.05ZM1148.31,852.17c-1.01,0-2.02-.43-2.72-1.26-3.11-3.68-6.18-7.48-9.12-11.29-1.2-1.56-.91-3.8.65-5,1.56-1.2,3.8-.91,5,.65,2.87,3.73,5.87,7.44,8.92,11.04,1.27,1.5,1.08,3.75-.42,5.02-.67.57-1.49.84-2.3.84ZM1631.82,839.8c-.75,0-1.51-.24-2.16-.73-1.57-1.19-1.87-3.43-.67-5,2.85-3.74,5.66-7.6,8.33-11.46,1.12-1.62,3.34-2.02,4.96-.9,1.62,1.12,2.02,3.34.9,4.96-2.73,3.95-5.6,7.9-8.52,11.73-.7.92-1.76,1.4-2.84,1.4ZM1124.14,819.5c-1.17,0-2.32-.58-3-1.64-2.61-4.06-5.16-8.23-7.58-12.39-.99-1.7-.41-3.88,1.3-4.87s3.88-.41,4.87,1.3c2.36,4.07,4.85,8.15,7.4,12.12,1.06,1.66.59,3.86-1.07,4.93-.6.38-1.26.57-1.92.57ZM1654.28,805.98c-.6,0-1.21-.15-1.77-.47-1.71-.98-2.3-3.16-1.32-4.86,2.34-4.07,4.61-8.26,6.76-12.44.9-1.75,3.05-2.44,4.8-1.54s2.44,3.05,1.54,4.8c-2.2,4.28-4.52,8.56-6.91,12.73-.66,1.15-1.86,1.79-3.1,1.79ZM1104.44,783.95c-1.34,0-2.62-.76-3.23-2.05-2.06-4.37-4.04-8.84-5.89-13.29-.76-1.82.11-3.9,1.92-4.66,1.82-.75,3.9.11,4.66,1.92,1.81,4.35,3.74,8.72,5.75,12.99.84,1.78.08,3.9-1.71,4.74-.49.23-1.01.34-1.52.34ZM1672.11,769.52c-.45,0-.91-.09-1.35-.27-1.82-.75-2.69-2.83-1.95-4.65,1.78-4.35,3.49-8.81,5.07-13.24.66-1.85,2.7-2.82,4.55-2.16,1.85.66,2.82,2.7,2.16,4.55-1.62,4.54-3.37,9.1-5.19,13.55-.57,1.38-1.9,2.21-3.3,2.21ZM1089.57,746.1c-1.51,0-2.91-.97-3.4-2.48-1.46-4.59-2.83-9.28-4.08-13.93-.51-1.9.62-3.86,2.52-4.36,1.9-.51,3.86.62,4.36,2.52,1.22,4.54,2.56,9.12,3.98,13.61.6,1.88-.44,3.88-2.32,4.48-.36.11-.72.17-1.08.17ZM1685.01,731c-.3,0-.6-.04-.91-.12-1.9-.5-3.04-2.45-2.54-4.35,1.2-4.55,2.3-9.19,3.28-13.79.41-1.92,2.3-3.15,4.23-2.74,1.93.41,3.15,2.31,2.74,4.23-1.01,4.71-2.14,9.46-3.36,14.12-.42,1.6-1.86,2.66-3.44,2.66ZM1079.82,706.67c-1.69,0-3.2-1.21-3.5-2.94-.84-4.74-1.59-9.56-2.21-14.34-.25-1.95,1.12-3.74,3.07-4,1.95-.26,3.74,1.12,4,3.07.61,4.67,1.34,9.38,2.16,14.01.34,1.94-.95,3.79-2.88,4.13-.21.04-.42.06-.63.06ZM1692.73,691.12c-.15,0-.3,0-.45-.03-1.95-.25-3.34-2.03-3.09-3.98.59-4.67,1.08-9.41,1.45-14.11.16-1.96,1.88-3.42,3.84-3.27,1.96.16,3.43,1.87,3.27,3.84-.38,4.8-.88,9.66-1.48,14.43-.23,1.8-1.76,3.12-3.53,3.12ZM1075.34,666.3c-1.89,0-3.47-1.49-3.56-3.4-.22-4.8-.33-9.68-.33-14.5,0-1.97,1.6-3.56,3.56-3.56s3.56,1.6,3.56,3.56c0,4.71.11,9.48.32,14.18.09,1.97-1.43,3.63-3.4,3.72-.06,0-.11,0-.17,0ZM1695.17,650.57c-1.96,0-3.56-1.59-3.56-3.55-.02-4.71-.15-9.48-.38-14.18-.1-1.97,1.42-3.64,3.38-3.74,1.97-.1,3.64,1.42,3.74,3.38.24,4.8.37,9.68.39,14.5,0,1.97-1.58,3.57-3.55,3.58,0,0-.01,0-.02,0ZM1075.9,628.44c-.09,0-.18,0-.27-.01-1.96-.15-3.44-1.86-3.29-3.82.36-4.8.84-9.66,1.42-14.44.24-1.95,2.02-3.35,3.97-3.11,1.95.24,3.35,2.01,3.11,3.97-.57,4.67-1.03,9.42-1.39,14.11-.14,1.87-1.7,3.3-3.55,3.3ZM1692.36,610.06c-1.76,0-3.29-1.3-3.53-3.09-.63-4.67-1.38-9.38-2.22-14-.35-1.94.93-3.79,2.87-4.15,1.94-.35,3.79.93,4.15,2.87.86,4.73,1.63,9.55,2.28,14.33.26,1.95-1.1,3.75-3.06,4.01-.16.02-.32.03-.48.03ZM1081.58,588.22c-.24,0-.49-.02-.73-.08-1.93-.4-3.16-2.29-2.76-4.22.99-4.72,2.1-9.47,3.3-14.13.49-1.91,2.44-3.05,4.34-2.56,1.91.49,3.05,2.44,2.56,4.34-1.17,4.55-2.26,9.2-3.22,13.81-.35,1.68-1.83,2.84-3.49,2.84ZM1684.29,570.25c-1.57,0-3-1.04-3.44-2.63-1.24-4.54-2.6-9.11-4.05-13.59-.61-1.87.42-3.88,2.3-4.49,1.87-.61,3.88.42,4.49,2.3,1.48,4.58,2.87,9.26,4.14,13.91.52,1.9-.6,3.86-2.5,4.38-.31.09-.63.13-.94.13ZM1092.49,549.1c-.39,0-.79-.07-1.18-.2-1.86-.65-2.83-2.69-2.18-4.54,1.6-4.54,3.32-9.11,5.13-13.58.74-1.82,2.81-2.71,4.64-1.97,1.82.74,2.71,2.82,1.97,4.64-1.77,4.36-3.45,8.82-5.01,13.26-.52,1.47-1.89,2.38-3.36,2.38ZM1671.05,531.83c-1.39,0-2.71-.82-3.29-2.18-1.83-4.34-3.78-8.7-5.81-12.96-.85-1.78-.09-3.9,1.68-4.75,1.78-.85,3.9-.09,4.75,1.68,2.08,4.36,4.08,8.82,5.95,13.27.76,1.81-.09,3.9-1.9,4.67-.45.19-.92.28-1.38.28ZM1108.45,511.76c-.54,0-1.09-.12-1.61-.39-1.75-.89-2.46-3.04-1.56-4.79,2.17-4.28,4.48-8.58,6.86-12.76.97-1.71,3.15-2.31,4.86-1.34,1.71.97,2.31,3.15,1.34,4.86-2.32,4.09-4.58,8.29-6.7,12.47-.63,1.24-1.88,1.95-3.18,1.95ZM1652.85,495.47c-1.22,0-2.42-.63-3.08-1.76-2.38-4.06-4.89-8.13-7.46-12.08-1.07-1.65-.6-3.86,1.05-4.93,1.65-1.07,3.86-.6,4.93,1.05,2.63,4.04,5.2,8.2,7.63,12.36.99,1.7.42,3.88-1.27,4.88-.57.33-1.19.49-1.8.49ZM1129.16,476.84c-.69,0-1.4-.2-2.01-.62-1.62-1.11-2.04-3.33-.92-4.96,2.72-3.97,5.57-7.93,8.47-11.77,1.19-1.57,3.42-1.88,4.99-.69,1.57,1.19,1.88,3.42.69,4.99-2.84,3.75-5.62,7.62-8.28,11.5-.69,1.01-1.81,1.55-2.94,1.55ZM1630.06,461.82c-1.06,0-2.11-.47-2.82-1.38-2.89-3.71-5.9-7.42-8.96-11-1.28-1.5-1.1-3.75.4-5.02,1.5-1.28,3.75-1.1,5.02.4,3.13,3.67,6.22,7.45,9.17,11.25,1.21,1.55.93,3.79-.63,5-.65.51-1.42.75-2.19.75ZM1154.26,444.92c-.85,0-1.7-.3-2.38-.91-1.47-1.31-1.59-3.57-.27-5.03,3.21-3.58,6.56-7.14,9.94-10.57,1.38-1.4,3.64-1.42,5.04-.04,1.4,1.38,1.42,3.64.04,5.04-3.3,3.36-6.57,6.83-9.71,10.33-.7.78-1.68,1.18-2.65,1.18ZM1603.08,431.43c-.91,0-1.81-.34-2.51-1.03-3.35-3.31-6.82-6.58-10.31-9.73-1.46-1.32-1.58-3.57-.26-5.03s3.57-1.58,5.03-.26c3.58,3.22,7.12,6.57,10.55,9.96,1.4,1.38,1.41,3.64.03,5.04-.7.71-1.62,1.06-2.53,1.06ZM1183.31,416.52c-1,0-2-.42-2.71-1.24-1.28-1.49-1.11-3.74.38-5.03,3.66-3.14,7.44-6.23,11.23-9.2,1.55-1.21,3.79-.94,5,.62,1.21,1.55.94,3.79-.62,5-3.71,2.9-7.4,5.92-10.98,8.99-.67.58-1.5.86-2.32.86ZM1572.39,404.82c-.75,0-1.51-.24-2.15-.73-3.74-2.84-7.61-5.64-11.48-8.31-1.62-1.12-2.03-3.34-.91-4.96,1.12-1.62,3.34-2.03,4.96-.91,3.96,2.73,7.92,5.59,11.75,8.5,1.57,1.19,1.87,3.43.68,4.99-.7.92-1.77,1.41-2.84,1.41ZM1215.81,392.13c-1.16,0-2.3-.57-2.99-1.62-1.08-1.65-.61-3.86,1.04-4.93,4.03-2.63,8.19-5.21,12.34-7.66,1.69-1,3.88-.43,4.88,1.26,1,1.7.43,3.88-1.26,4.88-4.06,2.39-8.12,4.91-12.06,7.48-.6.39-1.28.58-1.95.58ZM1538.51,382.43c-.6,0-1.21-.15-1.76-.47-4.09-2.33-8.28-4.59-12.46-6.73-1.75-.9-2.45-3.04-1.55-4.79s3.04-2.45,4.79-1.55c4.28,2.18,8.57,4.5,12.75,6.89,1.71.98,2.31,3.15,1.33,4.86-.66,1.15-1.86,1.8-3.1,1.8ZM1251.23,372.19c-1.33,0-2.6-.75-3.22-2.02-.85-1.77-.1-3.9,1.67-4.75,4.35-2.09,8.81-4.1,13.25-5.98,1.81-.77,3.9.08,4.67,1.89.77,1.81-.08,3.9-1.89,4.67-4.34,1.84-8.7,3.8-12.95,5.84-.5.24-1.02.35-1.54.35ZM1502.01,364.68c-.45,0-.9-.08-1.34-.26-4.36-1.78-8.82-3.47-13.25-5.04-1.86-.66-2.83-2.69-2.17-4.55.66-1.85,2.69-2.83,4.55-2.17,4.53,1.6,9.1,3.34,13.56,5.16,1.82.74,2.7,2.82,1.96,4.65-.56,1.38-1.9,2.22-3.3,2.22ZM1288.98,357.07c-1.5,0-2.9-.96-3.39-2.46-.61-1.87.41-3.88,2.29-4.49,4.58-1.49,9.26-2.9,13.9-4.17,1.9-.52,3.86.59,4.38,2.49.52,1.9-.59,3.86-2.49,4.38-4.54,1.25-9.11,2.62-13.58,4.08-.37.12-.74.18-1.1.18ZM1463.47,351.87c-.3,0-.6-.04-.9-.12-4.55-1.19-9.2-2.28-13.8-3.25-1.93-.41-3.16-2.3-2.75-4.22.41-1.93,2.3-3.15,4.22-2.75,4.71,1,9.46,2.12,14.12,3.33,1.9.5,3.05,2.44,2.55,4.35-.42,1.6-1.86,2.67-3.45,2.67ZM1328.34,347.06c-1.69,0-3.18-1.2-3.5-2.92-.36-1.94.92-3.79,2.86-4.15,4.73-.88,9.55-1.65,14.33-2.31,1.95-.27,3.75,1.1,4.02,3.05.27,1.95-1.1,3.75-3.05,4.02-4.67.64-9.38,1.4-14,2.25-.22.04-.44.06-.65.06ZM1423.58,344.24c-.15,0-.29,0-.44-.03-4.67-.58-9.41-1.05-14.11-1.42-1.96-.15-3.43-1.87-3.28-3.83s1.86-3.43,3.83-3.28c4.81.37,9.66.86,14.44,1.45,1.95.24,3.34,2.02,3.1,3.98-.22,1.8-1.76,3.13-3.53,3.13ZM1368.68,342.31c-1.88,0-3.46-1.48-3.56-3.38-.1-1.97,1.41-3.64,3.37-3.75,4.8-.25,9.68-.39,14.5-.42,0,0,.02,0,.02,0,1.96,0,3.55,1.58,3.56,3.54.01,1.97-1.57,3.57-3.54,3.59-4.72.03-9.49.17-14.18.42-.06,0-.13,0-.19,0Z"/>
        <path class="cls-6" d="M1385.41,1013.54c-1.97,0-3.56-1.59-3.56-3.56,0-1.97,1.59-3.57,3.56-3.57,4.71,0,9.48-.1,14.18-.29,1.97-.08,3.62,1.45,3.7,3.42.08,1.97-1.45,3.62-3.42,3.7-4.79.19-9.66.29-14.46.29h0ZM1359.17,1012.62c-.08,0-.17,0-.26,0-4.8-.34-9.65-.78-14.41-1.31-1.96-.22-3.37-1.98-3.15-3.94.22-1.96,1.98-3.37,3.93-3.15,4.67.52,9.42.95,14.13,1.28,1.96.14,3.44,1.84,3.3,3.81-.13,1.88-1.7,3.31-3.55,3.31ZM1425.91,1011.26c-1.79,0-3.33-1.35-3.54-3.17-.22-1.96,1.19-3.72,3.14-3.94,4.67-.53,9.4-1.15,14.06-1.86,1.94-.29,3.76,1.04,4.06,2.99.3,1.95-1.04,3.76-2.99,4.06-4.75.72-9.58,1.36-14.34,1.9-.14.02-.27.02-.4.02ZM1318.92,1007.49c-.21,0-.43-.02-.65-.06-4.71-.87-9.48-1.85-14.17-2.91-1.92-.44-3.12-2.34-2.69-4.26.43-1.92,2.34-3.12,4.26-2.69,4.6,1.04,9.27,2,13.89,2.86,1.94.36,3.21,2.22,2.86,4.15-.32,1.72-1.82,2.92-3.5,2.92ZM1465.92,1004.47c-1.63,0-3.09-1.12-3.47-2.77-.44-1.92.76-3.83,2.68-4.27,4.6-1.05,9.23-2.21,13.76-3.43,1.9-.51,3.86.61,4.37,2.51s-.61,3.86-2.51,4.37c-4.63,1.25-9.35,2.43-14.04,3.5-.27.06-.53.09-.8.09ZM1279.5,997.87c-.34,0-.69-.05-1.04-.16-4.59-1.4-9.22-2.91-13.75-4.5-1.86-.65-2.84-2.68-2.19-4.54.65-1.86,2.68-2.84,4.54-2.19,4.44,1.55,8.98,3.04,13.48,4.41,1.88.57,2.94,2.57,2.37,4.45-.47,1.54-1.88,2.53-3.41,2.53ZM1504.9,993.21c-1.47,0-2.85-.92-3.36-2.38-.65-1.86.33-3.89,2.18-4.54,4.45-1.56,8.94-3.24,13.32-4.98,1.83-.73,3.9.17,4.63,2,.73,1.83-.17,3.9-2,4.63-4.47,1.78-9.05,3.48-13.59,5.08-.39.14-.79.2-1.18.2ZM1241.45,983.88c-.47,0-.95-.09-1.42-.29-4.4-1.91-8.82-3.93-13.13-6-1.77-.85-2.52-2.98-1.67-4.76.85-1.77,2.98-2.52,4.76-1.67,4.23,2.04,8.56,4.02,12.87,5.88,1.81.78,2.64,2.88,1.85,4.69-.58,1.34-1.89,2.15-3.27,2.15ZM1542.43,977.61c-1.32,0-2.6-.74-3.21-2.01-.86-1.77-.12-3.9,1.66-4.76,4.23-2.05,8.49-4.21,12.67-6.45,1.73-.93,3.9-.27,4.82,1.47.93,1.74.27,3.9-1.47,4.82-4.26,2.27-8.6,4.49-12.92,6.57-.5.24-1.03.36-1.55.36ZM1205.23,965.7c-.6,0-1.21-.15-1.77-.47-4.15-2.39-8.32-4.89-12.38-7.44-1.67-1.05-2.17-3.25-1.12-4.91,1.05-1.67,3.25-2.17,4.91-1.12,3.98,2.5,8.07,4.96,12.14,7.3,1.71.98,2.3,3.16,1.31,4.87-.66,1.15-1.86,1.79-3.09,1.79ZM1577.93,957.88c-1.18,0-2.34-.59-3.02-1.66-1.05-1.66-.55-3.87,1.11-4.92,3.99-2.52,7.97-5.15,11.85-7.82,1.62-1.12,3.84-.71,4.96.91,1.12,1.62.71,3.84-.91,4.96-3.96,2.73-8.03,5.41-12.09,7.98-.59.37-1.25.55-1.9.55ZM1171.26,943.56c-.73,0-1.47-.22-2.11-.69-3.86-2.84-7.73-5.79-11.48-8.79-1.54-1.23-1.79-3.47-.57-5.01,1.23-1.54,3.47-1.79,5.01-.57,3.68,2.94,7.47,5.83,11.26,8.62,1.59,1.17,1.93,3.4.76,4.98-.7.95-1.78,1.46-2.88,1.46ZM1610.99,934.31c-1.04,0-2.08-.46-2.78-1.34-1.23-1.54-.98-3.78.55-5.01,3.68-2.95,7.35-6,10.9-9.09,1.49-1.29,3.74-1.13,5.03.35,1.29,1.49,1.13,3.74-.35,5.03-3.63,3.15-7.37,6.27-11.12,9.27-.66.53-1.44.78-2.23.78ZM1139.96,917.76c-.86,0-1.73-.31-2.42-.95-3.53-3.26-7.04-6.63-10.44-10.02-1.39-1.39-1.39-3.65,0-5.04,1.39-1.39,3.65-1.39,5.04,0,3.33,3.33,6.77,6.63,10.23,9.82,1.45,1.33,1.54,3.59.2,5.04-.7.76-1.66,1.15-2.62,1.15ZM1641.2,907.2c-.91,0-1.82-.35-2.52-1.04-1.39-1.39-1.4-3.65,0-5.04,3.33-3.34,6.64-6.79,9.81-10.24,1.33-1.45,3.59-1.54,5.04-.21,1.45,1.33,1.54,3.59.21,5.04-3.24,3.52-6.61,7.04-10.01,10.45-.7.7-1.61,1.05-2.52,1.05ZM1111.72,888.62c-1,0-1.99-.42-2.7-1.23-3.14-3.63-6.26-7.37-9.26-11.12-1.23-1.54-.98-3.78.56-5.01,1.54-1.23,3.78-.98,5.01.56,2.94,3.68,6,7.35,9.08,10.91,1.29,1.49,1.13,3.74-.36,5.03-.67.58-1.51.87-2.33.87ZM1668.19,876.91c-.78,0-1.56-.25-2.22-.78-1.54-1.23-1.8-3.47-.57-5.01,2.93-3.68,5.83-7.47,8.61-11.26,1.16-1.59,3.39-1.93,4.98-.77,1.59,1.16,1.93,3.39.77,4.98-2.84,3.87-5.79,7.73-8.78,11.49-.7.88-1.74,1.34-2.79,1.34ZM1086.9,856.5c-1.13,0-2.25-.54-2.94-1.55-2.72-3.95-5.4-8.02-7.97-12.1-1.05-1.67-.55-3.87,1.11-4.92,1.67-1.05,3.87-.55,4.92,1.11,2.52,4,5.15,7.99,7.81,11.86,1.12,1.62.7,3.84-.92,4.96-.62.42-1.32.63-2.02.63ZM1691.63,843.82c-.65,0-1.3-.18-1.89-.54-1.67-1.05-2.17-3.25-1.13-4.91,2.5-3.99,4.95-8.07,7.29-12.15.98-1.71,3.15-2.3,4.86-1.32,1.71.98,2.3,3.16,1.32,4.86-2.38,4.16-4.88,8.32-7.43,12.39-.68,1.08-1.84,1.67-3.02,1.67ZM1065.81,821.8c-1.27,0-2.51-.68-3.15-1.89-2.26-4.24-4.47-8.59-6.56-12.92-.86-1.77-.11-3.9,1.66-4.76,1.77-.86,3.9-.11,4.76,1.66,2.05,4.25,4.22,8.51,6.43,12.67.93,1.74.27,3.9-1.47,4.82-.53.28-1.11.42-1.67.42ZM1711.21,808.32c-.52,0-1.04-.11-1.54-.35-1.77-.85-2.52-2.98-1.67-4.76,2.03-4.23,4.01-8.57,5.87-12.88.78-1.81,2.88-2.64,4.69-1.86,1.81.78,2.64,2.88,1.86,4.69-1.9,4.4-3.92,8.81-5.99,13.13-.61,1.28-1.89,2.02-3.22,2.02ZM1048.75,784.93c-1.42,0-2.76-.85-3.31-2.25-1.77-4.47-3.47-9.05-5.07-13.59-.65-1.86.33-3.89,2.19-4.54s3.89.33,4.54,2.19c1.56,4.46,3.23,8.94,4.97,13.33.72,1.83-.17,3.9-2,4.63-.43.17-.87.25-1.31.25ZM1726.66,770.88c-.39,0-.78-.06-1.17-.2-1.86-.65-2.84-2.68-2.19-4.54,1.55-4.45,3.03-8.98,4.4-13.49.57-1.88,2.56-2.95,4.45-2.37,1.88.57,2.95,2.56,2.37,4.45-1.4,4.59-2.9,9.22-4.48,13.76-.51,1.47-1.89,2.39-3.37,2.39ZM1035.97,746.38c-1.57,0-3.01-1.05-3.44-2.64-1.25-4.63-2.42-9.36-3.49-14.04-.44-1.92.77-3.83,2.69-4.27,1.92-.44,3.83.77,4.27,2.69,1.04,4.59,2.2,9.22,3.42,13.77.51,1.9-.61,3.86-2.51,4.37-.31.08-.62.12-.93.12ZM1737.82,731.87c-.26,0-.52-.03-.79-.09-1.92-.43-3.13-2.34-2.69-4.26,1.04-4.59,1.99-9.27,2.85-13.9.36-1.94,2.21-3.21,4.15-2.86,1.94.36,3.22,2.21,2.86,4.15-.87,4.72-1.85,9.49-2.9,14.17-.37,1.66-1.84,2.78-3.47,2.78ZM1027.63,706.67c-1.73,0-3.25-1.26-3.52-3.03-.72-4.74-1.35-9.57-1.89-14.34-.22-1.96,1.19-3.72,3.15-3.94,1.96-.21,3.72,1.19,3.94,3.15.52,4.68,1.15,9.42,1.85,14.06.3,1.95-1.04,3.76-2.99,4.06-.18.03-.36.04-.54.04ZM1744.5,691.85c-.13,0-.26,0-.39-.02-1.96-.21-3.37-1.98-3.15-3.93.51-4.67.94-9.43,1.27-14.13.14-1.96,1.85-3.45,3.8-3.31,1.96.14,3.44,1.84,3.31,3.8-.34,4.8-.77,9.64-1.29,14.41-.2,1.82-1.74,3.18-3.54,3.18ZM1023.79,666.28c-1.9,0-3.48-1.51-3.56-3.43-.19-4.79-.28-9.65-.28-14.46,0-1.97,1.6-3.56,3.56-3.56s3.56,1.6,3.56,3.56c0,4.72.09,9.49.28,14.18.08,1.97-1.46,3.62-3.42,3.7-.05,0-.09,0-.14,0ZM1746.67,651.33c-1.97,0-3.56-1.59-3.56-3.56,0-4.71-.11-9.48-.3-14.18-.08-1.97,1.45-3.63,3.42-3.71,1.96-.11,3.63,1.45,3.71,3.42.19,4.79.3,9.66.31,14.46,0,1.97-1.59,3.57-3.56,3.57h0ZM1024.37,626.96c-.08,0-.16,0-.25,0-1.96-.13-3.45-1.83-3.31-3.8.33-4.8.75-9.65,1.27-14.41.21-1.96,1.97-3.37,3.93-3.16,1.96.21,3.37,1.97,3.16,3.93-.5,4.67-.92,9.43-1.24,14.13-.13,1.88-1.69,3.32-3.55,3.32ZM1744.35,610.82c-1.79,0-3.33-1.34-3.54-3.16-.53-4.68-1.16-9.41-1.87-14.06-.3-1.95,1.04-3.77,2.98-4.06,1.94-.3,3.77,1.04,4.06,2.98.73,4.75,1.37,9.57,1.91,14.34.22,1.96-1.18,3.72-3.14,3.94-.14.02-.27.02-.41.02ZM1029.4,586.7c-.21,0-.43-.02-.64-.06-1.94-.35-3.22-2.21-2.87-4.15.86-4.73,1.83-9.5,2.88-14.18.43-1.92,2.33-3.13,4.26-2.7,1.92.43,3.13,2.34,2.7,4.26-1.03,4.59-1.98,9.27-2.82,13.9-.31,1.72-1.81,2.93-3.5,2.93ZM1737.53,570.83c-1.62,0-3.09-1.12-3.47-2.77-1.05-4.59-2.21-9.22-3.44-13.76-.52-1.9.61-3.86,2.51-4.37,1.9-.52,3.86.61,4.37,2.51,1.26,4.63,2.44,9.36,3.51,14.04.44,1.92-.76,3.83-2.68,4.27-.27.06-.54.09-.8.09ZM1038.91,547.26c-.34,0-.69-.05-1.03-.15-1.88-.57-2.95-2.56-2.38-4.44,1.39-4.59,2.89-9.22,4.46-13.77.64-1.86,2.67-2.85,4.53-2.2,1.86.64,2.85,2.67,2.2,4.53-1.54,4.45-3.01,8.99-4.37,13.49-.47,1.54-1.88,2.53-3.41,2.53ZM1726.25,531.86c-1.47,0-2.85-.92-3.36-2.38-1.57-4.45-3.25-8.93-4.99-13.32-.73-1.83.17-3.9,1.99-4.63,1.83-.73,3.9.17,4.63,1.99,1.78,4.47,3.49,9.04,5.09,13.59.65,1.86-.32,3.89-2.18,4.55-.39.14-.79.2-1.18.2ZM1052.8,509.17c-.47,0-.95-.09-1.41-.29-1.81-.78-2.64-2.87-1.87-4.68,1.89-4.4,3.9-8.82,5.97-13.14.85-1.78,2.98-2.53,4.75-1.68,1.78.85,2.53,2.98,1.68,4.75-2.03,4.24-3.99,8.57-5.85,12.89-.58,1.35-1.89,2.16-3.28,2.16ZM1710.61,494.35c-1.32,0-2.59-.74-3.21-2.01-2.06-4.24-4.23-8.5-6.46-12.66-.93-1.74-.28-3.9,1.46-4.82,1.73-.93,3.9-.28,4.82,1.46,2.27,4.24,4.49,8.59,6.59,12.91.86,1.77.12,3.9-1.65,4.76-.5.24-1.03.36-1.55.36ZM1070.89,472.91c-.6,0-1.21-.15-1.76-.47-1.71-.98-2.3-3.15-1.33-4.86,2.38-4.17,4.87-8.34,7.41-12.4,1.04-1.67,3.24-2.18,4.91-1.13,1.67,1.04,2.18,3.24,1.13,4.91-2.49,3.98-4.93,8.07-7.27,12.16-.66,1.15-1.86,1.8-3.1,1.8ZM1690.85,458.86c-1.18,0-2.34-.59-3.02-1.66-2.52-3.98-5.15-7.96-7.83-11.85-1.12-1.62-.71-3.84.91-4.96,1.62-1.12,3.84-.71,4.96.91,2.73,3.96,5.42,8.03,7.99,12.08,1.05,1.66.56,3.87-1.11,4.92-.59.37-1.25.55-1.9.55ZM1092.94,438.89c-.73,0-1.47-.22-2.1-.69-1.59-1.16-1.94-3.39-.78-4.98,2.83-3.87,5.78-7.75,8.76-11.5,1.22-1.54,3.47-1.8,5.01-.58,1.54,1.22,1.8,3.46.58,5.01-2.92,3.69-5.81,7.48-8.59,11.28-.7.96-1.78,1.46-2.88,1.46ZM1667.25,425.82c-1.04,0-2.08-.46-2.78-1.33-2.95-3.68-6.01-7.34-9.1-10.89-1.29-1.49-1.13-3.74.35-5.03,1.48-1.29,3.74-1.14,5.03.35,3.15,3.62,6.27,7.36,9.28,11.11,1.23,1.54.99,3.78-.55,5.01-.66.53-1.45.78-2.23.78ZM1118.66,407.52c-.86,0-1.73-.31-2.41-.94-1.45-1.33-1.55-3.59-.21-5.04,3.25-3.54,6.61-7.06,9.99-10.46,1.39-1.4,3.64-1.4,5.04-.02,1.4,1.39,1.4,3.64.02,5.04-3.31,3.33-6.61,6.79-9.8,10.26-.7.77-1.66,1.15-2.63,1.15ZM1640.12,395.63c-.91,0-1.82-.35-2.51-1.04-3.33-3.32-6.78-6.62-10.25-9.81-1.45-1.33-1.54-3.59-.21-5.04,1.33-1.45,3.59-1.54,5.04-.21,3.54,3.25,7.06,6.62,10.45,10,1.4,1.39,1.4,3.65.01,5.04-.7.7-1.61,1.05-2.53,1.05ZM1147.73,379.2c-1,0-1.98-.41-2.69-1.22-1.29-1.48-1.14-3.74.35-5.03,3.62-3.16,7.36-6.28,11.1-9.29,1.53-1.23,3.78-.99,5.01.54,1.23,1.53.99,3.78-.54,5.01-3.67,2.95-7.33,6.02-10.89,9.11-.68.59-1.51.88-2.34.88ZM1609.8,368.67c-.78,0-1.56-.25-2.21-.77-3.68-2.92-7.47-5.82-11.27-8.6-1.59-1.16-1.93-3.39-.77-4.98s3.39-1.93,4.98-.77c3.87,2.84,7.74,5.79,11.5,8.77,1.54,1.22,1.8,3.47.57,5.01-.7.89-1.74,1.35-2.79,1.35ZM1179.78,354.29c-1.13,0-2.24-.54-2.94-1.54-1.12-1.62-.71-3.84.91-4.96,3.96-2.73,8.02-5.43,12.08-8,1.66-1.06,3.86-.56,4.92,1.1,1.05,1.66.56,3.86-1.1,4.92-3.98,2.52-7.96,5.16-11.84,7.84-.62.43-1.32.63-2.02.63ZM1576.68,345.26c-.65,0-1.3-.18-1.89-.54-3.99-2.5-8.08-4.95-12.15-7.28-1.71-.98-2.3-3.16-1.32-4.86.98-1.71,3.15-2.3,4.86-1.32,4.16,2.38,8.33,4.88,12.4,7.42,1.67,1.04,2.17,3.24,1.13,4.91-.68,1.08-1.84,1.67-3.02,1.67ZM1214.43,333.12c-1.27,0-2.5-.68-3.14-1.88-.93-1.73-.28-3.9,1.46-4.83,4.24-2.27,8.58-4.49,12.91-6.6,1.77-.86,3.9-.12,4.76,1.65.86,1.77.12,3.9-1.65,4.76-4.24,2.06-8.5,4.24-12.65,6.47-.54.29-1.11.42-1.68.42ZM1541.17,325.71c-.52,0-1.04-.11-1.54-.35-4.24-2.03-8.57-4-12.88-5.86-1.81-.78-2.64-2.88-1.86-4.68.78-1.81,2.88-2.64,4.68-1.86,4.39,1.89,8.81,3.91,13.14,5.98,1.77.85,2.52,2.98,1.67,4.75-.61,1.28-1.89,2.02-3.22,2.02ZM1251.25,315.96c-1.42,0-2.76-.85-3.31-2.25-.73-1.83.16-3.9,1.99-4.63,4.47-1.78,9.04-3.5,13.58-5.1,1.86-.66,3.89.32,4.55,2.17.66,1.86-.32,3.89-2.17,4.55-4.45,1.57-8.93,3.25-13.31,5-.43.17-.88.25-1.32.25ZM1503.72,310.29c-.39,0-.78-.06-1.17-.2-4.45-1.54-8.98-3.02-13.49-4.38-1.88-.57-2.95-2.56-2.38-4.44.57-1.88,2.56-2.95,4.44-2.38,4.6,1.39,9.23,2.9,13.76,4.47,1.86.65,2.84,2.68,2.2,4.54-.51,1.47-1.89,2.4-3.37,2.4ZM1289.77,303.08c-1.57,0-3-1.04-3.44-2.63-.52-1.9.6-3.86,2.5-4.38,4.63-1.26,9.35-2.45,14.03-3.53,1.91-.44,3.83.76,4.27,2.67.44,1.92-.76,3.83-2.67,4.27-4.59,1.06-9.22,2.22-13.76,3.46-.31.09-.63.13-.94.13ZM1464.7,299.17c-.26,0-.52-.03-.78-.09-4.6-1.03-9.28-1.99-13.9-2.83-1.94-.35-3.22-2.21-2.86-4.15.35-1.94,2.21-3.22,4.15-2.86,4.72.86,9.49,1.83,14.18,2.89,1.92.43,3.13,2.34,2.7,4.26-.37,1.66-1.84,2.78-3.47,2.78ZM1329.45,294.64c-1.73,0-3.25-1.26-3.52-3.02-.3-1.95,1.03-3.77,2.98-4.07,4.74-.73,9.56-1.38,14.34-1.92,1.96-.23,3.72,1.18,3.95,3.14.22,1.96-1.18,3.72-3.14,3.95-4.68.53-9.41,1.17-14.06,1.89-.18.03-.37.04-.55.04ZM1424.68,292.52c-.13,0-.26,0-.39-.02-4.68-.51-9.43-.93-14.13-1.26-1.96-.14-3.45-1.84-3.31-3.8.14-1.96,1.84-3.44,3.8-3.31,4.79.33,9.64.76,14.41,1.28,1.96.21,3.37,1.97,3.16,3.93-.2,1.83-1.74,3.18-3.54,3.18ZM1369.83,290.7c-1.9,0-3.48-1.5-3.56-3.42-.08-1.97,1.45-3.63,3.41-3.71,4.79-.2,9.65-.31,14.46-.32h0c1.96,0,3.56,1.59,3.56,3.56,0,1.97-1.59,3.57-3.56,3.57-4.72.01-9.49.12-14.18.31-.05,0-.1,0-.15,0Z"/>
        <path class="cls-6" d="M1385.1,1065.03h-.21c-1.97,0-3.56-1.6-3.56-3.56s1.6-3.56,3.56-3.56h.21c4.65,0,9.35-.08,13.98-.23,1.98-.06,3.62,1.48,3.68,3.44.07,1.97-1.48,3.62-3.44,3.68-4.71.16-9.49.24-14.22.24ZM1358.67,1064.2c-.08,0-.15,0-.23,0-4.79-.3-9.63-.69-14.38-1.16-1.96-.19-3.39-1.93-3.2-3.89.19-1.96,1.93-3.39,3.89-3.2,4.68.46,9.43.84,14.14,1.14,1.96.12,3.46,1.82,3.33,3.78-.12,1.89-1.69,3.34-3.55,3.34ZM1425.36,1063.1c-1.81,0-3.36-1.38-3.54-3.22-.19-1.96,1.25-3.7,3.2-3.89,4.67-.45,9.42-.99,14.09-1.61,1.96-.25,3.74,1.12,4,3.07.26,1.95-1.12,3.74-3.07,4-4.76.63-9.58,1.18-14.34,1.64-.12.01-.23.02-.35.02ZM1318.4,1059.68c-.19,0-.38-.01-.58-.05-4.73-.77-9.51-1.63-14.2-2.56-1.93-.38-3.19-2.26-2.8-4.19.38-1.93,2.26-3.19,4.19-2.8,4.61.91,9.31,1.76,13.96,2.52,1.94.32,3.26,2.15,2.95,4.09-.28,1.75-1.8,2.99-3.51,2.99ZM1465.46,1057.22c-1.67,0-3.16-1.18-3.49-2.88-.38-1.93.88-3.81,2.81-4.19,4.62-.91,9.28-1.91,13.87-2.99,1.92-.45,3.83.74,4.28,2.66.45,1.92-.74,3.83-2.66,4.28-4.67,1.09-9.41,2.11-14.11,3.04-.23.05-.46.07-.69.07ZM1278.77,1051.22c-.3,0-.61-.04-.92-.12-4.62-1.23-9.29-2.55-13.88-3.95-1.88-.57-2.95-2.56-2.38-4.45.57-1.88,2.56-2.95,4.45-2.38,4.52,1.37,9.11,2.68,13.64,3.88,1.9.51,3.04,2.46,2.53,4.36-.42,1.6-1.87,2.65-3.44,2.65ZM1504.78,1047.43c-1.53,0-2.94-.99-3.41-2.53-.57-1.88.5-3.87,2.38-4.44,4.52-1.37,9.08-2.83,13.55-4.36,1.86-.63,3.89.36,4.52,2.22.64,1.86-.36,3.89-2.22,4.52-4.55,1.55-9.18,3.04-13.79,4.43-.34.1-.69.15-1.03.15ZM1240.16,1038.89c-.42,0-.84-.07-1.25-.23-4.47-1.68-8.98-3.45-13.38-5.28-1.82-.75-2.68-2.84-1.93-4.66.75-1.82,2.84-2.68,4.66-1.93,4.33,1.8,8.76,3.54,13.15,5.19,1.84.69,2.78,2.75,2.09,4.59-.54,1.43-1.89,2.31-3.34,2.31ZM1543.03,1033.77c-1.4,0-2.73-.83-3.29-2.2-.75-1.82.11-3.9,1.93-4.66,4.36-1.81,8.75-3.71,13.04-5.67,1.79-.82,3.9-.03,4.72,1.77.82,1.79.03,3.91-1.77,4.72-4.37,1.99-8.83,3.93-13.27,5.77-.45.18-.91.27-1.36.27ZM1203.03,1022.85c-.53,0-1.06-.12-1.57-.37-4.27-2.1-8.58-4.31-12.81-6.58-1.74-.93-2.39-3.09-1.46-4.82.93-1.74,3.09-2.39,4.82-1.46,4.15,2.23,8.39,4.4,12.59,6.46,1.77.87,2.49,3,1.63,4.77-.62,1.26-1.89,1.99-3.2,1.99ZM1579.73,1016.4c-1.27,0-2.5-.68-3.15-1.88-.93-1.74-.27-3.9,1.46-4.82,4.16-2.23,8.33-4.55,12.41-6.92,1.7-.99,3.88-.41,4.87,1.29.99,1.7.41,3.88-1.29,4.87-4.15,2.41-8.39,4.78-12.62,7.04-.54.29-1.11.42-1.68.42ZM1167.63,1003.22c-.64,0-1.29-.17-1.88-.54-4.06-2.52-8.14-5.15-12.11-7.81-1.64-1.09-2.07-3.31-.98-4.94,1.09-1.64,3.31-2.07,4.94-.98,3.91,2.61,7.91,5.2,11.91,7.68,1.67,1.04,2.19,3.23,1.15,4.91-.67,1.09-1.84,1.69-3.03,1.69ZM1614.51,995.52c-1.15,0-2.28-.55-2.97-1.58-1.1-1.64-.66-3.85.98-4.94,3.92-2.62,7.85-5.35,11.66-8.1,1.6-1.15,3.82-.79,4.98.81,1.15,1.6.79,3.82-.81,4.97-3.88,2.8-7.88,5.57-11.87,8.24-.61.41-1.3.6-1.98.6ZM1134.3,980.22c-.76,0-1.52-.24-2.16-.73-3.79-2.9-7.59-5.91-11.3-8.96-1.52-1.25-1.74-3.5-.49-5.02,1.25-1.52,3.5-1.74,5.02-.49,3.64,2.99,7.38,5.96,11.11,8.81,1.56,1.2,1.86,3.43.67,5-.7.92-1.76,1.4-2.83,1.4ZM1647.07,971.35c-1.03,0-2.05-.44-2.76-1.3-1.25-1.52-1.03-3.77.49-5.02,3.64-2.99,7.28-6.08,10.81-9.19,1.48-1.3,3.73-1.16,5.03.32s1.16,3.73-.32,5.03c-3.6,3.17-7.3,6.31-11,9.35-.66.54-1.46.81-2.26.81ZM1103.37,954.06c-.87,0-1.74-.32-2.43-.96-3.5-3.26-6.99-6.63-10.38-10.02-1.39-1.39-1.39-3.65,0-5.04,1.39-1.39,3.65-1.39,5.04,0,3.33,3.33,6.77,6.65,10.2,9.85,1.44,1.34,1.52,3.6.18,5.04-.7.75-1.65,1.13-2.61,1.13ZM1677.11,944.12c-.91,0-1.82-.35-2.52-1.04-1.39-1.39-1.39-3.65,0-5.04,3.33-3.33,6.64-6.76,9.86-10.2,1.34-1.44,3.6-1.51,5.04-.17,1.44,1.34,1.52,3.6.17,5.04-3.27,3.5-6.64,6.99-10.03,10.38-.7.7-1.61,1.04-2.52,1.04ZM1075.12,925c-.99,0-1.97-.41-2.68-1.21-3.17-3.6-6.32-7.29-9.36-10.99-1.25-1.52-1.03-3.77.49-5.02,1.52-1.25,3.77-1.03,5.02.49,2.99,3.64,6.08,7.27,9.2,10.81,1.3,1.48,1.16,3.73-.32,5.03-.68.6-1.52.89-2.36.89ZM1704.34,914.12c-.8,0-1.6-.27-2.26-.81-1.52-1.25-1.74-3.5-.49-5.02,2.98-3.62,5.94-7.36,8.81-11.1,1.2-1.56,3.43-1.86,5-.66,1.56,1.2,1.86,3.43.66,5-2.92,3.81-5.94,7.61-8.97,11.3-.7.86-1.73,1.3-2.76,1.3ZM1049.83,893.31c-1.11,0-2.2-.51-2.89-1.48-2.8-3.88-5.57-7.87-8.25-11.86-1.1-1.64-.66-3.85.98-4.95,1.64-1.09,3.85-.66,4.94.98,2.63,3.92,5.35,7.85,8.11,11.66,1.15,1.6.79,3.82-.81,4.98-.63.46-1.36.67-2.08.67ZM1728.5,881.61c-.68,0-1.37-.2-1.98-.6-1.64-1.1-2.07-3.31-.98-4.95,2.61-3.9,5.2-7.9,7.68-11.9,1.04-1.67,3.24-2.19,4.91-1.15,1.67,1.04,2.19,3.24,1.15,4.91-2.53,4.07-5.16,8.15-7.81,12.11-.69,1.03-1.82,1.58-2.96,1.58ZM1027.74,859.28c-1.23,0-2.42-.63-3.08-1.77-2.41-4.14-4.78-8.39-7.05-12.62-.93-1.74-.28-3.9,1.46-4.83,1.73-.93,3.9-.28,4.82,1.46,2.23,4.16,4.56,8.33,6.93,12.41.99,1.7.41,3.88-1.29,4.87-.56.33-1.18.48-1.79.48ZM1749.36,846.91c-.57,0-1.15-.14-1.68-.42-1.73-.93-2.39-3.09-1.46-4.83,2.22-4.13,4.39-8.37,6.47-12.59.87-1.76,3.01-2.49,4.77-1.62,1.77.87,2.49,3.01,1.62,4.77-2.12,4.29-4.33,8.6-6.59,12.81-.64,1.2-1.87,1.88-3.14,1.88ZM1009.1,823.24c-1.35,0-2.65-.77-3.24-2.09-1.99-4.36-3.93-8.82-5.78-13.26-.75-1.82.11-3.9,1.93-4.66,1.82-.75,3.9.11,4.66,1.93,1.81,4.36,3.72,8.75,5.68,13.04.82,1.79.03,3.9-1.76,4.72-.48.22-.98.32-1.48.32ZM1766.71,810.36c-.46,0-.92-.09-1.37-.27-1.82-.75-2.68-2.84-1.92-4.66,1.8-4.34,3.55-8.76,5.2-13.15.69-1.84,2.74-2.78,4.59-2.08,1.84.69,2.78,2.75,2.08,4.59-1.68,4.47-3.46,8.97-5.29,13.38-.57,1.37-1.9,2.2-3.29,2.2ZM994.09,785.51c-1.48,0-2.87-.93-3.37-2.41-1.55-4.55-3.05-9.18-4.44-13.78-.57-1.88.49-3.87,2.38-4.44,1.88-.57,3.87.49,4.44,2.38,1.37,4.52,2.84,9.08,4.36,13.55.64,1.86-.36,3.89-2.22,4.52-.38.13-.77.19-1.15.19ZM1780.38,772.25c-.34,0-.69-.05-1.04-.15-1.88-.57-2.95-2.56-2.37-4.45,1.37-4.5,2.68-9.09,3.89-13.64.51-1.9,2.46-3.03,4.36-2.53,1.9.51,3.03,2.46,2.53,4.36-1.23,4.63-2.56,9.3-3.96,13.88-.47,1.54-1.88,2.53-3.41,2.53ZM982.89,746.52c-1.62,0-3.08-1.11-3.47-2.75-1.09-4.66-2.12-9.41-3.05-14.11-.38-1.93.87-3.81,2.81-4.19,1.93-.38,3.81.87,4.19,2.81.91,4.62,1.92,9.29,2.99,13.87.45,1.92-.74,3.83-2.66,4.28-.27.06-.55.09-.82.09ZM1790.24,732.95c-.23,0-.46-.02-.7-.07-1.93-.38-3.18-2.26-2.8-4.19.92-4.62,1.77-9.32,2.52-13.96.32-1.94,2.14-3.26,4.09-2.95,1.94.32,3.26,2.15,2.95,4.09-.77,4.72-1.63,9.5-2.57,14.2-.34,1.7-1.83,2.87-3.49,2.87ZM975.6,706.65c-1.76,0-3.29-1.3-3.53-3.1-.63-4.74-1.18-9.56-1.65-14.34-.19-1.96,1.24-3.7,3.2-3.89,1.95-.2,3.7,1.24,3.89,3.2.46,4.69,1,9.43,1.62,14.09.26,1.95-1.11,3.74-3.07,4-.16.02-.32.03-.47.03ZM1796.18,692.86c-.12,0-.23,0-.35-.02-1.96-.19-3.39-1.94-3.2-3.9.46-4.68.85-9.44,1.14-14.14.13-1.96,1.83-3.45,3.78-3.33,1.96.12,3.46,1.82,3.33,3.78-.3,4.78-.7,9.62-1.16,14.38-.18,1.84-1.73,3.22-3.54,3.22ZM972.26,666.26c-1.91,0-3.49-1.52-3.56-3.44-.16-4.78-.25-9.63-.25-14.43v-.84c0-1.97,1.6-3.56,3.57-3.56h0c1.97,0,3.56,1.6,3.56,3.57v.83c0,4.71.08,9.48.24,14.18.07,1.97-1.47,3.62-3.44,3.68-.04,0-.08,0-.12,0ZM1798.17,652.38c-1.97,0-3.56-1.6-3.56-3.56v-.41c0-4.59-.08-9.23-.23-13.78-.06-1.97,1.48-3.62,3.44-3.68,1.98-.04,3.62,1.48,3.68,3.44.15,4.63.23,9.35.23,14.01v.42c0,1.97-1.6,3.56-3.56,3.56ZM972.9,624.9c-.08,0-.15,0-.23,0-1.96-.13-3.45-1.82-3.33-3.79.31-4.78.71-9.62,1.18-14.38.19-1.96,1.95-3.38,3.9-3.19,1.96.19,3.39,1.94,3.19,3.9-.47,4.69-.85,9.44-1.16,14.14-.12,1.89-1.69,3.33-3.55,3.33ZM1796.25,611.9c-1.81,0-3.37-1.38-3.54-3.22-.45-4.69-.99-9.44-1.6-14.09-.26-1.95,1.12-3.74,3.07-4,1.95-.26,3.74,1.12,4,3.07.62,4.74,1.17,9.56,1.63,14.34.19,1.96-1.25,3.7-3.21,3.89-.12.01-.23.02-.35.02ZM977.48,584.64c-.19,0-.39-.02-.58-.05-1.94-.32-3.26-2.15-2.94-4.09.78-4.73,1.64-9.51,2.58-14.2.39-1.93,2.27-3.18,4.19-2.8,1.93.39,3.18,2.26,2.8,4.19-.92,4.61-1.78,9.31-2.54,13.96-.29,1.75-1.8,2.99-3.51,2.99ZM1790.4,571.8c-1.67,0-3.16-1.18-3.49-2.88-.91-4.63-1.91-9.29-2.98-13.87-.45-1.92.75-3.83,2.66-4.28,1.92-.45,3.83.75,4.28,2.66,1.09,4.66,2.11,9.41,3.03,14.11.38,1.93-.88,3.81-2.81,4.19-.23.05-.46.07-.69.07ZM986,545.02c-.3,0-.61-.04-.92-.12-1.9-.51-3.03-2.46-2.52-4.36,1.24-4.62,2.57-9.29,3.97-13.88.57-1.88,2.57-2.94,4.45-2.37,1.88.57,2.94,2.57,2.37,4.45-1.37,4.51-2.69,9.09-3.9,13.64-.43,1.59-1.87,2.64-3.44,2.64ZM1780.63,532.47c-1.53,0-2.95-.99-3.41-2.54-1.36-4.52-2.83-9.08-4.35-13.55-.63-1.86.36-3.89,2.23-4.52,1.87-.63,3.89.36,4.52,2.23,1.55,4.55,3.04,9.19,4.43,13.79.57,1.88-.5,3.87-2.38,4.44-.34.1-.69.15-1.03.15ZM998.38,506.44c-.42,0-.84-.07-1.26-.23-1.84-.69-2.77-2.75-2.08-4.59,1.68-4.47,3.47-8.97,5.3-13.38.76-1.82,2.85-2.67,4.66-1.92,1.82.76,2.68,2.84,1.92,4.66-1.8,4.33-3.56,8.75-5.21,13.15-.54,1.43-1.9,2.31-3.34,2.31ZM1766.99,494.22c-1.4,0-2.73-.83-3.3-2.2-1.8-4.36-3.71-8.75-5.66-13.04-.82-1.79-.02-3.91,1.77-4.72,1.79-.82,3.9-.02,4.72,1.77,1.99,4.37,3.93,8.83,5.76,13.27.75,1.82-.11,3.9-1.93,4.66-.45.18-.91.27-1.36.27ZM1014.48,469.33c-.53,0-1.07-.12-1.58-.37-1.76-.87-2.49-3.01-1.62-4.77,2.12-4.29,4.34-8.59,6.6-12.8.93-1.73,3.09-2.38,4.83-1.45,1.73.93,2.38,3.09,1.45,4.83-2.22,4.14-4.41,8.37-6.49,12.58-.62,1.26-1.88,1.99-3.2,1.99ZM1749.64,457.52c-1.27,0-2.5-.68-3.15-1.88-2.22-4.15-4.55-8.33-6.91-12.41-.99-1.7-.41-3.88,1.29-4.87,1.7-.99,3.88-.41,4.87,1.29,2.41,4.15,4.78,8.4,7.04,12.63.93,1.74.27,3.9-1.46,4.82-.54.29-1.11.42-1.68.42ZM1034.16,433.96c-.64,0-1.29-.17-1.88-.54-1.67-1.04-2.18-3.24-1.14-4.91,2.52-4.06,5.16-8.13,7.83-12.1,1.1-1.63,3.31-2.07,4.95-.97,1.63,1.1,2.07,3.31.97,4.95-2.62,3.91-5.21,7.91-7.69,11.89-.68,1.08-1.84,1.68-3.03,1.68ZM1728.78,422.72c-1.15,0-2.28-.56-2.97-1.58-2.62-3.92-5.35-7.85-8.09-11.67-1.15-1.6-.79-3.82.81-4.98,1.6-1.15,3.82-.79,4.97.81,2.8,3.88,5.57,7.88,8.23,11.87,1.09,1.64.65,3.85-.98,4.94-.61.41-1.3.6-1.98.6ZM1057.22,400.67c-.76,0-1.52-.24-2.17-.74-1.56-1.2-1.86-3.44-.66-5,2.92-3.8,5.94-7.6,8.98-11.29,1.25-1.52,3.5-1.74,5.02-.48,1.52,1.25,1.74,3.5.48,5.02-2.99,3.63-5.96,7.36-8.82,11.1-.7.91-1.76,1.39-2.83,1.39ZM1704.62,390.15c-1.03,0-2.05-.44-2.76-1.3-2.99-3.64-6.08-7.28-9.19-10.82-1.3-1.48-1.16-3.73.32-5.03,1.48-1.3,3.73-1.16,5.03.32,3.17,3.6,6.31,7.3,9.35,11,1.25,1.52,1.03,3.77-.5,5.02-.66.54-1.46.81-2.26.81ZM1083.42,369.77c-.87,0-1.75-.32-2.43-.96-1.44-1.34-1.51-3.6-.17-5.04,3.27-3.5,6.65-6.98,10.04-10.36,1.39-1.39,3.65-1.39,5.04,0,1.39,1.39,1.39,3.65,0,5.04-3.33,3.32-6.65,6.75-9.87,10.19-.7.75-1.65,1.13-2.6,1.13ZM1677.41,360.09c-.91,0-1.83-.35-2.52-1.05-3.33-3.33-6.75-6.65-10.19-9.86-1.44-1.34-1.51-3.6-.17-5.04,1.34-1.44,3.6-1.51,5.04-.17,3.5,3.27,6.99,6.65,10.37,10.04,1.39,1.39,1.39,3.65,0,5.04-.7.69-1.61,1.04-2.52,1.04ZM1112.53,341.57c-.99,0-1.97-.41-2.68-1.21-1.3-1.48-1.15-3.73.32-5.03,3.6-3.17,7.31-6.31,11.01-9.34,1.52-1.25,3.77-1.02,5.02.5,1.25,1.52,1.02,3.77-.5,5.02-3.64,2.98-7.28,6.07-10.82,9.18-.68.59-1.52.89-2.35.89ZM1647.41,332.85c-.8,0-1.6-.27-2.26-.81-3.63-2.99-7.36-5.95-11.1-8.82-1.56-1.2-1.86-3.44-.66-5,1.2-1.56,3.44-1.86,5-.66,3.8,2.91,7.6,5.93,11.29,8.97,1.52,1.25,1.74,3.5.49,5.02-.7.86-1.73,1.3-2.75,1.3ZM1144.26,316.32c-1.11,0-2.2-.52-2.9-1.48-1.15-1.6-.78-3.83.81-4.97,3.89-2.8,7.89-5.57,11.88-8.23,1.64-1.09,3.85-.65,4.94.99,1.09,1.64.65,3.85-.99,4.94-3.92,2.61-7.84,5.34-11.67,8.09-.63.45-1.36.67-2.08.67ZM1614.92,308.67c-.68,0-1.37-.2-1.98-.6-3.9-2.61-7.9-5.2-11.9-7.69-1.67-1.04-2.18-3.24-1.14-4.91,1.04-1.67,3.24-2.19,4.91-1.14,4.07,2.53,8.14,5.16,12.11,7.82,1.63,1.1,2.07,3.31.97,4.95-.69,1.03-1.81,1.58-2.96,1.58ZM1178.32,294.29c-1.23,0-2.43-.64-3.09-1.78-.99-1.7-.41-3.88,1.3-4.87,4.15-2.4,8.4-4.77,12.63-7.03,1.74-.93,3.9-.27,4.82,1.47.93,1.74.27,3.9-1.47,4.82-4.16,2.22-8.34,4.55-12.42,6.91-.56.33-1.18.48-1.78.48ZM1580.23,287.79c-.57,0-1.15-.14-1.68-.42-4.14-2.22-8.38-4.4-12.58-6.48-1.77-.87-2.49-3.01-1.62-4.77.87-1.77,3.01-2.49,4.77-1.62,4.28,2.11,8.59,4.33,12.8,6.59,1.73.93,2.39,3.09,1.45,4.83-.64,1.2-1.87,1.88-3.14,1.88ZM1214.39,275.7c-1.35,0-2.65-.78-3.25-2.09-.81-1.79-.02-3.91,1.77-4.72,4.37-1.99,8.84-3.92,13.27-5.75,1.82-.75,3.9.12,4.65,1.93.75,1.82-.11,3.9-1.93,4.65-4.36,1.8-8.75,3.7-13.05,5.66-.48.22-.98.32-1.47.32ZM1543.69,270.42c-.46,0-.92-.09-1.37-.27-4.33-1.8-8.75-3.55-13.15-5.2-1.84-.69-2.77-2.75-2.08-4.59.69-1.84,2.75-2.77,4.59-2.08,4.47,1.68,8.97,3.46,13.38,5.3,1.82.76,2.68,2.84,1.92,4.66-.57,1.37-1.9,2.2-3.29,2.2ZM1252.14,260.75c-1.48,0-2.87-.94-3.37-2.42-.63-1.86.36-3.89,2.23-4.52,4.55-1.55,9.19-3.03,13.79-4.42,1.89-.57,3.87.5,4.44,2.38.57,1.88-.5,3.87-2.38,4.44-4.52,1.36-9.08,2.82-13.55,4.34-.38.13-.77.19-1.15.19ZM1505.59,256.73c-.34,0-.69-.05-1.04-.16-4.5-1.37-9.09-2.68-13.64-3.89-1.9-.51-3.03-2.46-2.53-4.36s2.46-3.03,4.36-2.53c4.63,1.23,9.3,2.57,13.88,3.96,1.88.57,2.94,2.56,2.37,4.45-.47,1.54-1.88,2.53-3.41,2.53ZM1291.15,249.61c-1.62,0-3.09-1.11-3.47-2.76-.45-1.92.75-3.83,2.66-4.28,4.67-1.08,9.42-2.1,14.11-3.02,1.93-.38,3.8.88,4.18,2.81.38,1.93-.88,3.8-2.81,4.18-4.62.91-9.28,1.91-13.87,2.97-.27.06-.54.09-.81.09ZM1466.29,246.86c-.23,0-.47-.02-.7-.07-4.61-.92-9.31-1.77-13.96-2.53-1.94-.32-3.26-2.15-2.94-4.09s2.15-3.26,4.09-2.94c4.73.77,9.51,1.64,14.2,2.57,1.93.38,3.18,2.26,2.8,4.19-.34,1.7-1.83,2.87-3.49,2.87ZM1331.02,242.39c-1.76,0-3.3-1.31-3.53-3.1-.25-1.95,1.12-3.74,3.07-4,4.75-.62,9.58-1.17,14.34-1.62,1.96-.19,3.7,1.25,3.89,3.21s-1.25,3.7-3.21,3.89c-4.68.45-9.42.98-14.1,1.6-.16.02-.31.03-.47.03ZM1426.21,240.9c-.12,0-.24,0-.35-.02-4.68-.46-9.44-.85-14.14-1.15-1.96-.13-3.45-1.82-3.33-3.79.13-1.96,1.8-3.46,3.79-3.33,4.78.31,9.62.7,14.38,1.17,1.96.19,3.39,1.94,3.2,3.9-.18,1.84-1.73,3.21-3.54,3.21ZM1371.42,239.1c-1.92,0-3.5-1.52-3.56-3.45-.06-1.97,1.48-3.61,3.45-3.68,4.56-.15,9.21-.22,13.79-.22h.64c1.97,0,3.56,1.6,3.56,3.57,0,1.97-1.6,3.56-3.56,3.56h-.63c-4.51,0-9.08.07-13.56.22-.04,0-.08,0-.12,0Z"/>
      </g>
      <g>
        <g>
          <path class="cls-9" d="M92.12,1541.83c.38.91,1.26,1.46,2.18,1.46.3,0,.61-.06.9-.18,1.21-.5,1.78-1.88,1.28-3.08-1.25-3.04-2.74-6.01-4.4-8.85-.66-1.12-2.11-1.5-3.23-.84-1.12.66-1.5,2.11-.84,3.23,1.56,2.65,2.94,5.43,4.11,8.26Z"/>
          <path class="cls-9" d="M70.74,1514.15c2.45,1.85,4.78,3.89,6.95,6.07.46.46,1.07.69,1.67.69s1.21-.23,1.67-.69c.92-.92.93-2.42,0-3.34-2.32-2.32-4.82-4.51-7.44-6.49-1.04-.79-2.52-.58-3.31.46-.79,1.04-.58,2.52.45,3.31Z"/>
          <path class="cls-9" d="M94.25,1596.08c.93,0,1.8-.55,2.18-1.46,1.26-3.04,2.32-6.19,3.15-9.36.33-1.26-.43-2.55-1.69-2.88-1.26-.33-2.55.43-2.88,1.69-.77,2.97-1.76,5.91-2.94,8.74-.5,1.2.07,2.59,1.27,3.09.3.12.6.18.91.18Z"/>
          <path class="cls-9" d="M47.38,1502.8c2.97.77,5.91,1.76,8.74,2.94.3.12.6.18.91.18.93,0,1.8-.55,2.18-1.46.5-1.2-.07-2.59-1.27-3.09-3.03-1.26-6.18-2.32-9.36-3.15-1.26-.33-2.55.43-2.88,1.69-.33,1.26.43,2.55,1.69,2.88Z"/>
          <path class="cls-9" d="M96.53,1558.12c.41,3.01.62,6.08.62,9.14v.07c0,1.3,1.06,2.33,2.36,2.33s2.36-1.09,2.36-2.4c0-3.27-.22-6.56-.67-9.78-.18-1.29-1.37-2.19-2.66-2.02-1.29.18-2.2,1.37-2.02,2.66Z"/>
          <path class="cls-9" d="M21.11,1501.29c.11,0,.21,0,.32-.02,3-.41,6.06-.62,9.1-.62h.11c1.3,0,2.36-1.06,2.36-2.36s-1.06-2.36-2.36-2.36h-.11c-3.26,0-6.53.22-9.74.66-1.29.18-2.2,1.37-2.02,2.66.16,1.18,1.17,2.04,2.34,2.04Z"/>
          <path class="cls-9" d="M6.42,1502.58c-.5-1.21-1.88-1.78-3.08-1.28-1.12.46-2.23.97-3.34,1.49v5.27c1.68-.87,3.4-1.68,5.14-2.39,1.21-.5,1.78-1.88,1.28-3.08Z"/>
        </g>
        <g>
          <path class="cls-9" d="M101.86,1496.13c.46.46,1.07.69,1.67.69s1.21-.23,1.67-.69c.92-.92.93-2.42,0-3.34-2.28-2.29-4.7-4.5-7.19-6.57-1-.84-2.49-.7-3.33.3-.84,1-.7,2.49.3,3.33,2.37,1.98,4.68,4.09,6.87,6.28Z"/>
          <path class="cls-9" d="M127.9,1541.3c.28,1.06,1.24,1.75,2.28,1.75.2,0,.41-.03.61-.08,1.26-.33,2.01-1.63,1.68-2.89-.83-3.13-1.82-6.25-2.94-9.29-.45-1.22-1.81-1.85-3.03-1.4-1.22.45-1.85,1.81-1.4,3.03,1.07,2.9,2.01,5.88,2.81,8.87Z"/>
          <path class="cls-9" d="M117.86,1517c.44.76,1.23,1.18,2.05,1.18.4,0,.81-.1,1.18-.32,1.13-.65,1.52-2.1.87-3.23-1.62-2.8-3.38-5.56-5.25-8.2-.75-1.07-2.23-1.32-3.29-.57-1.06.75-1.32,2.23-.56,3.29,1.79,2.53,3.47,5.16,5.02,7.84Z"/>
          <path class="cls-9" d="M130.86,1558.08c.27,3.03.41,6.12.41,9.18v.12c0,1.3,1.06,2.36,2.36,2.36s2.36-1.06,2.36-2.36v-.12c0-3.21-.15-6.44-.43-9.61-.12-1.3-1.26-2.24-2.56-2.14-1.3.12-2.26,1.27-2.14,2.57Z"/>
          <path class="cls-9" d="M72.79,1475.79c2.8,1.29,5.58,2.74,8.25,4.29.37.22.78.32,1.18.32.81,0,1.61-.42,2.05-1.18.65-1.13.27-2.57-.86-3.23-2.8-1.63-5.71-3.14-8.64-4.49-1.18-.55-2.59-.03-3.13,1.15-.55,1.18-.03,2.59,1.15,3.13Z"/>
          <path class="cls-9" d="M130.12,1596.41c1.04,0,2-.7,2.28-1.75.84-3.12,1.54-6.32,2.08-9.51.22-1.29-.64-2.51-1.93-2.73-1.28-.22-2.51.64-2.73,1.93-.52,3.04-1.19,6.1-1.99,9.08-.34,1.26.41,2.56,1.67,2.89.21.05.41.08.61.08Z"/>
          <path class="cls-9" d="M47.69,1467.98c3.04.52,6.1,1.19,9.08,2,.21.05.41.08.62.08,1.04,0,2-.69,2.28-1.75.34-1.26-.41-2.56-1.67-2.89-3.12-.84-6.33-1.54-9.51-2.09-1.28-.21-2.51.64-2.73,1.93-.22,1.29.64,2.51,1.93,2.73Z"/>
          <path class="cls-9" d="M21.2,1466.94c.07,0,.14,0,.21,0,3.01-.27,6.08-.41,9.09-.41h.21c1.3,0,2.36-1.06,2.36-2.36s-1.06-2.36-2.36-2.36h-.17c-3.19,0-6.4.14-9.55.43-1.3.12-2.26,1.26-2.14,2.56.11,1.23,1.14,2.15,2.35,2.15Z"/>
          <path class="cls-9" d="M6.31,1467c-.33-1.26-1.63-2.01-2.89-1.68-1.14.3-2.28.63-3.42.98v4.94c1.54-.49,3.08-.94,4.63-1.35,1.26-.33,2.01-1.63,1.68-2.89Z"/>
        </g>
        <g>
          <path class="cls-9" d="M142.79,1492.48c.46.68,1.2,1.05,1.97,1.05.45,0,.91-.13,1.31-.4,1.08-.72,1.38-2.19.65-3.28-1.78-2.66-3.68-5.31-5.64-7.85-.8-1.03-2.28-1.22-3.31-.43-1.03.8-1.22,2.28-.43,3.31,1.9,2.46,3.74,5.02,5.46,7.59Z"/>
          <path class="cls-9" d="M155.24,1515.81c.38.91,1.26,1.46,2.18,1.46.3,0,.61-.06.9-.18,1.21-.5,1.78-1.88,1.28-3.08-1.22-2.96-2.57-5.93-4.01-8.81-.58-1.17-2-1.65-3.17-1.06-1.17.58-1.64,2-1.06,3.17,1.38,2.79,2.69,5.65,3.87,8.51Z"/>
          <path class="cls-9" d="M126.03,1472.03c.46.46,1.07.69,1.67.69s1.21-.23,1.67-.69c.92-.92.93-2.42,0-3.34-2.27-2.28-4.64-4.5-7.06-6.61-.98-.86-2.47-.76-3.33.23-.86.98-.76,2.47.23,3.33,2.33,2.04,4.63,4.19,6.82,6.38Z"/>
          <path class="cls-9" d="M97.7,1450.29c2.69,1.55,5.36,3.21,7.93,4.94.4.27.86.4,1.31.4.76,0,1.51-.37,1.96-1.04.73-1.08.44-2.55-.64-3.28-2.66-1.79-5.42-3.5-8.2-5.11-1.13-.65-2.57-.26-3.23.87-.65,1.13-.26,2.58.87,3.23Z"/>
          <path class="cls-9" d="M165.12,1596.56c1.1,0,2.09-.78,2.31-1.9.63-3.14,1.15-6.35,1.56-9.54.17-1.29-.75-2.48-2.04-2.64-1.3-.16-2.48.75-2.64,2.04-.39,3.08-.9,6.18-1.5,9.22-.25,1.28.58,2.52,1.86,2.78.16.03.31.05.46.05Z"/>
          <path class="cls-9" d="M162.87,1541.12c.22,1.13,1.21,1.91,2.31,1.91.15,0,.3-.01.46-.04,1.28-.25,2.11-1.49,1.86-2.77-.62-3.15-1.36-6.32-2.19-9.42-.34-1.26-1.63-2-2.9-1.67-1.26.34-2,1.64-1.67,2.9.81,2.99,1.52,6.05,2.12,9.1Z"/>
          <path class="cls-9" d="M73.63,1439.43c2.94.99,5.88,2.1,8.73,3.29.3.12.6.18.91.18.93,0,1.8-.55,2.18-1.45.5-1.2-.07-2.59-1.27-3.09-2.95-1.23-5.99-2.37-9.04-3.4-1.24-.42-2.58.25-2.99,1.48-.42,1.24.25,2.58,1.48,2.99Z"/>
          <path class="cls-9" d="M165.09,1558.1c.2,3.03.31,6.11.31,9.16v.18c0,1.3,1.06,2.36,2.36,2.36s2.36-1.06,2.36-2.36v-.18c0-3.15-.11-6.34-.32-9.48-.09-1.3-1.22-2.3-2.51-2.2-1.3.09-2.29,1.21-2.2,2.51Z"/>
          <path class="cls-9" d="M47.88,1433.5c3.07.39,6.17.9,9.22,1.51.16.03.31.05.46.05,1.1,0,2.09-.78,2.31-1.9.26-1.28-.57-2.52-1.85-2.78-3.15-.63-6.36-1.15-9.54-1.56-1.3-.17-2.48.75-2.64,2.04-.17,1.29.75,2.48,2.04,2.64Z"/>
          <path class="cls-9" d="M21.3,1432.71c.05,0,.11,0,.16,0,3-.2,6.05-.3,9.08-.3h.27c1.3,0,2.36-1.06,2.36-2.36s-1.06-2.36-2.36-2.36h-.27c-3.13,0-6.29.11-9.39.31-1.3.09-2.29,1.21-2.2,2.51.08,1.25,1.12,2.21,2.35,2.21Z"/>
          <path class="cls-9" d="M6.35,1432.14c-.25-1.28-1.5-2.11-2.77-1.87-1.19.23-2.39.5-3.58.77v4.83c1.49-.35,2.99-.67,4.49-.96,1.28-.25,2.11-1.49,1.86-2.77Z"/>
        </g>
        <g>
          <path class="cls-9" d="M181.23,1490.7c.42.82,1.25,1.29,2.11,1.29.36,0,.73-.08,1.07-.26,1.16-.59,1.62-2.01,1.03-3.18-1.45-2.85-3-5.7-4.61-8.46-.66-1.13-2.1-1.51-3.23-.86-1.13.66-1.51,2.1-.85,3.23,1.56,2.69,3.07,5.46,4.48,8.23Z"/>
          <path class="cls-9" d="M150.16,1447.9c.46.46,1.07.69,1.67.69s1.21-.23,1.67-.69c.92-.92.92-2.42,0-3.34-2.26-2.26-4.6-4.49-6.98-6.62-.97-.87-2.46-.79-3.34.18-.87.97-.79,2.46.18,3.34,2.31,2.08,4.6,4.25,6.8,6.44Z"/>
          <path class="cls-9" d="M167.37,1468.08c.46.64,1.18.97,1.91.97.48,0,.97-.15,1.39-.45,1.06-.77,1.29-2.24.52-3.3-1.88-2.59-3.86-5.16-5.87-7.63-.82-1.01-2.31-1.16-3.32-.34-1.01.82-1.16,2.31-.34,3.32,1.96,2.41,3.88,4.9,5.71,7.43Z"/>
          <path class="cls-9" d="M99.02,1412.72c2.84,1.26,5.68,2.61,8.44,4.03.34.18.71.26,1.07.26.86,0,1.69-.47,2.1-1.29.59-1.16.13-2.58-1.03-3.18-2.84-1.45-5.76-2.85-8.67-4.14-1.19-.53-2.59,0-3.12,1.2-.53,1.19,0,2.59,1.2,3.12Z"/>
          <path class="cls-9" d="M74.02,1403.92c3,.8,6.02,1.69,8.98,2.65.24.08.49.12.73.12.99,0,1.92-.63,2.25-1.63.4-1.24-.27-2.57-1.51-2.98-3.04-.99-6.15-1.91-9.23-2.73-1.26-.33-2.55.42-2.89,1.68-.33,1.26.42,2.55,1.68,2.89Z"/>
          <path class="cls-9" d="M195.8,1531.79c.65,3.03,1.22,6.13,1.7,9.21.18,1.17,1.19,2,2.33,2,.12,0,.24,0,.37-.03,1.29-.2,2.17-1.41,1.97-2.7-.49-3.16-1.08-6.35-1.75-9.47-.27-1.28-1.53-2.09-2.8-1.82-1.28.27-2.09,1.53-1.82,2.8Z"/>
          <path class="cls-9" d="M199.78,1596.6c1.14,0,2.15-.83,2.33-1.99.5-3.15.92-6.37,1.24-9.55.13-1.3-.81-2.46-2.11-2.59-1.29-.15-2.46.81-2.59,2.11-.31,3.1-.72,6.22-1.21,9.29-.2,1.29.68,2.5,1.96,2.7.12.02.25.03.37.03Z"/>
          <path class="cls-9" d="M199.28,1558.07c.16,3.04.25,6.13.25,9.19v.18c0,1.3,1.06,2.36,2.36,2.36s2.36-1.06,2.36-2.36v-.18c0-3.14-.08-6.32-.25-9.44-.07-1.3-1.18-2.29-2.48-2.23-1.3.07-2.3,1.18-2.23,2.49Z"/>
          <path class="cls-9" d="M47.94,1399.16c3.09.32,6.22.72,9.29,1.21.12.02.25.03.37.03,1.14,0,2.15-.83,2.33-1.99.2-1.29-.67-2.5-1.96-2.7-3.16-.5-6.37-.92-9.54-1.24-1.3-.13-2.46.81-2.59,2.11-.13,1.3.81,2.46,2.11,2.59Z"/>
          <path class="cls-9" d="M191.36,1515.21c.32,1,1.25,1.64,2.25,1.64.24,0,.49-.04.73-.12,1.24-.4,1.92-1.73,1.52-2.97-.99-3.05-2.07-6.11-3.22-9.09-.47-1.22-1.84-1.82-3.05-1.35-1.22.47-1.82,1.84-1.35,3.05,1.12,2.9,2.18,5.88,3.14,8.84Z"/>
          <path class="cls-9" d="M122.32,1425.34c2.6,1.69,5.2,3.47,7.71,5.3.42.31.91.45,1.39.45.73,0,1.45-.34,1.91-.97.77-1.05.54-2.53-.52-3.3-2.58-1.88-5.25-3.72-7.92-5.45-1.09-.71-2.56-.4-3.27.7-.71,1.09-.4,2.56.7,3.27Z"/>
          <path class="cls-9" d="M21.31,1398.52s.08,0,.13,0c3.01-.16,6.07-.24,9.1-.24h.27c1.3,0,2.36-1.06,2.36-2.36s-1.06-2.36-2.36-2.36h-.27c-3.11,0-6.26.08-9.35.25-1.3.07-2.3,1.18-2.23,2.48.07,1.26,1.11,2.24,2.36,2.24Z"/>
          <path class="cls-9" d="M6.34,1397.59c-.2-1.29-1.41-2.16-2.7-1.97-1.21.19-2.42.4-3.64.62v4.79c1.46-.27,2.91-.52,4.36-.74,1.29-.2,2.17-1.41,1.97-2.7Z"/>
        </g>
        <g>
          <path class="cls-9" d="M146.85,1400.73c2.55,1.78,5.09,3.65,7.55,5.55.43.33.94.49,1.44.49.71,0,1.41-.32,1.87-.92.8-1.03.6-2.52-.43-3.31-2.52-1.94-5.12-3.85-7.73-5.68-1.07-.75-2.54-.49-3.29.58-.75,1.07-.49,2.54.58,3.29Z"/>
          <path class="cls-9" d="M206.61,1465.92c.44.76,1.23,1.18,2.05,1.18.4,0,.81-.1,1.18-.32,1.13-.65,1.52-2.1.87-3.23-1.59-2.77-3.27-5.53-4.99-8.21-.7-1.1-2.17-1.42-3.26-.72-1.1.7-1.42,2.16-.72,3.26,1.68,2.62,3.32,5.32,4.88,8.02Z"/>
          <path class="cls-9" d="M74.36,1368.89c3.03.67,6.09,1.41,9.11,2.23.21.05.41.08.62.08,1.04,0,2-.69,2.28-1.75.34-1.26-.41-2.55-1.67-2.89-3.09-.83-6.23-1.6-9.32-2.28-1.27-.28-2.53.53-2.81,1.8-.28,1.27.53,2.53,1.8,2.81Z"/>
          <path class="cls-9" d="M174.35,1423.82c.46.46,1.07.69,1.67.69s1.21-.23,1.67-.69c.92-.92.93-2.42,0-3.34-2.25-2.26-4.58-4.49-6.93-6.64-.96-.88-2.46-.81-3.34.15-.88.96-.81,2.46.15,3.34,2.29,2.1,4.57,4.28,6.78,6.49Z"/>
          <path class="cls-9" d="M124.15,1386.96c2.76,1.44,5.52,2.96,8.21,4.51.37.22.78.32,1.18.32.81,0,1.61-.42,2.04-1.18.66-1.13.27-2.57-.86-3.23-2.75-1.59-5.57-3.15-8.4-4.62-1.16-.6-2.58-.15-3.19,1-.6,1.16-.15,2.58,1,3.18Z"/>
          <path class="cls-9" d="M99.87,1376.29c2.93,1.06,5.86,2.21,8.72,3.4.3.12.6.18.91.18.92,0,1.8-.55,2.18-1.45.5-1.2-.07-2.59-1.27-3.09-2.92-1.22-5.92-2.39-8.92-3.48-1.23-.44-2.58.19-3.03,1.41-.45,1.23.19,2.58,1.41,3.03Z"/>
          <path class="cls-9" d="M191.85,1443.82c.46.61,1.17.93,1.88.93.5,0,1.01-.16,1.44-.49,1.04-.79,1.23-2.28.44-3.31-1.94-2.53-3.96-5.05-6.02-7.49-.84-1-2.33-1.12-3.33-.29-1,.84-1.13,2.33-.29,3.33,2.01,2.38,3.99,4.85,5.88,7.32Z"/>
          <path class="cls-9" d="M234.25,1596.7c1.17,0,2.18-.87,2.34-2.05.42-3.15.76-6.36,1.03-9.54.11-1.3-.85-2.44-2.15-2.55-1.3-.11-2.44.85-2.55,2.15-.26,3.11-.6,6.24-1.01,9.33-.17,1.29.74,2.48,2.03,2.65.1.01.21.02.31.02Z"/>
          <path class="cls-9" d="M233.45,1558.14c.13,3.02.2,6.09.2,9.11v.27c0,1.3,1.06,2.36,2.36,2.36s2.36-1.06,2.36-2.36v-.26c0-3.1-.07-6.24-.21-9.33-.06-1.3-1.16-2.35-2.46-2.25-1.3.06-2.31,1.16-2.25,2.46Z"/>
          <path class="cls-9" d="M226.85,1514.95c.28,1.06,1.24,1.76,2.28,1.76.2,0,.4-.03.61-.08,1.26-.33,2.01-1.63,1.68-2.89-.82-3.09-1.72-6.19-2.68-9.22-.39-1.24-1.72-1.93-2.96-1.54-1.24.39-1.93,1.72-1.54,2.96.94,2.96,1.82,5.99,2.62,9Z"/>
          <path class="cls-9" d="M230.56,1531.74c.54,3.05,1.02,6.17,1.42,9.27.15,1.19,1.17,2.06,2.34,2.06.1,0,.2,0,.31-.02,1.29-.17,2.21-1.35,2.04-2.64-.41-3.17-.9-6.36-1.45-9.49-.23-1.28-1.45-2.14-2.74-1.92-1.28.23-2.14,1.45-1.92,2.74Z"/>
          <path class="cls-9" d="M218.35,1489.78c.38.91,1.26,1.46,2.18,1.46.3,0,.61-.06.9-.18,1.21-.5,1.78-1.88,1.28-3.08-1.22-2.96-2.53-5.92-3.88-8.8-.55-1.18-1.96-1.69-3.14-1.14-1.18.55-1.69,1.96-1.14,3.14,1.32,2.82,2.6,5.71,3.79,8.6Z"/>
          <path class="cls-9" d="M48.1,1364.9c3.11.27,6.25.61,9.33,1.02.1.01.21.02.31.02,1.17,0,2.18-.86,2.34-2.05.17-1.29-.74-2.48-2.03-2.65-3.15-.42-6.36-.77-9.54-1.04-1.29-.12-2.44.85-2.55,2.15-.11,1.3.85,2.44,2.15,2.56Z"/>
          <path class="cls-9" d="M6.46,1363.17c-.17-1.29-1.35-2.21-2.64-2.04-1.27.16-2.54.35-3.81.53v4.77c1.47-.22,2.95-.43,4.41-.62,1.29-.17,2.21-1.35,2.04-2.64Z"/>
          <path class="cls-9" d="M21.44,1364.35s.07,0,.1,0c2.98-.13,6-.2,8.99-.2h.39c1.3,0,2.36-1.06,2.36-2.36s-1.06-2.36-2.36-2.36h-.39c-3.06,0-6.16.07-9.2.2-1.3.06-2.31,1.16-2.26,2.46.06,1.27,1.1,2.26,2.36,2.26Z"/>
        </g>
        <g>
          <path class="cls-9" d="M74.54,1334.09c3.07.58,6.17,1.22,9.19,1.92.18.04.35.06.53.06,1.08,0,2.05-.74,2.3-1.83.29-1.27-.5-2.54-1.77-2.83-3.09-.71-6.24-1.36-9.38-1.95-1.28-.24-2.52.6-2.76,1.89-.24,1.28.6,2.52,1.89,2.76Z"/>
          <path class="cls-9" d="M198.48,1399.69c.46.46,1.07.69,1.67.69s1.21-.23,1.67-.69c.92-.92.93-2.42,0-3.34-2.25-2.25-4.57-4.49-6.9-6.65-.96-.89-2.45-.83-3.34.13-.89.96-.83,2.45.13,3.34,2.28,2.11,4.56,4.31,6.76,6.52Z"/>
          <path class="cls-9" d="M231.59,1441.26c.45.71,1.22,1.11,2,1.11.43,0,.86-.12,1.25-.36,1.1-.69,1.44-2.15.74-3.26-1.69-2.69-3.46-5.39-5.26-8.02-.74-1.08-2.21-1.35-3.28-.62-1.08.74-1.35,2.21-.62,3.28,1.76,2.58,3.5,5.22,5.16,7.86Z"/>
          <path class="cls-9" d="M216.19,1419.55c.47.58,1.15.89,1.85.89.52,0,1.04-.17,1.47-.51,1.02-.81,1.19-2.3.38-3.32-1.98-2.49-4.04-4.97-6.12-7.38-.85-.99-2.34-1.1-3.33-.25-.99.85-1.1,2.34-.24,3.33,2.04,2.36,4.05,4.79,6,7.23Z"/>
          <path class="cls-9" d="M100.36,1340.46c2.97.91,5.98,1.9,8.92,2.94.26.09.52.13.78.13.97,0,1.89-.61,2.23-1.58.43-1.23-.21-2.58-1.44-3.01-3-1.06-6.06-2.06-9.1-3-1.25-.38-2.57.32-2.95,1.56-.38,1.25.32,2.57,1.56,2.95Z"/>
          <path class="cls-9" d="M125.28,1349.7c2.85,1.24,5.72,2.56,8.51,3.92.33.16.68.24,1.03.24.88,0,1.72-.49,2.13-1.33.57-1.17.08-2.59-1.1-3.16-2.85-1.38-5.77-2.72-8.68-3.99-1.2-.52-2.59.03-3.11,1.22-.52,1.2.03,2.59,1.22,3.11Z"/>
          <path class="cls-9" d="M148.99,1361.66c2.7,1.56,5.4,3.19,8.03,4.85.39.25.83.37,1.26.37.78,0,1.55-.39,2-1.1.7-1.1.37-2.56-.74-3.26-2.68-1.69-5.43-3.36-8.19-4.95-1.13-.65-2.57-.27-3.23.86-.65,1.13-.27,2.57.86,3.23Z"/>
          <path class="cls-9" d="M171.23,1376.22c2.51,1.85,5.01,3.77,7.44,5.72.44.35.96.52,1.47.52.69,0,1.38-.3,1.85-.89.82-1.02.65-2.5-.37-3.32-2.48-1.99-5.03-3.95-7.59-5.83-1.05-.77-2.53-.55-3.3.5-.77,1.05-.55,2.53.5,3.3Z"/>
          <path class="cls-9" d="M268.63,1596.73c1.19,0,2.21-.89,2.34-2.1.35-3.15.65-6.36.88-9.54.09-1.3-.88-2.43-2.18-2.53-1.3-.12-2.43.88-2.53,2.18-.23,3.11-.52,6.26-.87,9.35-.15,1.3.79,2.47,2.08,2.61.09.01.18.02.27.02Z"/>
          <path class="cls-9" d="M267.61,1558.15c.11,3.02.17,6.08.17,9.11v.29c0,1.3,1.06,2.36,2.36,2.36s2.36-1.06,2.36-2.36v-.29c0-3.09-.06-6.21-.17-9.29-.05-1.3-1.12-2.31-2.45-2.27-1.3.05-2.32,1.15-2.27,2.45Z"/>
          <path class="cls-9" d="M254.63,1489.19c.34.97,1.25,1.58,2.23,1.58.26,0,.52-.04.78-.13,1.23-.43,1.88-1.78,1.45-3.01-1.05-3-2.17-6.04-3.34-9.01-.48-1.21-1.85-1.81-3.06-1.33-1.21.48-1.81,1.85-1.33,3.06,1.15,2.91,2.25,5.88,3.27,8.83Z"/>
          <path class="cls-9" d="M265.13,1531.67c.46,3.08.87,6.21,1.21,9.31.13,1.21,1.16,2.1,2.34,2.1.09,0,.17,0,.26-.01,1.3-.14,2.23-1.31,2.09-2.61-.35-3.17-.77-6.36-1.24-9.5-.19-1.29-1.4-2.18-2.69-1.98-1.29.19-2.18,1.4-1.98,2.69Z"/>
          <path class="cls-9" d="M244.46,1464.57c.41.85,1.25,1.34,2.13,1.34.34,0,.69-.08,1.02-.23,1.18-.57,1.67-1.98,1.1-3.15-1.38-2.87-2.84-5.75-4.33-8.56-.61-1.15-2.04-1.59-3.19-.98-1.15.61-1.59,2.04-.98,3.19,1.46,2.75,2.89,5.58,4.25,8.4Z"/>
          <path class="cls-9" d="M261.95,1514.76c.25,1.1,1.22,1.84,2.3,1.84.17,0,.35-.02.52-.06,1.27-.29,2.07-1.55,1.78-2.82-.7-3.11-1.47-6.23-2.3-9.3-.34-1.26-1.63-2-2.89-1.67-1.26.34-2.01,1.63-1.67,2.89.81,3.01,1.56,6.07,2.25,9.12Z"/>
          <path class="cls-9" d="M48.17,1330.67c3.11.23,6.26.52,9.35.87.09.01.18.02.27.02,1.19,0,2.21-.89,2.34-2.1.15-1.3-.78-2.47-2.08-2.61-3.15-.36-6.36-.66-9.54-.89-1.29-.09-2.43.88-2.53,2.18s.88,2.43,2.18,2.53Z"/>
          <path class="cls-9" d="M6.49,1328.84c-.14-1.3-1.3-2.24-2.6-2.09-1.29.14-2.59.3-3.89.47v4.76c1.47-.19,2.94-.37,4.4-.53,1.3-.14,2.23-1.31,2.09-2.6Z"/>
          <path class="cls-9" d="M21.48,1330.19s.06,0,.09,0c2.98-.11,6-.17,8.97-.17h.43c1.3,0,2.36-1.06,2.36-2.36s-1.06-2.36-2.36-2.36h-.43c-3.03,0-6.1.06-9.14.17-1.3.05-2.32,1.14-2.27,2.45.05,1.27,1.09,2.27,2.36,2.27Z"/>
        </g>
        <g>
          <path class="cls-9" d="M222.57,1375.52c.46.46,1.07.69,1.67.69s1.21-.23,1.67-.69c.92-.92.92-2.42,0-3.34-2.25-2.25-4.56-4.49-6.87-6.65-.95-.89-2.45-.84-3.34.11-.89.95-.84,2.45.11,3.34,2.27,2.12,4.55,4.32,6.75,6.54Z"/>
          <path class="cls-9" d="M195.51,1351.78c2.48,1.9,4.95,3.87,7.35,5.84.44.36.97.54,1.5.54.68,0,1.36-.29,1.83-.86.83-1.01.68-2.5-.32-3.32-2.45-2.01-4.96-4.01-7.48-5.95-1.03-.79-2.52-.6-3.31.44-.79,1.04-.6,2.52.44,3.31Z"/>
          <path class="cls-9" d="M173.63,1336.64c2.65,1.65,5.3,3.36,7.89,5.09.4.27.86.4,1.31.4.76,0,1.51-.37,1.96-1.05.73-1.08.44-2.55-.65-3.28-2.63-1.76-5.33-3.51-8.02-5.18-1.11-.69-2.56-.35-3.25.76-.69,1.11-.35,2.56.76,3.25Z"/>
          <path class="cls-9" d="M256.32,1416.67c.46.68,1.2,1.05,1.97,1.05.45,0,.91-.13,1.31-.4,1.08-.73,1.38-2.19.65-3.28-1.76-2.64-3.6-5.28-5.46-7.87-.76-1.06-2.24-1.3-3.3-.54-1.06.76-1.3,2.24-.54,3.3,1.83,2.54,3.63,5.14,5.36,7.73Z"/>
          <path class="cls-9" d="M74.63,1299.46c3.07.5,6.18,1.07,9.25,1.68.16.03.31.05.46.05,1.1,0,2.09-.78,2.31-1.9.25-1.28-.58-2.52-1.85-2.78-3.12-.62-6.29-1.2-9.41-1.71-1.29-.22-2.5.66-2.71,1.95-.21,1.29.66,2.5,1.95,2.71Z"/>
          <path class="cls-9" d="M150.39,1323.73c2.78,1.37,5.59,2.82,8.34,4.29.36.19.74.28,1.12.28.84,0,1.66-.45,2.08-1.25.62-1.15.19-2.58-.96-3.2-2.8-1.5-5.65-2.97-8.48-4.37-1.17-.58-2.59-.1-3.16,1.07-.58,1.17-.1,2.59,1.07,3.16Z"/>
          <path class="cls-9" d="M100.66,1305.04c3.01.8,6.05,1.67,9.04,2.58.23.07.46.1.69.1,1.01,0,1.95-.66,2.26-1.67.38-1.25-.32-2.57-1.57-2.95-3.04-.92-6.13-1.81-9.2-2.63-1.26-.34-2.55.41-2.89,1.67-.34,1.26.41,2.55,1.67,2.89Z"/>
          <path class="cls-9" d="M126.01,1313.16c2.91,1.09,5.84,2.25,8.71,3.45.3.12.6.18.91.18.93,0,1.8-.55,2.18-1.46.5-1.2-.07-2.59-1.27-3.09-2.92-1.22-5.91-2.4-8.87-3.51-1.22-.46-2.58.16-3.04,1.38s.16,2.58,1.38,3.04Z"/>
          <path class="cls-9" d="M302.94,1596.73c1.2,0,2.23-.91,2.35-2.13.31-3.16.57-6.37.77-9.53.08-1.3-.91-2.42-2.21-2.51-1.3-.06-2.42.91-2.51,2.21-.2,3.11-.45,6.26-.76,9.37-.13,1.3.82,2.45,2.12,2.58.08,0,.16.01.23.01Z"/>
          <path class="cls-9" d="M301.75,1558.14c.1,3.03.15,6.1.15,9.11v.29c0,1.3,1.06,2.36,2.36,2.36s2.36-1.06,2.36-2.36v-.28c0-3.08-.05-6.2-.15-9.28-.04-1.3-1.14-2.3-2.44-2.28-1.3.04-2.33,1.13-2.28,2.44Z"/>
          <path class="cls-9" d="M48.18,1296.46c3.11.2,6.27.46,9.37.76.08,0,.16.01.23.01,1.2,0,2.23-.91,2.35-2.13.13-1.3-.82-2.46-2.12-2.58-3.16-.31-6.36-.57-9.53-.78-1.29-.06-2.42.9-2.51,2.21s.9,2.42,2.21,2.51Z"/>
          <path class="cls-9" d="M299.58,1531.6c.41,3.1.76,6.24,1.06,9.34.12,1.22,1.15,2.14,2.35,2.14.08,0,.15,0,.23-.01,1.3-.12,2.25-1.28,2.12-2.58-.3-3.16-.67-6.35-1.08-9.5-.17-1.29-1.35-2.2-2.65-2.04-1.29.17-2.2,1.36-2.03,2.65Z"/>
          <path class="cls-9" d="M270.02,1439.52c.43.8,1.24,1.25,2.08,1.25.38,0,.76-.09,1.11-.28,1.15-.62,1.58-2.05.97-3.2-1.5-2.8-3.06-5.61-4.66-8.37-.65-1.13-2.1-1.51-3.23-.86-1.13.65-1.51,2.1-.86,3.23,1.57,2.71,3.11,5.47,4.58,8.23Z"/>
          <path class="cls-9" d="M294.82,1505.41c.71,3.04,1.37,6.13,1.97,9.19.22,1.13,1.21,1.91,2.31,1.91.15,0,.3-.01.46-.04,1.28-.25,2.11-1.49,1.86-2.77-.61-3.12-1.29-6.26-2.01-9.35-.3-1.27-1.56-2.06-2.84-1.76-1.27.3-2.06,1.57-1.76,2.84Z"/>
          <path class="cls-9" d="M281.42,1463.63c.38.91,1.26,1.46,2.18,1.46.3,0,.61-.06.9-.18,1.21-.5,1.78-1.88,1.28-3.08-1.21-2.93-2.5-5.89-3.82-8.79-.54-1.19-1.94-1.71-3.13-1.17-1.19.54-1.71,1.94-1.17,3.13,1.3,2.85,2.56,5.76,3.75,8.64Z"/>
          <path class="cls-9" d="M290.38,1488.76c.31,1.02,1.25,1.68,2.26,1.68.23,0,.46-.03.68-.1,1.25-.38,1.96-1.69,1.58-2.94-.92-3.05-1.91-6.12-2.93-9.14-.42-1.23-1.76-1.89-3-1.48-1.23.42-1.9,1.76-1.48,3,1.01,2.96,1.98,5.98,2.88,8.98Z"/>
          <path class="cls-9" d="M240.45,1395.27c.47.57,1.14.86,1.83.86.53,0,1.06-.18,1.5-.54,1.01-.83,1.16-2.32.33-3.32-2.01-2.45-4.1-4.9-6.19-7.29-.86-.98-2.35-1.08-3.33-.21-.98.86-1.08,2.35-.21,3.33,2.06,2.35,4.11,4.76,6.09,7.17Z"/>
          <path class="cls-9" d="M3.9,1292.44c-1.3.12-2.6.26-3.9.41v4.75c1.45-.16,2.91-.32,4.35-.45,1.3-.12,2.25-1.28,2.13-2.58-.12-1.3-1.27-2.24-2.58-2.13Z"/>
          <path class="cls-9" d="M21.47,1296.04s.05,0,.08,0c2.99-.1,6.01-.15,8.97-.15h.43c1.3,0,2.36-1.06,2.36-2.36s-1.06-2.36-2.36-2.36h-.42c-3.02,0-6.1.05-9.14.15-1.3.04-2.33,1.13-2.28,2.44.04,1.28,1.09,2.29,2.36,2.29Z"/>
        </g>
      </g>
      <g>
        <ellipse class="cls-4" cx="1810.11" cy="1180.16" rx="207.6" ry="209.69"/>
        <g>
          <path class="cls-5" d="M1958.35,1027.3l-89.47-39.93c15.89,2.93,31.69,7.77,47.11,14.65,15.41,6.88,29.57,15.4,42.36,25.28Z"/>
          <path class="cls-5" d="M1999.47,1069.72l-189.63-84.63c10.91-1.15,21.96-1.44,33.04-.83l135.14,60.31c7.85,7.84,15.02,16.25,21.44,25.14Z"/>
          <path class="cls-5" d="M2018.85,1102.45l-246.32-109.92c7.49-2.22,15.12-4.02,22.84-5.39l212.24,94.72c4.14,6.66,7.89,13.53,11.24,20.6Z"/>
          <path class="cls-5" d="M2030.09,1131.53l-286.7-127.95c5.93-2.78,11.99-5.27,18.16-7.47l261.98,116.91c2.48,6.06,4.67,12.23,6.57,18.5Z"/>
          <path class="cls-5" d="M2036.3,1158.38l-317.06-141.49c4.92-3.16,9.97-6.1,15.13-8.82l298.39,133.16c1.42,5.66,2.6,11.38,3.54,17.15Z"/>
          <path class="cls-5" d="M2038.84,1183.59l-340.05-151.75c4.16-3.46,8.46-6.74,12.86-9.84l325.92,145.45c.63,5.35,1.06,10.73,1.26,16.14Z"/>
          <path class="cls-5" d="M2038.39,1207.46l-357.07-159.35c3.54-3.71,7.2-7.27,10.99-10.67l346.69,154.72c-.01,5.09-.21,10.2-.61,15.31Z"/>
          <path class="cls-5" d="M2035.37,1230.18l-368.94-164.65c2.99-3.93,6.11-7.73,9.36-11.4l361.82,161.47c-.57,4.86-1.31,9.72-2.24,14.58Z"/>
          <path class="cls-5" d="M2030.01,1251.86l-376.14-167.86c2.5-4.14,5.12-8.16,7.87-12.06l372,166.01c-1.07,4.65-2.31,9.29-3.72,13.91Z"/>
          <path class="cls-5" d="M2022.48,1272.58l-378.99-169.13c2.03-4.34,4.19-8.57,6.48-12.69l377.64,168.53c-1.54,4.46-3.24,8.89-5.12,13.3Z"/>
          <path class="cls-5" d="M2019.32,1279.66c-2.03,4.34-4.19,8.57-6.48,12.69l-377.64-168.53c1.54-4.46,3.24-8.89,5.12-13.3l378.99,169.13Z"/>
          <path class="cls-5" d="M2008.93,1299.1c-2.5,4.14-5.12,8.16-7.87,12.06l-372-166.01c1.07-4.65,2.31-9.29,3.72-13.91l376.14,167.86Z"/>
          <path class="cls-5" d="M1996.37,1317.57c-2.99,3.93-6.11,7.73-9.35,11.4l-361.82-161.47c.56-4.86,1.31-9.73,2.24-14.58l368.93,164.64Z"/>
          <path class="cls-5" d="M1981.48,1334.99c-3.54,3.71-7.2,7.27-10.99,10.68l-346.69-154.72c0-5.09.21-10.2.6-15.31l357.07,159.35Z"/>
          <path class="cls-5" d="M1964.01,1351.27c-4.16,3.45-8.45,6.73-12.86,9.84l-325.92-145.45c-.63-5.35-1.06-10.74-1.27-16.14l340.05,151.75Z"/>
          <path class="cls-5" d="M1943.55,1366.22c-4.92,3.16-9.97,6.1-15.13,8.82l-298.39-133.16c-1.42-5.66-2.6-11.38-3.54-17.15l317.06,141.49Z"/>
          <path class="cls-5" d="M1919.42,1379.52c-5.93,2.77-11.99,5.27-18.16,7.47l-261.98-116.91c-2.48-6.06-4.67-12.24-6.57-18.5l286.7,127.95Z"/>
          <path class="cls-5" d="M1890.27,1390.58c-7.49,2.22-15.12,4.02-22.84,5.39l-212.24-94.72c-4.14-6.66-7.89-13.53-11.24-20.6l246.32,109.92Z"/>
          <path class="cls-5" d="M1852.96,1398.01c-10.91,1.15-21.96,1.44-33.04.83l-135.14-60.31c-7.86-7.84-15.02-16.25-21.45-25.15l189.63,84.63Z"/>
          <path class="cls-5" d="M1793.92,1395.74c-15.89-2.93-31.69-7.77-47.1-14.65s-29.57-15.4-42.36-25.28l89.47,39.93Z"/>
        </g>
      </g>
      <polygon class="cls-8" points="471.39 478.62 451.55 459.44 432.98 478.62 413.46 459.44 394.57 478.62 375.37 459.44 356.16 478.62 337.29 459.44 317.75 478.62 299.2 459.44 284.32 473.82 274.79 463.95 299.53 440.05 318 459.15 337.45 440.05 356.25 459.15 375.38 440.05 394.49 459.15 413.3 440.05 432.74 459.15 451.23 440.05 470.98 459.15 489.16 440.05 514.24 463.92 504.79 473.85 489.64 459.44 471.39 478.62"/>
      <polygon class="cls-5" points="2459.26 1141.75 2439.42 1122.57 2420.85 1141.75 2401.34 1122.57 2382.45 1141.75 2363.25 1122.57 2344.04 1141.75 2325.16 1122.57 2305.63 1141.75 2287.07 1122.57 2272.19 1136.95 2262.66 1127.09 2287.4 1103.19 2305.88 1122.28 2325.33 1103.19 2344.12 1122.29 2363.25 1103.19 2382.37 1122.29 2401.18 1103.19 2420.61 1122.29 2439.1 1103.19 2458.86 1122.28 2477.03 1103.18 2502.12 1127.05 2492.66 1136.99 2477.51 1122.57 2459.26 1141.75"/>
      <polygon class="cls-9" points="1737.78 1538.83 1717.94 1519.64 1699.37 1538.82 1679.85 1519.64 1660.96 1538.82 1641.77 1519.64 1622.55 1538.82 1603.68 1519.64 1584.14 1538.82 1565.59 1519.64 1550.71 1534.02 1541.18 1524.16 1565.92 1500.26 1584.39 1519.36 1603.84 1500.26 1622.64 1519.36 1641.77 1500.26 1660.88 1519.36 1679.7 1500.26 1699.13 1519.36 1717.62 1500.26 1737.37 1519.35 1755.55 1500.25 1780.63 1524.12 1771.18 1534.06 1756.03 1519.65 1737.78 1538.83"/>
      <polygon class="cls-9" points="1263.06 137.37 1243.22 118.19 1224.65 137.37 1205.13 118.19 1186.24 137.37 1167.05 118.18 1147.83 137.37 1128.96 118.19 1109.42 137.37 1090.87 118.19 1075.99 132.56 1066.46 122.7 1091.2 98.8 1109.67 117.9 1129.12 98.8 1147.92 117.9 1167.05 98.8 1186.17 117.9 1204.98 98.8 1224.41 117.9 1242.9 98.8 1262.65 117.9 1280.83 98.8 1305.91 122.66 1296.46 132.6 1281.31 118.19 1263.06 137.37"/>
      <polygon class="cls-9" points="733.84 1159.96 714 1140.77 695.43 1159.95 675.91 1140.77 657.02 1159.95 637.82 1140.77 618.61 1159.95 599.73 1140.77 580.2 1159.95 561.65 1140.77 546.76 1155.15 537.23 1145.29 561.97 1121.39 580.45 1140.49 599.9 1121.39 618.7 1140.49 637.83 1121.39 656.94 1140.49 675.75 1121.39 695.19 1140.49 713.68 1121.39 733.43 1140.48 751.6 1121.38 776.69 1145.25 767.23 1155.19 752.09 1140.78 733.84 1159.96"/>
      <polygon class="cls-9" points="2479.42 0 2541.66 35.93 2354.66 359.83 2030.77 172.83 2130.55 0 2119 0 2017.11 176.49 2358.32 373.49 2555.32 32.27 2499.42 0 2479.42 0"/>
      <polygon class="cls-9" points="675.18 1605 778.9 1425.35 1090.06 1605 1110.06 1605 775.24 1411.69 663.64 1605 675.18 1605"/>
      <polygon class="cls-9" points="2562 602.83 2539.64 641.56 2355.51 535.25 2461.82 351.12 2562 408.96 2562 397.42 2458.16 337.46 2341.85 538.92 2543.3 655.22 2562 622.83 2562 602.83"/>
      <polygon class="cls-9" points="0 461.65 0 473.2 145.22 557.04 38.91 741.18 0 718.71 0 730.26 42.57 754.84 158.88 553.38 0 461.65"/>
      <g>
        <path class="cls-8" d="M2257.52,1560.23l25.91-273.34,223.76,159.11-249.67,114.23ZM2291.75,1305.08l-22.64,238.85,218.17-99.82-195.53-139.03Z"/>
        <polygon class="cls-8" points="2338.42 1605 2530.26 1517.23 2320.62 1368.16 2298.17 1605 2338.42 1605"/>
      </g>
      <path class="cls-4" d="M682.71,223.14L703.7,1.67l181.3,128.91-202.29,92.55ZM712.03,19.86l-17.73,186.98,170.79-78.14-153.07-108.84Z"/>
      <g>
        <g>
          <rect class="cls-3" x="112.55" y="68.94" width="49.2" height="8.79"/>
          <rect class="cls-3" x="132.76" y="48.73" width="8.79" height="49.2"/>
        </g>
        <g>
          <rect class="cls-3" x="112.55" y="138.27" width="49.2" height="8.79"/>
          <rect class="cls-3" x="132.76" y="118.06" width="8.79" height="49.2"/>
        </g>
        <g>
          <rect class="cls-3" x="112.55" y="207.61" width="49.2" height="8.79"/>
          <rect class="cls-3" x="132.76" y="187.4" width="8.79" height="49.2"/>
        </g>
        <g>
          <rect class="cls-3" x="112.55" y="276.94" width="49.2" height="8.79"/>
          <rect class="cls-3" x="132.76" y="256.73" width="8.79" height="49.2"/>
        </g>
        <g>
          <rect class="cls-3" x="112.55" y="346.28" width="49.2" height="8.79"/>
          <rect class="cls-3" x="132.76" y="326.07" width="8.79" height="49.2"/>
        </g>
        <g>
          <rect class="cls-3" x="41.35" y="68.94" width="49.2" height="8.79"/>
          <rect class="cls-3" x="61.56" y="48.73" width="8.79" height="49.2"/>
        </g>
        <g>
          <rect class="cls-3" x="41.35" y="138.27" width="49.2" height="8.79"/>
          <rect class="cls-3" x="61.56" y="118.06" width="8.79" height="49.2"/>
        </g>
        <g>
          <rect class="cls-3" x="41.35" y="207.61" width="49.2" height="8.79"/>
          <rect class="cls-3" x="61.56" y="187.4" width="8.79" height="49.2"/>
        </g>
        <g>
          <rect class="cls-3" x="41.35" y="276.94" width="49.2" height="8.79"/>
          <rect class="cls-3" x="61.56" y="256.73" width="8.79" height="49.2"/>
        </g>
        <g>
          <rect class="cls-3" x="41.35" y="346.28" width="49.2" height="8.79"/>
          <rect class="cls-3" x="61.56" y="326.07" width="8.79" height="49.2"/>
        </g>
      </g>
      <g>
        <g>
          <rect class="cls-7" x="1483.72" y="1301.17" width="8.79" height="49.2"/>
          <rect class="cls-7" x="1463.51" y="1321.38" width="49.2" height="8.79"/>
        </g>
        <g>
          <rect class="cls-7" x="1414.38" y="1301.17" width="8.79" height="49.2"/>
          <rect class="cls-7" x="1394.17" y="1321.38" width="49.2" height="8.79"/>
        </g>
        <g>
          <rect class="cls-7" x="1345.05" y="1301.17" width="8.79" height="49.2"/>
          <rect class="cls-7" x="1324.84" y="1321.38" width="49.2" height="8.79"/>
        </g>
        <g>
          <rect class="cls-7" x="1275.71" y="1301.17" width="8.79" height="49.2"/>
          <rect class="cls-7" x="1255.5" y="1321.38" width="49.2" height="8.79"/>
        </g>
        <g>
          <rect class="cls-7" x="1206.38" y="1301.17" width="8.79" height="49.2"/>
          <rect class="cls-7" x="1186.17" y="1321.38" width="49.2" height="8.79"/>
        </g>
      </g>
      <g>
        <rect class="cls-7" x="1977.49" y="958.21" width="137.26" height="24.51" transform="translate(363.19 2485.77) rotate(-67.37)"/>
        <rect class="cls-7" x="2033.86" y="901.84" width="24.51" height="137.26" transform="translate(-164.79 1460.67) rotate(-37.88)"/>
        <rect class="cls-7" x="1977.49" y="958.21" width="137.26" height="24.51"/>
      </g>
      <g>
        <rect class="cls-8" x="321.71" y="117.32" width="137.26" height="24.51" transform="translate(120.58 440.04) rotate(-67.38)"/>
        <rect class="cls-8" x="378.09" y="60.95" width="24.51" height="137.26" transform="translate(2.67 266.95) rotate(-37.88)"/>
        <rect class="cls-8" x="321.71" y="117.32" width="137.26" height="24.51"/>
      </g>
      <g>
        <rect class="cls-7" x="1865.69" y="143.4" width="137.26" height="24.51" transform="translate(1046.53 1881.25) rotate(-67.38)"/>
        <rect class="cls-7" x="1922.06" y="87.03" width="24.51" height="137.26" transform="translate(311.92 1220.38) rotate(-37.88)"/>
        <rect class="cls-7" x="1865.69" y="143.4" width="137.26" height="24.51"/>
      </g>
      <g>
        <rect class="cls-8" x="439.98" y="1442.09" width="137.26" height="24.51" transform="translate(-1029.47 1364.29) rotate(-67.37)"/>
        <rect class="cls-8" x="496.35" y="1385.71" width="24.51" height="137.26" transform="translate(-785.76 618.63) rotate(-37.88)"/>
        <rect class="cls-8" x="439.98" y="1442.09" width="137.26" height="24.51"/>
      </g>
      <g>
        <path class="cls-4" d="M123.72,1232.9l161.72,61.01-133.7,109.55-28.03-170.56ZM273.02,1295.95l-141.32-53.31,24.49,149.04,116.83-95.73Z"/>
        <polygon class="cls-4" points="229.93 1303.03 78.4 1245.87 104.66 1405.67 229.93 1303.03"/>
      </g>
      <g>
        <ellipse class="cls-3" cx="636.29" cy="172.41" rx="127.69" ry="128.98"/>
        <g>
          <path class="cls-1" d="M727.47,78.39l-55.03-24.56c9.77,1.8,19.49,4.78,28.97,9.01s18.19,9.47,26.06,15.55Z"/>
          <path class="cls-1" d="M752.76,104.48l-116.63-52.05c6.71-.71,13.51-.89,20.32-.51l83.12,37.09c4.83,4.82,9.24,10,13.19,15.47Z"/>
          <path class="cls-1" d="M764.68,124.61l-151.5-67.61c4.61-1.37,9.3-2.47,14.05-3.31l130.54,58.26c2.54,4.1,4.85,8.32,6.91,12.67Z"/>
          <path class="cls-1" d="M771.59,142.5l-176.34-78.7c3.65-1.71,7.38-3.24,11.17-4.6l161.13,71.91c1.52,3.73,2.87,7.53,4.04,11.38Z"/>
          <path class="cls-1" d="M775.42,159.01l-195.01-87.03c3.03-1.94,6.13-3.75,9.31-5.43l183.53,81.9c.87,3.48,1.6,7,2.18,10.55Z"/>
          <path class="cls-1" d="M776.97,174.52l-209.15-93.34c2.56-2.13,5.2-4.14,7.91-6.05l200.46,89.46c.39,3.29.65,6.6.78,9.93Z"/>
          <path class="cls-1" d="M776.7,189.2l-219.62-98.01c2.18-2.28,4.43-4.47,6.76-6.57l213.23,95.16c0,3.13-.13,6.27-.37,9.42Z"/>
          <path class="cls-1" d="M774.84,203.17l-226.92-101.27c1.84-2.42,3.76-4.76,5.76-7.01l222.54,99.31c-.35,2.99-.81,5.98-1.38,8.96Z"/>
          <path class="cls-1" d="M771.54,216.51l-231.35-103.25c1.53-2.55,3.15-5.02,4.84-7.42l228.8,102.11c-.66,2.86-1.42,5.72-2.29,8.56Z"/>
          <path class="cls-1" d="M766.91,229.25l-233.11-104.03c1.25-2.67,2.58-5.27,3.98-7.8l232.27,103.66c-.95,2.74-2,5.47-3.15,8.18Z"/>
          <path class="cls-1" d="M764.97,233.61c-1.25,2.67-2.58,5.27-3.98,7.8l-232.27-103.66c.95-2.74,2-5.47,3.15-8.18l233.11,104.03Z"/>
          <path class="cls-1" d="M758.58,245.56c-1.53,2.55-3.15,5.02-4.84,7.42l-228.8-102.11c.66-2.86,1.42-5.72,2.29-8.56l231.35,103.25Z"/>
          <path class="cls-1" d="M750.85,256.92c-1.84,2.42-3.76,4.76-5.75,7.01l-222.54-99.31c.35-2.99.8-5.98,1.38-8.96l226.92,101.27Z"/>
          <path class="cls-1" d="M741.69,267.64c-2.17,2.28-4.43,4.47-6.76,6.57l-213.23-95.16c0-3.13.13-6.28.37-9.42l219.62,98.01Z"/>
          <path class="cls-1" d="M730.95,277.65c-2.56,2.12-5.2,4.14-7.91,6.05l-200.46-89.46c-.39-3.29-.65-6.6-.78-9.93l209.15,93.34Z"/>
          <path class="cls-1" d="M718.37,286.84c-3.03,1.94-6.13,3.75-9.31,5.43l-183.53-81.9c-.87-3.48-1.6-7-2.18-10.55l195.01,87.03Z"/>
          <path class="cls-1" d="M703.52,295.03c-3.65,1.7-7.38,3.24-11.17,4.6l-161.13-71.91c-1.52-3.73-2.87-7.53-4.04-11.38l176.34,78.7Z"/>
          <path class="cls-1" d="M685.59,301.83c-4.61,1.37-9.3,2.47-14.05,3.31l-130.54-58.26c-2.54-4.1-4.85-8.32-6.91-12.67l151.5,67.61Z"/>
          <path class="cls-1" d="M662.65,306.4c-6.71.71-13.51.89-20.32.51l-83.12-37.09c-4.83-4.82-9.24-10-13.19-15.47l116.63,52.05Z"/>
          <path class="cls-1" d="M626.34,305c-9.77-1.8-19.49-4.78-28.97-9.01s-18.19-9.47-26.06-15.55l55.03,24.56Z"/>
        </g>
      </g>
      <g>
        <path class="cls-3" d="M870.53,1299.45h0c0,4.87,3.95,8.82,8.82,8.82h19.86c4.87,0,8.82,3.95,8.82,8.82v.41c0,4.87-3.95,8.82-8.82,8.82h-201.99c-4.87,0-8.82-3.95-8.82-8.82v-.41c0-4.87,3.95-8.82,8.82-8.82h63.45c4.87,0,8.82-3.95,8.82-8.82h0c0-4.87-3.95-8.82-8.82-8.82h-22.39c-4.87,0-8.82-3.95-8.82-8.82v-.41c0-4.87,3.95-8.82,8.82-8.82h201.99c4.87,0,8.82,3.95,8.82,8.82v.41c0,4.87-3.95,8.82-8.82,8.82h-60.92c-4.87,0-8.82,3.95-8.82,8.82Z"/>
        <path class="cls-3" d="M899.21,1326.82h-201.99c-5.14,0-9.32-4.18-9.32-9.32v-.41c0-5.14,4.18-9.32,9.32-9.32h63.45c4.59,0,8.32-3.73,8.32-8.32s-3.73-8.32-8.32-8.32h-22.39c-5.14,0-9.32-4.18-9.32-9.32v-.41c0-5.14,4.18-9.32,9.32-9.32h201.99c5.14,0,9.32,4.18,9.32,9.32v.41c0,5.14-4.18,9.32-9.32,9.32h-60.92c-4.59,0-8.32,3.73-8.32,8.32s3.73,8.32,8.32,8.32h19.86c5.14,0,9.32,4.18,9.32,9.32v.41c0,5.14-4.18,9.32-9.32,9.32ZM697.22,1308.77c-4.59,0-8.32,3.73-8.32,8.32v.41c0,4.59,3.73,8.32,8.32,8.32h201.99c4.59,0,8.32-3.73,8.32-8.32v-.41c0-4.59-3.73-8.32-8.32-8.32h-19.86c-5.14,0-9.32-4.18-9.32-9.32s4.18-9.32,9.32-9.32h60.92c4.59,0,8.32-3.73,8.32-8.32v-.41c0-4.59-3.73-8.32-8.32-8.32h-201.99c-4.59,0-8.32,3.73-8.32,8.32v.41c0,4.59,3.73,8.32,8.32,8.32h22.39c5.14,0,9.32,4.18,9.32,9.32s-4.18,9.32-9.32,9.32h-63.45Z"/>
      </g>
      <g>
        <path class="cls-5" d="M2090.78,443.91h0c0,4.87,3.95,8.82,8.82,8.82h19.86c4.87,0,8.82,3.95,8.82,8.82v.41c0,4.87-3.95,8.82-8.82,8.82h-201.99c-4.87,0-8.82-3.95-8.82-8.82v-.41c0-4.87,3.95-8.82,8.82-8.82h63.45c4.87,0,8.82-3.95,8.82-8.82h0c0-4.87-3.95-8.82-8.82-8.82h-22.39c-4.87,0-8.82-3.95-8.82-8.82v-.41c0-4.87,3.95-8.82,8.82-8.82h201.99c4.87,0,8.82,3.95,8.82,8.82v.41c0,4.87-3.95,8.82-8.82,8.82h-60.92c-4.87,0-8.82,3.95-8.82,8.82Z"/>
        <path class="cls-5" d="M2119.46,471.28h-201.99c-5.14,0-9.32-4.18-9.32-9.32v-.41c0-5.14,4.18-9.32,9.32-9.32h63.45c4.59,0,8.32-3.73,8.32-8.32s-3.73-8.32-8.32-8.32h-22.39c-5.14,0-9.32-4.18-9.32-9.32v-.41c0-5.14,4.18-9.32,9.32-9.32h201.99c5.14,0,9.32,4.18,9.32,9.32v.41c0,5.14-4.18,9.32-9.32,9.32h-60.92c-4.59,0-8.32,3.73-8.32,8.32s3.73,8.32,8.32,8.32h19.86c5.14,0,9.32,4.18,9.32,9.32v.41c0,5.14-4.18,9.32-9.32,9.32ZM1917.47,453.23c-4.59,0-8.32,3.73-8.32,8.32v.41c0,4.59,3.73,8.32,8.32,8.32h201.99c4.59,0,8.32-3.73,8.32-8.32v-.41c0-4.59-3.73-8.32-8.32-8.32h-19.86c-5.14,0-9.32-4.18-9.32-9.32s4.18-9.32,9.32-9.32h60.92c4.59,0,8.32-3.73,8.32-8.32v-.41c0-4.59-3.73-8.32-8.32-8.32h-201.99c-4.59,0-8.32,3.73-8.32,8.32v.41c0,4.59,3.73,8.32,8.32,8.32h22.39c5.14,0,9.32,4.18,9.32,9.32s-4.18,9.32-9.32,9.32h-63.45Z"/>
      </g>
      <path class="cls-4" d="M121.55,1051.51c-22.51,0-40.82-18.31-40.82-40.82s18.31-40.82,40.82-40.82,40.82,18.31,40.82,40.82-18.31,40.82-40.82,40.82ZM121.55,979.88c-16.99,0-30.82,13.83-30.82,30.82s13.83,30.82,30.82,30.82,30.82-13.83,30.82-30.82-13.83-30.82-30.82-30.82Z"/>
      <path class="cls-4" d="M398.83,1122.11c-12.63,0-22.91-10.28-22.91-22.91s10.28-22.91,22.91-22.91,22.91,10.28,22.91,22.91-10.28,22.91-22.91,22.91ZM398.83,1086.29c-7.12,0-12.91,5.79-12.91,12.91s5.79,12.91,12.91,12.91,12.91-5.79,12.91-12.91-5.79-12.91-12.91-12.91Z"/>
      <path class="cls-2" d="M1646.38,183.44c-22.51,0-40.82-18.31-40.82-40.82s18.31-40.82,40.82-40.82,40.82,18.31,40.82,40.82-18.31,40.82-40.82,40.82ZM1646.38,111.81c-16.99,0-30.82,13.83-30.82,30.82s13.83,30.82,30.82,30.82,30.82-13.83,30.82-30.82-13.83-30.82-30.82-30.82Z"/>
      <path class="cls-2" d="M2246.81,585.13c-12.63,0-22.91-10.28-22.91-22.91s10.28-22.91,22.91-22.91,22.91,10.28,22.91,22.91-10.28,22.91-22.91,22.91ZM2246.81,549.31c-7.12,0-12.91,5.79-12.91,12.91s5.79,12.91,12.91,12.91,12.91-5.79,12.91-12.91-5.79-12.91-12.91-12.91Z"/>
      <path class="cls-3" d="M936.29,463.92c-8.18,0-16.44-2.45-23.6-7.54-18.34-13.04-22.66-38.58-9.61-56.92,13.04-18.34,38.58-22.65,56.92-9.61,8.89,6.32,14.78,15.72,16.59,26.47,1.82,10.75-.66,21.57-6.98,30.45-7.95,11.18-20.55,17.15-33.32,17.15ZM936.39,392.31c-9.65,0-19.16,4.5-25.16,12.95-9.85,13.85-6.59,33.13,7.26,42.98,13.85,9.85,33.13,6.59,42.98-7.26,4.77-6.71,6.64-14.87,5.27-22.99s-5.82-15.21-12.53-19.99c-5.41-3.84-11.64-5.69-17.82-5.69Z"/>
      <path class="cls-3" d="M1010.67,525.52c-4.72,0-9.31-1.46-13.23-4.24-4.99-3.55-8.29-8.82-9.31-14.86-1.02-6.03.37-12.1,3.92-17.09,7.32-10.29,21.65-12.71,31.95-5.4,10.29,7.32,12.71,21.65,5.39,31.95-3.55,4.99-8.82,8.29-14.86,9.31-1.29.22-2.58.33-3.86.33ZM1010.73,489.7c-4.04,0-8.02,1.89-10.54,5.42-2,2.81-2.78,6.23-2.21,9.63.57,3.4,2.44,6.37,5.25,8.37,5.8,4.13,13.88,2.76,18-3.04,2-2.81,2.78-6.23,2.21-9.63-.57-3.4-2.44-6.37-5.25-8.37-2.26-1.61-4.88-2.38-7.46-2.38Z"/>
      <path class="cls-2" d="M2016.08,1495.16c-22.51,0-40.82-18.31-40.82-40.82s18.31-40.82,40.82-40.82,40.82,18.31,40.82,40.82-18.31,40.82-40.82,40.82ZM2016.08,1423.52c-16.99,0-30.82,13.83-30.82,30.82s13.83,30.82,30.82,30.82,30.82-13.83,30.82-30.82-13.83-30.82-30.82-30.82Z"/>
      <path class="cls-2" d="M2313.56,824.65c-22.51,0-40.82-18.31-40.82-40.82s18.31-40.82,40.82-40.82,40.82,18.31,40.82,40.82-18.31,40.82-40.82,40.82ZM2313.56,753.01c-16.99,0-30.82,13.83-30.82,30.82s13.83,30.82,30.82,30.82,30.82-13.83,30.82-30.82-13.83-30.82-30.82-30.82Z"/>
      <path class="cls-2" d="M2147.06,1560.34c-12.63,0-22.91-10.28-22.91-22.91s10.28-22.91,22.91-22.91,22.91,10.28,22.91,22.91-10.28,22.91-22.91,22.91ZM2147.06,1524.52c-7.12,0-12.91,5.79-12.91,12.91s5.79,12.91,12.91,12.91,12.91-5.79,12.91-12.91-5.79-12.91-12.91-12.91Z"/>
    </g>
  </g>
</svg>