<?xml version="1.0" encoding="UTF-8"?>
<svg id="Layer_2" data-name="Layer 2" xmlns="http://www.w3.org/2000/svg" viewBox="0 0 273.23 79.64">
  <defs>
    <style>
      .cls-1 {
        fill: #319eff;
      }
    </style>
  </defs>
  <g id="Layer_1-2" data-name="Layer 1">
    <g>
      <g>
        <path d="M0,39C0,15.79,17.46,0,42.04,0v38.69h27.81v26.56c-6.59,6.38-17.46,10.46-29.28,10.46C15.79,75.71,0,61.28,0,39Z"/>
        <path d="M79.47,1.25h12.34c8.68,0,43.29,0,43.29,36.39s-32.1,36.81-39,36.81h-16.63V1.25Z"/>
        <path d="M143.99,1.25h55.94v25.72h-30.22v8.26h24.57v4.81h-24.57v8.68h30.22v25.72h-55.94V1.25Z"/>
        <path d="M208.4,48.73c13.8,0,18.61-3.56,26.35-23.01,6.69-16.84,15.79-24.47,33.04-24.47h3.56v25.62h-.1c-8.16,0-11.08,7.42-15.37,19.24-7.11,19.55-20.18,28.34-40.68,28.34h-6.8v-25.72Z"/>
      </g>
      <g>
        <path class="cls-1" d="M1.87,42.94C1.87,19.72,19.34,3.93,43.91,3.93v38.69h27.81v26.56c-6.59,6.38-17.46,10.46-29.28,10.46-24.78,0-40.57-14.43-40.57-36.7Z"/>
        <path class="cls-1" d="M81.34,5.19h12.34c8.68,0,43.29,0,43.29,36.39s-32.1,36.81-39,36.81h-16.63V5.19Z"/>
        <path class="cls-1" d="M145.86,5.19h55.94v25.72h-30.22v8.26h24.57v4.81h-24.57v8.68h30.22v25.72h-55.94V5.19Z"/>
        <path class="cls-1" d="M210.28,52.66c13.8,0,18.61-3.56,26.35-23.01,6.69-16.84,15.79-24.47,33.04-24.47h3.56v25.62h-.1c-8.16,0-11.08,7.42-15.37,19.24-7.11,19.55-20.18,28.34-40.68,28.34h-6.8v-25.72Z"/>
      </g>
    </g>
  </g>
</svg>